%TF.GenerationSoftware,KiCad,Pcbnew,7.0.8*%
%TF.CreationDate,2024-11-01T20:43:23+00:00*%
%TF.ProjectId,polygonus-Shortage-Version,706f6c79-676f-46e7-9573-2d53686f7274,rev?*%
%TF.SameCoordinates,Original*%
%TF.FileFunction,Paste,Top*%
%TF.FilePolarity,Positive*%
%FSLAX46Y46*%
G04 Gerber Fmt 4.6, Leading zero omitted, Abs format (unit mm)*
G04 Created by KiCad (PCBNEW 7.0.8) date 2024-11-01 20:43:23*
%MOMM*%
%LPD*%
G01*
G04 APERTURE LIST*
G04 Aperture macros list*
%AMRoundRect*
0 Rectangle with rounded corners*
0 $1 Rounding radius*
0 $2 $3 $4 $5 $6 $7 $8 $9 X,Y pos of 4 corners*
0 Add a 4 corners polygon primitive as box body*
4,1,4,$2,$3,$4,$5,$6,$7,$8,$9,$2,$3,0*
0 Add four circle primitives for the rounded corners*
1,1,$1+$1,$2,$3*
1,1,$1+$1,$4,$5*
1,1,$1+$1,$6,$7*
1,1,$1+$1,$8,$9*
0 Add four rect primitives between the rounded corners*
20,1,$1+$1,$2,$3,$4,$5,0*
20,1,$1+$1,$4,$5,$6,$7,0*
20,1,$1+$1,$6,$7,$8,$9,0*
20,1,$1+$1,$8,$9,$2,$3,0*%
%AMRotRect*
0 Rectangle, with rotation*
0 The origin of the aperture is its center*
0 $1 length*
0 $2 width*
0 $3 Rotation angle, in degrees counterclockwise*
0 Add horizontal line*
21,1,$1,$2,0,0,$3*%
G04 Aperture macros list end*
%ADD10RoundRect,0.225000X0.250000X-0.225000X0.250000X0.225000X-0.250000X0.225000X-0.250000X-0.225000X0*%
%ADD11RoundRect,0.135000X-0.135000X-0.185000X0.135000X-0.185000X0.135000X0.185000X-0.135000X0.185000X0*%
%ADD12RoundRect,0.135000X0.226274X0.035355X0.035355X0.226274X-0.226274X-0.035355X-0.035355X-0.226274X0*%
%ADD13RoundRect,0.100000X0.100000X-0.637500X0.100000X0.637500X-0.100000X0.637500X-0.100000X-0.637500X0*%
%ADD14RoundRect,0.100000X0.637500X0.100000X-0.637500X0.100000X-0.637500X-0.100000X0.637500X-0.100000X0*%
%ADD15R,0.650000X1.310000*%
%ADD16R,0.600000X1.310000*%
%ADD17R,0.900000X0.795000*%
%ADD18RoundRect,0.225000X-0.250000X0.225000X-0.250000X-0.225000X0.250000X-0.225000X0.250000X0.225000X0*%
%ADD19RoundRect,0.135000X-0.226274X-0.035355X-0.035355X-0.226274X0.226274X0.035355X0.035355X0.226274X0*%
%ADD20RoundRect,0.225000X-0.225000X-0.250000X0.225000X-0.250000X0.225000X0.250000X-0.225000X0.250000X0*%
%ADD21RoundRect,0.225000X0.017678X-0.335876X0.335876X-0.017678X-0.017678X0.335876X-0.335876X0.017678X0*%
%ADD22RoundRect,0.140000X-0.140000X-0.170000X0.140000X-0.170000X0.140000X0.170000X-0.140000X0.170000X0*%
%ADD23RoundRect,0.225000X0.335876X0.017678X0.017678X0.335876X-0.335876X-0.017678X-0.017678X-0.335876X0*%
%ADD24RoundRect,0.225000X-0.335876X-0.017678X-0.017678X-0.335876X0.335876X0.017678X0.017678X0.335876X0*%
%ADD25RoundRect,0.218750X0.424264X0.114905X0.114905X0.424264X-0.424264X-0.114905X-0.114905X-0.424264X0*%
%ADD26RoundRect,0.200000X0.200000X0.275000X-0.200000X0.275000X-0.200000X-0.275000X0.200000X-0.275000X0*%
%ADD27R,0.800000X0.500000*%
%ADD28R,0.800000X0.400000*%
%ADD29RoundRect,0.100000X0.521491X-0.380070X-0.380070X0.521491X-0.521491X0.380070X0.380070X-0.521491X0*%
%ADD30R,0.500000X0.800000*%
%ADD31R,0.400000X0.800000*%
%ADD32RoundRect,0.135000X0.135000X0.185000X-0.135000X0.185000X-0.135000X-0.185000X0.135000X-0.185000X0*%
%ADD33RoundRect,0.225000X0.225000X0.250000X-0.225000X0.250000X-0.225000X-0.250000X0.225000X-0.250000X0*%
%ADD34RoundRect,0.075000X0.521491X-0.415425X-0.415425X0.521491X-0.521491X0.415425X0.415425X-0.521491X0*%
%ADD35RoundRect,0.075000X0.521491X0.415425X0.415425X0.521491X-0.521491X-0.415425X-0.415425X-0.521491X0*%
%ADD36RoundRect,0.250000X-0.325000X-0.650000X0.325000X-0.650000X0.325000X0.650000X-0.325000X0.650000X0*%
%ADD37RoundRect,0.200000X-0.200000X-0.275000X0.200000X-0.275000X0.200000X0.275000X-0.200000X0.275000X0*%
%ADD38RoundRect,0.140000X0.140000X0.170000X-0.140000X0.170000X-0.140000X-0.170000X0.140000X-0.170000X0*%
%ADD39R,2.500000X1.800000*%
%ADD40RoundRect,0.250000X-0.262500X-0.450000X0.262500X-0.450000X0.262500X0.450000X-0.262500X0.450000X0*%
%ADD41RoundRect,0.100000X0.712500X0.100000X-0.712500X0.100000X-0.712500X-0.100000X0.712500X-0.100000X0*%
%ADD42RoundRect,0.212500X0.400000X0.212500X-0.400000X0.212500X-0.400000X-0.212500X0.400000X-0.212500X0*%
%ADD43RoundRect,0.135000X-0.185000X0.135000X-0.185000X-0.135000X0.185000X-0.135000X0.185000X0.135000X0*%
%ADD44RoundRect,0.200000X-0.275000X0.200000X-0.275000X-0.200000X0.275000X-0.200000X0.275000X0.200000X0*%
%ADD45RoundRect,0.200000X0.275000X-0.200000X0.275000X0.200000X-0.275000X0.200000X-0.275000X-0.200000X0*%
%ADD46R,1.200000X0.900000*%
%ADD47RoundRect,0.250000X0.312500X0.625000X-0.312500X0.625000X-0.312500X-0.625000X0.312500X-0.625000X0*%
%ADD48RoundRect,0.250000X-0.312500X-0.625000X0.312500X-0.625000X0.312500X0.625000X-0.312500X0.625000X0*%
%ADD49RoundRect,0.150000X0.150000X-0.512500X0.150000X0.512500X-0.150000X0.512500X-0.150000X-0.512500X0*%
%ADD50R,0.450000X0.700000*%
%ADD51RoundRect,0.135000X0.185000X-0.135000X0.185000X0.135000X-0.185000X0.135000X-0.185000X-0.135000X0*%
%ADD52R,2.500000X3.300000*%
%ADD53RoundRect,0.135000X-0.035355X0.226274X-0.226274X0.035355X0.035355X-0.226274X0.226274X-0.035355X0*%
%ADD54RoundRect,0.135000X0.035355X-0.226274X0.226274X-0.035355X-0.035355X0.226274X-0.226274X0.035355X0*%
%ADD55RoundRect,0.150000X0.512500X0.150000X-0.512500X0.150000X-0.512500X-0.150000X0.512500X-0.150000X0*%
%ADD56RoundRect,0.140000X-0.170000X0.140000X-0.170000X-0.140000X0.170000X-0.140000X0.170000X0.140000X0*%
%ADD57RoundRect,0.140000X0.170000X-0.140000X0.170000X0.140000X-0.170000X0.140000X-0.170000X-0.140000X0*%
%ADD58RoundRect,0.100000X-0.100000X0.637500X-0.100000X-0.637500X0.100000X-0.637500X0.100000X0.637500X0*%
%ADD59R,2.000000X1.500000*%
%ADD60R,2.000000X3.800000*%
%ADD61R,2.000000X2.400000*%
%ADD62RoundRect,0.230000X-0.230000X-0.375000X0.230000X-0.375000X0.230000X0.375000X-0.230000X0.375000X0*%
%ADD63RoundRect,0.150000X-0.825000X-0.150000X0.825000X-0.150000X0.825000X0.150000X-0.825000X0.150000X0*%
%ADD64R,1.800000X2.500000*%
%ADD65RoundRect,0.150000X-0.150000X0.512500X-0.150000X-0.512500X0.150000X-0.512500X0.150000X0.512500X0*%
%ADD66RoundRect,0.250000X0.375000X1.075000X-0.375000X1.075000X-0.375000X-1.075000X0.375000X-1.075000X0*%
%ADD67RoundRect,0.200000X-0.053033X0.335876X-0.335876X0.053033X0.053033X-0.335876X0.335876X-0.053033X0*%
%ADD68R,1.900000X2.500000*%
%ADD69RoundRect,0.250000X-0.650000X0.325000X-0.650000X-0.325000X0.650000X-0.325000X0.650000X0.325000X0*%
%ADD70RoundRect,0.250000X-0.250000X-0.475000X0.250000X-0.475000X0.250000X0.475000X-0.250000X0.475000X0*%
%ADD71R,0.800000X1.500000*%
%ADD72R,1.450000X2.000000*%
%ADD73RoundRect,0.250000X-0.450000X0.262500X-0.450000X-0.262500X0.450000X-0.262500X0.450000X0.262500X0*%
%ADD74RoundRect,0.150000X-0.521491X0.309359X0.309359X-0.521491X0.521491X-0.309359X-0.309359X0.521491X0*%
%ADD75RoundRect,0.100000X-0.100000X0.175000X-0.100000X-0.175000X0.100000X-0.175000X0.100000X0.175000X0*%
%ADD76RoundRect,0.100000X-0.175000X0.100000X-0.175000X-0.100000X0.175000X-0.100000X0.175000X0.100000X0*%
%ADD77R,3.200000X1.000000*%
%ADD78R,0.900000X1.200000*%
%ADD79RotRect,0.900000X1.200000X315.000000*%
%ADD80R,0.450000X0.600000*%
%ADD81RoundRect,0.150000X-0.512500X-0.150000X0.512500X-0.150000X0.512500X0.150000X-0.512500X0.150000X0*%
%ADD82R,1.500000X2.000000*%
%ADD83R,3.800000X2.000000*%
%ADD84RoundRect,0.150000X0.256326X0.468458X-0.468458X-0.256326X-0.256326X-0.468458X0.468458X0.256326X0*%
%ADD85R,0.550000X1.950000*%
%ADD86RoundRect,0.200000X0.053033X-0.335876X0.335876X-0.053033X-0.053033X0.335876X-0.335876X0.053033X0*%
%ADD87RoundRect,0.250000X0.250000X0.475000X-0.250000X0.475000X-0.250000X-0.475000X0.250000X-0.475000X0*%
%ADD88RoundRect,0.150000X-0.587500X-0.150000X0.587500X-0.150000X0.587500X0.150000X-0.587500X0.150000X0*%
%ADD89R,0.600000X0.450000*%
%ADD90RoundRect,0.150000X0.825000X0.150000X-0.825000X0.150000X-0.825000X-0.150000X0.825000X-0.150000X0*%
G04 APERTURE END LIST*
D10*
%TO.C,C2*%
X140279326Y-82139052D03*
X140279326Y-80589052D03*
%TD*%
D11*
%TO.C,R76*%
X151406975Y-106610683D03*
X152426975Y-106610683D03*
%TD*%
%TO.C,R77*%
X151418194Y-105421414D03*
X152438194Y-105421414D03*
%TD*%
%TO.C,R78*%
X151395755Y-104030194D03*
X152415755Y-104030194D03*
%TD*%
D12*
%TO.C,R4*%
X116838124Y-133803124D03*
X116116876Y-133081876D03*
%TD*%
D13*
%TO.C,U19*%
X136816000Y-116556500D03*
X137466000Y-116556500D03*
X138116000Y-116556500D03*
X138766000Y-116556500D03*
X139416000Y-116556500D03*
X140066000Y-116556500D03*
X140716000Y-116556500D03*
X140716000Y-110831500D03*
X140066000Y-110831500D03*
X139416000Y-110831500D03*
X138766000Y-110831500D03*
X138116000Y-110831500D03*
X137466000Y-110831500D03*
X136816000Y-110831500D03*
%TD*%
D14*
%TO.C,U21*%
X144676500Y-108532000D03*
X144676500Y-107882000D03*
X144676500Y-107232000D03*
X144676500Y-106582000D03*
X144676500Y-105932000D03*
X144676500Y-105282000D03*
X144676500Y-104632000D03*
X138951500Y-104632000D03*
X138951500Y-105282000D03*
X138951500Y-105932000D03*
X138951500Y-106582000D03*
X138951500Y-107232000D03*
X138951500Y-107882000D03*
X138951500Y-108532000D03*
%TD*%
D15*
%TO.C,U1*%
X148090671Y-76525877D03*
X146820671Y-76525877D03*
X145550671Y-76525877D03*
D16*
X144280671Y-76525877D03*
D15*
X144280671Y-82215877D03*
X145550671Y-82215877D03*
X146820671Y-82215877D03*
X148090671Y-82215877D03*
D17*
X146935671Y-78708377D03*
X145435671Y-78708377D03*
X146935671Y-80033377D03*
X145435671Y-80033377D03*
%TD*%
D15*
%TO.C,U2*%
X138359142Y-76488011D03*
X137089142Y-76488011D03*
X135819142Y-76488011D03*
D16*
X134549142Y-76488011D03*
D15*
X134549142Y-82178011D03*
X135819142Y-82178011D03*
X137089142Y-82178011D03*
X138359142Y-82178011D03*
D17*
X137204142Y-78670511D03*
X135704142Y-78670511D03*
X137204142Y-79995511D03*
X135704142Y-79995511D03*
%TD*%
D18*
%TO.C,C3*%
X149815912Y-76489231D03*
X149815912Y-78039231D03*
%TD*%
D10*
%TO.C,C5*%
X149970368Y-82112502D03*
X149970368Y-80562502D03*
%TD*%
D18*
%TO.C,C9*%
X140172736Y-76472402D03*
X140172736Y-78022402D03*
%TD*%
D19*
%TO.C,R1*%
X115291376Y-129081376D03*
X116012624Y-129802624D03*
%TD*%
D20*
%TO.C,C46*%
X136213000Y-126648000D03*
X137763000Y-126648000D03*
%TD*%
D10*
%TO.C,C51*%
X134956000Y-113453000D03*
X134956000Y-111903000D03*
%TD*%
D20*
%TO.C,C56*%
X146470266Y-107582392D03*
X148020266Y-107582392D03*
%TD*%
D21*
%TO.C,C77*%
X110912992Y-101923008D03*
X112009008Y-100826992D03*
%TD*%
D22*
%TO.C,C74*%
X118982000Y-132998000D03*
X119942000Y-132998000D03*
%TD*%
D20*
%TO.C,C61*%
X107003000Y-101248000D03*
X108553000Y-101248000D03*
%TD*%
D23*
%TO.C,C64*%
X123566008Y-123640008D03*
X122469992Y-122543992D03*
%TD*%
%TO.C,C65*%
X124328008Y-114750008D03*
X123231992Y-113653992D03*
%TD*%
D24*
%TO.C,C66*%
X99863992Y-104509992D03*
X100960008Y-105606008D03*
%TD*%
D21*
%TO.C,C81*%
X124755992Y-120592008D03*
X125852008Y-119495992D03*
%TD*%
%TO.C,C82*%
X126025992Y-121608008D03*
X127122008Y-120511992D03*
%TD*%
D23*
%TO.C,C40*%
X130932008Y-106368008D03*
X129835992Y-105271992D03*
%TD*%
D25*
%TO.C,FB1*%
X131135301Y-122573301D03*
X129632699Y-121070699D03*
%TD*%
D11*
%TO.C,R75*%
X147478315Y-109819465D03*
X148498315Y-109819465D03*
%TD*%
%TO.C,R89*%
X124794000Y-127918000D03*
X125814000Y-127918000D03*
%TD*%
D26*
%TO.C,R39*%
X152479537Y-100370684D03*
X150829537Y-100370684D03*
%TD*%
%TO.C,R40*%
X152445878Y-98788732D03*
X150795878Y-98788732D03*
%TD*%
%TO.C,R41*%
X152457098Y-97128243D03*
X150807098Y-97128243D03*
%TD*%
%TO.C,R42*%
X148862000Y-94517000D03*
X147212000Y-94517000D03*
%TD*%
D27*
%TO.C,RN2*%
X149163074Y-123430926D03*
D28*
X149163074Y-122630926D03*
X149163074Y-121830926D03*
D27*
X149163074Y-121030926D03*
X147363074Y-121030926D03*
D28*
X147363074Y-121830926D03*
X147363074Y-122630926D03*
D27*
X147363074Y-123430926D03*
%TD*%
%TO.C,RN3*%
X151577709Y-115605074D03*
D28*
X151577709Y-114805074D03*
X151577709Y-114005074D03*
D27*
X151577709Y-113205074D03*
X149777709Y-113205074D03*
D28*
X149777709Y-114005074D03*
X149777709Y-114805074D03*
D27*
X149777709Y-115605074D03*
%TD*%
%TO.C,RN4*%
X148810000Y-102702000D03*
D28*
X148810000Y-101902000D03*
X148810000Y-101102000D03*
D27*
X148810000Y-100302000D03*
X147010000Y-100302000D03*
D28*
X147010000Y-101102000D03*
X147010000Y-101902000D03*
D27*
X147010000Y-102702000D03*
%TD*%
%TO.C,RN1*%
X148810000Y-98384000D03*
D28*
X148810000Y-97584000D03*
X148810000Y-96784000D03*
D27*
X148810000Y-95984000D03*
X147010000Y-95984000D03*
D28*
X147010000Y-96784000D03*
X147010000Y-97584000D03*
D27*
X147010000Y-98384000D03*
%TD*%
D29*
%TO.C,U15*%
X133569235Y-106428951D03*
X134028854Y-105969332D03*
X134488474Y-105509713D03*
X134948093Y-105050093D03*
X135407713Y-104590474D03*
X135867332Y-104130854D03*
X136326951Y-103671235D03*
X132278765Y-99623049D03*
X131819146Y-100082668D03*
X131359526Y-100542287D03*
X130899907Y-101001907D03*
X130440287Y-101461526D03*
X129980668Y-101921146D03*
X129521049Y-102380765D03*
%TD*%
D20*
%TO.C,C83*%
X80938462Y-90384858D03*
X82488462Y-90384858D03*
%TD*%
D11*
%TO.C,R98*%
X81676730Y-92033125D03*
X82696730Y-92033125D03*
%TD*%
D18*
%TO.C,C85*%
X89494413Y-79815297D03*
X89494413Y-81365297D03*
%TD*%
D20*
%TO.C,C86*%
X104247164Y-69398713D03*
X105797164Y-69398713D03*
%TD*%
D30*
%TO.C,RN11*%
X96026175Y-77253732D03*
D31*
X95226175Y-77253732D03*
X94426175Y-77253732D03*
D30*
X93626175Y-77253732D03*
X93626175Y-79053732D03*
D31*
X94426175Y-79053732D03*
X95226175Y-79053732D03*
D30*
X96026175Y-79053732D03*
%TD*%
D18*
%TO.C,C84*%
X126130133Y-93586905D03*
X126130133Y-95136905D03*
%TD*%
D32*
%TO.C,R97*%
X127084000Y-86008000D03*
X126064000Y-86008000D03*
%TD*%
D13*
%TO.C,U17*%
X134276000Y-124684500D03*
X134926000Y-124684500D03*
X135576000Y-124684500D03*
X136226000Y-124684500D03*
X136876000Y-124684500D03*
X137526000Y-124684500D03*
X138176000Y-124684500D03*
X138176000Y-118959500D03*
X137526000Y-118959500D03*
X136876000Y-118959500D03*
X136226000Y-118959500D03*
X135576000Y-118959500D03*
X134926000Y-118959500D03*
X134276000Y-118959500D03*
%TD*%
D24*
%TO.C,C67*%
X96053992Y-107710392D03*
X97150008Y-108806408D03*
%TD*%
D23*
%TO.C,C68*%
X119502008Y-109670008D03*
X118405992Y-108573992D03*
%TD*%
D18*
%TO.C,C69*%
X96094000Y-122825000D03*
X96094000Y-124375000D03*
%TD*%
D33*
%TO.C,C71*%
X107029000Y-132744000D03*
X105479000Y-132744000D03*
%TD*%
D10*
%TO.C,C73*%
X92919000Y-117644000D03*
X92919000Y-116094000D03*
%TD*%
D21*
%TO.C,C76*%
X116373992Y-127450008D03*
X117470008Y-126353992D03*
%TD*%
D34*
%TO.C,U26*%
X109628342Y-130644710D03*
X109981895Y-130291157D03*
X110335449Y-129937604D03*
X110689002Y-129584050D03*
X111042555Y-129230497D03*
X111396109Y-128876943D03*
X111749662Y-128523390D03*
X112103215Y-128169837D03*
X112456769Y-127816283D03*
X112810322Y-127462730D03*
X113163876Y-127109176D03*
X113517429Y-126755623D03*
X113870982Y-126402070D03*
X114224536Y-126048516D03*
X114578089Y-125694963D03*
X114931643Y-125341410D03*
X115285196Y-124987856D03*
X115638749Y-124634303D03*
X115992303Y-124280749D03*
X116345856Y-123927196D03*
X116699410Y-123573643D03*
X117052963Y-123220089D03*
X117406516Y-122866536D03*
X117760070Y-122512982D03*
X118113623Y-122159429D03*
X118467176Y-121805876D03*
X118820730Y-121452322D03*
X119174283Y-121098769D03*
X119527837Y-120745215D03*
X119881390Y-120391662D03*
X120234943Y-120038109D03*
X120588497Y-119684555D03*
X120942050Y-119331002D03*
X121295604Y-118977449D03*
X121649157Y-118623895D03*
X122002710Y-118270342D03*
D35*
X122002710Y-115565658D03*
X121649157Y-115212105D03*
X121295604Y-114858551D03*
X120942050Y-114504998D03*
X120588497Y-114151445D03*
X120234943Y-113797891D03*
X119881390Y-113444338D03*
X119527837Y-113090785D03*
X119174283Y-112737231D03*
X118820730Y-112383678D03*
X118467176Y-112030124D03*
X118113623Y-111676571D03*
X117760070Y-111323018D03*
X117406516Y-110969464D03*
X117052963Y-110615911D03*
X116699410Y-110262357D03*
X116345856Y-109908804D03*
X115992303Y-109555251D03*
X115638749Y-109201697D03*
X115285196Y-108848144D03*
X114931643Y-108494590D03*
X114578089Y-108141037D03*
X114224536Y-107787484D03*
X113870982Y-107433930D03*
X113517429Y-107080377D03*
X113163876Y-106726824D03*
X112810322Y-106373270D03*
X112456769Y-106019717D03*
X112103215Y-105666163D03*
X111749662Y-105312610D03*
X111396109Y-104959057D03*
X111042555Y-104605503D03*
X110689002Y-104251950D03*
X110335449Y-103898396D03*
X109981895Y-103544843D03*
X109628342Y-103191290D03*
D34*
X106923658Y-103191290D03*
X106570105Y-103544843D03*
X106216551Y-103898396D03*
X105862998Y-104251950D03*
X105509445Y-104605503D03*
X105155891Y-104959057D03*
X104802338Y-105312610D03*
X104448785Y-105666163D03*
X104095231Y-106019717D03*
X103741678Y-106373270D03*
X103388124Y-106726824D03*
X103034571Y-107080377D03*
X102681018Y-107433930D03*
X102327464Y-107787484D03*
X101973911Y-108141037D03*
X101620357Y-108494590D03*
X101266804Y-108848144D03*
X100913251Y-109201697D03*
X100559697Y-109555251D03*
X100206144Y-109908804D03*
X99852590Y-110262357D03*
X99499037Y-110615911D03*
X99145484Y-110969464D03*
X98791930Y-111323018D03*
X98438377Y-111676571D03*
X98084824Y-112030124D03*
X97731270Y-112383678D03*
X97377717Y-112737231D03*
X97024163Y-113090785D03*
X96670610Y-113444338D03*
X96317057Y-113797891D03*
X95963503Y-114151445D03*
X95609950Y-114504998D03*
X95256396Y-114858551D03*
X94902843Y-115212105D03*
X94549290Y-115565658D03*
D35*
X94549290Y-118270342D03*
X94902843Y-118623895D03*
X95256396Y-118977449D03*
X95609950Y-119331002D03*
X95963503Y-119684555D03*
X96317057Y-120038109D03*
X96670610Y-120391662D03*
X97024163Y-120745215D03*
X97377717Y-121098769D03*
X97731270Y-121452322D03*
X98084824Y-121805876D03*
X98438377Y-122159429D03*
X98791930Y-122512982D03*
X99145484Y-122866536D03*
X99499037Y-123220089D03*
X99852590Y-123573643D03*
X100206144Y-123927196D03*
X100559697Y-124280749D03*
X100913251Y-124634303D03*
X101266804Y-124987856D03*
X101620357Y-125341410D03*
X101973911Y-125694963D03*
X102327464Y-126048516D03*
X102681018Y-126402070D03*
X103034571Y-126755623D03*
X103388124Y-127109176D03*
X103741678Y-127462730D03*
X104095231Y-127816283D03*
X104448785Y-128169837D03*
X104802338Y-128523390D03*
X105155891Y-128876943D03*
X105509445Y-129230497D03*
X105862998Y-129584050D03*
X106216551Y-129937604D03*
X106570105Y-130291157D03*
X106923658Y-130644710D03*
%TD*%
D33*
%TO.C,C7*%
X96615000Y-92104000D03*
X95065000Y-92104000D03*
%TD*%
D36*
%TO.C,C12*%
X108081000Y-91850000D03*
X111031000Y-91850000D03*
%TD*%
D37*
%TO.C,R9*%
X124098000Y-80674000D03*
X125748000Y-80674000D03*
%TD*%
D38*
%TO.C,C75*%
X122990000Y-132998000D03*
X122030000Y-132998000D03*
%TD*%
D23*
%TO.C,C62*%
X116200008Y-106622008D03*
X115103992Y-105525992D03*
%TD*%
D27*
%TO.C,RN10*%
X77714751Y-136243729D03*
D28*
X77714751Y-135443729D03*
X77714751Y-134643729D03*
D27*
X77714751Y-133843729D03*
X75914751Y-133843729D03*
D28*
X75914751Y-134643729D03*
X75914751Y-135443729D03*
D27*
X75914751Y-136243729D03*
%TD*%
D30*
%TO.C,RN6*%
X72803547Y-89770414D03*
D31*
X73603547Y-89770414D03*
X74403547Y-89770414D03*
D30*
X75203547Y-89770414D03*
X75203547Y-87970414D03*
D31*
X74403547Y-87970414D03*
X73603547Y-87970414D03*
D30*
X72803547Y-87970414D03*
%TD*%
%TO.C,RN8*%
X68983013Y-89770414D03*
D31*
X69783013Y-89770414D03*
X70583013Y-89770414D03*
D30*
X71383013Y-89770414D03*
X71383013Y-87970414D03*
D31*
X70583013Y-87970414D03*
X69783013Y-87970414D03*
D30*
X68983013Y-87970414D03*
%TD*%
D10*
%TO.C,C4*%
X103587000Y-80687000D03*
X103587000Y-79137000D03*
%TD*%
D39*
%TO.C,D2*%
X107048000Y-81182000D03*
X111048000Y-81182000D03*
%TD*%
D27*
%TO.C,RN5*%
X89168921Y-85521111D03*
D28*
X89168921Y-84721111D03*
X89168921Y-83921111D03*
D27*
X89168921Y-83121111D03*
X87368921Y-83121111D03*
D28*
X87368921Y-83921111D03*
X87368921Y-84721111D03*
D27*
X87368921Y-85521111D03*
%TD*%
%TO.C,RN7*%
X84900059Y-85521111D03*
D28*
X84900059Y-84721111D03*
X84900059Y-83921111D03*
D27*
X84900059Y-83121111D03*
X83100059Y-83121111D03*
D28*
X83100059Y-83921111D03*
X83100059Y-84721111D03*
D27*
X83100059Y-85521111D03*
%TD*%
%TO.C,RN9*%
X97208197Y-131943853D03*
D28*
X97208197Y-132743853D03*
X97208197Y-133543853D03*
D27*
X97208197Y-134343853D03*
X99008197Y-134343853D03*
D28*
X99008197Y-133543853D03*
X99008197Y-132743853D03*
D27*
X99008197Y-131943853D03*
%TD*%
D10*
%TO.C,C91*%
X67693944Y-111022409D03*
X67693944Y-109472409D03*
%TD*%
D20*
%TO.C,C93*%
X64087605Y-113499835D03*
X65637605Y-113499835D03*
%TD*%
%TO.C,C94*%
X64087605Y-109926207D03*
X65637605Y-109926207D03*
%TD*%
D18*
%TO.C,C92*%
X69233852Y-110344871D03*
X69233852Y-111894871D03*
%TD*%
D20*
%TO.C,C95*%
X64074610Y-106378569D03*
X65624610Y-106378569D03*
%TD*%
%TO.C,C96*%
X64035625Y-102830930D03*
X65585625Y-102830930D03*
%TD*%
D10*
%TO.C,C97*%
X67647411Y-102854419D03*
X67647411Y-101304419D03*
%TD*%
D20*
%TO.C,C99*%
X64030925Y-99257302D03*
X65580925Y-99257302D03*
%TD*%
%TO.C,C100*%
X64004935Y-95722659D03*
X65554935Y-95722659D03*
%TD*%
%TO.C,C98*%
X63990668Y-86902919D03*
X65540668Y-86902919D03*
%TD*%
%TO.C,C101*%
X63996640Y-92072110D03*
X65546640Y-92072110D03*
%TD*%
%TO.C,C102*%
X63978945Y-90512709D03*
X65528945Y-90512709D03*
%TD*%
D40*
%TO.C,R108*%
X64145031Y-115280152D03*
X65970031Y-115280152D03*
%TD*%
%TO.C,R109*%
X64145031Y-111719518D03*
X65970031Y-111719518D03*
%TD*%
%TO.C,R110*%
X64132036Y-108158885D03*
X65957036Y-108158885D03*
%TD*%
%TO.C,R111*%
X64121890Y-104598252D03*
X65946890Y-104598252D03*
%TD*%
%TO.C,R112*%
X64082905Y-101050614D03*
X65907905Y-101050614D03*
%TD*%
%TO.C,R113*%
X64080056Y-97476986D03*
X65905056Y-97476986D03*
%TD*%
%TO.C,R114*%
X64069910Y-93943392D03*
X65894910Y-93943392D03*
%TD*%
%TO.C,R115*%
X64048093Y-88696231D03*
X65873093Y-88696231D03*
%TD*%
D41*
%TO.C,U42*%
X72243008Y-115432792D03*
X72243008Y-114782792D03*
X72243008Y-114132792D03*
X72243008Y-113482792D03*
X68018008Y-113482792D03*
X68018008Y-114132792D03*
X68018008Y-114782792D03*
X68018008Y-115432792D03*
%TD*%
%TO.C,U43*%
X72243008Y-107850203D03*
X72243008Y-107200203D03*
X72243008Y-106550203D03*
X72243008Y-105900203D03*
X68018008Y-105900203D03*
X68018008Y-106550203D03*
X68018008Y-107200203D03*
X68018008Y-107850203D03*
%TD*%
%TO.C,U44*%
X72157730Y-99145795D03*
X72157730Y-98495795D03*
X72157730Y-97845795D03*
X72157730Y-97195795D03*
X67932730Y-97195795D03*
X67932730Y-97845795D03*
X67932730Y-98495795D03*
X67932730Y-99145795D03*
%TD*%
%TO.C,U45*%
X72074073Y-95540053D03*
X72074073Y-94890053D03*
X72074073Y-94240053D03*
X72074073Y-93590053D03*
X67849073Y-93590053D03*
X67849073Y-94240053D03*
X67849073Y-94890053D03*
X67849073Y-95540053D03*
%TD*%
D42*
%TO.C,D9*%
X98684500Y-136046000D03*
X97059500Y-136046000D03*
%TD*%
D43*
%TO.C,R91*%
X100412000Y-135028000D03*
X100412000Y-136048000D03*
%TD*%
D27*
%TO.C,RN12*%
X74340463Y-111864298D03*
D28*
X74340463Y-111064298D03*
X74340463Y-110264298D03*
D27*
X74340463Y-109464298D03*
X72540463Y-109464298D03*
D28*
X72540463Y-110264298D03*
X72540463Y-111064298D03*
D27*
X72540463Y-111864298D03*
%TD*%
%TO.C,RN13*%
X70692447Y-100694240D03*
D28*
X70692447Y-101494240D03*
X70692447Y-102294240D03*
D27*
X70692447Y-103094240D03*
X72492447Y-103094240D03*
D28*
X72492447Y-102294240D03*
X72492447Y-101494240D03*
D27*
X72492447Y-100694240D03*
%TD*%
D10*
%TO.C,C28*%
X138445903Y-87221526D03*
X138445903Y-85671526D03*
%TD*%
%TO.C,C35*%
X131595940Y-88309373D03*
X131595940Y-86759373D03*
%TD*%
%TO.C,C30*%
X143368196Y-90313500D03*
X143368196Y-88763500D03*
%TD*%
%TO.C,C25*%
X148832828Y-87227287D03*
X148832828Y-85677287D03*
%TD*%
%TO.C,C31*%
X150356828Y-90275287D03*
X150356828Y-88725287D03*
%TD*%
%TO.C,C26*%
X145356632Y-87243294D03*
X145356632Y-85693294D03*
%TD*%
%TO.C,C32*%
X146880632Y-90291294D03*
X146880632Y-88741294D03*
%TD*%
%TO.C,C27*%
X134625131Y-87274915D03*
X134625131Y-85724915D03*
%TD*%
%TO.C,C33*%
X136157702Y-90313175D03*
X136157702Y-88763175D03*
%TD*%
D44*
%TO.C,R27*%
X139969903Y-85621526D03*
X139969903Y-87271526D03*
%TD*%
D45*
%TO.C,R33*%
X138445903Y-90319526D03*
X138445903Y-88669526D03*
%TD*%
D44*
%TO.C,R28*%
X131595940Y-83661373D03*
X131595940Y-85311373D03*
%TD*%
D45*
%TO.C,R34*%
X130071940Y-88359373D03*
X130071940Y-86709373D03*
%TD*%
D44*
%TO.C,R23*%
X143368196Y-85665500D03*
X143368196Y-87315500D03*
%TD*%
D45*
%TO.C,R29*%
X141844196Y-90363500D03*
X141844196Y-88713500D03*
%TD*%
D44*
%TO.C,R24*%
X150356828Y-85627287D03*
X150356828Y-87277287D03*
%TD*%
D45*
%TO.C,R30*%
X148832828Y-90325287D03*
X148832828Y-88675287D03*
%TD*%
D44*
%TO.C,R25*%
X146880632Y-85643294D03*
X146880632Y-87293294D03*
%TD*%
D45*
%TO.C,R31*%
X145356632Y-90341294D03*
X145356632Y-88691294D03*
%TD*%
D44*
%TO.C,R26*%
X136157702Y-85665175D03*
X136157702Y-87315175D03*
%TD*%
D20*
%TO.C,C41*%
X150879537Y-95467754D03*
X152429537Y-95467754D03*
%TD*%
D45*
%TO.C,R32*%
X134633702Y-90363175D03*
X134633702Y-88713175D03*
%TD*%
D10*
%TO.C,C24*%
X141844196Y-87265500D03*
X141844196Y-85715500D03*
%TD*%
%TO.C,C29*%
X130071940Y-85261373D03*
X130071940Y-83711373D03*
%TD*%
%TO.C,C34*%
X139969903Y-90269526D03*
X139969903Y-88719526D03*
%TD*%
D23*
%TO.C,C78*%
X93594008Y-112210008D03*
X92497992Y-111113992D03*
%TD*%
D21*
%TO.C,C72*%
X99609992Y-128974008D03*
X100706008Y-127877992D03*
%TD*%
D46*
%TO.C,D14*%
X91873462Y-100575405D03*
X91873462Y-97275405D03*
%TD*%
D47*
%TO.C,F2*%
X152110448Y-60060439D03*
X149185448Y-60060439D03*
%TD*%
D48*
%TO.C,F1*%
X149185448Y-62483854D03*
X152110448Y-62483854D03*
%TD*%
D42*
%TO.C,D10*%
X104272500Y-136046000D03*
X102647500Y-136046000D03*
%TD*%
%TO.C,D11*%
X110368500Y-136046000D03*
X108743500Y-136046000D03*
%TD*%
%TO.C,D12*%
X116464500Y-136046000D03*
X114839500Y-136046000D03*
%TD*%
%TO.C,D13*%
X122560500Y-136046000D03*
X120935500Y-136046000D03*
%TD*%
D32*
%TO.C,R92*%
X106764000Y-136046000D03*
X105744000Y-136046000D03*
%TD*%
%TO.C,R93*%
X112860000Y-136046000D03*
X111840000Y-136046000D03*
%TD*%
%TO.C,R94*%
X118956000Y-136046000D03*
X117936000Y-136046000D03*
%TD*%
%TO.C,R95*%
X125052000Y-136046000D03*
X124032000Y-136046000D03*
%TD*%
D49*
%TO.C,U27*%
X87825201Y-92475917D03*
X88775201Y-92475917D03*
X89725201Y-92475917D03*
X89725201Y-90200917D03*
X88775201Y-90200917D03*
X87825201Y-90200917D03*
%TD*%
D50*
%TO.C,D4*%
X125573000Y-82468000D03*
X124273000Y-82468000D03*
X124923000Y-84468000D03*
%TD*%
D51*
%TO.C,R90*%
X86569000Y-120300000D03*
X86569000Y-119280000D03*
%TD*%
D10*
%TO.C,C79*%
X88728000Y-113707000D03*
X88728000Y-112157000D03*
%TD*%
D52*
%TO.C,D1*%
X114665000Y-84484000D03*
X121465000Y-84484000D03*
%TD*%
D38*
%TO.C,C47*%
X145326731Y-122432877D03*
X144366731Y-122432877D03*
%TD*%
%TO.C,C48*%
X145289333Y-121165643D03*
X144329333Y-121165643D03*
%TD*%
%TO.C,C49*%
X145289333Y-119916537D03*
X144329333Y-119916537D03*
%TD*%
%TO.C,C50*%
X145224535Y-118648731D03*
X144264535Y-118648731D03*
%TD*%
%TO.C,C52*%
X147727414Y-115087709D03*
X146767414Y-115087709D03*
%TD*%
%TO.C,C53*%
X147727414Y-114071709D03*
X146767414Y-114071709D03*
%TD*%
%TO.C,C54*%
X147727414Y-113055709D03*
X146767414Y-113055709D03*
%TD*%
%TO.C,C55*%
X147727414Y-112039709D03*
X146767414Y-112039709D03*
%TD*%
%TO.C,C57*%
X145088000Y-103026000D03*
X144128000Y-103026000D03*
%TD*%
%TO.C,C58*%
X145088000Y-102010000D03*
X144128000Y-102010000D03*
%TD*%
%TO.C,C59*%
X145088000Y-100994000D03*
X144128000Y-100994000D03*
%TD*%
%TO.C,C60*%
X145088000Y-99978000D03*
X144128000Y-99978000D03*
%TD*%
%TO.C,C42*%
X145088000Y-98708000D03*
X144128000Y-98708000D03*
%TD*%
%TO.C,C43*%
X145088000Y-97692000D03*
X144128000Y-97692000D03*
%TD*%
%TO.C,C44*%
X145088000Y-96676000D03*
X144128000Y-96676000D03*
%TD*%
%TO.C,C45*%
X145088000Y-95660000D03*
X144128000Y-95660000D03*
%TD*%
D43*
%TO.C,R56*%
X139782000Y-124106000D03*
X139782000Y-125126000D03*
%TD*%
D11*
%TO.C,R57*%
X130890000Y-118266000D03*
X131910000Y-118266000D03*
%TD*%
D43*
%TO.C,R59*%
X132924000Y-124106000D03*
X132924000Y-125126000D03*
%TD*%
D32*
%TO.C,R60*%
X140800000Y-122330000D03*
X139780000Y-122330000D03*
%TD*%
%TO.C,R61*%
X131910000Y-119282000D03*
X130890000Y-119282000D03*
%TD*%
D51*
%TO.C,R62*%
X132924000Y-121443000D03*
X132924000Y-120423000D03*
%TD*%
D43*
%TO.C,R68*%
X142446249Y-116104831D03*
X142446249Y-117124831D03*
%TD*%
D51*
%TO.C,R69*%
X133486083Y-111523977D03*
X133486083Y-110503977D03*
%TD*%
D43*
%TO.C,R70*%
X134946598Y-108930464D03*
X134946598Y-109950464D03*
%TD*%
D11*
%TO.C,R71*%
X134146812Y-114858976D03*
X135166812Y-114858976D03*
%TD*%
D51*
%TO.C,R72*%
X143624298Y-117141660D03*
X143624298Y-116121660D03*
%TD*%
%TO.C,R73*%
X133467834Y-113604421D03*
X133467834Y-112584421D03*
%TD*%
D32*
%TO.C,R74*%
X137244000Y-109122000D03*
X136224000Y-109122000D03*
%TD*%
D51*
%TO.C,R79*%
X146264779Y-110984586D03*
X146264779Y-109964586D03*
%TD*%
D32*
%TO.C,R80*%
X147404000Y-104042000D03*
X146384000Y-104042000D03*
%TD*%
D19*
%TO.C,R81*%
X130023376Y-107491376D03*
X130744624Y-108212624D03*
%TD*%
D11*
%TO.C,R82*%
X136233643Y-107994423D03*
X137253643Y-107994423D03*
%TD*%
D32*
%TO.C,R83*%
X148491366Y-110968245D03*
X147471366Y-110968245D03*
%TD*%
%TO.C,R84*%
X148518193Y-105125318D03*
X147498193Y-105125318D03*
%TD*%
D19*
%TO.C,R85*%
X128499376Y-105967376D03*
X129220624Y-106688624D03*
%TD*%
D43*
%TO.C,R86*%
X137181853Y-105926157D03*
X137181853Y-106946157D03*
%TD*%
D53*
%TO.C,R43*%
X135824624Y-99363376D03*
X135103376Y-100084624D03*
%TD*%
%TO.C,R44*%
X137348624Y-100379376D03*
X136627376Y-101100624D03*
%TD*%
D19*
%TO.C,R45*%
X133006593Y-98239818D03*
X133727841Y-98961066D03*
%TD*%
D54*
%TO.C,R46*%
X127269517Y-103671077D03*
X127990765Y-102949829D03*
%TD*%
D53*
%TO.C,R47*%
X137856624Y-97331376D03*
X137135376Y-98052624D03*
%TD*%
D54*
%TO.C,R48*%
X137135376Y-102116624D03*
X137856624Y-101395376D03*
%TD*%
%TO.C,R50*%
X126101602Y-105418625D03*
X126822850Y-104697377D03*
%TD*%
D11*
%TO.C,R63*%
X151388198Y-116951416D03*
X152408198Y-116951416D03*
%TD*%
D32*
%TO.C,R54*%
X149382096Y-119568732D03*
X148362096Y-119568732D03*
%TD*%
D51*
%TO.C,R66*%
X151681365Y-111987512D03*
X151681365Y-110967512D03*
%TD*%
%TO.C,R65*%
X150626730Y-111979383D03*
X150626730Y-110959383D03*
%TD*%
D32*
%TO.C,R64*%
X150355026Y-116934587D03*
X149335026Y-116934587D03*
%TD*%
D51*
%TO.C,R53*%
X150723317Y-121772879D03*
X150723317Y-120752879D03*
%TD*%
D43*
%TO.C,R52*%
X150712097Y-123142636D03*
X150712097Y-124162636D03*
%TD*%
D32*
%TO.C,R51*%
X149258682Y-124920442D03*
X148238682Y-124920442D03*
%TD*%
D55*
%TO.C,U18*%
X142189500Y-120740000D03*
X142189500Y-119790000D03*
X142189500Y-118840000D03*
X139914500Y-118840000D03*
X139914500Y-119790000D03*
X139914500Y-120740000D03*
%TD*%
%TO.C,U20*%
X145014237Y-114518731D03*
X145014237Y-113568731D03*
X145014237Y-112618731D03*
X142739237Y-112618731D03*
X142739237Y-113568731D03*
X142739237Y-114518731D03*
%TD*%
%TO.C,U22*%
X142243517Y-102469472D03*
X142243517Y-101519472D03*
X142243517Y-100569472D03*
X139968517Y-100569472D03*
X139968517Y-101519472D03*
X139968517Y-102469472D03*
%TD*%
%TO.C,U16*%
X142189500Y-98134000D03*
X142189500Y-97184000D03*
X142189500Y-96234000D03*
X139914500Y-96234000D03*
X139914500Y-97184000D03*
X139914500Y-98134000D03*
%TD*%
D51*
%TO.C,R58*%
X132924000Y-119411000D03*
X132924000Y-118391000D03*
%TD*%
D19*
%TO.C,R49*%
X134224032Y-97059504D03*
X134945280Y-97780752D03*
%TD*%
D43*
%TO.C,R67*%
X135090634Y-115987026D03*
X135090634Y-117007026D03*
%TD*%
D11*
%TO.C,R55*%
X133684000Y-126394000D03*
X134704000Y-126394000D03*
%TD*%
D56*
%TO.C,C20*%
X141020875Y-124184340D03*
X141020875Y-125144340D03*
%TD*%
D57*
%TO.C,C21*%
X141124942Y-136882551D03*
X141124942Y-135922551D03*
%TD*%
D11*
%TO.C,R19*%
X142182584Y-123699462D03*
X143202584Y-123699462D03*
%TD*%
%TO.C,R20*%
X142282910Y-136843852D03*
X143302910Y-136843852D03*
%TD*%
%TO.C,R21*%
X142272340Y-125124340D03*
X143292340Y-125124340D03*
%TD*%
%TO.C,R22*%
X142305349Y-135482551D03*
X143325349Y-135482551D03*
%TD*%
D58*
%TO.C,U7*%
X145316976Y-127343060D03*
X144666976Y-127343060D03*
X144016976Y-127343060D03*
X143366976Y-127343060D03*
X142716976Y-127343060D03*
X142066976Y-127343060D03*
X141416976Y-127343060D03*
X141416976Y-133068060D03*
X142066976Y-133068060D03*
X142716976Y-133068060D03*
X143366976Y-133068060D03*
X144016976Y-133068060D03*
X144666976Y-133068060D03*
X145316976Y-133068060D03*
%TD*%
D18*
%TO.C,C14*%
X124288000Y-93615000D03*
X124288000Y-95165000D03*
%TD*%
D51*
%TO.C,R2*%
X104857000Y-81057000D03*
X104857000Y-80037000D03*
%TD*%
D59*
%TO.C,U6*%
X121850000Y-93896000D03*
X121850000Y-91596000D03*
D60*
X115550000Y-91596000D03*
D59*
X121850000Y-89296000D03*
%TD*%
D61*
%TO.C,Y1*%
X118858007Y-130183893D03*
X122558007Y-130183893D03*
%TD*%
D33*
%TO.C,C8*%
X97693333Y-95620449D03*
X96143333Y-95620449D03*
%TD*%
D10*
%TO.C,C10*%
X99523000Y-89196000D03*
X99523000Y-87646000D03*
%TD*%
D32*
%TO.C,R3*%
X98128000Y-94136000D03*
X97108000Y-94136000D03*
%TD*%
D11*
%TO.C,R6*%
X104982000Y-96422000D03*
X106002000Y-96422000D03*
%TD*%
D62*
%TO.C,U3*%
X101874000Y-92116000D03*
X101874000Y-93616000D03*
X103014000Y-92116000D03*
X103014000Y-93616000D03*
D63*
X99969000Y-90961000D03*
X99969000Y-92231000D03*
X99969000Y-93501000D03*
X99969000Y-94771000D03*
X104919000Y-94771000D03*
X104919000Y-93501000D03*
X104919000Y-92231000D03*
X104919000Y-90961000D03*
%TD*%
D64*
%TO.C,D3*%
X102190000Y-88516000D03*
X102190000Y-84516000D03*
%TD*%
D32*
%TO.C,R5*%
X103970000Y-96422000D03*
X102950000Y-96422000D03*
%TD*%
D65*
%TO.C,D15*%
X126508000Y-87664500D03*
X125558000Y-87664500D03*
X124608000Y-87664500D03*
X124608000Y-89939500D03*
X125558000Y-89939500D03*
X126508000Y-89939500D03*
%TD*%
D38*
%TO.C,C11*%
X105210000Y-97438000D03*
X104250000Y-97438000D03*
%TD*%
D66*
%TO.C,L1*%
X101812000Y-80928000D03*
X99012000Y-80928000D03*
%TD*%
D11*
%TO.C,R99*%
X100159511Y-68932193D03*
X101179511Y-68932193D03*
%TD*%
D67*
%TO.C,R102*%
X92772741Y-75574419D03*
X91606015Y-76741145D03*
%TD*%
D11*
%TO.C,R100*%
X100165483Y-69959848D03*
X101185483Y-69959848D03*
%TD*%
D44*
%TO.C,R101*%
X88429259Y-75501354D03*
X88429259Y-77151354D03*
%TD*%
D68*
%TO.C,L2*%
X105474000Y-86770000D03*
X109574000Y-86770000D03*
%TD*%
D69*
%TO.C,C13*%
X111842000Y-86311000D03*
X111842000Y-89261000D03*
%TD*%
D70*
%TO.C,C16*%
X150254535Y-129027511D03*
X152154535Y-129027511D03*
%TD*%
D18*
%TO.C,C18*%
X144689658Y-123799584D03*
X144689658Y-125349584D03*
%TD*%
%TO.C,C19*%
X144746610Y-135238208D03*
X144746610Y-136788208D03*
%TD*%
D56*
%TO.C,C22*%
X139678922Y-128023362D03*
X139678922Y-128983362D03*
%TD*%
%TO.C,C23*%
X138498996Y-129325667D03*
X138498996Y-130285667D03*
%TD*%
D70*
%TO.C,C17*%
X150339903Y-136261658D03*
X152239903Y-136261658D03*
%TD*%
D43*
%TO.C,R17*%
X146132000Y-124106000D03*
X146132000Y-125126000D03*
%TD*%
D51*
%TO.C,R18*%
X146244782Y-136916291D03*
X146244782Y-135896291D03*
%TD*%
D11*
%TO.C,R13*%
X147139169Y-127433614D03*
X148159169Y-127433614D03*
%TD*%
%TO.C,R14*%
X147959986Y-135385315D03*
X148979986Y-135385315D03*
%TD*%
%TO.C,R15*%
X147146000Y-126140000D03*
X148166000Y-126140000D03*
%TD*%
%TO.C,R16*%
X147376571Y-136836373D03*
X148396571Y-136836373D03*
%TD*%
D33*
%TO.C,C15*%
X148598071Y-132660193D03*
X147048071Y-132660193D03*
%TD*%
D11*
%TO.C,R12*%
X146893560Y-130120193D03*
X147913560Y-130120193D03*
%TD*%
%TO.C,R11*%
X146892000Y-128680000D03*
X147912000Y-128680000D03*
%TD*%
D71*
%TO.C,J10*%
X90404000Y-131754000D03*
X89304000Y-131754000D03*
X88204000Y-131754000D03*
X87104000Y-131754000D03*
X86004000Y-131754000D03*
X84904000Y-131754000D03*
X83804000Y-131754000D03*
X82704000Y-131754000D03*
D72*
X94079000Y-134354000D03*
X94079000Y-126054000D03*
X80329000Y-134354000D03*
X80329000Y-126054000D03*
%TD*%
D50*
%TO.C,D5*%
X93569000Y-90850000D03*
X92269000Y-90850000D03*
X92919000Y-92850000D03*
%TD*%
D45*
%TO.C,R10*%
X93808000Y-96459500D03*
X93808000Y-94809500D03*
%TD*%
D73*
%TO.C,R103*%
X87681609Y-79580334D03*
X87681609Y-81405334D03*
%TD*%
D40*
%TO.C,R104*%
X104051187Y-67556670D03*
X105876187Y-67556670D03*
%TD*%
D74*
%TO.C,U23*%
X128741839Y-122900336D03*
X127398336Y-124243839D03*
X129395913Y-124897913D03*
%TD*%
D75*
%TO.C,U24*%
X121921000Y-99688000D03*
X121321000Y-99688000D03*
D76*
X120696000Y-100013000D03*
X120696000Y-100613000D03*
X120696000Y-101213000D03*
D75*
X121321000Y-101538000D03*
X121921000Y-101538000D03*
D76*
X122546000Y-101213000D03*
X122546000Y-100613000D03*
X122546000Y-100013000D03*
%TD*%
D24*
%TO.C,C70*%
X123549492Y-121527992D03*
X124645508Y-122624008D03*
%TD*%
D20*
%TO.C,C63*%
X122370000Y-98200000D03*
X123920000Y-98200000D03*
%TD*%
D43*
%TO.C,R87*%
X114763000Y-99595000D03*
X114763000Y-100615000D03*
%TD*%
D32*
%TO.C,R88*%
X120607000Y-102899000D03*
X119587000Y-102899000D03*
%TD*%
D77*
%TO.C,SW1*%
X77294314Y-109896544D03*
X84094314Y-109896544D03*
X77294314Y-113896544D03*
X84094314Y-113896544D03*
%TD*%
%TO.C,SW2*%
X84094314Y-120451148D03*
X77294314Y-120451148D03*
X84094314Y-116451148D03*
X77294314Y-116451148D03*
%TD*%
D78*
%TO.C,D7*%
X125686000Y-117250000D03*
X128986000Y-117250000D03*
%TD*%
D79*
%TO.C,D8*%
X112453274Y-130434274D03*
X114786726Y-132767726D03*
%TD*%
D24*
%TO.C,C80*%
X111039992Y-131814992D03*
X112136008Y-132911008D03*
%TD*%
D44*
%TO.C,R96*%
X127209000Y-83024000D03*
X127209000Y-84674000D03*
%TD*%
D37*
%TO.C,R35*%
X132123171Y-69972839D03*
X133773171Y-69972839D03*
%TD*%
D44*
%TO.C,R38*%
X138819950Y-66614579D03*
X138819950Y-68264579D03*
%TD*%
D80*
%TO.C,D17*%
X117385396Y-64700212D03*
X117385396Y-62600212D03*
%TD*%
D81*
%TO.C,U41*%
X113082255Y-62642088D03*
X113082255Y-63592088D03*
X113082255Y-64542088D03*
X115357255Y-64542088D03*
X115357255Y-62642088D03*
%TD*%
D65*
%TO.C,U13*%
X137171469Y-63249425D03*
X136221469Y-63249425D03*
X135271469Y-63249425D03*
X135271469Y-65524425D03*
X136221469Y-65524425D03*
X137171469Y-65524425D03*
%TD*%
D63*
%TO.C,U4*%
X108069271Y-94977180D03*
X108069271Y-96247180D03*
X108069271Y-97517180D03*
X108069271Y-98787180D03*
X113019271Y-98787180D03*
X113019271Y-97517180D03*
X113019271Y-96247180D03*
X113019271Y-94977180D03*
%TD*%
D33*
%TO.C,C38*%
X133692861Y-65274834D03*
X132142861Y-65274834D03*
%TD*%
D10*
%TO.C,C37*%
X140435558Y-68223089D03*
X140435558Y-66673089D03*
%TD*%
D82*
%TO.C,U29*%
X64331601Y-73342184D03*
X66631601Y-73342184D03*
X68931601Y-73342184D03*
D83*
X66631601Y-67042184D03*
%TD*%
D20*
%TO.C,C87*%
X100417460Y-65566485D03*
X101967460Y-65566485D03*
%TD*%
D84*
%TO.C,U9*%
X127760038Y-99660477D03*
X127088287Y-98988726D03*
X126416536Y-98316975D03*
X124807868Y-99925643D03*
X125479619Y-100597394D03*
X126151370Y-101269145D03*
%TD*%
D26*
%TO.C,R36*%
X140409324Y-69845443D03*
X138759324Y-69845443D03*
%TD*%
D40*
%TO.C,R106*%
X100474885Y-62116309D03*
X102299885Y-62116309D03*
%TD*%
D20*
%TO.C,C88*%
X100422161Y-63968098D03*
X101972161Y-63968098D03*
%TD*%
D82*
%TO.C,U28*%
X71831348Y-71236992D03*
X74131348Y-71236992D03*
X76431348Y-71236992D03*
D83*
X74131348Y-64936992D03*
%TD*%
D37*
%TO.C,R8*%
X97535675Y-97187439D03*
X99185675Y-97187439D03*
%TD*%
D65*
%TO.C,U14*%
X137195206Y-67541889D03*
X136245206Y-67541889D03*
X135295206Y-67541889D03*
X135295206Y-69816889D03*
X136245206Y-69816889D03*
X137195206Y-69816889D03*
%TD*%
D44*
%TO.C,R37*%
X133689382Y-66782510D03*
X133689382Y-68432510D03*
%TD*%
D20*
%TO.C,C39*%
X138782492Y-65105165D03*
X140332492Y-65105165D03*
%TD*%
D81*
%TO.C,U12*%
X142983624Y-92125814D03*
X142983624Y-93075814D03*
X142983624Y-94025814D03*
X145258624Y-94025814D03*
X145258624Y-93075814D03*
X145258624Y-92125814D03*
%TD*%
D85*
%TO.C,U40*%
X87190941Y-73322731D03*
X88460941Y-73322731D03*
X89730941Y-73322731D03*
X91000941Y-73322731D03*
X92270941Y-73322731D03*
X93540941Y-73322731D03*
X94810941Y-73322731D03*
X96080941Y-73322731D03*
X97350941Y-73322731D03*
X98620941Y-73322731D03*
X98620941Y-63822731D03*
X97350941Y-63822731D03*
X96080941Y-63822731D03*
X94810941Y-63822731D03*
X93540941Y-63822731D03*
X92270941Y-63822731D03*
X91000941Y-63822731D03*
X89730941Y-63822731D03*
X88460941Y-63822731D03*
X87190941Y-63822731D03*
%TD*%
D86*
%TO.C,R7*%
X116022822Y-97570260D03*
X117189548Y-96403534D03*
%TD*%
D87*
%TO.C,C90*%
X117203595Y-60735332D03*
X115303595Y-60735332D03*
%TD*%
D82*
%TO.C,U33*%
X64339148Y-82307405D03*
X66639148Y-82307405D03*
X68939148Y-82307405D03*
D83*
X66639148Y-76007405D03*
%TD*%
D40*
%TO.C,R105*%
X100494378Y-67359796D03*
X102319378Y-67359796D03*
%TD*%
D81*
%TO.C,U11*%
X130141000Y-90589066D03*
X130141000Y-91539066D03*
X130141000Y-92489066D03*
X132416000Y-92489066D03*
X132416000Y-91539066D03*
X132416000Y-90589066D03*
%TD*%
D82*
%TO.C,U35*%
X76313918Y-77710564D03*
X74013918Y-77710564D03*
X71713918Y-77710564D03*
D83*
X74013918Y-84010564D03*
%TD*%
D88*
%TO.C,IC1*%
X109211791Y-62647863D03*
X109211791Y-64547863D03*
X111086791Y-63597863D03*
%TD*%
D84*
%TO.C,U8*%
X137532100Y-94987757D03*
X136860349Y-94316006D03*
X136188598Y-93644255D03*
X134579930Y-95252923D03*
X135251681Y-95924674D03*
X135923432Y-96596425D03*
%TD*%
D82*
%TO.C,U34*%
X83997118Y-74102874D03*
X81697118Y-74102874D03*
X79397118Y-74102874D03*
D83*
X81697118Y-80402874D03*
%TD*%
D82*
%TO.C,U30*%
X79323547Y-71233219D03*
X81623547Y-71233219D03*
X83923547Y-71233219D03*
D83*
X81623547Y-64933219D03*
%TD*%
D82*
%TO.C,U37*%
X77639031Y-125409419D03*
X75339031Y-125409419D03*
X73039031Y-125409419D03*
D83*
X75339031Y-131709419D03*
%TD*%
D89*
%TO.C,D16*%
X106638877Y-60796117D03*
X108738877Y-60796117D03*
%TD*%
D84*
%TO.C,U10*%
X132451597Y-95981514D03*
X131779846Y-95309763D03*
X131108095Y-94638012D03*
X129499427Y-96246680D03*
X130171178Y-96918431D03*
X130842929Y-97590182D03*
%TD*%
D90*
%TO.C,U5*%
X103976722Y-102606272D03*
X103976722Y-101336272D03*
X103976722Y-100066272D03*
X103976722Y-98796272D03*
X99026722Y-98796272D03*
X99026722Y-100066272D03*
X99026722Y-101336272D03*
X99026722Y-102606272D03*
%TD*%
D59*
%TO.C,U36*%
X70041843Y-126237278D03*
X70041843Y-123937278D03*
X70041843Y-121637278D03*
D60*
X63741843Y-123937278D03*
%TD*%
D82*
%TO.C,U39*%
X69118445Y-129032331D03*
X66818445Y-129032331D03*
X64518445Y-129032331D03*
D83*
X66818445Y-135332331D03*
%TD*%
D10*
%TO.C,C36*%
X132036134Y-68403556D03*
X132036134Y-66853556D03*
%TD*%
D40*
%TO.C,R107*%
X105479486Y-62845501D03*
X107304486Y-62845501D03*
%TD*%
D87*
%TO.C,C89*%
X107312947Y-64972911D03*
X105412947Y-64972911D03*
%TD*%
M02*
