%TF.GenerationSoftware,KiCad,Pcbnew,7.0.8*%
%TF.CreationDate,2024-11-01T20:43:23+00:00*%
%TF.ProjectId,polygonus-Shortage-Version,706f6c79-676f-46e7-9573-2d53686f7274,rev?*%
%TF.SameCoordinates,Original*%
%TF.FileFunction,Legend,Bot*%
%TF.FilePolarity,Positive*%
%FSLAX46Y46*%
G04 Gerber Fmt 4.6, Leading zero omitted, Abs format (unit mm)*
G04 Created by KiCad (PCBNEW 7.0.8) date 2024-11-01 20:43:23*
%MOMM*%
%LPD*%
G01*
G04 APERTURE LIST*
G04 Aperture macros list*
%AMRoundRect*
0 Rectangle with rounded corners*
0 $1 Rounding radius*
0 $2 $3 $4 $5 $6 $7 $8 $9 X,Y pos of 4 corners*
0 Add a 4 corners polygon primitive as box body*
4,1,4,$2,$3,$4,$5,$6,$7,$8,$9,$2,$3,0*
0 Add four circle primitives for the rounded corners*
1,1,$1+$1,$2,$3*
1,1,$1+$1,$4,$5*
1,1,$1+$1,$6,$7*
1,1,$1+$1,$8,$9*
0 Add four rect primitives between the rounded corners*
20,1,$1+$1,$2,$3,$4,$5,0*
20,1,$1+$1,$4,$5,$6,$7,0*
20,1,$1+$1,$6,$7,$8,$9,0*
20,1,$1+$1,$8,$9,$2,$3,0*%
G04 Aperture macros list end*
%ADD10C,0.150000*%
%ADD11C,0.200000*%
%ADD12C,0.120000*%
%ADD13RoundRect,0.048000X0.800000X0.800000X-0.800000X0.800000X-0.800000X-0.800000X0.800000X-0.800000X0*%
%ADD14C,1.696000*%
%ADD15RoundRect,0.048000X0.850000X-0.850000X0.850000X0.850000X-0.850000X0.850000X-0.850000X-0.850000X0*%
%ADD16O,1.796000X1.796000*%
%ADD17RoundRect,0.048000X0.800000X-0.800000X0.800000X0.800000X-0.800000X0.800000X-0.800000X-0.800000X0*%
%ADD18RoundRect,0.048000X-0.700000X0.700000X-0.700000X-0.700000X0.700000X-0.700000X0.700000X0.700000X0*%
%ADD19C,1.496000*%
%ADD20C,3.096000*%
%ADD21C,1.086600*%
%ADD22RoundRect,0.048000X-0.850000X-0.850000X0.850000X-0.850000X0.850000X0.850000X-0.850000X0.850000X0*%
%ADD23RoundRect,0.048000X-0.370000X1.200000X-0.370000X-1.200000X0.370000X-1.200000X0.370000X1.200000X0*%
%ADD24RoundRect,0.048000X-0.728824X2.097335X-2.220123X-0.032460X0.728824X-2.097335X2.220123X0.032460X0*%
%ADD25RoundRect,0.198000X0.150000X-0.825000X0.150000X0.825000X-0.150000X0.825000X-0.150000X-0.825000X0*%
%ADD26RoundRect,0.048000X0.750000X-1.000000X0.750000X1.000000X-0.750000X1.000000X-0.750000X-1.000000X0*%
%ADD27RoundRect,0.048000X1.900000X-1.000000X1.900000X1.000000X-1.900000X1.000000X-1.900000X-1.000000X0*%
%ADD28RoundRect,0.048000X0.850000X0.850000X-0.850000X0.850000X-0.850000X-0.850000X0.850000X-0.850000X0*%
%ADD29RoundRect,0.048000X1.000000X0.750000X-1.000000X0.750000X-1.000000X-0.750000X1.000000X-0.750000X0*%
%ADD30RoundRect,0.048000X1.000000X1.900000X-1.000000X1.900000X-1.000000X-1.900000X1.000000X-1.900000X0*%
%ADD31RoundRect,0.048000X-0.850000X0.850000X-0.850000X-0.850000X0.850000X-0.850000X0.850000X0.850000X0*%
%ADD32RoundRect,0.048000X-0.600000X0.450000X-0.600000X-0.450000X0.600000X-0.450000X0.600000X0.450000X0*%
G04 APERTURE END LIST*
D10*
X78657819Y-95295143D02*
X79467342Y-95295143D01*
X79467342Y-95295143D02*
X79562580Y-95342762D01*
X79562580Y-95342762D02*
X79610200Y-95390381D01*
X79610200Y-95390381D02*
X79657819Y-95485619D01*
X79657819Y-95485619D02*
X79657819Y-95676095D01*
X79657819Y-95676095D02*
X79610200Y-95771333D01*
X79610200Y-95771333D02*
X79562580Y-95818952D01*
X79562580Y-95818952D02*
X79467342Y-95866571D01*
X79467342Y-95866571D02*
X78657819Y-95866571D01*
X79610200Y-96295143D02*
X79657819Y-96438000D01*
X79657819Y-96438000D02*
X79657819Y-96676095D01*
X79657819Y-96676095D02*
X79610200Y-96771333D01*
X79610200Y-96771333D02*
X79562580Y-96818952D01*
X79562580Y-96818952D02*
X79467342Y-96866571D01*
X79467342Y-96866571D02*
X79372104Y-96866571D01*
X79372104Y-96866571D02*
X79276866Y-96818952D01*
X79276866Y-96818952D02*
X79229247Y-96771333D01*
X79229247Y-96771333D02*
X79181628Y-96676095D01*
X79181628Y-96676095D02*
X79134009Y-96485619D01*
X79134009Y-96485619D02*
X79086390Y-96390381D01*
X79086390Y-96390381D02*
X79038771Y-96342762D01*
X79038771Y-96342762D02*
X78943533Y-96295143D01*
X78943533Y-96295143D02*
X78848295Y-96295143D01*
X78848295Y-96295143D02*
X78753057Y-96342762D01*
X78753057Y-96342762D02*
X78705438Y-96390381D01*
X78705438Y-96390381D02*
X78657819Y-96485619D01*
X78657819Y-96485619D02*
X78657819Y-96723714D01*
X78657819Y-96723714D02*
X78705438Y-96866571D01*
X79134009Y-97628476D02*
X79181628Y-97771333D01*
X79181628Y-97771333D02*
X79229247Y-97818952D01*
X79229247Y-97818952D02*
X79324485Y-97866571D01*
X79324485Y-97866571D02*
X79467342Y-97866571D01*
X79467342Y-97866571D02*
X79562580Y-97818952D01*
X79562580Y-97818952D02*
X79610200Y-97771333D01*
X79610200Y-97771333D02*
X79657819Y-97676095D01*
X79657819Y-97676095D02*
X79657819Y-97295143D01*
X79657819Y-97295143D02*
X78657819Y-97295143D01*
X78657819Y-97295143D02*
X78657819Y-97628476D01*
X78657819Y-97628476D02*
X78705438Y-97723714D01*
X78705438Y-97723714D02*
X78753057Y-97771333D01*
X78753057Y-97771333D02*
X78848295Y-97818952D01*
X78848295Y-97818952D02*
X78943533Y-97818952D01*
X78943533Y-97818952D02*
X79038771Y-97771333D01*
X79038771Y-97771333D02*
X79086390Y-97723714D01*
X79086390Y-97723714D02*
X79134009Y-97628476D01*
X79134009Y-97628476D02*
X79134009Y-97295143D01*
X79134009Y-99390381D02*
X79181628Y-99533238D01*
X79181628Y-99533238D02*
X79229247Y-99580857D01*
X79229247Y-99580857D02*
X79324485Y-99628476D01*
X79324485Y-99628476D02*
X79467342Y-99628476D01*
X79467342Y-99628476D02*
X79562580Y-99580857D01*
X79562580Y-99580857D02*
X79610200Y-99533238D01*
X79610200Y-99533238D02*
X79657819Y-99438000D01*
X79657819Y-99438000D02*
X79657819Y-99057048D01*
X79657819Y-99057048D02*
X78657819Y-99057048D01*
X78657819Y-99057048D02*
X78657819Y-99390381D01*
X78657819Y-99390381D02*
X78705438Y-99485619D01*
X78705438Y-99485619D02*
X78753057Y-99533238D01*
X78753057Y-99533238D02*
X78848295Y-99580857D01*
X78848295Y-99580857D02*
X78943533Y-99580857D01*
X78943533Y-99580857D02*
X79038771Y-99533238D01*
X79038771Y-99533238D02*
X79086390Y-99485619D01*
X79086390Y-99485619D02*
X79134009Y-99390381D01*
X79134009Y-99390381D02*
X79134009Y-99057048D01*
D11*
X117954807Y-114204156D02*
X116811950Y-114204156D01*
X117383378Y-114775584D02*
X117383378Y-113632727D01*
D10*
X83869875Y-112019100D02*
X84679398Y-112019100D01*
X84679398Y-112019100D02*
X84774636Y-112066719D01*
X84774636Y-112066719D02*
X84822256Y-112114338D01*
X84822256Y-112114338D02*
X84869875Y-112209576D01*
X84869875Y-112209576D02*
X84869875Y-112400052D01*
X84869875Y-112400052D02*
X84822256Y-112495290D01*
X84822256Y-112495290D02*
X84774636Y-112542909D01*
X84774636Y-112542909D02*
X84679398Y-112590528D01*
X84679398Y-112590528D02*
X83869875Y-112590528D01*
X83965113Y-113019100D02*
X83917494Y-113066719D01*
X83917494Y-113066719D02*
X83869875Y-113161957D01*
X83869875Y-113161957D02*
X83869875Y-113400052D01*
X83869875Y-113400052D02*
X83917494Y-113495290D01*
X83917494Y-113495290D02*
X83965113Y-113542909D01*
X83965113Y-113542909D02*
X84060351Y-113590528D01*
X84060351Y-113590528D02*
X84155589Y-113590528D01*
X84155589Y-113590528D02*
X84298446Y-113542909D01*
X84298446Y-113542909D02*
X84869875Y-112971481D01*
X84869875Y-112971481D02*
X84869875Y-113590528D01*
X83869875Y-114495290D02*
X83869875Y-114019100D01*
X83869875Y-114019100D02*
X84346065Y-113971481D01*
X84346065Y-113971481D02*
X84298446Y-114019100D01*
X84298446Y-114019100D02*
X84250827Y-114114338D01*
X84250827Y-114114338D02*
X84250827Y-114352433D01*
X84250827Y-114352433D02*
X84298446Y-114447671D01*
X84298446Y-114447671D02*
X84346065Y-114495290D01*
X84346065Y-114495290D02*
X84441303Y-114542909D01*
X84441303Y-114542909D02*
X84679398Y-114542909D01*
X84679398Y-114542909D02*
X84774636Y-114495290D01*
X84774636Y-114495290D02*
X84822256Y-114447671D01*
X84822256Y-114447671D02*
X84869875Y-114352433D01*
X84869875Y-114352433D02*
X84869875Y-114114338D01*
X84869875Y-114114338D02*
X84822256Y-114019100D01*
X84822256Y-114019100D02*
X84774636Y-113971481D01*
X72908229Y-77913100D02*
X73717752Y-77913100D01*
X73717752Y-77913100D02*
X73812990Y-77960719D01*
X73812990Y-77960719D02*
X73860610Y-78008338D01*
X73860610Y-78008338D02*
X73908229Y-78103576D01*
X73908229Y-78103576D02*
X73908229Y-78294052D01*
X73908229Y-78294052D02*
X73860610Y-78389290D01*
X73860610Y-78389290D02*
X73812990Y-78436909D01*
X73812990Y-78436909D02*
X73717752Y-78484528D01*
X73717752Y-78484528D02*
X72908229Y-78484528D01*
X72908229Y-78865481D02*
X72908229Y-79484528D01*
X72908229Y-79484528D02*
X73289181Y-79151195D01*
X73289181Y-79151195D02*
X73289181Y-79294052D01*
X73289181Y-79294052D02*
X73336800Y-79389290D01*
X73336800Y-79389290D02*
X73384419Y-79436909D01*
X73384419Y-79436909D02*
X73479657Y-79484528D01*
X73479657Y-79484528D02*
X73717752Y-79484528D01*
X73717752Y-79484528D02*
X73812990Y-79436909D01*
X73812990Y-79436909D02*
X73860610Y-79389290D01*
X73860610Y-79389290D02*
X73908229Y-79294052D01*
X73908229Y-79294052D02*
X73908229Y-79008338D01*
X73908229Y-79008338D02*
X73860610Y-78913100D01*
X73860610Y-78913100D02*
X73812990Y-78865481D01*
X73003467Y-79865481D02*
X72955848Y-79913100D01*
X72955848Y-79913100D02*
X72908229Y-80008338D01*
X72908229Y-80008338D02*
X72908229Y-80246433D01*
X72908229Y-80246433D02*
X72955848Y-80341671D01*
X72955848Y-80341671D02*
X73003467Y-80389290D01*
X73003467Y-80389290D02*
X73098705Y-80436909D01*
X73098705Y-80436909D02*
X73193943Y-80436909D01*
X73193943Y-80436909D02*
X73336800Y-80389290D01*
X73336800Y-80389290D02*
X73908229Y-79817862D01*
X73908229Y-79817862D02*
X73908229Y-80436909D01*
X58730994Y-57385580D02*
X58730994Y-58099865D01*
X58730994Y-58099865D02*
X58778613Y-58242722D01*
X58778613Y-58242722D02*
X58873851Y-58337961D01*
X58873851Y-58337961D02*
X59016708Y-58385580D01*
X59016708Y-58385580D02*
X59111946Y-58385580D01*
X57826232Y-57718913D02*
X57826232Y-58385580D01*
X58064327Y-57337961D02*
X58302422Y-58052246D01*
X58302422Y-58052246D02*
X57683375Y-58052246D01*
X72801020Y-69001246D02*
X73610543Y-69001246D01*
X73610543Y-69001246D02*
X73705781Y-69048865D01*
X73705781Y-69048865D02*
X73753401Y-69096484D01*
X73753401Y-69096484D02*
X73801020Y-69191722D01*
X73801020Y-69191722D02*
X73801020Y-69382198D01*
X73801020Y-69382198D02*
X73753401Y-69477436D01*
X73753401Y-69477436D02*
X73705781Y-69525055D01*
X73705781Y-69525055D02*
X73610543Y-69572674D01*
X73610543Y-69572674D02*
X72801020Y-69572674D01*
X72801020Y-69953627D02*
X72801020Y-70572674D01*
X72801020Y-70572674D02*
X73181972Y-70239341D01*
X73181972Y-70239341D02*
X73181972Y-70382198D01*
X73181972Y-70382198D02*
X73229591Y-70477436D01*
X73229591Y-70477436D02*
X73277210Y-70525055D01*
X73277210Y-70525055D02*
X73372448Y-70572674D01*
X73372448Y-70572674D02*
X73610543Y-70572674D01*
X73610543Y-70572674D02*
X73705781Y-70525055D01*
X73705781Y-70525055D02*
X73753401Y-70477436D01*
X73753401Y-70477436D02*
X73801020Y-70382198D01*
X73801020Y-70382198D02*
X73801020Y-70096484D01*
X73801020Y-70096484D02*
X73753401Y-70001246D01*
X73753401Y-70001246D02*
X73705781Y-69953627D01*
X73801020Y-71525055D02*
X73801020Y-70953627D01*
X73801020Y-71239341D02*
X72801020Y-71239341D01*
X72801020Y-71239341D02*
X72943877Y-71144103D01*
X72943877Y-71144103D02*
X73039115Y-71048865D01*
X73039115Y-71048865D02*
X73086734Y-70953627D01*
X71741355Y-125976959D02*
X71741355Y-126786482D01*
X71741355Y-126786482D02*
X71693736Y-126881720D01*
X71693736Y-126881720D02*
X71646117Y-126929340D01*
X71646117Y-126929340D02*
X71550879Y-126976959D01*
X71550879Y-126976959D02*
X71360403Y-126976959D01*
X71360403Y-126976959D02*
X71265165Y-126929340D01*
X71265165Y-126929340D02*
X71217546Y-126881720D01*
X71217546Y-126881720D02*
X71169927Y-126786482D01*
X71169927Y-126786482D02*
X71169927Y-125976959D01*
X70788974Y-125976959D02*
X70169927Y-125976959D01*
X70169927Y-125976959D02*
X70503260Y-126357911D01*
X70503260Y-126357911D02*
X70360403Y-126357911D01*
X70360403Y-126357911D02*
X70265165Y-126405530D01*
X70265165Y-126405530D02*
X70217546Y-126453149D01*
X70217546Y-126453149D02*
X70169927Y-126548387D01*
X70169927Y-126548387D02*
X70169927Y-126786482D01*
X70169927Y-126786482D02*
X70217546Y-126881720D01*
X70217546Y-126881720D02*
X70265165Y-126929340D01*
X70265165Y-126929340D02*
X70360403Y-126976959D01*
X70360403Y-126976959D02*
X70646117Y-126976959D01*
X70646117Y-126976959D02*
X70741355Y-126929340D01*
X70741355Y-126929340D02*
X70788974Y-126881720D01*
X69598498Y-126405530D02*
X69693736Y-126357911D01*
X69693736Y-126357911D02*
X69741355Y-126310292D01*
X69741355Y-126310292D02*
X69788974Y-126215054D01*
X69788974Y-126215054D02*
X69788974Y-126167435D01*
X69788974Y-126167435D02*
X69741355Y-126072197D01*
X69741355Y-126072197D02*
X69693736Y-126024578D01*
X69693736Y-126024578D02*
X69598498Y-125976959D01*
X69598498Y-125976959D02*
X69408022Y-125976959D01*
X69408022Y-125976959D02*
X69312784Y-126024578D01*
X69312784Y-126024578D02*
X69265165Y-126072197D01*
X69265165Y-126072197D02*
X69217546Y-126167435D01*
X69217546Y-126167435D02*
X69217546Y-126215054D01*
X69217546Y-126215054D02*
X69265165Y-126310292D01*
X69265165Y-126310292D02*
X69312784Y-126357911D01*
X69312784Y-126357911D02*
X69408022Y-126405530D01*
X69408022Y-126405530D02*
X69598498Y-126405530D01*
X69598498Y-126405530D02*
X69693736Y-126453149D01*
X69693736Y-126453149D02*
X69741355Y-126500768D01*
X69741355Y-126500768D02*
X69788974Y-126596006D01*
X69788974Y-126596006D02*
X69788974Y-126786482D01*
X69788974Y-126786482D02*
X69741355Y-126881720D01*
X69741355Y-126881720D02*
X69693736Y-126929340D01*
X69693736Y-126929340D02*
X69598498Y-126976959D01*
X69598498Y-126976959D02*
X69408022Y-126976959D01*
X69408022Y-126976959D02*
X69312784Y-126929340D01*
X69312784Y-126929340D02*
X69265165Y-126881720D01*
X69265165Y-126881720D02*
X69217546Y-126786482D01*
X69217546Y-126786482D02*
X69217546Y-126596006D01*
X69217546Y-126596006D02*
X69265165Y-126500768D01*
X69265165Y-126500768D02*
X69312784Y-126453149D01*
X69312784Y-126453149D02*
X69408022Y-126405530D01*
X98207105Y-71879637D02*
X98921390Y-71879637D01*
X98921390Y-71879637D02*
X99064247Y-71832018D01*
X99064247Y-71832018D02*
X99159486Y-71736780D01*
X99159486Y-71736780D02*
X99207105Y-71593923D01*
X99207105Y-71593923D02*
X99207105Y-71498685D01*
X98207105Y-72784399D02*
X98207105Y-72593923D01*
X98207105Y-72593923D02*
X98254724Y-72498685D01*
X98254724Y-72498685D02*
X98302343Y-72451066D01*
X98302343Y-72451066D02*
X98445200Y-72355828D01*
X98445200Y-72355828D02*
X98635676Y-72308209D01*
X98635676Y-72308209D02*
X99016628Y-72308209D01*
X99016628Y-72308209D02*
X99111866Y-72355828D01*
X99111866Y-72355828D02*
X99159486Y-72403447D01*
X99159486Y-72403447D02*
X99207105Y-72498685D01*
X99207105Y-72498685D02*
X99207105Y-72689161D01*
X99207105Y-72689161D02*
X99159486Y-72784399D01*
X99159486Y-72784399D02*
X99111866Y-72832018D01*
X99111866Y-72832018D02*
X99016628Y-72879637D01*
X99016628Y-72879637D02*
X98778533Y-72879637D01*
X98778533Y-72879637D02*
X98683295Y-72832018D01*
X98683295Y-72832018D02*
X98635676Y-72784399D01*
X98635676Y-72784399D02*
X98588057Y-72689161D01*
X98588057Y-72689161D02*
X98588057Y-72498685D01*
X98588057Y-72498685D02*
X98635676Y-72403447D01*
X98635676Y-72403447D02*
X98683295Y-72355828D01*
X98683295Y-72355828D02*
X98778533Y-72308209D01*
X114749031Y-119056310D02*
X113749031Y-119056310D01*
X113749031Y-119056310D02*
X113749031Y-119294405D01*
X113749031Y-119294405D02*
X113796650Y-119437262D01*
X113796650Y-119437262D02*
X113891888Y-119532500D01*
X113891888Y-119532500D02*
X113987126Y-119580119D01*
X113987126Y-119580119D02*
X114177602Y-119627738D01*
X114177602Y-119627738D02*
X114320459Y-119627738D01*
X114320459Y-119627738D02*
X114510935Y-119580119D01*
X114510935Y-119580119D02*
X114606173Y-119532500D01*
X114606173Y-119532500D02*
X114701412Y-119437262D01*
X114701412Y-119437262D02*
X114749031Y-119294405D01*
X114749031Y-119294405D02*
X114749031Y-119056310D01*
X113749031Y-120484881D02*
X113749031Y-120294405D01*
X113749031Y-120294405D02*
X113796650Y-120199167D01*
X113796650Y-120199167D02*
X113844269Y-120151548D01*
X113844269Y-120151548D02*
X113987126Y-120056310D01*
X113987126Y-120056310D02*
X114177602Y-120008691D01*
X114177602Y-120008691D02*
X114558554Y-120008691D01*
X114558554Y-120008691D02*
X114653792Y-120056310D01*
X114653792Y-120056310D02*
X114701412Y-120103929D01*
X114701412Y-120103929D02*
X114749031Y-120199167D01*
X114749031Y-120199167D02*
X114749031Y-120389643D01*
X114749031Y-120389643D02*
X114701412Y-120484881D01*
X114701412Y-120484881D02*
X114653792Y-120532500D01*
X114653792Y-120532500D02*
X114558554Y-120580119D01*
X114558554Y-120580119D02*
X114320459Y-120580119D01*
X114320459Y-120580119D02*
X114225221Y-120532500D01*
X114225221Y-120532500D02*
X114177602Y-120484881D01*
X114177602Y-120484881D02*
X114129983Y-120389643D01*
X114129983Y-120389643D02*
X114129983Y-120199167D01*
X114129983Y-120199167D02*
X114177602Y-120103929D01*
X114177602Y-120103929D02*
X114225221Y-120056310D01*
X114225221Y-120056310D02*
X114320459Y-120008691D01*
X153132376Y-56785040D02*
X153132376Y-57499325D01*
X153132376Y-57499325D02*
X153179995Y-57642182D01*
X153179995Y-57642182D02*
X153275233Y-57737421D01*
X153275233Y-57737421D02*
X153418090Y-57785040D01*
X153418090Y-57785040D02*
X153513328Y-57785040D01*
X152179995Y-56785040D02*
X152656185Y-56785040D01*
X152656185Y-56785040D02*
X152703804Y-57261230D01*
X152703804Y-57261230D02*
X152656185Y-57213611D01*
X152656185Y-57213611D02*
X152560947Y-57165992D01*
X152560947Y-57165992D02*
X152322852Y-57165992D01*
X152322852Y-57165992D02*
X152227614Y-57213611D01*
X152227614Y-57213611D02*
X152179995Y-57261230D01*
X152179995Y-57261230D02*
X152132376Y-57356468D01*
X152132376Y-57356468D02*
X152132376Y-57594563D01*
X152132376Y-57594563D02*
X152179995Y-57689801D01*
X152179995Y-57689801D02*
X152227614Y-57737421D01*
X152227614Y-57737421D02*
X152322852Y-57785040D01*
X152322852Y-57785040D02*
X152560947Y-57785040D01*
X152560947Y-57785040D02*
X152656185Y-57737421D01*
X152656185Y-57737421D02*
X152703804Y-57689801D01*
X74930819Y-57987754D02*
X75645104Y-57987754D01*
X75645104Y-57987754D02*
X75787961Y-57940135D01*
X75787961Y-57940135D02*
X75883200Y-57844897D01*
X75883200Y-57844897D02*
X75930819Y-57702040D01*
X75930819Y-57702040D02*
X75930819Y-57606802D01*
X74930819Y-58368707D02*
X74930819Y-59035373D01*
X74930819Y-59035373D02*
X75930819Y-58606802D01*
D12*
%TO.C,J8*%
X105497000Y-114160000D02*
X105497000Y-115485000D01*
X111902000Y-115485000D02*
X111902000Y-119015000D01*
X111837000Y-115485000D02*
X111902000Y-115485000D01*
X105432000Y-115485000D02*
X105497000Y-115485000D01*
X105432000Y-115485000D02*
X105432000Y-119015000D01*
X111837000Y-119015000D02*
X111902000Y-119015000D01*
X105432000Y-119015000D02*
X105497000Y-119015000D01*
%TO.C,BT1*%
X115582727Y-114768393D02*
X116852413Y-115657436D01*
X121890198Y-119184932D02*
X120620513Y-118295888D01*
X115529746Y-112839094D02*
X113891442Y-111691942D01*
X115284170Y-111446366D02*
X114137018Y-113084670D01*
X115206462Y-110598450D02*
X117418172Y-112147106D01*
X117418172Y-112147106D02*
X115582727Y-114768393D01*
X123725643Y-116563645D02*
X121890198Y-119184932D01*
X127411827Y-119144739D02*
X123725643Y-116563645D01*
X127411827Y-119144739D02*
X140432012Y-100549988D01*
X114764425Y-108091539D02*
X115206462Y-110598450D01*
X126752173Y-90971261D02*
X114764425Y-108091539D01*
X126752173Y-90971261D02*
X130438357Y-93552355D01*
X130438357Y-93552355D02*
X132273802Y-90931068D01*
X136745828Y-97968894D02*
X138581273Y-95347607D01*
X140432012Y-100549988D02*
X136745828Y-97968894D01*
X132273802Y-90931068D02*
X133543487Y-91820112D01*
X138581273Y-95347607D02*
X137311587Y-94458564D01*
%TO.C,U25*%
X78455056Y-113257195D02*
X78455056Y-115207195D01*
X78455056Y-113257195D02*
X78455056Y-111307195D01*
X83575056Y-113257195D02*
X83575056Y-116707195D01*
X83575056Y-113257195D02*
X83575056Y-111307195D01*
%TO.C,U32*%
X72363410Y-83251195D02*
X72363410Y-77241195D01*
X65543410Y-81001195D02*
X65543410Y-77241195D01*
X65543410Y-77241195D02*
X66803410Y-77241195D01*
X72363410Y-77241195D02*
X71103410Y-77241195D01*
%TO.C,J4*%
X62693317Y-137405316D02*
X60033317Y-137405316D01*
X62693317Y-58605316D02*
X62693317Y-137405316D01*
X62693317Y-58605316D02*
X60033317Y-58605316D01*
X62693317Y-57335316D02*
X62693317Y-56005316D01*
X62693317Y-56005316D02*
X61363317Y-56005316D01*
X60033317Y-58605316D02*
X60033317Y-137405316D01*
%TO.C,U31*%
X72256201Y-74339341D02*
X72256201Y-68329341D01*
X65436201Y-72089341D02*
X65436201Y-68329341D01*
X65436201Y-68329341D02*
X66696201Y-68329341D01*
X72256201Y-68329341D02*
X70996201Y-68329341D01*
%TO.C,U38*%
X74603261Y-127612140D02*
X68593261Y-127612140D01*
X72353261Y-134432140D02*
X68593261Y-134432140D01*
X68593261Y-134432140D02*
X68593261Y-133172140D01*
X68593261Y-127612140D02*
X68593261Y-128872140D01*
%TO.C,J6*%
X140512286Y-70882971D02*
X140512286Y-73542971D01*
X102352286Y-70882971D02*
X140512286Y-70882971D01*
X102352286Y-70882971D02*
X102352286Y-73542971D01*
X101082286Y-70882971D02*
X99752286Y-70882971D01*
X99752286Y-70882971D02*
X99752286Y-72212971D01*
X102352286Y-73542971D02*
X140512286Y-73542971D01*
%TO.C,D6*%
X115184431Y-114276731D02*
X115184431Y-118176731D01*
X113184431Y-114276731D02*
X115184431Y-114276731D01*
X113184431Y-114276731D02*
X113184431Y-118176731D01*
%TO.C,J5*%
X156606000Y-137400221D02*
X153946000Y-137400221D01*
X156606000Y-58600221D02*
X156606000Y-137400221D01*
X156606000Y-58600221D02*
X153946000Y-58600221D01*
X156606000Y-57330221D02*
X156606000Y-56000221D01*
X156606000Y-56000221D02*
X155276000Y-56000221D01*
X153946000Y-58600221D02*
X153946000Y-137400221D01*
%TO.C,J7*%
X117236000Y-56991088D02*
X117236000Y-59651088D01*
X79076000Y-56991088D02*
X117236000Y-56991088D01*
X79076000Y-56991088D02*
X79076000Y-59651088D01*
X77806000Y-56991088D02*
X76476000Y-56991088D01*
X76476000Y-56991088D02*
X76476000Y-58321088D01*
X79076000Y-59651088D02*
X117236000Y-59651088D01*
%TD*%
%LPC*%
D13*
%TO.C,C6*%
X96348000Y-85119000D03*
D14*
X92848000Y-85119000D03*
%TD*%
D13*
%TO.C,J13*%
X88610209Y-87595853D03*
D14*
X86110209Y-87595853D03*
X83610209Y-87595853D03*
X81110209Y-87595853D03*
X78610209Y-87595853D03*
%TD*%
D15*
%TO.C,J11*%
X125881501Y-133044837D03*
D16*
X128421501Y-133044837D03*
X130961501Y-133044837D03*
X133501501Y-133044837D03*
X136041501Y-133044837D03*
X138581501Y-133044837D03*
%TD*%
D17*
%TO.C,C1*%
X68916000Y-62423028D03*
D14*
X68916000Y-58923028D03*
%TD*%
D15*
%TO.C,J12*%
X136088339Y-136214983D03*
D16*
X138628339Y-136214983D03*
%TD*%
D18*
%TO.C,J14*%
X86696000Y-102518000D03*
D19*
X86696000Y-100018000D03*
X83496000Y-100018000D03*
X83496000Y-102518000D03*
D20*
X83986000Y-95248000D03*
X83986000Y-107288000D03*
%TD*%
D21*
%TO.C,J9*%
X89236000Y-120679000D03*
X88220000Y-115599000D03*
X90252000Y-115599000D03*
%TD*%
D22*
%TO.C,J16*%
X67258834Y-118181164D03*
%TD*%
%TO.C,J15*%
X64502327Y-118189319D03*
%TD*%
D23*
%TO.C,J8*%
X106127000Y-115300000D03*
X106127000Y-119200000D03*
X107397000Y-115300000D03*
X107397000Y-119200000D03*
X108667000Y-115300000D03*
X108667000Y-119200000D03*
X109937000Y-115300000D03*
X109937000Y-119200000D03*
X111207000Y-115300000D03*
X111207000Y-119200000D03*
%TD*%
D24*
%TO.C,BT1*%
X118679105Y-117058577D03*
X135484895Y-93057423D03*
%TD*%
D25*
%TO.C,U25*%
X82920056Y-115732195D03*
X81650056Y-115732195D03*
X80380056Y-115732195D03*
X79110056Y-115732195D03*
X79110056Y-110782195D03*
X80380056Y-110782195D03*
X81650056Y-110782195D03*
X82920056Y-110782195D03*
%TD*%
D26*
%TO.C,U32*%
X71253410Y-82301195D03*
X68953410Y-82301195D03*
X66653410Y-82301195D03*
D27*
X68953410Y-76001195D03*
%TD*%
D28*
%TO.C,J4*%
X61363317Y-57335316D03*
D16*
X61363317Y-59875316D03*
X61363317Y-62415316D03*
X61363317Y-64955316D03*
X61363317Y-67495316D03*
X61363317Y-70035316D03*
X61363317Y-72575316D03*
X61363317Y-75115316D03*
X61363317Y-77655316D03*
X61363317Y-80195316D03*
X61363317Y-82735316D03*
X61363317Y-85275316D03*
X61363317Y-87815316D03*
X61363317Y-90355316D03*
X61363317Y-92895316D03*
X61363317Y-95435316D03*
X61363317Y-97975316D03*
X61363317Y-100515316D03*
X61363317Y-103055316D03*
X61363317Y-105595316D03*
X61363317Y-108135316D03*
X61363317Y-110675316D03*
X61363317Y-113215316D03*
X61363317Y-115755316D03*
X61363317Y-118295316D03*
X61363317Y-120835316D03*
X61363317Y-123375316D03*
X61363317Y-125915316D03*
X61363317Y-128455316D03*
X61363317Y-130995316D03*
X61363317Y-133535316D03*
X61363317Y-136075316D03*
%TD*%
D26*
%TO.C,U31*%
X71146201Y-73389341D03*
X68846201Y-73389341D03*
X66546201Y-73389341D03*
D27*
X68846201Y-67089341D03*
%TD*%
D29*
%TO.C,U38*%
X73653261Y-128722140D03*
X73653261Y-131022140D03*
X73653261Y-133322140D03*
D30*
X67353261Y-131022140D03*
%TD*%
D31*
%TO.C,J6*%
X101082286Y-72212971D03*
D16*
X103622286Y-72212971D03*
X106162286Y-72212971D03*
X108702286Y-72212971D03*
X111242286Y-72212971D03*
X113782286Y-72212971D03*
X116322286Y-72212971D03*
X118862286Y-72212971D03*
X121402286Y-72212971D03*
X123942286Y-72212971D03*
X126482286Y-72212971D03*
X129022286Y-72212971D03*
X131562286Y-72212971D03*
X134102286Y-72212971D03*
X136642286Y-72212971D03*
X139182286Y-72212971D03*
%TD*%
D32*
%TO.C,D6*%
X114184431Y-114876731D03*
X114184431Y-118176731D03*
%TD*%
D28*
%TO.C,J5*%
X155276000Y-57330221D03*
D16*
X155276000Y-59870221D03*
X155276000Y-62410221D03*
X155276000Y-64950221D03*
X155276000Y-67490221D03*
X155276000Y-70030221D03*
X155276000Y-72570221D03*
X155276000Y-75110221D03*
X155276000Y-77650221D03*
X155276000Y-80190221D03*
X155276000Y-82730221D03*
X155276000Y-85270221D03*
X155276000Y-87810221D03*
X155276000Y-90350221D03*
X155276000Y-92890221D03*
X155276000Y-95430221D03*
X155276000Y-97970221D03*
X155276000Y-100510221D03*
X155276000Y-103050221D03*
X155276000Y-105590221D03*
X155276000Y-108130221D03*
X155276000Y-110670221D03*
X155276000Y-113210221D03*
X155276000Y-115750221D03*
X155276000Y-118290221D03*
X155276000Y-120830221D03*
X155276000Y-123370221D03*
X155276000Y-125910221D03*
X155276000Y-128450221D03*
X155276000Y-130990221D03*
X155276000Y-133530221D03*
X155276000Y-136070221D03*
%TD*%
D31*
%TO.C,J7*%
X77806000Y-58321088D03*
D16*
X80346000Y-58321088D03*
X82886000Y-58321088D03*
X85426000Y-58321088D03*
X87966000Y-58321088D03*
X90506000Y-58321088D03*
X93046000Y-58321088D03*
X95586000Y-58321088D03*
X98126000Y-58321088D03*
X100666000Y-58321088D03*
X103206000Y-58321088D03*
X105746000Y-58321088D03*
X108286000Y-58321088D03*
X110826000Y-58321088D03*
X113366000Y-58321088D03*
X115906000Y-58321088D03*
%TD*%
%LPD*%
M02*
