%TF.GenerationSoftware,KiCad,Pcbnew,(6.0.1)*%
%TF.CreationDate,2023-05-16T01:36:19+01:00*%
%TF.ProjectId,polygonus-Shortage-Version,706f6c79-676f-46e7-9573-2d53686f7274,rev?*%
%TF.SameCoordinates,Original*%
%TF.FileFunction,Legend,Bot*%
%TF.FilePolarity,Positive*%
%FSLAX46Y46*%
G04 Gerber Fmt 4.6, Leading zero omitted, Abs format (unit mm)*
G04 Created by KiCad (PCBNEW (6.0.1)) date 2023-05-16 01:36:19*
%MOMM*%
%LPD*%
G01*
G04 APERTURE LIST*
G04 Aperture macros list*
%AMRoundRect*
0 Rectangle with rounded corners*
0 $1 Rounding radius*
0 $2 $3 $4 $5 $6 $7 $8 $9 X,Y pos of 4 corners*
0 Add a 4 corners polygon primitive as box body*
4,1,4,$2,$3,$4,$5,$6,$7,$8,$9,$2,$3,0*
0 Add four circle primitives for the rounded corners*
1,1,$1+$1,$2,$3*
1,1,$1+$1,$4,$5*
1,1,$1+$1,$6,$7*
1,1,$1+$1,$8,$9*
0 Add four rect primitives between the rounded corners*
20,1,$1+$1,$2,$3,$4,$5,0*
20,1,$1+$1,$4,$5,$6,$7,0*
20,1,$1+$1,$6,$7,$8,$9,0*
20,1,$1+$1,$8,$9,$2,$3,0*%
G04 Aperture macros list end*
%ADD10C,0.150000*%
%ADD11C,0.200000*%
%ADD12C,0.120000*%
%ADD13RoundRect,0.048000X0.800000X0.800000X-0.800000X0.800000X-0.800000X-0.800000X0.800000X-0.800000X0*%
%ADD14C,1.696000*%
%ADD15RoundRect,0.048000X0.850000X-0.850000X0.850000X0.850000X-0.850000X0.850000X-0.850000X-0.850000X0*%
%ADD16O,1.796000X1.796000*%
%ADD17RoundRect,0.048000X0.800000X-0.800000X0.800000X0.800000X-0.800000X0.800000X-0.800000X-0.800000X0*%
%ADD18RoundRect,0.048000X-0.700000X0.700000X-0.700000X-0.700000X0.700000X-0.700000X0.700000X0.700000X0*%
%ADD19C,1.496000*%
%ADD20C,3.096000*%
%ADD21C,1.086600*%
%ADD22RoundRect,0.048000X-0.370000X1.200000X-0.370000X-1.200000X0.370000X-1.200000X0.370000X1.200000X0*%
%ADD23RoundRect,0.048000X-0.728824X2.097335X-2.220123X-0.032460X0.728824X-2.097335X2.220123X0.032460X0*%
%ADD24RoundRect,0.198000X0.150000X-0.825000X0.150000X0.825000X-0.150000X0.825000X-0.150000X-0.825000X0*%
%ADD25RoundRect,0.048000X0.750000X-1.000000X0.750000X1.000000X-0.750000X1.000000X-0.750000X-1.000000X0*%
%ADD26RoundRect,0.048000X1.900000X-1.000000X1.900000X1.000000X-1.900000X1.000000X-1.900000X-1.000000X0*%
%ADD27RoundRect,0.048000X0.850000X0.850000X-0.850000X0.850000X-0.850000X-0.850000X0.850000X-0.850000X0*%
%ADD28RoundRect,0.048000X1.000000X0.750000X-1.000000X0.750000X-1.000000X-0.750000X1.000000X-0.750000X0*%
%ADD29RoundRect,0.048000X1.000000X1.900000X-1.000000X1.900000X-1.000000X-1.900000X1.000000X-1.900000X0*%
%ADD30RoundRect,0.048000X-0.850000X0.850000X-0.850000X-0.850000X0.850000X-0.850000X0.850000X0.850000X0*%
%ADD31RoundRect,0.048000X-0.600000X0.450000X-0.600000X-0.450000X0.600000X-0.450000X0.600000X0.450000X0*%
G04 APERTURE END LIST*
D10*
X78655380Y-95295142D02*
X79464904Y-95295142D01*
X79560142Y-95342761D01*
X79607761Y-95390380D01*
X79655380Y-95485619D01*
X79655380Y-95676095D01*
X79607761Y-95771333D01*
X79560142Y-95818952D01*
X79464904Y-95866571D01*
X78655380Y-95866571D01*
X79607761Y-96295142D02*
X79655380Y-96438000D01*
X79655380Y-96676095D01*
X79607761Y-96771333D01*
X79560142Y-96818952D01*
X79464904Y-96866571D01*
X79369666Y-96866571D01*
X79274428Y-96818952D01*
X79226809Y-96771333D01*
X79179190Y-96676095D01*
X79131571Y-96485619D01*
X79083952Y-96390380D01*
X79036333Y-96342761D01*
X78941095Y-96295142D01*
X78845857Y-96295142D01*
X78750619Y-96342761D01*
X78703000Y-96390380D01*
X78655380Y-96485619D01*
X78655380Y-96723714D01*
X78703000Y-96866571D01*
X79131571Y-97628476D02*
X79179190Y-97771333D01*
X79226809Y-97818952D01*
X79322047Y-97866571D01*
X79464904Y-97866571D01*
X79560142Y-97818952D01*
X79607761Y-97771333D01*
X79655380Y-97676095D01*
X79655380Y-97295142D01*
X78655380Y-97295142D01*
X78655380Y-97628476D01*
X78703000Y-97723714D01*
X78750619Y-97771333D01*
X78845857Y-97818952D01*
X78941095Y-97818952D01*
X79036333Y-97771333D01*
X79083952Y-97723714D01*
X79131571Y-97628476D01*
X79131571Y-97295142D01*
X79131571Y-99390380D02*
X79179190Y-99533238D01*
X79226809Y-99580857D01*
X79322047Y-99628476D01*
X79464904Y-99628476D01*
X79560142Y-99580857D01*
X79607761Y-99533238D01*
X79655380Y-99438000D01*
X79655380Y-99057047D01*
X78655380Y-99057047D01*
X78655380Y-99390380D01*
X78703000Y-99485619D01*
X78750619Y-99533238D01*
X78845857Y-99580857D01*
X78941095Y-99580857D01*
X79036333Y-99533238D01*
X79083952Y-99485619D01*
X79131571Y-99390380D01*
X79131571Y-99057047D01*
D11*
X117954807Y-114199198D02*
X116811950Y-114199198D01*
X117383379Y-114770627D02*
X117383379Y-113627770D01*
D10*
%TO.C,U25*%
X83867436Y-112019099D02*
X84676960Y-112019099D01*
X84772198Y-112066718D01*
X84819817Y-112114337D01*
X84867436Y-112209575D01*
X84867436Y-112400052D01*
X84819817Y-112495290D01*
X84772198Y-112542909D01*
X84676960Y-112590528D01*
X83867436Y-112590528D01*
X83962675Y-113019099D02*
X83915056Y-113066718D01*
X83867436Y-113161956D01*
X83867436Y-113400052D01*
X83915056Y-113495290D01*
X83962675Y-113542909D01*
X84057913Y-113590528D01*
X84153151Y-113590528D01*
X84296008Y-113542909D01*
X84867436Y-112971480D01*
X84867436Y-113590528D01*
X83867436Y-114495290D02*
X83867436Y-114019099D01*
X84343627Y-113971480D01*
X84296008Y-114019099D01*
X84248389Y-114114337D01*
X84248389Y-114352433D01*
X84296008Y-114447671D01*
X84343627Y-114495290D01*
X84438865Y-114542909D01*
X84676960Y-114542909D01*
X84772198Y-114495290D01*
X84819817Y-114447671D01*
X84867436Y-114352433D01*
X84867436Y-114114337D01*
X84819817Y-114019099D01*
X84772198Y-113971480D01*
%TO.C,U32*%
X72905790Y-77913099D02*
X73715314Y-77913099D01*
X73810552Y-77960718D01*
X73858171Y-78008337D01*
X73905790Y-78103575D01*
X73905790Y-78294052D01*
X73858171Y-78389290D01*
X73810552Y-78436909D01*
X73715314Y-78484528D01*
X72905790Y-78484528D01*
X72905790Y-78865480D02*
X72905790Y-79484528D01*
X73286743Y-79151195D01*
X73286743Y-79294052D01*
X73334362Y-79389290D01*
X73381981Y-79436909D01*
X73477219Y-79484528D01*
X73715314Y-79484528D01*
X73810552Y-79436909D01*
X73858171Y-79389290D01*
X73905790Y-79294052D01*
X73905790Y-79008337D01*
X73858171Y-78913099D01*
X73810552Y-78865480D01*
X73001029Y-79865480D02*
X72953410Y-79913099D01*
X72905790Y-80008337D01*
X72905790Y-80246433D01*
X72953410Y-80341671D01*
X73001029Y-80389290D01*
X73096267Y-80436909D01*
X73191505Y-80436909D01*
X73334362Y-80389290D01*
X73905790Y-79817861D01*
X73905790Y-80436909D01*
%TO.C,J4*%
X58730994Y-57383141D02*
X58730994Y-58097427D01*
X58778613Y-58240284D01*
X58873851Y-58335522D01*
X59016708Y-58383141D01*
X59111946Y-58383141D01*
X57826232Y-57716475D02*
X57826232Y-58383141D01*
X58064327Y-57335522D02*
X58302422Y-58049808D01*
X57683375Y-58049808D01*
%TO.C,U31*%
X72798581Y-69001245D02*
X73608105Y-69001245D01*
X73703343Y-69048864D01*
X73750962Y-69096483D01*
X73798581Y-69191721D01*
X73798581Y-69382198D01*
X73750962Y-69477436D01*
X73703343Y-69525055D01*
X73608105Y-69572674D01*
X72798581Y-69572674D01*
X72798581Y-69953626D02*
X72798581Y-70572674D01*
X73179534Y-70239341D01*
X73179534Y-70382198D01*
X73227153Y-70477436D01*
X73274772Y-70525055D01*
X73370010Y-70572674D01*
X73608105Y-70572674D01*
X73703343Y-70525055D01*
X73750962Y-70477436D01*
X73798581Y-70382198D01*
X73798581Y-70096483D01*
X73750962Y-70001245D01*
X73703343Y-69953626D01*
X73798581Y-71525055D02*
X73798581Y-70953626D01*
X73798581Y-71239341D02*
X72798581Y-71239341D01*
X72941439Y-71144102D01*
X73036677Y-71048864D01*
X73084296Y-70953626D01*
%TO.C,U38*%
X71741356Y-125974520D02*
X71741356Y-126784044D01*
X71693737Y-126879282D01*
X71646118Y-126926901D01*
X71550880Y-126974520D01*
X71360403Y-126974520D01*
X71265165Y-126926901D01*
X71217546Y-126879282D01*
X71169927Y-126784044D01*
X71169927Y-125974520D01*
X70788975Y-125974520D02*
X70169927Y-125974520D01*
X70503261Y-126355473D01*
X70360403Y-126355473D01*
X70265165Y-126403092D01*
X70217546Y-126450711D01*
X70169927Y-126545949D01*
X70169927Y-126784044D01*
X70217546Y-126879282D01*
X70265165Y-126926901D01*
X70360403Y-126974520D01*
X70646118Y-126974520D01*
X70741356Y-126926901D01*
X70788975Y-126879282D01*
X69598499Y-126403092D02*
X69693737Y-126355473D01*
X69741356Y-126307854D01*
X69788975Y-126212616D01*
X69788975Y-126164997D01*
X69741356Y-126069759D01*
X69693737Y-126022140D01*
X69598499Y-125974520D01*
X69408022Y-125974520D01*
X69312784Y-126022140D01*
X69265165Y-126069759D01*
X69217546Y-126164997D01*
X69217546Y-126212616D01*
X69265165Y-126307854D01*
X69312784Y-126355473D01*
X69408022Y-126403092D01*
X69598499Y-126403092D01*
X69693737Y-126450711D01*
X69741356Y-126498330D01*
X69788975Y-126593568D01*
X69788975Y-126784044D01*
X69741356Y-126879282D01*
X69693737Y-126926901D01*
X69598499Y-126974520D01*
X69408022Y-126974520D01*
X69312784Y-126926901D01*
X69265165Y-126879282D01*
X69217546Y-126784044D01*
X69217546Y-126593568D01*
X69265165Y-126498330D01*
X69312784Y-126450711D01*
X69408022Y-126403092D01*
%TO.C,J6*%
X98204666Y-71879637D02*
X98918952Y-71879637D01*
X99061809Y-71832018D01*
X99157047Y-71736780D01*
X99204666Y-71593923D01*
X99204666Y-71498685D01*
X98204666Y-72784399D02*
X98204666Y-72593923D01*
X98252286Y-72498685D01*
X98299905Y-72451066D01*
X98442762Y-72355828D01*
X98633238Y-72308209D01*
X99014190Y-72308209D01*
X99109428Y-72355828D01*
X99157047Y-72403447D01*
X99204666Y-72498685D01*
X99204666Y-72689161D01*
X99157047Y-72784399D01*
X99109428Y-72832018D01*
X99014190Y-72879637D01*
X98776095Y-72879637D01*
X98680857Y-72832018D01*
X98633238Y-72784399D01*
X98585619Y-72689161D01*
X98585619Y-72498685D01*
X98633238Y-72403447D01*
X98680857Y-72355828D01*
X98776095Y-72308209D01*
%TO.C,D6*%
X114746592Y-119056309D02*
X113746592Y-119056309D01*
X113746592Y-119294405D01*
X113794212Y-119437262D01*
X113889450Y-119532500D01*
X113984688Y-119580119D01*
X114175164Y-119627738D01*
X114318021Y-119627738D01*
X114508497Y-119580119D01*
X114603735Y-119532500D01*
X114698973Y-119437262D01*
X114746592Y-119294405D01*
X114746592Y-119056309D01*
X113746592Y-120484881D02*
X113746592Y-120294405D01*
X113794212Y-120199166D01*
X113841831Y-120151547D01*
X113984688Y-120056309D01*
X114175164Y-120008690D01*
X114556116Y-120008690D01*
X114651354Y-120056309D01*
X114698973Y-120103928D01*
X114746592Y-120199166D01*
X114746592Y-120389643D01*
X114698973Y-120484881D01*
X114651354Y-120532500D01*
X114556116Y-120580119D01*
X114318021Y-120580119D01*
X114222783Y-120532500D01*
X114175164Y-120484881D01*
X114127545Y-120389643D01*
X114127545Y-120199166D01*
X114175164Y-120103928D01*
X114222783Y-120056309D01*
X114318021Y-120008690D01*
%TO.C,J5*%
X153132376Y-56782601D02*
X153132376Y-57496887D01*
X153179995Y-57639744D01*
X153275233Y-57734982D01*
X153418090Y-57782601D01*
X153513328Y-57782601D01*
X152179995Y-56782601D02*
X152656185Y-56782601D01*
X152703804Y-57258792D01*
X152656185Y-57211173D01*
X152560947Y-57163554D01*
X152322852Y-57163554D01*
X152227614Y-57211173D01*
X152179995Y-57258792D01*
X152132376Y-57354030D01*
X152132376Y-57592125D01*
X152179995Y-57687363D01*
X152227614Y-57734982D01*
X152322852Y-57782601D01*
X152560947Y-57782601D01*
X152656185Y-57734982D01*
X152703804Y-57687363D01*
%TO.C,J7*%
X74928380Y-57987754D02*
X75642666Y-57987754D01*
X75785523Y-57940135D01*
X75880761Y-57844897D01*
X75928380Y-57702040D01*
X75928380Y-57606802D01*
X74928380Y-58368707D02*
X74928380Y-59035373D01*
X75928380Y-58606802D01*
D12*
%TO.C,J8*%
X105432000Y-115485000D02*
X105432000Y-119015000D01*
X111902000Y-115485000D02*
X111902000Y-119015000D01*
X111837000Y-115485000D02*
X111902000Y-115485000D01*
X105432000Y-119015000D02*
X105497000Y-119015000D01*
X111837000Y-119015000D02*
X111902000Y-119015000D01*
X105432000Y-115485000D02*
X105497000Y-115485000D01*
X105497000Y-114160000D02*
X105497000Y-115485000D01*
%TO.C,BT1*%
X115206462Y-110598450D02*
X117418172Y-112147106D01*
X117418172Y-112147106D02*
X115582727Y-114768393D01*
X140432012Y-100549988D02*
X136745828Y-97968894D01*
X123725643Y-116563645D02*
X121890198Y-119184932D01*
X114764425Y-108091539D02*
X115206462Y-110598450D01*
X126752173Y-90971261D02*
X130438357Y-93552355D01*
X138581273Y-95347607D02*
X137311587Y-94458564D01*
X115529746Y-112839094D02*
X113891442Y-111691942D01*
X115582727Y-114768393D02*
X116852413Y-115657436D01*
X132273802Y-90931068D02*
X133543487Y-91820112D01*
X127411827Y-119144739D02*
X140432012Y-100549988D01*
X127411827Y-119144739D02*
X123725643Y-116563645D01*
X121890198Y-119184932D02*
X120620513Y-118295888D01*
X136745828Y-97968894D02*
X138581273Y-95347607D01*
X126752173Y-90971261D02*
X114764425Y-108091539D01*
X115284170Y-111446366D02*
X114137018Y-113084670D01*
X130438357Y-93552355D02*
X132273802Y-90931068D01*
%TO.C,U25*%
X83575056Y-113257195D02*
X83575056Y-116707195D01*
X78455056Y-113257195D02*
X78455056Y-111307195D01*
X83575056Y-113257195D02*
X83575056Y-111307195D01*
X78455056Y-113257195D02*
X78455056Y-115207195D01*
%TO.C,U32*%
X72363410Y-77241195D02*
X71103410Y-77241195D01*
X65543410Y-81001195D02*
X65543410Y-77241195D01*
X72363410Y-83251195D02*
X72363410Y-77241195D01*
X65543410Y-77241195D02*
X66803410Y-77241195D01*
%TO.C,J4*%
X62693317Y-58605316D02*
X60033317Y-58605316D01*
X60033317Y-58605316D02*
X60033317Y-137405316D01*
X62693317Y-58605316D02*
X62693317Y-137405316D01*
X62693317Y-56005316D02*
X61363317Y-56005316D01*
X62693317Y-137405316D02*
X60033317Y-137405316D01*
X62693317Y-57335316D02*
X62693317Y-56005316D01*
%TO.C,U31*%
X65436201Y-68329341D02*
X66696201Y-68329341D01*
X65436201Y-72089341D02*
X65436201Y-68329341D01*
X72256201Y-68329341D02*
X70996201Y-68329341D01*
X72256201Y-74339341D02*
X72256201Y-68329341D01*
%TO.C,U38*%
X68593261Y-127612140D02*
X68593261Y-128872140D01*
X72353261Y-134432140D02*
X68593261Y-134432140D01*
X74603261Y-127612140D02*
X68593261Y-127612140D01*
X68593261Y-134432140D02*
X68593261Y-133172140D01*
%TO.C,J6*%
X140512286Y-70882971D02*
X140512286Y-73542971D01*
X101082286Y-70882971D02*
X99752286Y-70882971D01*
X102352286Y-73542971D02*
X140512286Y-73542971D01*
X102352286Y-70882971D02*
X140512286Y-70882971D01*
X99752286Y-70882971D02*
X99752286Y-72212971D01*
X102352286Y-70882971D02*
X102352286Y-73542971D01*
%TO.C,D6*%
X113184431Y-114276731D02*
X113184431Y-118176731D01*
X115184431Y-114276731D02*
X115184431Y-118176731D01*
X113184431Y-114276731D02*
X115184431Y-114276731D01*
%TO.C,J5*%
X156606000Y-56000221D02*
X155276000Y-56000221D01*
X156606000Y-57330221D02*
X156606000Y-56000221D01*
X153946000Y-58600221D02*
X153946000Y-137400221D01*
X156606000Y-137400221D02*
X153946000Y-137400221D01*
X156606000Y-58600221D02*
X156606000Y-137400221D01*
X156606000Y-58600221D02*
X153946000Y-58600221D01*
%TO.C,J7*%
X79076000Y-56991088D02*
X79076000Y-59651088D01*
X77806000Y-56991088D02*
X76476000Y-56991088D01*
X117236000Y-56991088D02*
X117236000Y-59651088D01*
X76476000Y-56991088D02*
X76476000Y-58321088D01*
X79076000Y-56991088D02*
X117236000Y-56991088D01*
X79076000Y-59651088D02*
X117236000Y-59651088D01*
%TD*%
%LPC*%
D13*
%TO.C,C6*%
X96348000Y-85119000D03*
D14*
X92848000Y-85119000D03*
%TD*%
D13*
%TO.C,J13*%
X88610209Y-87595853D03*
D14*
X86110209Y-87595853D03*
X83610209Y-87595853D03*
X81110209Y-87595853D03*
X78610209Y-87595853D03*
%TD*%
D15*
%TO.C,J11*%
X125881501Y-133044837D03*
D16*
X128421501Y-133044837D03*
X130961501Y-133044837D03*
X133501501Y-133044837D03*
X136041501Y-133044837D03*
X138581501Y-133044837D03*
%TD*%
D17*
%TO.C,C1*%
X68916000Y-62423028D03*
D14*
X68916000Y-58923028D03*
%TD*%
D15*
%TO.C,J12*%
X136088339Y-136214983D03*
D16*
X138628339Y-136214983D03*
%TD*%
D18*
%TO.C,J14*%
X86696000Y-102518000D03*
D19*
X86696000Y-100018000D03*
X83496000Y-100018000D03*
X83496000Y-102518000D03*
D20*
X83986000Y-107288000D03*
X83986000Y-95248000D03*
%TD*%
D21*
%TO.C,J9*%
X89236000Y-120679000D03*
X90252000Y-115599000D03*
X88220000Y-115599000D03*
%TD*%
D22*
%TO.C,J8*%
X106127000Y-115300000D03*
X106127000Y-119200000D03*
X107397000Y-115300000D03*
X107397000Y-119200000D03*
X108667000Y-115300000D03*
X108667000Y-119200000D03*
X109937000Y-115300000D03*
X109937000Y-119200000D03*
X111207000Y-115300000D03*
X111207000Y-119200000D03*
%TD*%
D23*
%TO.C,BT1*%
X118679105Y-117058577D03*
X135484895Y-93057423D03*
%TD*%
D24*
%TO.C,U25*%
X82920056Y-115732195D03*
X81650056Y-115732195D03*
X80380056Y-115732195D03*
X79110056Y-115732195D03*
X79110056Y-110782195D03*
X80380056Y-110782195D03*
X81650056Y-110782195D03*
X82920056Y-110782195D03*
%TD*%
D25*
%TO.C,U32*%
X71253410Y-82301195D03*
X68953410Y-82301195D03*
X66653410Y-82301195D03*
D26*
X68953410Y-76001195D03*
%TD*%
D27*
%TO.C,J4*%
X61363317Y-57335316D03*
D16*
X61363317Y-59875316D03*
X61363317Y-62415316D03*
X61363317Y-64955316D03*
X61363317Y-67495316D03*
X61363317Y-70035316D03*
X61363317Y-72575316D03*
X61363317Y-75115316D03*
X61363317Y-77655316D03*
X61363317Y-80195316D03*
X61363317Y-82735316D03*
X61363317Y-85275316D03*
X61363317Y-87815316D03*
X61363317Y-90355316D03*
X61363317Y-92895316D03*
X61363317Y-95435316D03*
X61363317Y-97975316D03*
X61363317Y-100515316D03*
X61363317Y-103055316D03*
X61363317Y-105595316D03*
X61363317Y-108135316D03*
X61363317Y-110675316D03*
X61363317Y-113215316D03*
X61363317Y-115755316D03*
X61363317Y-118295316D03*
X61363317Y-120835316D03*
X61363317Y-123375316D03*
X61363317Y-125915316D03*
X61363317Y-128455316D03*
X61363317Y-130995316D03*
X61363317Y-133535316D03*
X61363317Y-136075316D03*
%TD*%
D25*
%TO.C,U31*%
X71146201Y-73389341D03*
X68846201Y-73389341D03*
X66546201Y-73389341D03*
D26*
X68846201Y-67089341D03*
%TD*%
D28*
%TO.C,U38*%
X73653261Y-128722140D03*
X73653261Y-131022140D03*
X73653261Y-133322140D03*
D29*
X67353261Y-131022140D03*
%TD*%
D30*
%TO.C,J6*%
X101082286Y-72212971D03*
D16*
X103622286Y-72212971D03*
X106162286Y-72212971D03*
X108702286Y-72212971D03*
X111242286Y-72212971D03*
X113782286Y-72212971D03*
X116322286Y-72212971D03*
X118862286Y-72212971D03*
X121402286Y-72212971D03*
X123942286Y-72212971D03*
X126482286Y-72212971D03*
X129022286Y-72212971D03*
X131562286Y-72212971D03*
X134102286Y-72212971D03*
X136642286Y-72212971D03*
X139182286Y-72212971D03*
%TD*%
D31*
%TO.C,D6*%
X114184431Y-114876731D03*
X114184431Y-118176731D03*
%TD*%
D27*
%TO.C,J5*%
X155276000Y-57330221D03*
D16*
X155276000Y-59870221D03*
X155276000Y-62410221D03*
X155276000Y-64950221D03*
X155276000Y-67490221D03*
X155276000Y-70030221D03*
X155276000Y-72570221D03*
X155276000Y-75110221D03*
X155276000Y-77650221D03*
X155276000Y-80190221D03*
X155276000Y-82730221D03*
X155276000Y-85270221D03*
X155276000Y-87810221D03*
X155276000Y-90350221D03*
X155276000Y-92890221D03*
X155276000Y-95430221D03*
X155276000Y-97970221D03*
X155276000Y-100510221D03*
X155276000Y-103050221D03*
X155276000Y-105590221D03*
X155276000Y-108130221D03*
X155276000Y-110670221D03*
X155276000Y-113210221D03*
X155276000Y-115750221D03*
X155276000Y-118290221D03*
X155276000Y-120830221D03*
X155276000Y-123370221D03*
X155276000Y-125910221D03*
X155276000Y-128450221D03*
X155276000Y-130990221D03*
X155276000Y-133530221D03*
X155276000Y-136070221D03*
%TD*%
D30*
%TO.C,J7*%
X77806000Y-58321088D03*
D16*
X80346000Y-58321088D03*
X82886000Y-58321088D03*
X85426000Y-58321088D03*
X87966000Y-58321088D03*
X90506000Y-58321088D03*
X93046000Y-58321088D03*
X95586000Y-58321088D03*
X98126000Y-58321088D03*
X100666000Y-58321088D03*
X103206000Y-58321088D03*
X105746000Y-58321088D03*
X108286000Y-58321088D03*
X110826000Y-58321088D03*
X113366000Y-58321088D03*
X115906000Y-58321088D03*
%TD*%
M02*
