M48
; DRILL file {KiCad (6.0.1)} date Wed Jul 12 16:45:15 2023
; FORMAT={-:-/ absolute / inch / decimal}
; #@! TF.CreationDate,2023-07-12T16:45:15+01:00
; #@! TF.GenerationSoftware,Kicad,Pcbnew,(6.0.1)
; #@! TF.FileFunction,Plated,1,4,PTH
FMAT,2
INCH
; #@! TA.AperFunction,Plated,PTH,ViaDrill
T1C0.0118
; #@! TA.AperFunction,Plated,PTH,ViaDrill
T2C0.0118
; #@! TA.AperFunction,Plated,PTH,ViaDrill
T3C0.0157
; #@! TA.AperFunction,Plated,PTH,ComponentDrill
T4C0.0315
; #@! TA.AperFunction,Plated,PTH,ComponentDrill
T5C0.0362
; #@! TA.AperFunction,Plated,PTH,ComponentDrill
T6C0.0394
; #@! TA.AperFunction,Plated,PTH,ComponentDrill
T7C0.0433
; #@! TA.AperFunction,Plated,PTH,ViaDrill
T8C0.0551
; #@! TA.AperFunction,Plated,PTH,ComponentDrill
T9C0.0906
%
G90
G05
T1
X2.2859Y-5.3883
X2.3389Y-2.2562
X2.3828Y-5.2073
X2.4478Y-4.0008
X2.4571Y-5.0027
X2.4762Y-3.2498
X2.4764Y-3.3593
X2.4766Y-4.1481
X2.4789Y-3.8477
X2.4789Y-4.3081
X2.4812Y-4.4705
X2.4819Y-4.8205
X2.5043Y-5.2249
X2.5144Y-2.6099
X2.517Y-3.001
X2.5326Y-2.7594
X2.5328Y-5.0082
X2.537Y-3.1821
X2.5499Y-3.594
X2.5607Y-4.5772
X2.5871Y-5.084
X2.5872Y-5.2599
X2.6055Y-4.6615
X2.6188Y-3.7719
X2.6205Y-5.3584
X2.6228Y-4.0468
X2.6241Y-2.8209
X2.6242Y-4.187
X2.625Y-4.329
X2.625Y-4.4748
X2.634Y-4.8194
X2.6465Y-2.2971
X2.6562Y-3.6361
X2.6633Y-3.9487
X2.6682Y-3.5257
X2.6736Y-3.5668
X2.6793Y-3.6138
X2.6808Y-4.4249
X2.6826Y-5.0624
X2.6927Y-3.3488
X2.6933Y-3.0704
X2.6943Y-3.1722
X2.6963Y-3.5896
X2.7014Y-3.6351
X2.7238Y-5.1984
X2.732Y-5.091
X2.7326Y-5.1612
X2.7419Y-5.0054
X2.7465Y-5.3199
X2.7502Y-3.8394
X2.7506Y-3.9077
X2.7513Y-3.7529
X2.7521Y-3.6962
X2.7623Y-4.4781
X2.7718Y-3.4124
X2.7729Y-5.0821
X2.7731Y-3.5847
X2.7963Y-5.1662
X2.7972Y-4.3165
X2.7997Y-4.1167
X2.8001Y-3.7925
X2.8023Y-4.3703
X2.804Y-3.4016
X2.8053Y-3.5825
X2.8089Y-2.52
X2.8111Y-5.2268
X2.8134Y-5.0892
X2.8141Y-5.2909
X2.8214Y-3.3443
X2.836Y-5.0531
X2.8361Y-2.9828
X2.8375Y-3.5825
X2.8426Y-3.4102
X2.8444Y-2.2142
X2.8444Y-2.3907
X2.8453Y-2.643
X2.8473Y-3.3713
X2.8591Y-5.3392
X2.8654Y-3.2413
X2.8664Y-3.1949
X2.8702Y-3.582
X2.901Y-3.5833
X2.9012Y-3.9139
X2.9029Y-3.9576
X2.9035Y-4.5186
X2.9048Y-3.2381
X2.9091Y-4.2592
X2.9096Y-4.1696
X2.9099Y-4.4538
X2.9118Y-4.9992
X2.9119Y-3.8539
X2.9135Y-3.7762
X2.9137Y-3.8107
X2.9225Y-4.2065
X2.926Y-4.4893
X2.9319Y-3.5847
X2.9431Y-3.7542
X2.9471Y-2.8722
X2.9562Y-5.4015
X2.9594Y-5.2441
X2.9602Y-5.0447
X2.9616Y-5.1129
X2.9643Y-2.9931
X2.9649Y-3.5847
X2.9697Y-3.1223
X2.9758Y-3.7103
X2.9844Y-3.9061
X2.997Y-3.7848
X3.0145Y-2.643
X3.025Y-3.2274
X3.0259Y-5.3159
X3.0292Y-5.0096
X3.0339Y-3.1231
X3.0494Y-4.3752
X3.06Y-3.9809
X3.0618Y-3.7054
X3.0639Y-2.3539
X3.0646Y-3.7453
X3.0667Y-2.8765
X3.0756Y-3.5082
X3.0932Y-4.0161
X3.0973Y-5.2327
X3.0987Y-2.9928
X3.0987Y-3.2116
X3.1017Y-3.6771
X3.1033Y-3.71
X3.1076Y-5.3356
X3.1076Y-5.3693
X3.1082Y-5.303
X3.1093Y-5.2677
X3.1232Y-4.0461
X3.1386Y-4.4955
X3.1439Y-3.4006
X3.1616Y-3.9459
X3.1632Y-4.0461
X3.175Y-3.0967
X3.1767Y-2.3539
X3.1853Y-2.9873
X3.1854Y-3.2707
X3.1932Y-4.0261
X3.2204Y-4.9353
X3.2204Y-3.2448
X3.2498Y-3.5031
X3.2536Y-5.1266
X3.2689Y-3.2321
X3.2696Y-3.9875
X3.2815Y-2.355
X3.2828Y-3.6544
X3.3009Y-2.7261
X3.3088Y-3.9875
X3.3232Y-5.0861
X3.3252Y-3.199
X3.3315Y-2.5062
X3.3429Y-2.6405
X3.3431Y-3.4023
X3.3457Y-5.1254
X3.3482Y-4.6311
X3.3574Y-5.0361
X3.3605Y-3.8155
X3.3766Y-2.3535
X3.3812Y-4.1721
X3.3865Y-3.2746
X3.3865Y-3.3042
X3.3869Y-3.3343
X3.3875Y-3.3656
X3.3932Y-3.2121
X3.4033Y-4.5178
X3.4132Y-4.1701
X3.4132Y-5.0861
X3.4275Y-3.0762
X3.4283Y-2.6602
X3.4285Y-2.7209
X3.429Y-2.6869
X3.429Y-2.7519
X3.4332Y-5.1261
X3.4482Y-4.6711
X3.4482Y-4.7011
X3.4634Y-4.7377
X3.4708Y-2.6834
X3.4748Y-3.3496
X3.4752Y-3.2884
X3.4856Y-2.3512
X3.495Y-3.5959
X3.5132Y-2.6361
X3.5191Y-3.0824
X3.5338Y-2.788
X3.5342Y-2.6567
X3.5353Y-3.838
X3.5409Y-4.4722
X3.5554Y-2.678
X3.5582Y-4.7761
X3.5654Y-2.788
X3.5697Y-2.6448
X3.5764Y-4.5983
X3.5766Y-3.9184
X3.5806Y-2.6847
X3.5821Y-4.7348
X3.5853Y-4.0754
X3.598Y-2.9682
X3.6011Y-5.1968
X3.6099Y-4.0526
X3.6163Y-2.5906
X3.6168Y-4.6525
X3.6317Y-4.0294
X3.6424Y-4.0019
X3.6455Y-2.6349
X3.6536Y-4.907
X3.6576Y-3.6129
X3.6582Y-4.5311
X3.6654Y-5.1932
X3.6655Y-4.7288
X3.6768Y-2.6349
X3.6795Y-3.9635
X3.6805Y-3.5295
X3.6865Y-3.0005
X3.6982Y-4.7011
X3.7014Y-2.6349
X3.7021Y-5.1583
X3.7132Y-3.5361
X3.7172Y-3.0002
X3.7195Y-2.9586
X3.7196Y-4.1774
X3.7326Y-2.6348
X3.7361Y-3.5785
X3.7432Y-4.8861
X3.7483Y-3.0002
X3.7484Y-5.1691
X3.7538Y-4.3819
X3.7632Y-5.3561
X3.7682Y-4.6261
X3.7695Y-2.5899
X3.7793Y-2.9992
X3.7876Y-3.8146
X3.7932Y-4.9561
X3.7976Y-2.5907
X3.8032Y-4.9861
X3.8104Y-2.7399
X3.8132Y-4.6711
X3.8132Y-4.9261
X3.8217Y-3.6726
X3.8232Y-5.0161
X3.8256Y-2.5907
X3.8337Y-3.8914
X3.8343Y-4.5319
X3.8414Y-4.6397
X3.8423Y-4.9071
X3.8514Y-4.4923
X3.853Y-2.5907
X3.8534Y-3.3501
X3.857Y-5.0156
X3.8592Y-4.3021
X3.8632Y-4.8861
X3.8642Y-2.7921
X3.8682Y-4.6061
X3.8682Y-4.7211
X3.869Y-3.576
X3.8723Y-4.4713
X3.8827Y-2.8107
X3.8982Y-4.7311
X3.9106Y-2.3899
X3.9177Y-4.7821
X3.9192Y-2.484
X3.9232Y-2.7905
X3.931Y-4.439
X3.9312Y-5.1683
X3.9546Y-4.6387
X3.955Y-3.3928
X3.9554Y-3.1356
X3.9554Y-3.7863
X3.9582Y-4.7811
X3.9626Y-5.1957
X3.963Y-5.2565
X3.9696Y-4.8192
X3.9732Y-4.7061
X3.9832Y-5.0861
X3.9855Y-5.2896
X3.9859Y-5.2264
X3.986Y-2.3612
X3.9862Y-5.1355
X3.9932Y-3.9661
X3.9932Y-4.7561
X3.9932Y-5.3561
X3.9952Y-4.3851
X4.0032Y-5.057
X4.0033Y-4.03
X4.0067Y-4.4765
X4.0087Y-5.1089
X4.0132Y-5.0261
X4.0171Y-3.7357
X4.0232Y-3.8961
X4.0244Y-3.8373
X4.025Y-3.5679
X4.026Y-4.4447
X4.0347Y-3.1065
X4.0379Y-4.1122
X4.0428Y-2.7311
X4.0569Y-2.7671
X4.0604Y-4.0915
X4.0642Y-4.4433
X4.0644Y-4.2848
X4.0658Y-2.6021
X4.0792Y-5.261
X4.0817Y-3.761
X4.0821Y-2.4429
X4.0832Y-3.3596
X4.0836Y-4.2623
X4.0837Y-3.2964
X4.0837Y-3.3266
X4.0895Y-4.9185
X4.0919Y-4.0848
X4.0922Y-4.3028
X4.1154Y-2.908
X4.1207Y-4.3814
X4.1276Y-4.5907
X4.1289Y-4.3457
X4.1366Y-3.345
X4.137Y-4.7007
X4.1425Y-4.3175
X4.1484Y-2.8982
X4.1532Y-5.1861
X4.1584Y-4.232
X4.1659Y-2.6059
X4.1679Y-3.3444
X4.1815Y-2.5141
X4.1823Y-5.2606
X4.1832Y-3.9061
X4.1832Y-4.3161
X4.1882Y-3.8411
X4.1932Y-3.6861
X4.1953Y-3.5855
X4.1959Y-3.4893
X4.1959Y-3.5189
X4.1959Y-3.5519
X4.1959Y-3.6442
X4.1964Y-3.614
X4.1981Y-3.3433
X4.2044Y-2.7894
X4.2053Y-3.0876
X4.2126Y-5.0255
X4.2202Y-4.0304
X4.2232Y-4.3161
X4.2282Y-2.8092
X4.2412Y-2.9154
X4.2472Y-4.3792
X4.2482Y-3.9511
X4.2509Y-4.1542
X4.2517Y-5.301
X4.262Y-5.1962
X4.2627Y-4.1012
X4.278Y-4.1294
X4.278Y-4.1779
X4.2781Y-3.3405
X4.2836Y-5.1097
X4.2882Y-5.2611
X4.2932Y-5.0761
X4.2949Y-3.1731
X4.2973Y-2.5041
X4.3078Y-3.3405
X4.3108Y-3.9897
X4.3116Y-3.7902
X4.3117Y-3.6487
X4.3122Y-3.5883
X4.3122Y-3.6772
X4.3128Y-3.6185
X4.3132Y-3.7561
X4.3135Y-5.3132
X4.317Y-4.9347
X4.3256Y-5.0571
X4.3329Y-4.8954
X4.334Y-5.0287
X4.3403Y-5.2224
X4.3419Y-4.1781
X4.3508Y-3.5519
X4.3519Y-4.8693
X4.3563Y-2.9136
X4.378Y-4.9991
X4.3782Y-4.6961
X4.3874Y-4.8579
X4.3905Y-2.544
X4.4017Y-3.5575
X4.4037Y-3.4633
X4.4275Y-4.9353
X4.4337Y-4.6054
X4.4462Y-5.2657
X4.4629Y-2.917
X4.4632Y-4.9111
X4.468Y-3.6821
X4.4735Y-3.9406
X4.4782Y-5.3561
X4.48Y-2.4184
X4.4833Y-5.1678
X4.4871Y-4.8869
X4.4932Y-3.5661
X4.4932Y-3.6061
X4.4932Y-3.6361
X4.4991Y-4.3262
X4.5032Y-4.7761
X4.5082Y-5.0311
X4.5182Y-4.8661
X4.524Y-2.5026
X4.5313Y-3.7543
X4.5407Y-4.3809
X4.5432Y-5.2611
X4.5512Y-4.9852
X4.5551Y-3.778
X4.5669Y-2.9254
X4.5693Y-4.7747
X4.6004Y-4.7184
X4.6027Y-3.2905
X4.6081Y-4.2278
X4.6098Y-4.4546
X4.6132Y-3.6061
X4.6142Y-3.4162
X4.6173Y-2.9766
X4.6332Y-4.7361
X4.6432Y-3.6061
X4.6433Y-3.2406
X4.6436Y-4.8908
X4.647Y-5.0527
X4.6493Y-5.2085
X4.6576Y-3.696
X4.6589Y-4.0328
X4.6632Y-4.9161
X4.6632Y-4.9461
X4.6732Y-3.6061
X4.6851Y-3.0837
X4.7032Y-3.5161
X4.7082Y-3.9861
X4.7092Y-3.9298
X4.7127Y-5.1968
X4.7132Y-5.3561
X4.7227Y-4.9847
X4.7257Y-3.8592
X4.7266Y-3.7562
X4.7272Y-3.6944
X4.7332Y-3.5161
X4.7351Y-5.317
X4.74Y-4.0145
X4.7432Y-4.5717
X4.7468Y-4.2736
X4.7541Y-4.0889
X4.7648Y-3.068
X4.7682Y-3.8761
X4.7832Y-3.9611
X4.7832Y-4.0461
X4.8082Y-4.1711
X4.8083Y-3.002
X4.8098Y-5.1984
X4.8153Y-4.6031
X4.82Y-3.2153
X4.8256Y-3.7623
X4.8265Y-3.4161
X4.8515Y-4.5483
X4.8562Y-3.382
X4.8573Y-3.3138
X4.8579Y-3.4139
X4.8584Y-3.3501
X4.8641Y-3.5572
X4.8642Y-4.8273
X4.8908Y-5.1048
X4.8932Y-4.6661
X4.9032Y-4.6261
X4.9032Y-4.6961
X4.9082Y-5.1411
X4.9147Y-4.0376
X4.9182Y-4.1911
X4.9189Y-3.2118
X4.9268Y-3.6062
X4.9282Y-5.1661
X4.9417Y-4.1705
X4.9432Y-4.9161
X4.9552Y-3.8444
X4.9553Y-3.0294
X4.9571Y-4.7454
X4.9585Y-3.3323
X4.9603Y-3.9175
X4.9623Y-3.4965
X4.9632Y-5.3361
X4.9717Y-3.6037
X4.9739Y-4.5657
X4.9824Y-5.4026
X4.991Y-4.6254
X4.9932Y-4.2461
X4.9956Y-4.8227
X4.9982Y-5.3311
X5.0048Y-3.2199
X5.0082Y-4.5911
X5.0283Y-4.2121
X5.0313Y-5.3623
X5.0317Y-3.8493
X5.0337Y-5.0937
X5.0432Y-4.1061
X5.0496Y-4.945
X5.0514Y-3.6581
X5.0732Y-4.2561
X5.0832Y-4.1011
X5.089Y-3.8632
X5.0937Y-2.9476
X5.0942Y-4.2789
X5.1027Y-5.284
X5.1064Y-3.7176
X5.1147Y-3.9336
X5.119Y-4.7161
X5.122Y-3.5189
X5.1346Y-3.6906
X5.1432Y-4.9511
X5.1432Y-3.7714
X5.1462Y-4.4085
X5.1494Y-2.9729
X5.151Y-3.4473
X5.1512Y-3.3272
X5.1515Y-2.6308
X5.1521Y-2.5704
X5.1543Y-2.7531
X5.1544Y-3.525
X5.1613Y-4.3097
X5.1664Y-4.0593
X5.1689Y-3.7961
X5.1689Y-3.6414
X5.1701Y-3.6042
X5.1732Y-4.8761
X5.193Y-4.7384
X5.1932Y-4.2045
X5.1949Y-4.0129
X5.1996Y-2.5173
X5.2048Y-5.2809
X5.2074Y-4.0915
X5.2113Y-3.7091
X5.2147Y-4.632
X5.2162Y-4.4735
X5.2188Y-5.058
X5.2238Y-3.3738
X5.2267Y-4.9794
X5.2337Y-2.802
X5.2338Y-4.8517
X5.2362Y-4.2269
X5.2414Y-3.0085
X5.2465Y-3.834
X5.247Y-2.9194
X5.2563Y-3.4031
X5.2632Y-4.7461
X5.2642Y-3.5989
X5.2694Y-3.7928
X5.2756Y-4.3144
X5.2781Y-3.7087
X5.2823Y-4.5691
X5.2831Y-3.0765
X5.2832Y-4.1061
X5.2863Y-3.1504
X5.293Y-5.3753
X5.2975Y-3.2887
X5.3002Y-2.6182
X5.3055Y-2.7017
X5.3119Y-4.3626
X5.3262Y-5.1174
X5.3288Y-2.9378
X5.3306Y-3.4046
X5.331Y-3.5242
X5.3332Y-4.9861
X5.3332Y-5.1911
X5.3434Y-2.535
X5.3437Y-2.7028
X5.3474Y-3.6507
X5.3523Y-4.6269
X5.3532Y-4.4661
X5.356Y-4.5562
X5.3592Y-4.4104
X5.3615Y-4.036
X5.3623Y-4.2021
X5.3732Y-3.8861
X5.3759Y-4.795
X5.3795Y-2.5354
X5.3833Y-2.7015
X5.3853Y-5.1332
X5.387Y-4.7368
X5.387Y-2.9558
X5.3874Y-3.7765
X5.4008Y-5.0297
X5.4075Y-3.4446
X5.4082Y-5.1911
X5.4084Y-3.4792
X5.4257Y-3.9286
X5.4369Y-3.6768
X5.437Y-4.3048
X5.4391Y-4.0888
X5.4408Y-3.6008
X5.4586Y-3.1667
X5.4598Y-4.8394
X5.4614Y-3.1242
X5.4619Y-3.085
X5.462Y-3.8174
X5.4632Y-4.5461
X5.4632Y-4.7861
X5.4662Y-4.3037
X5.4672Y-4.9764
X5.4682Y-4.6582
X5.4798Y-3.5238
X5.4824Y-3.4051
X5.4872Y-5.1589
X5.5032Y-4.8561
X5.5102Y-3.7118
X5.5111Y-3.6067
X5.528Y-5.2675
X5.5335Y-2.802
X5.5351Y-5.0464
X5.5442Y-3.5892
X5.549Y-3.4633
X5.5532Y-3.7861
X5.5532Y-3.8261
X5.5532Y-3.8661
X5.5532Y-3.9561
X5.5532Y-3.9961
X5.5532Y-4.0361
X5.5532Y-4.6761
X5.5532Y-4.7161
X5.5535Y-4.7542
X5.5597Y-4.5414
X5.561Y-4.4671
X5.5615Y-2.9513
X5.5671Y-3.1862
X5.5685Y-4.1827
X5.5688Y-2.6258
X5.5693Y-3.0839
X5.5702Y-3.0102
X5.5705Y-2.5648
X5.5708Y-2.7469
X5.5732Y-4.3461
X5.5769Y-3.2344
X5.5777Y-3.675
X5.5936Y-5.1907
X5.6071Y-4.3836
X5.6115Y-3.9133
X5.6123Y-5.1172
X5.6126Y-4.8289
X5.6135Y-3.4056
X5.6142Y-3.5256
X5.6151Y-3.2343
X5.6332Y-3.7861
X5.6332Y-3.8661
X5.6332Y-3.9561
X5.6332Y-4.0361
X5.641Y-4.1032
X5.6418Y-3.826
X5.6441Y-5.1844
X5.645Y-4.665
X5.6462Y-4.2955
X5.6491Y-4.7214
X5.6495Y-4.7738
X5.6551Y-5.2952
X5.6571Y-4.431
X5.6571Y-4.471
X5.6571Y-4.511
X5.6627Y-2.7821
X5.6706Y-3.6259
X5.6707Y-3.1242
X5.6711Y-3.086
X5.6717Y-3.1549
X5.6728Y-3.1851
X5.6797Y-3.2887
X5.6805Y-4.6384
X5.6828Y-3.4646
X5.685Y-2.7469
X5.686Y-4.3813
X5.6943Y-4.5752
X5.7148Y-4.3226
X5.7432Y-3.7661
X5.7432Y-3.8061
X5.7432Y-3.8461
X5.7432Y-3.8861
X5.7432Y-3.9361
X5.7432Y-3.9761
X5.7432Y-4.0161
X5.7432Y-4.0561
X5.7433Y-4.5083
X5.7453Y-4.4328
X5.7473Y-5.1149
X5.7486Y-4.4713
X5.7528Y-3.4046
X5.7528Y-3.5249
X5.7532Y-4.1861
X5.7648Y-4.1357
X5.7737Y-3.6464
X5.7809Y-4.2981
X5.7914Y-4.9219
X5.8009Y-4.7113
X5.8057Y-4.1838
X5.8147Y-3.6376
X5.8183Y-5.1761
X5.8209Y-3.523
X5.8214Y-5.2665
X5.8232Y-3.911
X5.8232Y-3.7761
X5.8232Y-3.8061
X5.8232Y-3.8411
X5.8247Y-3.686
X5.8399Y-3.1643
X5.8431Y-4.5709
X5.8448Y-4.0929
X5.8471Y-4.411
X5.8471Y-4.451
X5.8471Y-4.491
X5.8471Y-4.531
X5.8658Y-2.967
X5.8673Y-4.9564
X5.8747Y-5.1161
X5.8758Y-5.3709
X5.8837Y-4.289
X5.889Y-3.4035
X5.889Y-3.5249
X5.8948Y-3.943
X5.8953Y-4.421
X5.9008Y-3.7366
X5.9148Y-4.1947
X5.9206Y-3.2819
X5.9291Y-2.7125
X5.9347Y-3.6031
X5.9429Y-3.0463
X5.9505Y-4.0002
X5.9516Y-3.2341
X5.9523Y-4.337
X5.9524Y-2.9351
X5.9613Y-4.9229
X5.9787Y-4.7873
X5.9809Y-5.0234
X5.9821Y-3.3479
X6.001Y-2.7852
X6.0074Y-3.4354
X6.0178Y-3.9947
X6.0224Y-2.6169
X6.0224Y-2.6929
X6.0246Y-4.5208
X6.0347Y-4.6224
X6.0359Y-4.1712
X6.0362Y-3.9224
X6.0454Y-3.7934
X6.0477Y-3.844
X6.0521Y-3.1735
X6.0526Y-5.3709
X6.0568Y-5.276
X6.058Y-3.0854
X6.067Y-4.4037
X6.1352Y-5.1079
X6.1354Y-3.3071
X6.1354Y-3.6068
X6.1354Y-4.4068
X6.1354Y-4.6074
X6.136Y-3.5071
X6.136Y-4.306
X6.136Y-4.5076
X6.136Y-4.8079
X6.136Y-4.9076
X6.1365Y-4.0073
X6.1365Y-4.7071
X6.137Y-3.7076
X6.137Y-4.1066
X6.1375Y-4.2073
X6.1375Y-5.0079
X6.1398Y-3.2051
X6.1547Y-3.0981
T2
X3.4583Y-3.595
X3.5319Y-3.596
X3.5864Y-4.2661
X3.62Y-4.2661
X3.7267Y-4.4526
X3.7505Y-4.4289
X4.4332Y-4.2961
X4.4632Y-4.3261
X4.5132Y-3.8711
X4.5532Y-4.1221
X4.5732Y-3.9061
X4.5744Y-3.9373
X4.6532Y-5.0061
X4.6832Y-4.2461
X4.7882Y-4.8012
X4.8932Y-4.4561
X5.0132Y-5.0361
X5.1894Y-5.0023
X5.6437Y-5.0825
X5.8629Y-5.0796
T3
X3.6132Y-3.9061
X3.9932Y-4.1961
X4.2432Y-3.3861
X4.2432Y-3.4261
X4.2432Y-3.4661
X4.2432Y-3.5061
X4.2632Y-3.1261
X4.2832Y-3.4961
T4
X2.7132Y-2.3198
X2.7132Y-2.4576
X3.6554Y-3.3511
X3.7932Y-3.3511
T5
X3.2872Y-3.9377
X3.2872Y-4.0361
X3.4132Y-3.9377
X3.4132Y-4.0361
T6
X2.4159Y-2.2573
X2.4159Y-2.3573
X2.4159Y-2.4573
X2.4159Y-2.5573
X2.4159Y-2.6573
X2.4159Y-2.7573
X2.4159Y-2.8573
X2.4159Y-2.9573
X2.4159Y-3.0573
X2.4159Y-3.1573
X2.4159Y-3.2573
X2.4159Y-3.3573
X2.4159Y-3.4573
X2.4159Y-3.5573
X2.4159Y-3.6573
X2.4159Y-3.7573
X2.4159Y-3.8573
X2.4159Y-3.9573
X2.4159Y-4.0573
X2.4159Y-4.1573
X2.4159Y-4.2573
X2.4159Y-4.3573
X2.4159Y-4.4573
X2.4159Y-4.5573
X2.4159Y-4.6573
X2.4159Y-4.7573
X2.4159Y-4.8573
X2.4159Y-4.9573
X2.4159Y-5.0573
X2.4159Y-5.1573
X2.4159Y-5.2573
X2.4159Y-5.3573
X3.0632Y-2.2961
X3.1632Y-2.2961
X3.2632Y-2.2961
X3.3632Y-2.2961
X3.4632Y-2.2961
X3.5632Y-2.2961
X3.6632Y-2.2961
X3.7632Y-2.2961
X3.8632Y-2.2961
X3.9632Y-2.2961
X3.9796Y-2.843
X4.0632Y-2.2961
X4.0796Y-2.843
X4.1632Y-2.2961
X4.1796Y-2.843
X4.2632Y-2.2961
X4.2796Y-2.843
X4.3632Y-2.2961
X4.3796Y-2.843
X4.4632Y-2.2961
X4.4796Y-2.843
X4.5632Y-2.2961
X4.5796Y-2.843
X4.6796Y-2.843
X4.7796Y-2.843
X4.8796Y-2.843
X4.956Y-5.238
X4.9796Y-2.843
X5.056Y-5.238
X5.0796Y-2.843
X5.156Y-5.238
X5.1796Y-2.843
X5.256Y-5.238
X5.2796Y-2.843
X5.356Y-5.238
X5.3578Y-5.3628
X5.3796Y-2.843
X5.456Y-5.238
X5.4578Y-5.3628
X5.4796Y-2.843
X6.1132Y-2.2571
X6.1132Y-2.3571
X6.1132Y-2.4571
X6.1132Y-2.5571
X6.1132Y-2.6571
X6.1132Y-2.7571
X6.1132Y-2.8571
X6.1132Y-2.9571
X6.1132Y-3.0571
X6.1132Y-3.1571
X6.1132Y-3.2571
X6.1132Y-3.3571
X6.1132Y-3.4571
X6.1132Y-3.5571
X6.1132Y-3.6571
X6.1132Y-3.7571
X6.1132Y-3.8571
X6.1132Y-3.9571
X6.1132Y-4.0571
X6.1132Y-4.1571
X6.1132Y-4.2571
X6.1132Y-4.3571
X6.1132Y-4.4571
X6.1132Y-4.5571
X6.1132Y-4.6571
X6.1132Y-4.7571
X6.1132Y-4.8571
X6.1132Y-4.9571
X6.1132Y-5.0571
X6.1132Y-5.1571
X6.1132Y-5.2571
X6.1132Y-5.3571
T7
X3.0949Y-3.4487
X3.1933Y-3.4487
X3.2917Y-3.4487
X3.3902Y-3.4487
X3.4886Y-3.4487
T8
X2.5546Y-2.458
T9
X3.3065Y-3.7499
X3.3065Y-4.2239
T0
M30
