%TF.GenerationSoftware,KiCad,Pcbnew,(6.0.1)*%
%TF.CreationDate,2023-07-12T16:45:15+01:00*%
%TF.ProjectId,polygonus-Shortage-Version,706f6c79-676f-46e7-9573-2d53686f7274,rev?*%
%TF.SameCoordinates,Original*%
%TF.FileFunction,Other,Comment*%
%FSLAX46Y46*%
G04 Gerber Fmt 4.6, Leading zero omitted, Abs format (unit mm)*
G04 Created by KiCad (PCBNEW (6.0.1)) date 2023-07-12 16:45:15*
%MOMM*%
%LPD*%
G01*
G04 APERTURE LIST*
%ADD10C,0.070000*%
G04 APERTURE END LIST*
D10*
%TO.C,J9*%
X89416952Y-119377095D02*
X89016952Y-119377095D01*
X89416952Y-119148523D02*
X89188380Y-119319952D01*
X89016952Y-119148523D02*
X89245523Y-119377095D01*
X89207428Y-118977095D02*
X89207428Y-118843761D01*
X89416952Y-118786619D02*
X89416952Y-118977095D01*
X89016952Y-118977095D01*
X89016952Y-118786619D01*
X89207428Y-118615190D02*
X89207428Y-118481857D01*
X89416952Y-118424714D02*
X89416952Y-118615190D01*
X89016952Y-118615190D01*
X89016952Y-118424714D01*
X89416952Y-118253285D02*
X89016952Y-118253285D01*
X89016952Y-118100904D01*
X89036000Y-118062809D01*
X89055047Y-118043761D01*
X89093142Y-118024714D01*
X89150285Y-118024714D01*
X89188380Y-118043761D01*
X89207428Y-118062809D01*
X89226476Y-118100904D01*
X89226476Y-118253285D01*
X89016952Y-117777095D02*
X89016952Y-117700904D01*
X89036000Y-117662809D01*
X89074095Y-117624714D01*
X89150285Y-117605666D01*
X89283619Y-117605666D01*
X89359809Y-117624714D01*
X89397904Y-117662809D01*
X89416952Y-117700904D01*
X89416952Y-117777095D01*
X89397904Y-117815190D01*
X89359809Y-117853285D01*
X89283619Y-117872333D01*
X89150285Y-117872333D01*
X89074095Y-117853285D01*
X89036000Y-117815190D01*
X89016952Y-117777095D01*
X89016952Y-117434238D02*
X89340761Y-117434238D01*
X89378857Y-117415190D01*
X89397904Y-117396142D01*
X89416952Y-117358047D01*
X89416952Y-117281857D01*
X89397904Y-117243761D01*
X89378857Y-117224714D01*
X89340761Y-117205666D01*
X89016952Y-117205666D01*
X89016952Y-117072333D02*
X89016952Y-116843761D01*
X89416952Y-116958047D02*
X89016952Y-116958047D01*
%TD*%
M02*
