G04 #@! TF.GenerationSoftware,KiCad,Pcbnew,(6.0.1)*
G04 #@! TF.CreationDate,2022-12-03T00:01:53+00:00*
G04 #@! TF.ProjectId,polygonus-Shortage-Version,706f6c79-676f-46e7-9573-2d53686f7274,rev?*
G04 #@! TF.SameCoordinates,Original*
G04 #@! TF.FileFunction,Soldermask,Top*
G04 #@! TF.FilePolarity,Negative*
%FSLAX46Y46*%
G04 Gerber Fmt 4.6, Leading zero omitted, Abs format (unit mm)*
G04 Created by KiCad (PCBNEW (6.0.1)) date 2022-12-03 00:01:53*
%MOMM*%
%LPD*%
G01*
G04 APERTURE LIST*
G04 Aperture macros list*
%AMRoundRect*
0 Rectangle with rounded corners*
0 $1 Rounding radius*
0 $2 $3 $4 $5 $6 $7 $8 $9 X,Y pos of 4 corners*
0 Add a 4 corners polygon primitive as box body*
4,1,4,$2,$3,$4,$5,$6,$7,$8,$9,$2,$3,0*
0 Add four circle primitives for the rounded corners*
1,1,$1+$1,$2,$3*
1,1,$1+$1,$4,$5*
1,1,$1+$1,$6,$7*
1,1,$1+$1,$8,$9*
0 Add four rect primitives between the rounded corners*
20,1,$1+$1,$2,$3,$4,$5,0*
20,1,$1+$1,$4,$5,$6,$7,0*
20,1,$1+$1,$6,$7,$8,$9,0*
20,1,$1+$1,$8,$9,$2,$3,0*%
%AMFreePoly0*
4,1,16,0.533941,0.783941,0.539938,0.776626,1.039938,0.026626,1.047068,-0.009414,1.039938,-0.026626,0.539938,-0.776626,0.509414,-0.797068,0.500000,-0.798000,-0.500000,-0.798000,-0.533941,-0.783941,-0.548000,-0.750000,-0.548000,0.750000,-0.533941,0.783941,-0.500000,0.798000,0.500000,0.798000,0.533941,0.783941,0.533941,0.783941,$1*%
%AMFreePoly1*
4,1,16,0.533941,0.783941,0.548000,0.750000,0.548000,-0.750000,0.533941,-0.783941,0.500000,-0.798000,-0.650000,-0.798000,-0.683941,-0.783941,-0.698000,-0.750000,-0.689938,-0.723374,-0.207689,0.000000,-0.689938,0.723374,-0.697068,0.759414,-0.676626,0.789938,-0.650000,0.798000,0.500000,0.798000,0.533941,0.783941,0.533941,0.783941,$1*%
G04 Aperture macros list end*
G04 #@! TA.AperFunction,Profile*
%ADD10C,0.050000*%
G04 #@! TD*
%ADD11RoundRect,0.273000X0.250000X-0.225000X0.250000X0.225000X-0.250000X0.225000X-0.250000X-0.225000X0*%
%ADD12RoundRect,0.183000X-0.135000X-0.185000X0.135000X-0.185000X0.135000X0.185000X-0.135000X0.185000X0*%
%ADD13RoundRect,0.183000X0.226274X0.035355X0.035355X0.226274X-0.226274X-0.035355X-0.035355X-0.226274X0*%
%ADD14RoundRect,0.148000X0.100000X-0.637500X0.100000X0.637500X-0.100000X0.637500X-0.100000X-0.637500X0*%
%ADD15RoundRect,0.148000X0.637500X0.100000X-0.637500X0.100000X-0.637500X-0.100000X0.637500X-0.100000X0*%
%ADD16RoundRect,0.048000X-0.325000X0.655000X-0.325000X-0.655000X0.325000X-0.655000X0.325000X0.655000X0*%
%ADD17RoundRect,0.048000X-0.300000X0.655000X-0.300000X-0.655000X0.300000X-0.655000X0.300000X0.655000X0*%
%ADD18RoundRect,0.048000X-0.750000X0.662500X-0.750000X-0.662500X0.750000X-0.662500X0.750000X0.662500X0*%
%ADD19RoundRect,0.273000X-0.250000X0.225000X-0.250000X-0.225000X0.250000X-0.225000X0.250000X0.225000X0*%
%ADD20RoundRect,0.183000X-0.226274X-0.035355X-0.035355X-0.226274X0.226274X0.035355X0.035355X0.226274X0*%
%ADD21RoundRect,0.273000X-0.225000X-0.250000X0.225000X-0.250000X0.225000X0.250000X-0.225000X0.250000X0*%
%ADD22RoundRect,0.273000X0.017678X-0.335876X0.335876X-0.017678X-0.017678X0.335876X-0.335876X0.017678X0*%
%ADD23RoundRect,0.188000X-0.140000X-0.170000X0.140000X-0.170000X0.140000X0.170000X-0.140000X0.170000X0*%
%ADD24RoundRect,0.273000X0.335876X0.017678X0.017678X0.335876X-0.335876X-0.017678X-0.017678X-0.335876X0*%
%ADD25RoundRect,0.273000X-0.335876X-0.017678X-0.017678X-0.335876X0.335876X0.017678X0.017678X0.335876X0*%
%ADD26RoundRect,0.266750X0.424264X0.114905X0.114905X0.424264X-0.424264X-0.114905X-0.114905X-0.424264X0*%
%ADD27RoundRect,0.248000X0.200000X0.275000X-0.200000X0.275000X-0.200000X-0.275000X0.200000X-0.275000X0*%
%ADD28RoundRect,0.048000X0.400000X0.250000X-0.400000X0.250000X-0.400000X-0.250000X0.400000X-0.250000X0*%
%ADD29RoundRect,0.048000X0.400000X0.200000X-0.400000X0.200000X-0.400000X-0.200000X0.400000X-0.200000X0*%
%ADD30RoundRect,0.148000X0.521491X-0.380070X-0.380070X0.521491X-0.521491X0.380070X0.380070X-0.521491X0*%
%ADD31RoundRect,0.048000X-0.250000X0.400000X-0.250000X-0.400000X0.250000X-0.400000X0.250000X0.400000X0*%
%ADD32RoundRect,0.048000X-0.200000X0.400000X-0.200000X-0.400000X0.200000X-0.400000X0.200000X0.400000X0*%
%ADD33RoundRect,0.183000X0.135000X0.185000X-0.135000X0.185000X-0.135000X-0.185000X0.135000X-0.185000X0*%
%ADD34RoundRect,0.273000X0.225000X0.250000X-0.225000X0.250000X-0.225000X-0.250000X0.225000X-0.250000X0*%
%ADD35RoundRect,0.123000X0.521491X-0.415425X-0.415425X0.521491X-0.521491X0.415425X0.415425X-0.521491X0*%
%ADD36RoundRect,0.123000X0.521491X0.415425X0.415425X0.521491X-0.521491X-0.415425X-0.415425X-0.521491X0*%
%ADD37RoundRect,0.298000X-0.325000X-0.650000X0.325000X-0.650000X0.325000X0.650000X-0.325000X0.650000X0*%
%ADD38RoundRect,0.248000X-0.200000X-0.275000X0.200000X-0.275000X0.200000X0.275000X-0.200000X0.275000X0*%
%ADD39RoundRect,0.188000X0.140000X0.170000X-0.140000X0.170000X-0.140000X-0.170000X0.140000X-0.170000X0*%
%ADD40RoundRect,0.048000X0.250000X-0.400000X0.250000X0.400000X-0.250000X0.400000X-0.250000X-0.400000X0*%
%ADD41RoundRect,0.048000X0.200000X-0.400000X0.200000X0.400000X-0.200000X0.400000X-0.200000X-0.400000X0*%
%ADD42RoundRect,0.048000X-1.250000X-0.900000X1.250000X-0.900000X1.250000X0.900000X-1.250000X0.900000X0*%
%ADD43RoundRect,0.048000X-0.400000X-0.250000X0.400000X-0.250000X0.400000X0.250000X-0.400000X0.250000X0*%
%ADD44RoundRect,0.048000X-0.400000X-0.200000X0.400000X-0.200000X0.400000X0.200000X-0.400000X0.200000X0*%
%ADD45RoundRect,0.298000X-0.262500X-0.450000X0.262500X-0.450000X0.262500X0.450000X-0.262500X0.450000X0*%
%ADD46RoundRect,0.148000X0.712500X0.100000X-0.712500X0.100000X-0.712500X-0.100000X0.712500X-0.100000X0*%
%ADD47RoundRect,0.260500X0.400000X0.212500X-0.400000X0.212500X-0.400000X-0.212500X0.400000X-0.212500X0*%
%ADD48RoundRect,0.183000X-0.185000X0.135000X-0.185000X-0.135000X0.185000X-0.135000X0.185000X0.135000X0*%
%ADD49RoundRect,0.248000X-0.275000X0.200000X-0.275000X-0.200000X0.275000X-0.200000X0.275000X0.200000X0*%
%ADD50RoundRect,0.248000X0.275000X-0.200000X0.275000X0.200000X-0.275000X0.200000X-0.275000X-0.200000X0*%
%ADD51RoundRect,0.048000X0.600000X-0.450000X0.600000X0.450000X-0.600000X0.450000X-0.600000X-0.450000X0*%
%ADD52RoundRect,0.298000X0.312500X0.625000X-0.312500X0.625000X-0.312500X-0.625000X0.312500X-0.625000X0*%
%ADD53RoundRect,0.298000X-0.312500X-0.625000X0.312500X-0.625000X0.312500X0.625000X-0.312500X0.625000X0*%
%ADD54C,3.096000*%
%ADD55RoundRect,0.198000X0.150000X-0.512500X0.150000X0.512500X-0.150000X0.512500X-0.150000X-0.512500X0*%
%ADD56RoundRect,0.048000X0.225000X0.350000X-0.225000X0.350000X-0.225000X-0.350000X0.225000X-0.350000X0*%
%ADD57RoundRect,0.183000X0.185000X-0.135000X0.185000X0.135000X-0.185000X0.135000X-0.185000X-0.135000X0*%
%ADD58RoundRect,0.048000X0.800000X0.800000X-0.800000X0.800000X-0.800000X-0.800000X0.800000X-0.800000X0*%
%ADD59C,1.696000*%
%ADD60RoundRect,0.048000X1.250000X-1.650000X1.250000X1.650000X-1.250000X1.650000X-1.250000X-1.650000X0*%
%ADD61RoundRect,0.183000X-0.035355X0.226274X-0.226274X0.035355X0.035355X-0.226274X0.226274X-0.035355X0*%
%ADD62RoundRect,0.183000X0.035355X-0.226274X0.226274X-0.035355X-0.035355X0.226274X-0.226274X0.035355X0*%
%ADD63RoundRect,0.198000X0.512500X0.150000X-0.512500X0.150000X-0.512500X-0.150000X0.512500X-0.150000X0*%
%ADD64RoundRect,0.188000X-0.170000X0.140000X-0.170000X-0.140000X0.170000X-0.140000X0.170000X0.140000X0*%
%ADD65RoundRect,0.188000X0.170000X-0.140000X0.170000X0.140000X-0.170000X0.140000X-0.170000X-0.140000X0*%
%ADD66RoundRect,0.148000X-0.100000X0.637500X-0.100000X-0.637500X0.100000X-0.637500X0.100000X0.637500X0*%
%ADD67RoundRect,0.048000X1.000000X0.750000X-1.000000X0.750000X-1.000000X-0.750000X1.000000X-0.750000X0*%
%ADD68RoundRect,0.048000X1.000000X1.900000X-1.000000X1.900000X-1.000000X-1.900000X1.000000X-1.900000X0*%
%ADD69RoundRect,0.048000X-1.000000X-1.200000X1.000000X-1.200000X1.000000X1.200000X-1.000000X1.200000X0*%
%ADD70RoundRect,0.198000X-0.825000X-0.150000X0.825000X-0.150000X0.825000X0.150000X-0.825000X0.150000X0*%
%ADD71RoundRect,0.048000X-1.145000X-1.500000X1.145000X-1.500000X1.145000X1.500000X-1.145000X1.500000X0*%
%ADD72RoundRect,0.048000X0.900000X-1.250000X0.900000X1.250000X-0.900000X1.250000X-0.900000X-1.250000X0*%
%ADD73RoundRect,0.048000X-0.900000X1.250000X-0.900000X-1.250000X0.900000X-1.250000X0.900000X1.250000X0*%
%ADD74RoundRect,0.198000X-0.150000X0.512500X-0.150000X-0.512500X0.150000X-0.512500X0.150000X0.512500X0*%
%ADD75RoundRect,0.298000X0.375000X1.075000X-0.375000X1.075000X-0.375000X-1.075000X0.375000X-1.075000X0*%
%ADD76RoundRect,0.248000X-0.053033X0.335876X-0.335876X0.053033X0.053033X-0.335876X0.335876X-0.053033X0*%
%ADD77RoundRect,0.048000X0.950000X1.250000X-0.950000X1.250000X-0.950000X-1.250000X0.950000X-1.250000X0*%
%ADD78RoundRect,0.298000X-0.650000X0.325000X-0.650000X-0.325000X0.650000X-0.325000X0.650000X0.325000X0*%
%ADD79RoundRect,0.298000X-0.250000X-0.475000X0.250000X-0.475000X0.250000X0.475000X-0.250000X0.475000X0*%
%ADD80RoundRect,0.048000X0.850000X-0.850000X0.850000X0.850000X-0.850000X0.850000X-0.850000X-0.850000X0*%
%ADD81O,1.796000X1.796000*%
%ADD82FreePoly0,180.000000*%
%ADD83FreePoly1,180.000000*%
%ADD84RoundRect,0.048000X0.400000X0.750000X-0.400000X0.750000X-0.400000X-0.750000X0.400000X-0.750000X0*%
%ADD85RoundRect,0.048000X0.725000X1.000000X-0.725000X1.000000X-0.725000X-1.000000X0.725000X-1.000000X0*%
%ADD86RoundRect,0.048000X-0.700000X0.700000X-0.700000X-0.700000X0.700000X-0.700000X0.700000X0.700000X0*%
%ADD87C,1.496000*%
%ADD88RoundRect,0.298000X-0.450000X0.262500X-0.450000X-0.262500X0.450000X-0.262500X0.450000X0.262500X0*%
%ADD89RoundRect,0.198000X-0.521491X0.309359X0.309359X-0.521491X0.521491X-0.309359X-0.309359X0.521491X0*%
%ADD90RoundRect,0.148000X-0.100000X0.175000X-0.100000X-0.175000X0.100000X-0.175000X0.100000X0.175000X0*%
%ADD91RoundRect,0.148000X-0.175000X0.100000X-0.175000X-0.100000X0.175000X-0.100000X0.175000X0.100000X0*%
%ADD92RoundRect,0.048000X-1.600000X-0.500000X1.600000X-0.500000X1.600000X0.500000X-1.600000X0.500000X0*%
%ADD93RoundRect,0.048000X1.600000X0.500000X-1.600000X0.500000X-1.600000X-0.500000X1.600000X-0.500000X0*%
%ADD94C,1.086600*%
%ADD95C,0.883400*%
%ADD96RoundRect,0.048000X-0.450000X-0.600000X0.450000X-0.600000X0.450000X0.600000X-0.450000X0.600000X0*%
%ADD97RoundRect,0.048000X-0.742462X-0.106066X-0.106066X-0.742462X0.742462X0.106066X0.106066X0.742462X0*%
%ADD98RoundRect,0.048000X0.225000X-0.300000X0.225000X0.300000X-0.225000X0.300000X-0.225000X-0.300000X0*%
%ADD99RoundRect,0.198000X-0.512500X-0.150000X0.512500X-0.150000X0.512500X0.150000X-0.512500X0.150000X0*%
%ADD100RoundRect,0.048000X0.750000X-1.000000X0.750000X1.000000X-0.750000X1.000000X-0.750000X-1.000000X0*%
%ADD101RoundRect,0.048000X1.900000X-1.000000X1.900000X1.000000X-1.900000X1.000000X-1.900000X-1.000000X0*%
%ADD102RoundRect,0.198000X0.256326X0.468458X-0.468458X-0.256326X-0.256326X-0.468458X0.468458X0.256326X0*%
%ADD103RoundRect,0.048000X0.275000X0.975000X-0.275000X0.975000X-0.275000X-0.975000X0.275000X-0.975000X0*%
%ADD104RoundRect,0.248000X0.053033X-0.335876X0.335876X-0.053033X-0.053033X0.335876X-0.335876X0.053033X0*%
%ADD105RoundRect,0.148000X-0.130000X-0.100000X0.130000X-0.100000X0.130000X0.100000X-0.130000X0.100000X0*%
%ADD106RoundRect,0.048000X-0.750000X1.000000X-0.750000X-1.000000X0.750000X-1.000000X0.750000X1.000000X0*%
%ADD107RoundRect,0.048000X-1.900000X1.000000X-1.900000X-1.000000X1.900000X-1.000000X1.900000X1.000000X0*%
%ADD108RoundRect,0.198000X-0.587500X-0.150000X0.587500X-0.150000X0.587500X0.150000X-0.587500X0.150000X0*%
%ADD109RoundRect,0.048000X-0.300000X-0.225000X0.300000X-0.225000X0.300000X0.225000X-0.300000X0.225000X0*%
%ADD110RoundRect,0.198000X0.825000X0.150000X-0.825000X0.150000X-0.825000X-0.150000X0.825000X-0.150000X0*%
%ADD111RoundRect,0.148000X0.130000X0.100000X-0.130000X0.100000X-0.130000X-0.100000X0.130000X-0.100000X0*%
%ADD112RoundRect,0.048000X0.800000X-0.800000X0.800000X0.800000X-0.800000X0.800000X-0.800000X-0.800000X0*%
%ADD113RoundRect,0.048000X0.850000X0.850000X-0.850000X0.850000X-0.850000X-0.850000X0.850000X-0.850000X0*%
%ADD114RoundRect,0.048000X-0.850000X0.850000X-0.850000X-0.850000X0.850000X-0.850000X0.850000X0.850000X0*%
G04 APERTURE END LIST*
D10*
X27598758Y70480030D02*
X27566743Y-7944264D01*
X29598758Y72480030D02*
G75*
G03*
X27598758Y70480030I-1J-1999999D01*
G01*
X127511245Y72474911D02*
X29598758Y72480030D01*
X29566743Y-9944264D02*
X127539293Y-9975264D01*
X127539293Y-9975264D02*
G75*
G03*
X129539293Y-7975264I1J1999999D01*
G01*
X129539293Y-7975264D02*
X129511245Y70474911D01*
X27566743Y-7944264D02*
G75*
G03*
X29566743Y-9944264I1999999J-1D01*
G01*
X129511245Y70474911D02*
G75*
G03*
X127511245Y72474911I-1999999J1D01*
G01*
X27598758Y70480030D02*
X27566743Y-7944264D01*
X29598758Y72480030D02*
G75*
G03*
X27598758Y70480030I-1J-1999999D01*
G01*
X127511245Y72474911D02*
X29598758Y72480030D01*
X29566743Y-9944264D02*
X127539293Y-9975264D01*
X127539293Y-9975264D02*
G75*
G03*
X129539293Y-7975264I1J1999999D01*
G01*
X129539293Y-7975264D02*
X129511245Y70474911D01*
X27566743Y-7944264D02*
G75*
G03*
X29566743Y-9944264I1999999J-1D01*
G01*
X129511245Y70474911D02*
G75*
G03*
X127511245Y72474911I-1999999J1D01*
G01*
D11*
G04 #@! TO.C,C1015*
X112003326Y45778948D03*
X112003326Y47328948D03*
G04 #@! TD*
D12*
G04 #@! TO.C,R902*
X123130975Y21307317D03*
X124150975Y21307317D03*
G04 #@! TD*
G04 #@! TO.C,R903*
X123142194Y22496586D03*
X124162194Y22496586D03*
G04 #@! TD*
G04 #@! TO.C,R904*
X123119755Y23887806D03*
X124139755Y23887806D03*
G04 #@! TD*
D13*
G04 #@! TO.C,R1007*
X88562124Y-5885124D03*
X87840876Y-5163876D03*
G04 #@! TD*
D14*
G04 #@! TO.C,U801*
X108540000Y11361500D03*
X109190000Y11361500D03*
X109840000Y11361500D03*
X110490000Y11361500D03*
X111140000Y11361500D03*
X111790000Y11361500D03*
X112440000Y11361500D03*
X112440000Y17086500D03*
X111790000Y17086500D03*
X111140000Y17086500D03*
X110490000Y17086500D03*
X109840000Y17086500D03*
X109190000Y17086500D03*
X108540000Y17086500D03*
G04 #@! TD*
D15*
G04 #@! TO.C,U901*
X116400500Y19386000D03*
X116400500Y20036000D03*
X116400500Y20686000D03*
X116400500Y21336000D03*
X116400500Y21986000D03*
X116400500Y22636000D03*
X116400500Y23286000D03*
X110675500Y23286000D03*
X110675500Y22636000D03*
X110675500Y21986000D03*
X110675500Y21336000D03*
X110675500Y20686000D03*
X110675500Y20036000D03*
X110675500Y19386000D03*
G04 #@! TD*
D16*
G04 #@! TO.C,U1004*
X119814671Y51392123D03*
X118544671Y51392123D03*
X117274671Y51392123D03*
D17*
X116004671Y51392123D03*
D16*
X116004671Y45702123D03*
X117274671Y45702123D03*
X118544671Y45702123D03*
X119814671Y45702123D03*
D18*
X118659671Y49209623D03*
X117159671Y47884623D03*
X118659671Y47884623D03*
X117159671Y49209623D03*
G04 #@! TD*
D16*
G04 #@! TO.C,U1005*
X110083142Y51429989D03*
X108813142Y51429989D03*
X107543142Y51429989D03*
D17*
X106273142Y51429989D03*
D16*
X106273142Y45739989D03*
X107543142Y45739989D03*
X108813142Y45739989D03*
X110083142Y45739989D03*
D18*
X108928142Y47922489D03*
X107428142Y49247489D03*
X107428142Y47922489D03*
X108928142Y49247489D03*
G04 #@! TD*
D19*
G04 #@! TO.C,C1016*
X121539912Y51428769D03*
X121539912Y49878769D03*
G04 #@! TD*
D11*
G04 #@! TO.C,C1017*
X121694368Y45805498D03*
X121694368Y47355498D03*
G04 #@! TD*
D19*
G04 #@! TO.C,C1018*
X111896736Y51445598D03*
X111896736Y49895598D03*
G04 #@! TD*
D20*
G04 #@! TO.C,R1006*
X87015376Y-1163376D03*
X87736624Y-1884624D03*
G04 #@! TD*
D21*
G04 #@! TO.C,C701*
X107937000Y1270000D03*
X109487000Y1270000D03*
G04 #@! TD*
D11*
G04 #@! TO.C,C801*
X106680000Y14465000D03*
X106680000Y16015000D03*
G04 #@! TD*
D21*
G04 #@! TO.C,C901*
X118194266Y20335608D03*
X119744266Y20335608D03*
G04 #@! TD*
D22*
G04 #@! TO.C,C1518*
X82636992Y25994992D03*
X83733008Y27091008D03*
G04 #@! TD*
D23*
G04 #@! TO.C,C1521*
X90706000Y-5080000D03*
X91666000Y-5080000D03*
G04 #@! TD*
D21*
G04 #@! TO.C,C1503*
X78727000Y26670000D03*
X80277000Y26670000D03*
G04 #@! TD*
D24*
G04 #@! TO.C,C1505*
X95290008Y4277992D03*
X94193992Y5374008D03*
G04 #@! TD*
G04 #@! TO.C,C1506*
X96052008Y13167992D03*
X94955992Y14264008D03*
G04 #@! TD*
D25*
G04 #@! TO.C,C1507*
X71587992Y23408008D03*
X72684008Y22311992D03*
G04 #@! TD*
D22*
G04 #@! TO.C,C1501*
X96479992Y7325992D03*
X97576008Y8422008D03*
G04 #@! TD*
G04 #@! TO.C,C1502*
X97749992Y6309992D03*
X98846008Y7406008D03*
G04 #@! TD*
D24*
G04 #@! TO.C,C1101*
X102656008Y21549992D03*
X101559992Y22646008D03*
G04 #@! TD*
D26*
G04 #@! TO.C,FB1501*
X102859301Y5344699D03*
X101356699Y6847301D03*
G04 #@! TD*
D12*
G04 #@! TO.C,R901*
X119202315Y18098535D03*
X120222315Y18098535D03*
G04 #@! TD*
G04 #@! TO.C,R1502*
X96518000Y0D03*
X97538000Y0D03*
G04 #@! TD*
D27*
G04 #@! TO.C,R1101*
X124203537Y27547316D03*
X122553537Y27547316D03*
G04 #@! TD*
G04 #@! TO.C,R1102*
X124169878Y29129268D03*
X122519878Y29129268D03*
G04 #@! TD*
G04 #@! TO.C,R1103*
X124181098Y30789757D03*
X122531098Y30789757D03*
G04 #@! TD*
G04 #@! TO.C,R1104*
X120586000Y33401000D03*
X118936000Y33401000D03*
G04 #@! TD*
D28*
G04 #@! TO.C,RN701*
X120887074Y4487074D03*
D29*
X120887074Y5287074D03*
X120887074Y6087074D03*
D28*
X120887074Y6887074D03*
X119087074Y6887074D03*
D29*
X119087074Y6087074D03*
X119087074Y5287074D03*
D28*
X119087074Y4487074D03*
G04 #@! TD*
G04 #@! TO.C,RN801*
X123301709Y12312926D03*
D29*
X123301709Y13112926D03*
X123301709Y13912926D03*
D28*
X123301709Y14712926D03*
X121501709Y14712926D03*
D29*
X121501709Y13912926D03*
X121501709Y13112926D03*
D28*
X121501709Y12312926D03*
G04 #@! TD*
G04 #@! TO.C,RN901*
X120534000Y25216000D03*
D29*
X120534000Y26016000D03*
X120534000Y26816000D03*
D28*
X120534000Y27616000D03*
X118734000Y27616000D03*
D29*
X118734000Y26816000D03*
X118734000Y26016000D03*
D28*
X118734000Y25216000D03*
G04 #@! TD*
G04 #@! TO.C,RN1101*
X120534000Y29534000D03*
D29*
X120534000Y30334000D03*
X120534000Y31134000D03*
D28*
X120534000Y31934000D03*
X118734000Y31934000D03*
D29*
X118734000Y31134000D03*
X118734000Y30334000D03*
D28*
X118734000Y29534000D03*
G04 #@! TD*
D30*
G04 #@! TO.C,U1101*
X105293235Y21489049D03*
X105752854Y21948668D03*
X106212474Y22408287D03*
X106672093Y22867907D03*
X107131713Y23327526D03*
X107591332Y23787146D03*
X108050951Y24246765D03*
X104002765Y28294951D03*
X103543146Y27835332D03*
X103083526Y27375713D03*
X102623907Y26916093D03*
X102164287Y26456474D03*
X101704668Y25996854D03*
X101245049Y25537235D03*
G04 #@! TD*
D21*
G04 #@! TO.C,C1516*
X52662462Y37533142D03*
X54212462Y37533142D03*
G04 #@! TD*
D12*
G04 #@! TO.C,R1501*
X53400730Y35884875D03*
X54420730Y35884875D03*
G04 #@! TD*
D19*
G04 #@! TO.C,C1301*
X61218413Y48102703D03*
X61218413Y46552703D03*
G04 #@! TD*
D21*
G04 #@! TO.C,C1302*
X75971164Y58519287D03*
X77521164Y58519287D03*
G04 #@! TD*
D31*
G04 #@! TO.C,RN1301*
X67750175Y50664268D03*
D32*
X66950175Y50664268D03*
X66150175Y50664268D03*
D31*
X65350175Y50664268D03*
X65350175Y48864268D03*
D32*
X66150175Y48864268D03*
X66950175Y48864268D03*
D31*
X67750175Y48864268D03*
G04 #@! TD*
D19*
G04 #@! TO.C,C1523*
X97854133Y34331095D03*
X97854133Y32781095D03*
G04 #@! TD*
D33*
G04 #@! TO.C,R1504*
X98808000Y41910000D03*
X97788000Y41910000D03*
G04 #@! TD*
D14*
G04 #@! TO.C,U701*
X106000000Y3233500D03*
X106650000Y3233500D03*
X107300000Y3233500D03*
X107950000Y3233500D03*
X108600000Y3233500D03*
X109250000Y3233500D03*
X109900000Y3233500D03*
X109900000Y8958500D03*
X109250000Y8958500D03*
X108600000Y8958500D03*
X107950000Y8958500D03*
X107300000Y8958500D03*
X106650000Y8958500D03*
X106000000Y8958500D03*
G04 #@! TD*
D25*
G04 #@! TO.C,C1508*
X67777992Y20207608D03*
X68874008Y19111592D03*
G04 #@! TD*
D24*
G04 #@! TO.C,C1509*
X91226008Y18247992D03*
X90129992Y19344008D03*
G04 #@! TD*
D19*
G04 #@! TO.C,C1510*
X67818000Y5093000D03*
X67818000Y3543000D03*
G04 #@! TD*
D34*
G04 #@! TO.C,C1511*
X78753000Y-4826000D03*
X77203000Y-4826000D03*
G04 #@! TD*
D11*
G04 #@! TO.C,C1513*
X64643000Y10274000D03*
X64643000Y11824000D03*
G04 #@! TD*
D22*
G04 #@! TO.C,C1515*
X88097992Y467992D03*
X89194008Y1564008D03*
G04 #@! TD*
D35*
G04 #@! TO.C,U1501*
X81352342Y-2726710D03*
X81705895Y-2373157D03*
X82059449Y-2019604D03*
X82413002Y-1666050D03*
X82766555Y-1312497D03*
X83120109Y-958943D03*
X83473662Y-605390D03*
X83827215Y-251837D03*
X84180769Y101717D03*
X84534322Y455270D03*
X84887876Y808824D03*
X85241429Y1162377D03*
X85594982Y1515930D03*
X85948536Y1869484D03*
X86302089Y2223037D03*
X86655643Y2576590D03*
X87009196Y2930144D03*
X87362749Y3283697D03*
X87716303Y3637251D03*
X88069856Y3990804D03*
X88423410Y4344357D03*
X88776963Y4697911D03*
X89130516Y5051464D03*
X89484070Y5405018D03*
X89837623Y5758571D03*
X90191176Y6112124D03*
X90544730Y6465678D03*
X90898283Y6819231D03*
X91251837Y7172785D03*
X91605390Y7526338D03*
X91958943Y7879891D03*
X92312497Y8233445D03*
X92666050Y8586998D03*
X93019604Y8940551D03*
X93373157Y9294105D03*
X93726710Y9647658D03*
D36*
X93726710Y12352342D03*
X93373157Y12705895D03*
X93019604Y13059449D03*
X92666050Y13413002D03*
X92312497Y13766555D03*
X91958943Y14120109D03*
X91605390Y14473662D03*
X91251837Y14827215D03*
X90898283Y15180769D03*
X90544730Y15534322D03*
X90191176Y15887876D03*
X89837623Y16241429D03*
X89484070Y16594982D03*
X89130516Y16948536D03*
X88776963Y17302089D03*
X88423410Y17655643D03*
X88069856Y18009196D03*
X87716303Y18362749D03*
X87362749Y18716303D03*
X87009196Y19069856D03*
X86655643Y19423410D03*
X86302089Y19776963D03*
X85948536Y20130516D03*
X85594982Y20484070D03*
X85241429Y20837623D03*
X84887876Y21191176D03*
X84534322Y21544730D03*
X84180769Y21898283D03*
X83827215Y22251837D03*
X83473662Y22605390D03*
X83120109Y22958943D03*
X82766555Y23312497D03*
X82413002Y23666050D03*
X82059449Y24019604D03*
X81705895Y24373157D03*
X81352342Y24726710D03*
D35*
X78647658Y24726710D03*
X78294105Y24373157D03*
X77940551Y24019604D03*
X77586998Y23666050D03*
X77233445Y23312497D03*
X76879891Y22958943D03*
X76526338Y22605390D03*
X76172785Y22251837D03*
X75819231Y21898283D03*
X75465678Y21544730D03*
X75112124Y21191176D03*
X74758571Y20837623D03*
X74405018Y20484070D03*
X74051464Y20130516D03*
X73697911Y19776963D03*
X73344357Y19423410D03*
X72990804Y19069856D03*
X72637251Y18716303D03*
X72283697Y18362749D03*
X71930144Y18009196D03*
X71576590Y17655643D03*
X71223037Y17302089D03*
X70869484Y16948536D03*
X70515930Y16594982D03*
X70162377Y16241429D03*
X69808824Y15887876D03*
X69455270Y15534322D03*
X69101717Y15180769D03*
X68748163Y14827215D03*
X68394610Y14473662D03*
X68041057Y14120109D03*
X67687503Y13766555D03*
X67333950Y13413002D03*
X66980396Y13059449D03*
X66626843Y12705895D03*
X66273290Y12352342D03*
D36*
X66273290Y9647658D03*
X66626843Y9294105D03*
X66980396Y8940551D03*
X67333950Y8586998D03*
X67687503Y8233445D03*
X68041057Y7879891D03*
X68394610Y7526338D03*
X68748163Y7172785D03*
X69101717Y6819231D03*
X69455270Y6465678D03*
X69808824Y6112124D03*
X70162377Y5758571D03*
X70515930Y5405018D03*
X70869484Y5051464D03*
X71223037Y4697911D03*
X71576590Y4344357D03*
X71930144Y3990804D03*
X72283697Y3637251D03*
X72637251Y3283697D03*
X72990804Y2930144D03*
X73344357Y2576590D03*
X73697911Y2223037D03*
X74051464Y1869484D03*
X74405018Y1515930D03*
X74758571Y1162377D03*
X75112124Y808824D03*
X75465678Y455270D03*
X75819231Y101717D03*
X76172785Y-251837D03*
X76526338Y-605390D03*
X76879891Y-958943D03*
X77233445Y-1312497D03*
X77586998Y-1666050D03*
X77940551Y-2019604D03*
X78294105Y-2373157D03*
X78647658Y-2726710D03*
G04 #@! TD*
D34*
G04 #@! TO.C,C1002*
X68339000Y35814000D03*
X66789000Y35814000D03*
G04 #@! TD*
D37*
G04 #@! TO.C,C1004*
X79805000Y36068000D03*
X82755000Y36068000D03*
G04 #@! TD*
D38*
G04 #@! TO.C,R1004*
X95822000Y47244000D03*
X97472000Y47244000D03*
G04 #@! TD*
D39*
G04 #@! TO.C,C1522*
X94714000Y-5080000D03*
X93754000Y-5080000D03*
G04 #@! TD*
D24*
G04 #@! TO.C,C1504*
X87924008Y21295992D03*
X86827992Y22392008D03*
G04 #@! TD*
D28*
G04 #@! TO.C,RN501*
X49438751Y-8325729D03*
D29*
X49438751Y-7525729D03*
X49438751Y-6725729D03*
D28*
X49438751Y-5925729D03*
X47638751Y-5925729D03*
D29*
X47638751Y-6725729D03*
X47638751Y-7525729D03*
D28*
X47638751Y-8325729D03*
G04 #@! TD*
D40*
G04 #@! TO.C,RN201*
X44527547Y38147586D03*
D41*
X45327547Y38147586D03*
X46127547Y38147586D03*
D40*
X46927547Y38147586D03*
X46927547Y39947586D03*
D41*
X46127547Y39947586D03*
X45327547Y39947586D03*
D40*
X44527547Y39947586D03*
G04 #@! TD*
G04 #@! TO.C,RN301*
X40707013Y38147586D03*
D41*
X41507013Y38147586D03*
X42307013Y38147586D03*
D40*
X43107013Y38147586D03*
X43107013Y39947586D03*
D41*
X42307013Y39947586D03*
X41507013Y39947586D03*
D40*
X40707013Y39947586D03*
G04 #@! TD*
D11*
G04 #@! TO.C,C1006*
X75311000Y47231000D03*
X75311000Y48781000D03*
G04 #@! TD*
D42*
G04 #@! TO.C,D903*
X78772000Y46736000D03*
X82772000Y46736000D03*
G04 #@! TD*
D28*
G04 #@! TO.C,RN202*
X60892921Y42396889D03*
D29*
X60892921Y43196889D03*
X60892921Y43996889D03*
D28*
X60892921Y44796889D03*
X59092921Y44796889D03*
D29*
X59092921Y43996889D03*
X59092921Y43196889D03*
D28*
X59092921Y42396889D03*
G04 #@! TD*
G04 #@! TO.C,RN302*
X56624059Y42396889D03*
D29*
X56624059Y43196889D03*
X56624059Y43996889D03*
D28*
X56624059Y44796889D03*
X54824059Y44796889D03*
D29*
X54824059Y43996889D03*
X54824059Y43196889D03*
D28*
X54824059Y42396889D03*
G04 #@! TD*
D43*
G04 #@! TO.C,RN502*
X68932197Y-4025853D03*
D44*
X68932197Y-4825853D03*
X68932197Y-5625853D03*
D43*
X68932197Y-6425853D03*
X70732197Y-6425853D03*
D44*
X70732197Y-5625853D03*
X70732197Y-4825853D03*
D43*
X70732197Y-4025853D03*
G04 #@! TD*
D11*
G04 #@! TO.C,C1604*
X39417944Y16895591D03*
X39417944Y18445591D03*
G04 #@! TD*
D21*
G04 #@! TO.C,C1605*
X35811605Y14418165D03*
X37361605Y14418165D03*
G04 #@! TD*
G04 #@! TO.C,C1606*
X35811605Y17991793D03*
X37361605Y17991793D03*
G04 #@! TD*
D19*
G04 #@! TO.C,C1607*
X40957852Y17573129D03*
X40957852Y16023129D03*
G04 #@! TD*
D21*
G04 #@! TO.C,C1608*
X35798610Y21539431D03*
X37348610Y21539431D03*
G04 #@! TD*
G04 #@! TO.C,C1609*
X35759625Y25087070D03*
X37309625Y25087070D03*
G04 #@! TD*
D11*
G04 #@! TO.C,C1701*
X39371411Y25063581D03*
X39371411Y26613581D03*
G04 #@! TD*
D21*
G04 #@! TO.C,C1702*
X35754925Y28660698D03*
X37304925Y28660698D03*
G04 #@! TD*
G04 #@! TO.C,C1703*
X35728935Y32195341D03*
X37278935Y32195341D03*
G04 #@! TD*
G04 #@! TO.C,C1704*
X35714668Y41015081D03*
X37264668Y41015081D03*
G04 #@! TD*
G04 #@! TO.C,C1705*
X35720640Y35845890D03*
X37270640Y35845890D03*
G04 #@! TD*
G04 #@! TO.C,C1706*
X35702945Y37405291D03*
X37252945Y37405291D03*
G04 #@! TD*
D45*
G04 #@! TO.C,R1601*
X35869031Y12637848D03*
X37694031Y12637848D03*
G04 #@! TD*
G04 #@! TO.C,R1602*
X35869031Y16198482D03*
X37694031Y16198482D03*
G04 #@! TD*
G04 #@! TO.C,R1603*
X35856036Y19759115D03*
X37681036Y19759115D03*
G04 #@! TD*
G04 #@! TO.C,R1604*
X35845890Y23319748D03*
X37670890Y23319748D03*
G04 #@! TD*
G04 #@! TO.C,R1701*
X35806905Y26867386D03*
X37631905Y26867386D03*
G04 #@! TD*
G04 #@! TO.C,R1702*
X35804056Y30441014D03*
X37629056Y30441014D03*
G04 #@! TD*
G04 #@! TO.C,R1703*
X35793910Y33974608D03*
X37618910Y33974608D03*
G04 #@! TD*
G04 #@! TO.C,R1704*
X35772093Y39221769D03*
X37597093Y39221769D03*
G04 #@! TD*
D46*
G04 #@! TO.C,U1602*
X43967008Y12485208D03*
X43967008Y13135208D03*
X43967008Y13785208D03*
X43967008Y14435208D03*
X39742008Y14435208D03*
X39742008Y13785208D03*
X39742008Y13135208D03*
X39742008Y12485208D03*
G04 #@! TD*
G04 #@! TO.C,U1603*
X43967008Y20067797D03*
X43967008Y20717797D03*
X43967008Y21367797D03*
X43967008Y22017797D03*
X39742008Y22017797D03*
X39742008Y21367797D03*
X39742008Y20717797D03*
X39742008Y20067797D03*
G04 #@! TD*
G04 #@! TO.C,U1701*
X43881730Y28772205D03*
X43881730Y29422205D03*
X43881730Y30072205D03*
X43881730Y30722205D03*
X39656730Y30722205D03*
X39656730Y30072205D03*
X39656730Y29422205D03*
X39656730Y28772205D03*
G04 #@! TD*
G04 #@! TO.C,U1702*
X43798073Y32377947D03*
X43798073Y33027947D03*
X43798073Y33677947D03*
X43798073Y34327947D03*
X39573073Y34327947D03*
X39573073Y33677947D03*
X39573073Y33027947D03*
X39573073Y32377947D03*
G04 #@! TD*
D47*
G04 #@! TO.C,D1502*
X70408500Y-8128000D03*
X68783500Y-8128000D03*
G04 #@! TD*
D48*
G04 #@! TO.C,R1508*
X72136000Y-7110000D03*
X72136000Y-8130000D03*
G04 #@! TD*
D28*
G04 #@! TO.C,RN1601*
X46064463Y16053702D03*
D29*
X46064463Y16853702D03*
X46064463Y17653702D03*
D28*
X46064463Y18453702D03*
X44264463Y18453702D03*
D29*
X44264463Y17653702D03*
X44264463Y16853702D03*
D28*
X44264463Y16053702D03*
G04 #@! TD*
D43*
G04 #@! TO.C,RN1701*
X42416447Y27223760D03*
D44*
X42416447Y26423760D03*
X42416447Y25623760D03*
D43*
X42416447Y24823760D03*
X44216447Y24823760D03*
D44*
X44216447Y25623760D03*
X44216447Y26423760D03*
D43*
X44216447Y27223760D03*
G04 #@! TD*
D11*
G04 #@! TO.C,C1204*
X110169903Y40696474D03*
X110169903Y42246474D03*
G04 #@! TD*
G04 #@! TO.C,C1208*
X103319940Y39608627D03*
X103319940Y41158627D03*
G04 #@! TD*
G04 #@! TO.C,C1402*
X115092196Y37604500D03*
X115092196Y39154500D03*
G04 #@! TD*
G04 #@! TO.C,C1403*
X120556828Y40690713D03*
X120556828Y42240713D03*
G04 #@! TD*
G04 #@! TO.C,C1404*
X122080828Y37642713D03*
X122080828Y39192713D03*
G04 #@! TD*
G04 #@! TO.C,C1405*
X117080632Y40674706D03*
X117080632Y42224706D03*
G04 #@! TD*
G04 #@! TO.C,C1406*
X118604632Y37626706D03*
X118604632Y39176706D03*
G04 #@! TD*
G04 #@! TO.C,C1407*
X106349131Y40643085D03*
X106349131Y42193085D03*
G04 #@! TD*
G04 #@! TO.C,C1408*
X107881702Y37604825D03*
X107881702Y39154825D03*
G04 #@! TD*
D49*
G04 #@! TO.C,R1201*
X111693903Y42296474D03*
X111693903Y40646474D03*
G04 #@! TD*
D50*
G04 #@! TO.C,R1202*
X110169903Y37598474D03*
X110169903Y39248474D03*
G04 #@! TD*
D49*
G04 #@! TO.C,R1203*
X103319940Y44256627D03*
X103319940Y42606627D03*
G04 #@! TD*
D50*
G04 #@! TO.C,R1204*
X101795940Y39558627D03*
X101795940Y41208627D03*
G04 #@! TD*
D49*
G04 #@! TO.C,R1401*
X115092196Y42252500D03*
X115092196Y40602500D03*
G04 #@! TD*
D50*
G04 #@! TO.C,R1402*
X113568196Y37554500D03*
X113568196Y39204500D03*
G04 #@! TD*
D49*
G04 #@! TO.C,R1403*
X122080828Y42290713D03*
X122080828Y40640713D03*
G04 #@! TD*
D50*
G04 #@! TO.C,R1404*
X120556828Y37592713D03*
X120556828Y39242713D03*
G04 #@! TD*
D49*
G04 #@! TO.C,R1405*
X118604632Y42274706D03*
X118604632Y40624706D03*
G04 #@! TD*
D50*
G04 #@! TO.C,R1406*
X117080632Y37576706D03*
X117080632Y39226706D03*
G04 #@! TD*
D49*
G04 #@! TO.C,R1407*
X107881702Y42252825D03*
X107881702Y40602825D03*
G04 #@! TD*
D21*
G04 #@! TO.C,C1409*
X122603537Y32450246D03*
X124153537Y32450246D03*
G04 #@! TD*
D50*
G04 #@! TO.C,R1408*
X106357702Y37554825D03*
X106357702Y39204825D03*
G04 #@! TD*
D11*
G04 #@! TO.C,C1401*
X113568196Y40652500D03*
X113568196Y42202500D03*
G04 #@! TD*
G04 #@! TO.C,C1207*
X101795940Y42656627D03*
X101795940Y44206627D03*
G04 #@! TD*
G04 #@! TO.C,C1205*
X111693903Y37648474D03*
X111693903Y39198474D03*
G04 #@! TD*
D24*
G04 #@! TO.C,C1519*
X65318008Y15707992D03*
X64221992Y16804008D03*
G04 #@! TD*
D22*
G04 #@! TO.C,C1512*
X71333992Y-1056008D03*
X72430008Y40008D03*
G04 #@! TD*
D51*
G04 #@! TO.C,D1503*
X63597462Y27342595D03*
X63597462Y30642595D03*
G04 #@! TD*
D52*
G04 #@! TO.C,F101*
X123834448Y67857561D03*
X120909448Y67857561D03*
G04 #@! TD*
D53*
G04 #@! TO.C,F102*
X120909448Y65434146D03*
X123834448Y65434146D03*
G04 #@! TD*
D47*
G04 #@! TO.C,D1504*
X75996500Y-8128000D03*
X74371500Y-8128000D03*
G04 #@! TD*
G04 #@! TO.C,D1505*
X82092500Y-8128000D03*
X80467500Y-8128000D03*
G04 #@! TD*
G04 #@! TO.C,D1506*
X88188500Y-8128000D03*
X86563500Y-8128000D03*
G04 #@! TD*
G04 #@! TO.C,D1507*
X94284500Y-8128000D03*
X92659500Y-8128000D03*
G04 #@! TD*
D33*
G04 #@! TO.C,R1509*
X78488000Y-8128000D03*
X77468000Y-8128000D03*
G04 #@! TD*
G04 #@! TO.C,R1510*
X84584000Y-8128000D03*
X83564000Y-8128000D03*
G04 #@! TD*
G04 #@! TO.C,R1511*
X90680000Y-8128000D03*
X89660000Y-8128000D03*
G04 #@! TD*
G04 #@! TO.C,R1512*
X96776000Y-8128000D03*
X95756000Y-8128000D03*
G04 #@! TD*
D54*
G04 #@! TO.C,J105*
X122591985Y55617435D03*
G04 #@! TD*
G04 #@! TO.C,J107*
X117161176Y55529842D03*
G04 #@! TD*
G04 #@! TO.C,J108*
X98298000Y16002000D03*
G04 #@! TD*
D55*
G04 #@! TO.C,U1502*
X59549201Y35442083D03*
X60499201Y35442083D03*
X61449201Y35442083D03*
X61449201Y37717083D03*
X60499201Y37717083D03*
X59549201Y37717083D03*
G04 #@! TD*
D56*
G04 #@! TO.C,D1*
X97297000Y45450000D03*
X95997000Y45450000D03*
X96647000Y43450000D03*
G04 #@! TD*
D57*
G04 #@! TO.C,R1513*
X58293000Y7618000D03*
X58293000Y8638000D03*
G04 #@! TD*
D11*
G04 #@! TO.C,C1517*
X60452000Y14211000D03*
X60452000Y15761000D03*
G04 #@! TD*
D58*
G04 #@! TO.C,J1504*
X60334209Y40322147D03*
D59*
X57834209Y40322147D03*
X55334209Y40322147D03*
X52834209Y40322147D03*
X50334209Y40322147D03*
G04 #@! TD*
D60*
G04 #@! TO.C,D1001*
X86389000Y43434000D03*
X93189000Y43434000D03*
G04 #@! TD*
D39*
G04 #@! TO.C,C1*
X117050731Y5485123D03*
X116090731Y5485123D03*
G04 #@! TD*
G04 #@! TO.C,C2*
X117013333Y6752357D03*
X116053333Y6752357D03*
G04 #@! TD*
G04 #@! TO.C,C3*
X117013333Y8001463D03*
X116053333Y8001463D03*
G04 #@! TD*
G04 #@! TO.C,C4*
X116948535Y9269269D03*
X115988535Y9269269D03*
G04 #@! TD*
G04 #@! TO.C,C5*
X119451414Y12830291D03*
X118491414Y12830291D03*
G04 #@! TD*
G04 #@! TO.C,C6*
X119451414Y13846291D03*
X118491414Y13846291D03*
G04 #@! TD*
G04 #@! TO.C,C7*
X119451414Y14862291D03*
X118491414Y14862291D03*
G04 #@! TD*
G04 #@! TO.C,C8*
X119451414Y15878291D03*
X118491414Y15878291D03*
G04 #@! TD*
G04 #@! TO.C,C9*
X116812000Y24892000D03*
X115852000Y24892000D03*
G04 #@! TD*
G04 #@! TO.C,C10*
X116812000Y25908000D03*
X115852000Y25908000D03*
G04 #@! TD*
G04 #@! TO.C,C11*
X116812000Y26924000D03*
X115852000Y26924000D03*
G04 #@! TD*
G04 #@! TO.C,C12*
X116812000Y27940000D03*
X115852000Y27940000D03*
G04 #@! TD*
G04 #@! TO.C,C13*
X116812000Y29210000D03*
X115852000Y29210000D03*
G04 #@! TD*
G04 #@! TO.C,C14*
X116812000Y30226000D03*
X115852000Y30226000D03*
G04 #@! TD*
G04 #@! TO.C,C15*
X116812000Y31242000D03*
X115852000Y31242000D03*
G04 #@! TD*
G04 #@! TO.C,C16*
X116812000Y32258000D03*
X115852000Y32258000D03*
G04 #@! TD*
D48*
G04 #@! TO.C,R2*
X111506000Y3812000D03*
X111506000Y2792000D03*
G04 #@! TD*
D12*
G04 #@! TO.C,R3*
X102614000Y9652000D03*
X103634000Y9652000D03*
G04 #@! TD*
D48*
G04 #@! TO.C,R5*
X104648000Y3812000D03*
X104648000Y2792000D03*
G04 #@! TD*
D33*
G04 #@! TO.C,R6*
X112524000Y5588000D03*
X111504000Y5588000D03*
G04 #@! TD*
G04 #@! TO.C,R7*
X103634000Y8636000D03*
X102614000Y8636000D03*
G04 #@! TD*
D57*
G04 #@! TO.C,R8*
X104648000Y6475000D03*
X104648000Y7495000D03*
G04 #@! TD*
D48*
G04 #@! TO.C,R10*
X114170249Y11813169D03*
X114170249Y10793169D03*
G04 #@! TD*
D57*
G04 #@! TO.C,R11*
X105210083Y16394023D03*
X105210083Y17414023D03*
G04 #@! TD*
D48*
G04 #@! TO.C,R12*
X106670598Y18987536D03*
X106670598Y17967536D03*
G04 #@! TD*
D12*
G04 #@! TO.C,R13*
X105870812Y13059024D03*
X106890812Y13059024D03*
G04 #@! TD*
D57*
G04 #@! TO.C,R14*
X115348298Y10776340D03*
X115348298Y11796340D03*
G04 #@! TD*
G04 #@! TO.C,R15*
X105191834Y14313579D03*
X105191834Y15333579D03*
G04 #@! TD*
D33*
G04 #@! TO.C,R16*
X108968000Y18796000D03*
X107948000Y18796000D03*
G04 #@! TD*
D57*
G04 #@! TO.C,R17*
X117988779Y16933414D03*
X117988779Y17953414D03*
G04 #@! TD*
D33*
G04 #@! TO.C,R18*
X119128000Y23876000D03*
X118108000Y23876000D03*
G04 #@! TD*
D20*
G04 #@! TO.C,R19*
X101747376Y20426624D03*
X102468624Y19705376D03*
G04 #@! TD*
D12*
G04 #@! TO.C,R20*
X107957643Y19923577D03*
X108977643Y19923577D03*
G04 #@! TD*
D33*
G04 #@! TO.C,R21*
X120215366Y16949755D03*
X119195366Y16949755D03*
G04 #@! TD*
G04 #@! TO.C,R22*
X120242193Y22792682D03*
X119222193Y22792682D03*
G04 #@! TD*
D20*
G04 #@! TO.C,R23*
X100223376Y21950624D03*
X100944624Y21229376D03*
G04 #@! TD*
D48*
G04 #@! TO.C,R24*
X108905853Y21991843D03*
X108905853Y20971843D03*
G04 #@! TD*
D61*
G04 #@! TO.C,R25*
X107548624Y28554624D03*
X106827376Y27833376D03*
G04 #@! TD*
G04 #@! TO.C,R26*
X109072624Y27538624D03*
X108351376Y26817376D03*
G04 #@! TD*
D20*
G04 #@! TO.C,R27*
X104730593Y29678182D03*
X105451841Y28956934D03*
G04 #@! TD*
D62*
G04 #@! TO.C,R28*
X98993517Y24246923D03*
X99714765Y24968171D03*
G04 #@! TD*
D61*
G04 #@! TO.C,R29*
X109580624Y30586624D03*
X108859376Y29865376D03*
G04 #@! TD*
D62*
G04 #@! TO.C,R30*
X108859376Y25801376D03*
X109580624Y26522624D03*
G04 #@! TD*
G04 #@! TO.C,R32*
X97825602Y22499375D03*
X98546850Y23220623D03*
G04 #@! TD*
D12*
G04 #@! TO.C,R801*
X123112198Y10966584D03*
X124132198Y10966584D03*
G04 #@! TD*
D33*
G04 #@! TO.C,R704*
X121106096Y8349268D03*
X120086096Y8349268D03*
G04 #@! TD*
D57*
G04 #@! TO.C,R804*
X123405365Y15930488D03*
X123405365Y16950488D03*
G04 #@! TD*
G04 #@! TO.C,R803*
X122350730Y15938617D03*
X122350730Y16958617D03*
G04 #@! TD*
D33*
G04 #@! TO.C,R802*
X122079026Y10983413D03*
X121059026Y10983413D03*
G04 #@! TD*
D57*
G04 #@! TO.C,R703*
X122447317Y6145121D03*
X122447317Y7165121D03*
G04 #@! TD*
D48*
G04 #@! TO.C,R702*
X122436097Y4775364D03*
X122436097Y3755364D03*
G04 #@! TD*
D33*
G04 #@! TO.C,R701*
X120982682Y2997558D03*
X119962682Y2997558D03*
G04 #@! TD*
D63*
G04 #@! TO.C,U1*
X113913500Y7178000D03*
X113913500Y8128000D03*
X113913500Y9078000D03*
X111638500Y9078000D03*
X111638500Y8128000D03*
X111638500Y7178000D03*
G04 #@! TD*
G04 #@! TO.C,U2*
X116738237Y13399269D03*
X116738237Y14349269D03*
X116738237Y15299269D03*
X114463237Y15299269D03*
X114463237Y14349269D03*
X114463237Y13399269D03*
G04 #@! TD*
G04 #@! TO.C,U3*
X113967517Y25448528D03*
X113967517Y26398528D03*
X113967517Y27348528D03*
X111692517Y27348528D03*
X111692517Y26398528D03*
X111692517Y25448528D03*
G04 #@! TD*
G04 #@! TO.C,U4*
X113913500Y29784000D03*
X113913500Y30734000D03*
X113913500Y31684000D03*
X111638500Y31684000D03*
X111638500Y30734000D03*
X111638500Y29784000D03*
G04 #@! TD*
D57*
G04 #@! TO.C,R4*
X104648000Y8507000D03*
X104648000Y9527000D03*
G04 #@! TD*
D20*
G04 #@! TO.C,R31*
X105948032Y30858496D03*
X106669280Y30137248D03*
G04 #@! TD*
D48*
G04 #@! TO.C,R9*
X106814634Y11930974D03*
X106814634Y10910974D03*
G04 #@! TD*
D12*
G04 #@! TO.C,R1*
X105408000Y1524000D03*
X106428000Y1524000D03*
G04 #@! TD*
D64*
G04 #@! TO.C,C23*
X112744875Y3733660D03*
X112744875Y2773660D03*
G04 #@! TD*
D65*
G04 #@! TO.C,C24*
X112848942Y-8964551D03*
X112848942Y-8004551D03*
G04 #@! TD*
D12*
G04 #@! TO.C,R44*
X113906584Y4218538D03*
X114926584Y4218538D03*
G04 #@! TD*
G04 #@! TO.C,R45*
X114006910Y-8925852D03*
X115026910Y-8925852D03*
G04 #@! TD*
G04 #@! TO.C,R46*
X113996340Y2793660D03*
X115016340Y2793660D03*
G04 #@! TD*
G04 #@! TO.C,R47*
X114029349Y-7564551D03*
X115049349Y-7564551D03*
G04 #@! TD*
D66*
G04 #@! TO.C,U5*
X117040976Y574940D03*
X116390976Y574940D03*
X115740976Y574940D03*
X115090976Y574940D03*
X114440976Y574940D03*
X113790976Y574940D03*
X113140976Y574940D03*
X113140976Y-5150060D03*
X113790976Y-5150060D03*
X114440976Y-5150060D03*
X115090976Y-5150060D03*
X115740976Y-5150060D03*
X116390976Y-5150060D03*
X117040976Y-5150060D03*
G04 #@! TD*
D19*
G04 #@! TO.C,C903*
X96012000Y34303000D03*
X96012000Y32753000D03*
G04 #@! TD*
D57*
G04 #@! TO.C,R906*
X76581000Y46861000D03*
X76581000Y47881000D03*
G04 #@! TD*
D67*
G04 #@! TO.C,U902*
X93574000Y34022000D03*
D68*
X87274000Y36322000D03*
D67*
X93574000Y36322000D03*
X93574000Y38622000D03*
G04 #@! TD*
D69*
G04 #@! TO.C,Y1501*
X90582007Y-2265893D03*
X94282007Y-2265893D03*
G04 #@! TD*
D34*
G04 #@! TO.C,C902*
X69417333Y32297551D03*
X67867333Y32297551D03*
G04 #@! TD*
D11*
G04 #@! TO.C,C904*
X71247000Y38722000D03*
X71247000Y40272000D03*
G04 #@! TD*
D33*
G04 #@! TO.C,R905*
X69852000Y33782000D03*
X68832000Y33782000D03*
G04 #@! TD*
D12*
G04 #@! TO.C,R908*
X76706000Y31496000D03*
X77726000Y31496000D03*
G04 #@! TD*
D70*
G04 #@! TO.C,U903*
X71693000Y36957000D03*
X71693000Y35687000D03*
X71693000Y34417000D03*
X71693000Y33147000D03*
X76643000Y33147000D03*
X76643000Y34417000D03*
X76643000Y35687000D03*
X76643000Y36957000D03*
D71*
X74168000Y35052000D03*
G04 #@! TD*
D72*
G04 #@! TO.C,D901*
X73914000Y39402000D03*
X73914000Y43402000D03*
G04 #@! TD*
D73*
G04 #@! TO.C,D101*
X29441548Y3980689D03*
X29441548Y-19311D03*
G04 #@! TD*
D42*
G04 #@! TO.C,D102*
X36297124Y-7316291D03*
X40297124Y-7316291D03*
G04 #@! TD*
D73*
G04 #@! TO.C,D103*
X36410648Y9795957D03*
X36410648Y5795957D03*
G04 #@! TD*
D72*
G04 #@! TO.C,D104*
X29434480Y-7126837D03*
X29434480Y-3126837D03*
G04 #@! TD*
D33*
G04 #@! TO.C,R907*
X75694000Y31496000D03*
X74674000Y31496000D03*
G04 #@! TD*
D74*
G04 #@! TO.C,D1501*
X98232000Y40253500D03*
X97282000Y40253500D03*
X96332000Y40253500D03*
X96332000Y37978500D03*
X97282000Y37978500D03*
X98232000Y37978500D03*
G04 #@! TD*
D39*
G04 #@! TO.C,C905*
X76934000Y30480000D03*
X75974000Y30480000D03*
G04 #@! TD*
D75*
G04 #@! TO.C,L1002*
X73536000Y46990000D03*
X70736000Y46990000D03*
G04 #@! TD*
D12*
G04 #@! TO.C,R1105*
X71883511Y58985807D03*
X72903511Y58985807D03*
G04 #@! TD*
D76*
G04 #@! TO.C,R1106*
X64496741Y52343581D03*
X63330015Y51176855D03*
G04 #@! TD*
D12*
G04 #@! TO.C,R1107*
X71889483Y57958152D03*
X72909483Y57958152D03*
G04 #@! TD*
D49*
G04 #@! TO.C,R1108*
X60153259Y52416646D03*
X60153259Y50766646D03*
G04 #@! TD*
D77*
G04 #@! TO.C,L1001*
X77198000Y41148000D03*
X81298000Y41148000D03*
G04 #@! TD*
D78*
G04 #@! TO.C,C906*
X83566000Y41607000D03*
X83566000Y38657000D03*
G04 #@! TD*
D79*
G04 #@! TO.C,C1901*
X121978535Y-1109511D03*
X123878535Y-1109511D03*
G04 #@! TD*
D19*
G04 #@! TO.C,C21*
X116413658Y4118416D03*
X116413658Y2568416D03*
G04 #@! TD*
G04 #@! TO.C,C22*
X116470610Y-7320208D03*
X116470610Y-8870208D03*
G04 #@! TD*
D64*
G04 #@! TO.C,C25*
X111402922Y-105362D03*
X111402922Y-1065362D03*
G04 #@! TD*
G04 #@! TO.C,C26*
X110222996Y-1407667D03*
X110222996Y-2367667D03*
G04 #@! TD*
D79*
G04 #@! TO.C,C1902*
X122063903Y-8343658D03*
X123963903Y-8343658D03*
G04 #@! TD*
D48*
G04 #@! TO.C,R42*
X117856000Y3812000D03*
X117856000Y2792000D03*
G04 #@! TD*
D57*
G04 #@! TO.C,R43*
X117968782Y-8998291D03*
X117968782Y-7978291D03*
G04 #@! TD*
D12*
G04 #@! TO.C,R1901*
X118863169Y484386D03*
X119883169Y484386D03*
G04 #@! TD*
G04 #@! TO.C,R1902*
X119683986Y-7467315D03*
X120703986Y-7467315D03*
G04 #@! TD*
G04 #@! TO.C,R1903*
X118870000Y1778000D03*
X119890000Y1778000D03*
G04 #@! TD*
G04 #@! TO.C,R1904*
X119100571Y-8918373D03*
X120120571Y-8918373D03*
G04 #@! TD*
D34*
G04 #@! TO.C,C1903*
X120322071Y-4742193D03*
X118772071Y-4742193D03*
G04 #@! TD*
D12*
G04 #@! TO.C,R38*
X118617560Y-2202193D03*
X119637560Y-2202193D03*
G04 #@! TD*
G04 #@! TO.C,R40*
X118616000Y-762000D03*
X119636000Y-762000D03*
G04 #@! TD*
D80*
G04 #@! TO.C,J1505*
X97605501Y-5126837D03*
D81*
X100145501Y-5126837D03*
X102685501Y-5126837D03*
X105225501Y-5126837D03*
X107765501Y-5126837D03*
X110305501Y-5126837D03*
G04 #@! TD*
D82*
G04 #@! TO.C,JP1*
X123670365Y-3398293D03*
D83*
X122220365Y-3398293D03*
G04 #@! TD*
D82*
G04 #@! TO.C,JP2*
X123688415Y-6038047D03*
D83*
X122238415Y-6038047D03*
G04 #@! TD*
D84*
G04 #@! TO.C,J1*
X62128000Y-3836000D03*
X61028000Y-3836000D03*
X59928000Y-3836000D03*
X58828000Y-3836000D03*
X57728000Y-3836000D03*
X56628000Y-3836000D03*
X55528000Y-3836000D03*
X54428000Y-3836000D03*
D85*
X65803000Y1864000D03*
X52053000Y-6436000D03*
X52053000Y1864000D03*
X65803000Y-6436000D03*
G04 #@! TD*
D56*
G04 #@! TO.C,D2*
X65293000Y37068000D03*
X63993000Y37068000D03*
X64643000Y35068000D03*
G04 #@! TD*
D50*
G04 #@! TO.C,R33*
X65532000Y31458500D03*
X65532000Y33108500D03*
G04 #@! TD*
D80*
G04 #@! TO.C,J2*
X107812339Y-8296983D03*
D81*
X110352339Y-8296983D03*
G04 #@! TD*
D86*
G04 #@! TO.C,J1501*
X58420000Y25400000D03*
D87*
X58420000Y27900000D03*
X55220000Y27900000D03*
X55220000Y25400000D03*
D54*
X55710000Y20630000D03*
X55710000Y32670000D03*
G04 #@! TD*
D88*
G04 #@! TO.C,R34*
X59405609Y48337666D03*
X59405609Y46512666D03*
G04 #@! TD*
D45*
G04 #@! TO.C,R35*
X75775187Y60361330D03*
X77600187Y60361330D03*
G04 #@! TD*
D89*
G04 #@! TO.C,U8*
X100465839Y5017664D03*
X99122336Y3674161D03*
X101119913Y3020087D03*
G04 #@! TD*
D90*
G04 #@! TO.C,U9*
X93645000Y28230000D03*
X93045000Y28230000D03*
D91*
X92420000Y27905000D03*
X92420000Y27305000D03*
X92420000Y26705000D03*
D90*
X93045000Y26380000D03*
X93645000Y26380000D03*
D91*
X94270000Y26705000D03*
X94270000Y27305000D03*
X94270000Y27905000D03*
G04 #@! TD*
D25*
G04 #@! TO.C,C1520*
X95273492Y6390008D03*
X96369508Y5293992D03*
G04 #@! TD*
D21*
G04 #@! TO.C,C20*
X94094000Y29718000D03*
X95644000Y29718000D03*
G04 #@! TD*
D48*
G04 #@! TO.C,R39*
X86487000Y28323000D03*
X86487000Y27303000D03*
G04 #@! TD*
D33*
G04 #@! TO.C,R41*
X92331000Y25019000D03*
X91311000Y25019000D03*
G04 #@! TD*
D92*
G04 #@! TO.C,SW1501*
X55818314Y18021456D03*
X49018314Y18021456D03*
X49018314Y14021456D03*
X55818314Y14021456D03*
G04 #@! TD*
D93*
G04 #@! TO.C,SW1502*
X55818314Y7466852D03*
X49018314Y7466852D03*
X49018314Y11466852D03*
X55818314Y11466852D03*
G04 #@! TD*
D94*
G04 #@! TO.C,J4*
X60960000Y7239000D03*
X61976000Y12319000D03*
X59944000Y12319000D03*
D95*
X61595000Y8509000D03*
X60325000Y8509000D03*
X61595000Y9779000D03*
X60325000Y9779000D03*
X61595000Y11049000D03*
X60325000Y11049000D03*
G04 #@! TD*
D96*
G04 #@! TO.C,D3*
X97410000Y10668000D03*
X100710000Y10668000D03*
G04 #@! TD*
D97*
G04 #@! TO.C,D4*
X84177274Y-2516274D03*
X86510726Y-4849726D03*
G04 #@! TD*
D25*
G04 #@! TO.C,C30*
X82763992Y-3896992D03*
X83860008Y-4993008D03*
G04 #@! TD*
D49*
G04 #@! TO.C,R1503*
X98933000Y44894000D03*
X98933000Y43244000D03*
G04 #@! TD*
D38*
G04 #@! TO.C,R50*
X103847171Y57945161D03*
X105497171Y57945161D03*
G04 #@! TD*
D49*
G04 #@! TO.C,R53*
X110543950Y61303421D03*
X110543950Y59653421D03*
G04 #@! TD*
D98*
G04 #@! TO.C,D6*
X89109396Y63217788D03*
X89109396Y65317788D03*
G04 #@! TD*
D99*
G04 #@! TO.C,U27*
X84806255Y65275912D03*
X84806255Y64325912D03*
X84806255Y63375912D03*
X87081255Y63375912D03*
X87081255Y65275912D03*
G04 #@! TD*
D74*
G04 #@! TO.C,U25*
X108895469Y64668575D03*
X107945469Y64668575D03*
X106995469Y64668575D03*
X106995469Y62393575D03*
X107945469Y62393575D03*
X108895469Y62393575D03*
G04 #@! TD*
D70*
G04 #@! TO.C,U6*
X79793271Y32940820D03*
X79793271Y31670820D03*
X79793271Y30400820D03*
X79793271Y29130820D03*
X84743271Y29130820D03*
X84743271Y30400820D03*
X84743271Y31670820D03*
X84743271Y32940820D03*
G04 #@! TD*
D34*
G04 #@! TO.C,C29*
X105416861Y62643166D03*
X103866861Y62643166D03*
G04 #@! TD*
D11*
G04 #@! TO.C,C28*
X112159558Y59694911D03*
X112159558Y61244911D03*
G04 #@! TD*
D100*
G04 #@! TO.C,U14*
X36055601Y54575816D03*
X38355601Y54575816D03*
X40655601Y54575816D03*
D101*
X38355601Y60875816D03*
G04 #@! TD*
D21*
G04 #@! TO.C,C18*
X72141460Y62351515D03*
X73691460Y62351515D03*
G04 #@! TD*
D102*
G04 #@! TO.C,U1208*
X99484038Y28257523D03*
X98812287Y28929274D03*
X98140536Y29601025D03*
X96531868Y27992357D03*
X97203619Y27320606D03*
X97875370Y26648855D03*
G04 #@! TD*
D27*
G04 #@! TO.C,R51*
X112133324Y58072557D03*
X110483324Y58072557D03*
G04 #@! TD*
D45*
G04 #@! TO.C,R49*
X72198885Y65801691D03*
X74023885Y65801691D03*
G04 #@! TD*
D21*
G04 #@! TO.C,C19*
X72146161Y63949902D03*
X73696161Y63949902D03*
G04 #@! TD*
D100*
G04 #@! TO.C,U13*
X43555348Y56681008D03*
X45855348Y56681008D03*
X48155348Y56681008D03*
D101*
X45855348Y62981008D03*
G04 #@! TD*
D38*
G04 #@! TO.C,R37*
X69259675Y30730561D03*
X70909675Y30730561D03*
G04 #@! TD*
D74*
G04 #@! TO.C,U26*
X108919206Y60376111D03*
X107969206Y60376111D03*
X107019206Y60376111D03*
X107019206Y58101111D03*
X107969206Y58101111D03*
X108919206Y58101111D03*
G04 #@! TD*
D49*
G04 #@! TO.C,R52*
X105413382Y61135490D03*
X105413382Y59485490D03*
G04 #@! TD*
D21*
G04 #@! TO.C,C31*
X110506492Y62812835D03*
X112056492Y62812835D03*
G04 #@! TD*
D99*
G04 #@! TO.C,U10*
X114707624Y35792186D03*
X114707624Y34842186D03*
X114707624Y33892186D03*
X116982624Y33892186D03*
X116982624Y34842186D03*
X116982624Y35792186D03*
G04 #@! TD*
D103*
G04 #@! TO.C,U12*
X58914941Y54595269D03*
X60184941Y54595269D03*
X61454941Y54595269D03*
X62724941Y54595269D03*
X63994941Y54595269D03*
X65264941Y54595269D03*
X66534941Y54595269D03*
X67804941Y54595269D03*
X69074941Y54595269D03*
X70344941Y54595269D03*
X70344941Y64095269D03*
X69074941Y64095269D03*
X67804941Y64095269D03*
X66534941Y64095269D03*
X65264941Y64095269D03*
X63994941Y64095269D03*
X62724941Y64095269D03*
X61454941Y64095269D03*
X60184941Y64095269D03*
X58914941Y64095269D03*
G04 #@! TD*
D104*
G04 #@! TO.C,R36*
X87746822Y30347740D03*
X88913548Y31514466D03*
G04 #@! TD*
D105*
G04 #@! TO.C,C33*
X86363882Y66466456D03*
X87003882Y66466456D03*
G04 #@! TD*
D100*
G04 #@! TO.C,U18*
X36063148Y45610595D03*
X38363148Y45610595D03*
X40663148Y45610595D03*
D101*
X38363148Y51910595D03*
G04 #@! TD*
D45*
G04 #@! TO.C,R48*
X72218378Y60558204D03*
X74043378Y60558204D03*
G04 #@! TD*
D99*
G04 #@! TO.C,U7*
X101865000Y37328934D03*
X101865000Y36378934D03*
X101865000Y35428934D03*
X104140000Y35428934D03*
X104140000Y36378934D03*
X104140000Y37328934D03*
G04 #@! TD*
D106*
G04 #@! TO.C,U20*
X48037918Y50207436D03*
X45737918Y50207436D03*
X43437918Y50207436D03*
D107*
X45737918Y43907436D03*
G04 #@! TD*
D108*
G04 #@! TO.C,IC1*
X80935791Y65270137D03*
X80935791Y63370137D03*
X82810791Y64320137D03*
G04 #@! TD*
D102*
G04 #@! TO.C,U1207*
X109256100Y32930243D03*
X108584349Y33601994D03*
X107912598Y34273745D03*
X106303930Y32665077D03*
X106975681Y31993326D03*
X107647432Y31321575D03*
G04 #@! TD*
D106*
G04 #@! TO.C,U19*
X55721118Y53815126D03*
X53421118Y53815126D03*
X51121118Y53815126D03*
D107*
X53421118Y47515126D03*
G04 #@! TD*
D100*
G04 #@! TO.C,U15*
X51047547Y56684781D03*
X53347547Y56684781D03*
X55647547Y56684781D03*
D101*
X53347547Y62984781D03*
G04 #@! TD*
D106*
G04 #@! TO.C,U22*
X48637787Y2544158D03*
X46337787Y2544158D03*
X44037787Y2544158D03*
D107*
X46337787Y-3755842D03*
G04 #@! TD*
D109*
G04 #@! TO.C,D5*
X78362877Y67121883D03*
X80462877Y67121883D03*
G04 #@! TD*
D102*
G04 #@! TO.C,U1202*
X104175597Y31936486D03*
X103503846Y32608237D03*
X102832095Y33279988D03*
X101223427Y31671320D03*
X101895178Y30999569D03*
X102566929Y30327818D03*
G04 #@! TD*
D110*
G04 #@! TO.C,U11*
X75700722Y25311728D03*
X75700722Y26581728D03*
X75700722Y27851728D03*
X75700722Y29121728D03*
X70750722Y29121728D03*
X70750722Y27851728D03*
X70750722Y26581728D03*
X70750722Y25311728D03*
G04 #@! TD*
D67*
G04 #@! TO.C,U21*
X45796154Y5606415D03*
X45796154Y7906415D03*
X45796154Y10206415D03*
D68*
X39496154Y7906415D03*
G04 #@! TD*
D106*
G04 #@! TO.C,U24*
X40684840Y2440198D03*
X38384840Y2440198D03*
X36084840Y2440198D03*
D107*
X38384840Y-3859802D03*
G04 #@! TD*
D11*
G04 #@! TO.C,C27*
X103760134Y59514444D03*
X103760134Y61064444D03*
G04 #@! TD*
D12*
G04 #@! TO.C,R54*
X78361935Y65429259D03*
X79381935Y65429259D03*
G04 #@! TD*
D111*
G04 #@! TO.C,C32*
X79366433Y64453919D03*
X78726433Y64453919D03*
G04 #@! TD*
D58*
G04 #@! TO.C,C1001*
X68072000Y42799000D03*
D59*
X64572000Y42799000D03*
G04 #@! TD*
D112*
G04 #@! TO.C,C17*
X40640000Y65494972D03*
D59*
X40640000Y68994972D03*
G04 #@! TD*
D113*
G04 #@! TO.C,J5*
X33087317Y70582684D03*
D81*
X33087317Y68042684D03*
X33087317Y65502684D03*
X33087317Y62962684D03*
X33087317Y60422684D03*
X33087317Y57882684D03*
X33087317Y55342684D03*
X33087317Y52802684D03*
X33087317Y50262684D03*
X33087317Y47722684D03*
X33087317Y45182684D03*
X33087317Y42642684D03*
X33087317Y40102684D03*
X33087317Y37562684D03*
X33087317Y35022684D03*
X33087317Y32482684D03*
X33087317Y29942684D03*
X33087317Y27402684D03*
X33087317Y24862684D03*
X33087317Y22322684D03*
X33087317Y19782684D03*
X33087317Y17242684D03*
X33087317Y14702684D03*
X33087317Y12162684D03*
X33087317Y9622684D03*
X33087317Y7082684D03*
X33087317Y4542684D03*
X33087317Y2002684D03*
X33087317Y-537316D03*
X33087317Y-3077316D03*
X33087317Y-5617316D03*
X33087317Y-8157316D03*
G04 #@! TD*
D114*
G04 #@! TO.C,J6*
X72806286Y55705029D03*
D81*
X75346286Y55705029D03*
X77886286Y55705029D03*
X80426286Y55705029D03*
X82966286Y55705029D03*
X85506286Y55705029D03*
X88046286Y55705029D03*
X90586286Y55705029D03*
X93126286Y55705029D03*
X95666286Y55705029D03*
X98206286Y55705029D03*
X100746286Y55705029D03*
X103286286Y55705029D03*
X105826286Y55705029D03*
X108366286Y55705029D03*
X110906286Y55705029D03*
G04 #@! TD*
D113*
G04 #@! TO.C,J3*
X127000000Y70587779D03*
D81*
X127000000Y68047779D03*
X127000000Y65507779D03*
X127000000Y62967779D03*
X127000000Y60427779D03*
X127000000Y57887779D03*
X127000000Y55347779D03*
X127000000Y52807779D03*
X127000000Y50267779D03*
X127000000Y47727779D03*
X127000000Y45187779D03*
X127000000Y42647779D03*
X127000000Y40107779D03*
X127000000Y37567779D03*
X127000000Y35027779D03*
X127000000Y32487779D03*
X127000000Y29947779D03*
X127000000Y27407779D03*
X127000000Y24867779D03*
X127000000Y22327779D03*
X127000000Y19787779D03*
X127000000Y17247779D03*
X127000000Y14707779D03*
X127000000Y12167779D03*
X127000000Y9627779D03*
X127000000Y7087779D03*
X127000000Y4547779D03*
X127000000Y2007779D03*
X127000000Y-532221D03*
X127000000Y-3072221D03*
X127000000Y-5612221D03*
X127000000Y-8152221D03*
G04 #@! TD*
D114*
G04 #@! TO.C,J7*
X49530000Y69596912D03*
D81*
X52070000Y69596912D03*
X54610000Y69596912D03*
X57150000Y69596912D03*
X59690000Y69596912D03*
X62230000Y69596912D03*
X64770000Y69596912D03*
X67310000Y69596912D03*
X69850000Y69596912D03*
X72390000Y69596912D03*
X74930000Y69596912D03*
X77470000Y69596912D03*
X80010000Y69596912D03*
X82550000Y69596912D03*
X85090000Y69596912D03*
X87630000Y69596912D03*
G04 #@! TD*
G36*
X79000453Y64583401D02*
G01*
X79019857Y64554358D01*
X79055765Y64547216D01*
X79086390Y64567679D01*
X79091739Y64580592D01*
X79093326Y64581810D01*
X79095174Y64581045D01*
X79095549Y64579437D01*
X79090433Y64553720D01*
X79090433Y64354118D01*
X79096038Y64325938D01*
X79095395Y64324044D01*
X79093433Y64323654D01*
X79092413Y64324437D01*
X79073009Y64353480D01*
X79037101Y64360622D01*
X79006476Y64340159D01*
X79001127Y64327246D01*
X78999540Y64326028D01*
X78997692Y64326793D01*
X78997317Y64328401D01*
X79002433Y64354118D01*
X79002433Y64553720D01*
X78996828Y64581900D01*
X78997471Y64583794D01*
X78999433Y64584184D01*
X79000453Y64583401D01*
G37*
G36*
X86637902Y66595938D02*
G01*
X86657306Y66566895D01*
X86693214Y66559753D01*
X86723839Y66580216D01*
X86729188Y66593129D01*
X86730775Y66594347D01*
X86732623Y66593582D01*
X86732998Y66591974D01*
X86727882Y66566257D01*
X86727882Y66366655D01*
X86733487Y66338475D01*
X86732844Y66336581D01*
X86730882Y66336191D01*
X86729862Y66336974D01*
X86710458Y66366017D01*
X86674550Y66373159D01*
X86643925Y66352696D01*
X86638576Y66339783D01*
X86636989Y66338565D01*
X86635141Y66339330D01*
X86634766Y66340938D01*
X86639882Y66366655D01*
X86639882Y66566257D01*
X86634277Y66594437D01*
X86634920Y66596331D01*
X86636882Y66596721D01*
X86637902Y66595938D01*
G37*
M02*
