G04 #@! TF.GenerationSoftware,KiCad,Pcbnew,(6.0.1)*
G04 #@! TF.CreationDate,2022-12-03T00:01:53+00:00*
G04 #@! TF.ProjectId,polygonus-Shortage-Version,706f6c79-676f-46e7-9573-2d53686f7274,rev?*
G04 #@! TF.SameCoordinates,Original*
G04 #@! TF.FileFunction,Legend,Top*
G04 #@! TF.FilePolarity,Positive*
%FSLAX46Y46*%
G04 Gerber Fmt 4.6, Leading zero omitted, Abs format (unit mm)*
G04 Created by KiCad (PCBNEW (6.0.1)) date 2022-12-03 00:01:53*
%MOMM*%
%LPD*%
G01*
G04 APERTURE LIST*
%ADD10C,0.120000*%
G04 #@! TA.AperFunction,Profile*
%ADD11C,0.050000*%
G04 #@! TD*
%ADD12C,0.150000*%
%ADD13C,0.130000*%
%ADD14C,0.200000*%
%ADD15C,0.300000*%
G04 APERTURE END LIST*
D10*
X89408000Y27940000D02*
X89408000Y23749000D01*
X124959560Y69437416D02*
X129250794Y69437416D01*
X30132978Y13398955D02*
X34382140Y13398955D01*
X68571596Y67265347D02*
X68571596Y72040396D01*
X30127561Y66851649D02*
X34376723Y66851649D01*
X84091662Y52777333D02*
X84091662Y57552382D01*
X124206000Y29972000D02*
X123952000Y29972000D01*
X95631000Y28956000D02*
X91440000Y28956000D01*
X62611000Y33401000D02*
X62611000Y38354000D01*
X94462143Y52861474D02*
X94462143Y57636523D01*
X107041347Y52545943D02*
X107041347Y57320992D01*
X31095192Y6073830D02*
X31452795Y6557646D01*
X31095192Y6073830D02*
X30737589Y6536610D01*
X91694000Y23749000D02*
X95631000Y25400000D01*
X95631000Y25400000D02*
X95631000Y28956000D01*
X124949042Y23601784D02*
X129271829Y23601784D01*
X30155608Y64201181D02*
X34404770Y64201181D01*
X73767354Y67244311D02*
X73767354Y72019360D01*
X124885936Y48970546D02*
X129208723Y48970546D01*
X30111942Y43900369D02*
X34361104Y43900369D01*
X76605584Y52630084D02*
X76605584Y57405133D01*
X124812312Y-4243745D02*
X129377006Y-4243745D01*
X74120855Y52672155D02*
X74120855Y57447204D01*
X125169915Y33825016D02*
X129240276Y33825016D01*
X91440000Y28956000D02*
X89408000Y27940000D01*
X124206000Y37973000D02*
X123063000Y37973000D01*
X101992837Y52672155D02*
X101992837Y57447204D01*
X97091575Y52840439D02*
X97091575Y57615488D01*
X89408000Y23749000D02*
X91694000Y23749000D01*
X30196084Y-6963368D02*
X34445246Y-6963368D01*
X31095192Y8009092D02*
X31095192Y6073830D01*
X125001631Y64220622D02*
X129208723Y64220622D01*
X58435871Y67181205D02*
X58435871Y71956254D01*
X91811675Y52882510D02*
X91811675Y57657559D01*
X81340119Y67328453D02*
X81340119Y72103502D01*
X78836900Y67244311D02*
X78836900Y72019360D01*
X124896454Y56626821D02*
X129145616Y56626821D01*
D11*
X27598758Y70480030D02*
X27566743Y-7944264D01*
X29598758Y72480030D02*
G75*
G03*
X27598758Y70480030I-1J-1999999D01*
G01*
X127511245Y72474911D02*
X29598758Y72480030D01*
X29566743Y-9944264D02*
X127539293Y-9975264D01*
X127539293Y-9975264D02*
G75*
G03*
X129539293Y-7975264I1J1999999D01*
G01*
X129539293Y-7975264D02*
X129511245Y70474911D01*
X27566743Y-7944264D02*
G75*
G03*
X29566743Y-9944264I1999999J-1D01*
G01*
X129511245Y70474911D02*
G75*
G03*
X127511245Y72474911I-1999999J1D01*
G01*
D12*
X58924905Y15076072D02*
X58448715Y14742738D01*
X58924905Y14504643D02*
X57924905Y14504643D01*
X57924905Y14885595D01*
X57972525Y14980833D01*
X58020144Y15028453D01*
X58115382Y15076072D01*
X58258239Y15076072D01*
X58353477Y15028453D01*
X58401096Y14980833D01*
X58448715Y14885595D01*
X58448715Y14504643D01*
X58401096Y15504643D02*
X58401096Y15837976D01*
X58924905Y15980833D02*
X58924905Y15504643D01*
X57924905Y15504643D01*
X57924905Y15980833D01*
X58877286Y16361786D02*
X58924905Y16504643D01*
X58924905Y16742738D01*
X58877286Y16837976D01*
X58829667Y16885595D01*
X58734429Y16933214D01*
X58639191Y16933214D01*
X58543953Y16885595D01*
X58496334Y16837976D01*
X58448715Y16742738D01*
X58401096Y16552262D01*
X58353477Y16457024D01*
X58305858Y16409405D01*
X58210620Y16361786D01*
X58115382Y16361786D01*
X58020144Y16409405D01*
X57972525Y16457024D01*
X57924905Y16552262D01*
X57924905Y16790357D01*
X57972525Y16933214D01*
X58401096Y17361786D02*
X58401096Y17695119D01*
X58924905Y17837976D02*
X58924905Y17361786D01*
X57924905Y17361786D01*
X57924905Y17837976D01*
X57924905Y18123691D02*
X57924905Y18695119D01*
X58924905Y18409405D02*
X57924905Y18409405D01*
D13*
X112433974Y-7418233D02*
X112133974Y-6989662D01*
X111919688Y-7418233D02*
X111919688Y-6518233D01*
X112262545Y-6518233D01*
X112348259Y-6561091D01*
X112391116Y-6603948D01*
X112433974Y-6689662D01*
X112433974Y-6818233D01*
X112391116Y-6903948D01*
X112348259Y-6946805D01*
X112262545Y-6989662D01*
X111919688Y-6989662D01*
X112733974Y-6518233D02*
X113333974Y-7418233D01*
X113333974Y-6518233D02*
X112733974Y-7418233D01*
D12*
X90241428Y27288952D02*
X90193809Y27146095D01*
X90146190Y27098476D01*
X90050952Y27050857D01*
X89908095Y27050857D01*
X89812857Y27098476D01*
X89765238Y27146095D01*
X89717619Y27241333D01*
X89717619Y27622285D01*
X90717619Y27622285D01*
X90717619Y27288952D01*
X90670000Y27193714D01*
X90622380Y27146095D01*
X90527142Y27098476D01*
X90431904Y27098476D01*
X90336666Y27146095D01*
X90289047Y27193714D01*
X90241428Y27288952D01*
X90241428Y27622285D01*
X90003333Y26669904D02*
X90003333Y26193714D01*
X89717619Y26765142D02*
X90717619Y26431809D01*
X89717619Y26098476D01*
X89717619Y25193714D02*
X90193809Y25527047D01*
X89717619Y25765142D02*
X90717619Y25765142D01*
X90717619Y25384190D01*
X90670000Y25288952D01*
X90622380Y25241333D01*
X90527142Y25193714D01*
X90384285Y25193714D01*
X90289047Y25241333D01*
X90241428Y25288952D01*
X90193809Y25384190D01*
X90193809Y25765142D01*
X90717619Y24574666D02*
X90717619Y24384190D01*
X90670000Y24288952D01*
X90574761Y24193714D01*
X90384285Y24146095D01*
X90050952Y24146095D01*
X89860476Y24193714D01*
X89765238Y24288952D01*
X89717619Y24384190D01*
X89717619Y24574666D01*
X89765238Y24669904D01*
X89860476Y24765142D01*
X90050952Y24812761D01*
X90384285Y24812761D01*
X90574761Y24765142D01*
X90670000Y24669904D01*
X90717619Y24574666D01*
X62774749Y72056580D02*
X62679511Y72104199D01*
X62536654Y72104199D01*
X62393796Y72056580D01*
X62298558Y71961341D01*
X62250939Y71866103D01*
X62203320Y71675627D01*
X62203320Y71532770D01*
X62250939Y71342294D01*
X62298558Y71247056D01*
X62393796Y71151818D01*
X62536654Y71104199D01*
X62631892Y71104199D01*
X62774749Y71151818D01*
X62822368Y71199437D01*
X62822368Y71532770D01*
X62631892Y71532770D01*
X63250939Y71104199D02*
X63250939Y72104199D01*
X63822368Y71104199D01*
X63822368Y72104199D01*
X64298558Y71104199D02*
X64298558Y72104199D01*
X64536654Y72104199D01*
X64679511Y72056580D01*
X64774749Y71961341D01*
X64822368Y71866103D01*
X64869987Y71675627D01*
X64869987Y71532770D01*
X64822368Y71342294D01*
X64774749Y71247056D01*
X64679511Y71151818D01*
X64536654Y71104199D01*
X64298558Y71104199D01*
X129219358Y36237582D02*
X128219358Y36237582D01*
X128219358Y36475677D01*
X128266978Y36618535D01*
X128362216Y36713773D01*
X128457454Y36761392D01*
X128647930Y36809011D01*
X128790787Y36809011D01*
X128981263Y36761392D01*
X129076501Y36713773D01*
X129171739Y36618535D01*
X129219358Y36475677D01*
X129219358Y36237582D01*
X129219358Y37237582D02*
X128219358Y37237582D01*
X128266978Y38237582D02*
X128219358Y38142344D01*
X128219358Y37999487D01*
X128266978Y37856630D01*
X128362216Y37761392D01*
X128457454Y37713773D01*
X128647930Y37666154D01*
X128790787Y37666154D01*
X128981263Y37713773D01*
X129076501Y37761392D01*
X129171739Y37856630D01*
X129219358Y37999487D01*
X129219358Y38094725D01*
X129171739Y38237582D01*
X129124120Y38285201D01*
X128790787Y38285201D01*
X128790787Y38094725D01*
X129219358Y38713773D02*
X128219358Y38713773D01*
X128219358Y39047106D02*
X128219358Y39618535D01*
X129219358Y39332820D02*
X128219358Y39332820D01*
X128933644Y39904249D02*
X128933644Y40380439D01*
X129219358Y39809011D02*
X128219358Y40142344D01*
X129219358Y40475677D01*
X129219358Y41285201D02*
X129219358Y40809011D01*
X128219358Y40809011D01*
X129219358Y42904249D02*
X129219358Y42332820D01*
X129219358Y42618535D02*
X128219358Y42618535D01*
X128362216Y42523296D01*
X128457454Y42428058D01*
X128505073Y42332820D01*
X128219358Y43951868D02*
X128219358Y44523296D01*
X129219358Y44237582D02*
X128219358Y44237582D01*
X128219358Y45047106D02*
X128219358Y45237582D01*
X128266978Y45332820D01*
X128362216Y45428058D01*
X128552692Y45475677D01*
X128886025Y45475677D01*
X129076501Y45428058D01*
X129171739Y45332820D01*
X129219358Y45237582D01*
X129219358Y45047106D01*
X129171739Y44951868D01*
X129076501Y44856630D01*
X128886025Y44809011D01*
X128552692Y44809011D01*
X128362216Y44856630D01*
X128266978Y44951868D01*
X128219358Y45047106D01*
X128219358Y47094725D02*
X128219358Y46904249D01*
X128266978Y46809011D01*
X128314597Y46761392D01*
X128457454Y46666154D01*
X128647930Y46618535D01*
X129028882Y46618535D01*
X129124120Y46666154D01*
X129171739Y46713773D01*
X129219358Y46809011D01*
X129219358Y46999487D01*
X129171739Y47094725D01*
X129124120Y47142344D01*
X129028882Y47189963D01*
X128790787Y47189963D01*
X128695549Y47142344D01*
X128647930Y47094725D01*
X128600311Y46999487D01*
X128600311Y46809011D01*
X128647930Y46713773D01*
X128695549Y46666154D01*
X128790787Y46618535D01*
D13*
X85404571Y-7011142D02*
X85104571Y-6582571D01*
X84890285Y-7011142D02*
X84890285Y-6111142D01*
X85233142Y-6111142D01*
X85318857Y-6154000D01*
X85361714Y-6196857D01*
X85404571Y-6282571D01*
X85404571Y-6411142D01*
X85361714Y-6496857D01*
X85318857Y-6539714D01*
X85233142Y-6582571D01*
X84890285Y-6582571D01*
X86176000Y-6411142D02*
X86176000Y-7011142D01*
X85790285Y-6411142D02*
X85790285Y-6882571D01*
X85833142Y-6968285D01*
X85918857Y-7011142D01*
X86047428Y-7011142D01*
X86133142Y-6968285D01*
X86176000Y-6925428D01*
X86604571Y-6411142D02*
X86604571Y-7011142D01*
X86604571Y-6496857D02*
X86647428Y-6454000D01*
X86733142Y-6411142D01*
X86861714Y-6411142D01*
X86947428Y-6454000D01*
X86990285Y-6539714D01*
X86990285Y-7011142D01*
X87418857Y-6411142D02*
X87418857Y-7011142D01*
X87418857Y-6496857D02*
X87461714Y-6454000D01*
X87547428Y-6411142D01*
X87676000Y-6411142D01*
X87761714Y-6454000D01*
X87804571Y-6539714D01*
X87804571Y-7011142D01*
X88233142Y-7011142D02*
X88233142Y-6411142D01*
X88233142Y-6111142D02*
X88190285Y-6154000D01*
X88233142Y-6196857D01*
X88276000Y-6154000D01*
X88233142Y-6111142D01*
X88233142Y-6196857D01*
X88661714Y-6411142D02*
X88661714Y-7011142D01*
X88661714Y-6496857D02*
X88704571Y-6454000D01*
X88790285Y-6411142D01*
X88918857Y-6411142D01*
X89004571Y-6454000D01*
X89047428Y-6539714D01*
X89047428Y-7011142D01*
X89861714Y-6411142D02*
X89861714Y-7139714D01*
X89818857Y-7225428D01*
X89776000Y-7268285D01*
X89690285Y-7311142D01*
X89561714Y-7311142D01*
X89476000Y-7268285D01*
X89861714Y-6968285D02*
X89776000Y-7011142D01*
X89604571Y-7011142D01*
X89518857Y-6968285D01*
X89476000Y-6925428D01*
X89433142Y-6839714D01*
X89433142Y-6582571D01*
X89476000Y-6496857D01*
X89518857Y-6454000D01*
X89604571Y-6411142D01*
X89776000Y-6411142D01*
X89861714Y-6454000D01*
D12*
X58571440Y37531824D02*
X57571440Y37531824D01*
X57571440Y37769919D01*
X57619060Y37912777D01*
X57714298Y38008015D01*
X57809536Y38055634D01*
X58000012Y38103253D01*
X58142869Y38103253D01*
X58333345Y38055634D01*
X58428583Y38008015D01*
X58523821Y37912777D01*
X58571440Y37769919D01*
X58571440Y37531824D01*
X58190488Y38531824D02*
X58190488Y39293729D01*
D14*
X75471473Y14255587D02*
X75471473Y15755587D01*
X75971473Y15755587D02*
X76828616Y15755587D01*
X76400044Y14255587D02*
X76400044Y15755587D01*
X77400044Y15755587D02*
X77257187Y15469873D01*
X77971473Y14327016D02*
X78185758Y14255587D01*
X78542901Y14255587D01*
X78685758Y14327016D01*
X78757187Y14398444D01*
X78828616Y14541301D01*
X78828616Y14684159D01*
X78757187Y14827016D01*
X78685758Y14898444D01*
X78542901Y14969873D01*
X78257187Y15041301D01*
X78114330Y15112730D01*
X78042901Y15184159D01*
X77971473Y15327016D01*
X77971473Y15469873D01*
X78042901Y15612730D01*
X78114330Y15684159D01*
X78257187Y15755587D01*
X78614330Y15755587D01*
X78828616Y15684159D01*
X80614330Y14255587D02*
X80614330Y15755587D01*
X81471473Y14255587D01*
X81471473Y15755587D01*
X82471473Y15755587D02*
X82757187Y15755587D01*
X82900044Y15684159D01*
X83042901Y15541301D01*
X83114330Y15255587D01*
X83114330Y14755587D01*
X83042901Y14469873D01*
X82900044Y14327016D01*
X82757187Y14255587D01*
X82471473Y14255587D01*
X82328616Y14327016D01*
X82185758Y14469873D01*
X82114330Y14755587D01*
X82114330Y15255587D01*
X82185758Y15541301D01*
X82328616Y15684159D01*
X82471473Y15755587D01*
X83542901Y15755587D02*
X84400044Y15755587D01*
X83971473Y14255587D02*
X83971473Y15755587D01*
X76364330Y12626301D02*
X76578616Y12554873D01*
X76650044Y12483444D01*
X76721473Y12340587D01*
X76721473Y12126301D01*
X76650044Y11983444D01*
X76578616Y11912016D01*
X76435758Y11840587D01*
X75864330Y11840587D01*
X75864330Y13340587D01*
X76364330Y13340587D01*
X76507187Y13269159D01*
X76578616Y13197730D01*
X76650044Y13054873D01*
X76650044Y12912016D01*
X76578616Y12769159D01*
X76507187Y12697730D01*
X76364330Y12626301D01*
X75864330Y12626301D01*
X78078616Y11840587D02*
X77364330Y11840587D01*
X77364330Y13340587D01*
X78864330Y13340587D02*
X79150044Y13340587D01*
X79292901Y13269159D01*
X79435758Y13126301D01*
X79507187Y12840587D01*
X79507187Y12340587D01*
X79435758Y12054873D01*
X79292901Y11912016D01*
X79150044Y11840587D01*
X78864330Y11840587D01*
X78721473Y11912016D01*
X78578616Y12054873D01*
X78507187Y12340587D01*
X78507187Y12840587D01*
X78578616Y13126301D01*
X78721473Y13269159D01*
X78864330Y13340587D01*
X80435758Y13340587D02*
X80721473Y13340587D01*
X80864330Y13269159D01*
X81007187Y13126301D01*
X81078616Y12840587D01*
X81078616Y12340587D01*
X81007187Y12054873D01*
X80864330Y11912016D01*
X80721473Y11840587D01*
X80435758Y11840587D01*
X80292901Y11912016D01*
X80150044Y12054873D01*
X80078616Y12340587D01*
X80078616Y12840587D01*
X80150044Y13126301D01*
X80292901Y13269159D01*
X80435758Y13340587D01*
X81721473Y11840587D02*
X81721473Y13340587D01*
X82078616Y13340587D01*
X82292901Y13269159D01*
X82435758Y13126301D01*
X82507187Y12983444D01*
X82578616Y12697730D01*
X82578616Y12483444D01*
X82507187Y12197730D01*
X82435758Y12054873D01*
X82292901Y11912016D01*
X82078616Y11840587D01*
X81721473Y11840587D01*
X83507187Y12554873D02*
X83507187Y11840587D01*
X83007187Y13340587D02*
X83507187Y12554873D01*
X84007187Y13340587D01*
X76150044Y10925587D02*
X76150044Y9711301D01*
X76221473Y9568444D01*
X76292901Y9497016D01*
X76435758Y9425587D01*
X76721473Y9425587D01*
X76864330Y9497016D01*
X76935758Y9568444D01*
X77007187Y9711301D01*
X77007187Y10925587D01*
X77721473Y9425587D02*
X77721473Y10925587D01*
X78292901Y10925587D01*
X78435758Y10854159D01*
X78507187Y10782730D01*
X78578616Y10639873D01*
X78578616Y10425587D01*
X78507187Y10282730D01*
X78435758Y10211301D01*
X78292901Y10139873D01*
X77721473Y10139873D01*
X79150044Y9497016D02*
X79364330Y9425587D01*
X79721473Y9425587D01*
X79864330Y9497016D01*
X79935758Y9568444D01*
X80007187Y9711301D01*
X80007187Y9854159D01*
X79935758Y9997016D01*
X79864330Y10068444D01*
X79721473Y10139873D01*
X79435758Y10211301D01*
X79292901Y10282730D01*
X79221473Y10354159D01*
X79150044Y10497016D01*
X79150044Y10639873D01*
X79221473Y10782730D01*
X79292901Y10854159D01*
X79435758Y10925587D01*
X79792901Y10925587D01*
X80007187Y10854159D01*
X80650044Y9425587D02*
X80650044Y10925587D01*
X81364330Y9425587D02*
X81364330Y10925587D01*
X81721473Y10925587D01*
X81935758Y10854159D01*
X82078616Y10711301D01*
X82150044Y10568444D01*
X82221473Y10282730D01*
X82221473Y10068444D01*
X82150044Y9782730D01*
X82078616Y9639873D01*
X81935758Y9497016D01*
X81721473Y9425587D01*
X81364330Y9425587D01*
X82864330Y10211301D02*
X83364330Y10211301D01*
X83578616Y9425587D02*
X82864330Y9425587D01*
X82864330Y10925587D01*
X83578616Y10925587D01*
X77007187Y7010587D02*
X77007187Y8510587D01*
X77364330Y8510587D01*
X77578616Y8439159D01*
X77721473Y8296301D01*
X77792901Y8153444D01*
X77864330Y7867730D01*
X77864330Y7653444D01*
X77792901Y7367730D01*
X77721473Y7224873D01*
X77578616Y7082016D01*
X77364330Y7010587D01*
X77007187Y7010587D01*
X78792901Y8510587D02*
X79078616Y8510587D01*
X79221473Y8439159D01*
X79364330Y8296301D01*
X79435758Y8010587D01*
X79435758Y7510587D01*
X79364330Y7224873D01*
X79221473Y7082016D01*
X79078616Y7010587D01*
X78792901Y7010587D01*
X78650044Y7082016D01*
X78507187Y7224873D01*
X78435758Y7510587D01*
X78435758Y8010587D01*
X78507187Y8296301D01*
X78650044Y8439159D01*
X78792901Y8510587D01*
X79935758Y8510587D02*
X80292901Y7010587D01*
X80578616Y8082016D01*
X80864330Y7010587D01*
X81221473Y8510587D01*
X81792901Y7010587D02*
X81792901Y8510587D01*
X82650044Y7010587D01*
X82650044Y8510587D01*
D15*
X92583357Y20145238D02*
X93821452Y20145238D01*
X93154785Y19383333D01*
X93440500Y19383333D01*
X93630976Y19288095D01*
X93726214Y19192857D01*
X93821452Y19002380D01*
X93821452Y18526190D01*
X93726214Y18335714D01*
X93630976Y18240476D01*
X93440500Y18145238D01*
X92869071Y18145238D01*
X92678595Y18240476D01*
X92583357Y18335714D01*
X94678595Y18335714D02*
X94773833Y18240476D01*
X94678595Y18145238D01*
X94583357Y18240476D01*
X94678595Y18335714D01*
X94678595Y18145238D01*
X95440500Y20145238D02*
X96678595Y20145238D01*
X96011928Y19383333D01*
X96297642Y19383333D01*
X96488119Y19288095D01*
X96583357Y19192857D01*
X96678595Y19002380D01*
X96678595Y18526190D01*
X96583357Y18335714D01*
X96488119Y18240476D01*
X96297642Y18145238D01*
X95726214Y18145238D01*
X95535738Y18240476D01*
X95440500Y18335714D01*
X97345261Y19478571D02*
X97821452Y18145238D01*
X98297642Y19478571D01*
D13*
X90964857Y-6238142D02*
X91179142Y-7138142D01*
X91350571Y-6495285D01*
X91522000Y-7138142D01*
X91736285Y-6238142D01*
X92464857Y-7138142D02*
X92464857Y-6666714D01*
X92422000Y-6581000D01*
X92336285Y-6538142D01*
X92164857Y-6538142D01*
X92079142Y-6581000D01*
X92464857Y-7095285D02*
X92379142Y-7138142D01*
X92164857Y-7138142D01*
X92079142Y-7095285D01*
X92036285Y-7009571D01*
X92036285Y-6923857D01*
X92079142Y-6838142D01*
X92164857Y-6795285D01*
X92379142Y-6795285D01*
X92464857Y-6752428D01*
X92893428Y-7138142D02*
X92893428Y-6538142D01*
X92893428Y-6709571D02*
X92936285Y-6623857D01*
X92979142Y-6581000D01*
X93064857Y-6538142D01*
X93150571Y-6538142D01*
X93450571Y-6538142D02*
X93450571Y-7138142D01*
X93450571Y-6623857D02*
X93493428Y-6581000D01*
X93579142Y-6538142D01*
X93707714Y-6538142D01*
X93793428Y-6581000D01*
X93836285Y-6666714D01*
X93836285Y-7138142D01*
X94264857Y-7138142D02*
X94264857Y-6538142D01*
X94264857Y-6238142D02*
X94222000Y-6281000D01*
X94264857Y-6323857D01*
X94307714Y-6281000D01*
X94264857Y-6238142D01*
X94264857Y-6323857D01*
X94693428Y-6538142D02*
X94693428Y-7138142D01*
X94693428Y-6623857D02*
X94736285Y-6581000D01*
X94822000Y-6538142D01*
X94950571Y-6538142D01*
X95036285Y-6581000D01*
X95079142Y-6666714D01*
X95079142Y-7138142D01*
X95893428Y-6538142D02*
X95893428Y-7266714D01*
X95850571Y-7352428D01*
X95807714Y-7395285D01*
X95722000Y-7438142D01*
X95593428Y-7438142D01*
X95507714Y-7395285D01*
X95893428Y-7095285D02*
X95807714Y-7138142D01*
X95636285Y-7138142D01*
X95550571Y-7095285D01*
X95507714Y-7052428D01*
X95464857Y-6966714D01*
X95464857Y-6709571D01*
X95507714Y-6623857D01*
X95550571Y-6581000D01*
X95636285Y-6538142D01*
X95807714Y-6538142D01*
X95893428Y-6581000D01*
D12*
X28534713Y64941441D02*
X28077570Y64941441D01*
X28306141Y64941441D02*
X28306141Y65941441D01*
X28229951Y65798583D01*
X28153760Y65703345D01*
X28077570Y65655726D01*
X28839475Y65846202D02*
X28877570Y65893822D01*
X28953760Y65941441D01*
X29144237Y65941441D01*
X29220427Y65893822D01*
X29258522Y65846202D01*
X29296618Y65750964D01*
X29296618Y65655726D01*
X29258522Y65512869D01*
X28801379Y64941441D01*
X29296618Y64941441D01*
X29563284Y65608107D02*
X29753760Y64941441D01*
X29944237Y65608107D01*
X30248999Y64941441D02*
X30248999Y65941441D01*
X30515665Y65227155D01*
X30782332Y65941441D01*
X30782332Y64941441D01*
X31620427Y64941441D02*
X31353760Y65417631D01*
X31163284Y64941441D02*
X31163284Y65941441D01*
X31468046Y65941441D01*
X31544237Y65893822D01*
X31582332Y65846202D01*
X31620427Y65750964D01*
X31620427Y65608107D01*
X31582332Y65512869D01*
X31544237Y65465250D01*
X31468046Y65417631D01*
X31163284Y65417631D01*
D13*
X104343285Y-8016142D02*
X104857571Y-8016142D01*
X104600428Y-8916142D02*
X104600428Y-8016142D01*
X105071857Y-8016142D02*
X105671857Y-8916142D01*
X105671857Y-8016142D02*
X105071857Y-8916142D01*
D12*
X79803809Y-6961142D02*
X79756190Y-7008761D01*
X79613333Y-7056380D01*
X79518095Y-7056380D01*
X79375238Y-7008761D01*
X79280000Y-6913523D01*
X79232380Y-6818285D01*
X79184761Y-6627809D01*
X79184761Y-6484952D01*
X79232380Y-6294476D01*
X79280000Y-6199238D01*
X79375238Y-6104000D01*
X79518095Y-6056380D01*
X79613333Y-6056380D01*
X79756190Y-6104000D01*
X79803809Y-6151619D01*
X80375238Y-7056380D02*
X80280000Y-7008761D01*
X80232380Y-6961142D01*
X80184761Y-6865904D01*
X80184761Y-6580190D01*
X80232380Y-6484952D01*
X80280000Y-6437333D01*
X80375238Y-6389714D01*
X80518095Y-6389714D01*
X80613333Y-6437333D01*
X80660952Y-6484952D01*
X80708571Y-6580190D01*
X80708571Y-6865904D01*
X80660952Y-6961142D01*
X80613333Y-7008761D01*
X80518095Y-7056380D01*
X80375238Y-7056380D01*
X81137142Y-7056380D02*
X81137142Y-6389714D01*
X81137142Y-6484952D02*
X81184761Y-6437333D01*
X81280000Y-6389714D01*
X81422857Y-6389714D01*
X81518095Y-6437333D01*
X81565714Y-6532571D01*
X81565714Y-7056380D01*
X81565714Y-6532571D02*
X81613333Y-6437333D01*
X81708571Y-6389714D01*
X81851428Y-6389714D01*
X81946666Y-6437333D01*
X81994285Y-6532571D01*
X81994285Y-7056380D01*
X82470476Y-7056380D02*
X82470476Y-6389714D01*
X82470476Y-6484952D02*
X82518095Y-6437333D01*
X82613333Y-6389714D01*
X82756190Y-6389714D01*
X82851428Y-6437333D01*
X82899047Y-6532571D01*
X82899047Y-7056380D01*
X82899047Y-6532571D02*
X82946666Y-6437333D01*
X83041904Y-6389714D01*
X83184761Y-6389714D01*
X83280000Y-6437333D01*
X83327619Y-6532571D01*
X83327619Y-7056380D01*
X105735380Y-3603428D02*
X104735380Y-3603428D01*
X105449666Y-3270095D01*
X104735380Y-2936761D01*
X105735380Y-2936761D01*
X105735380Y-2460571D02*
X104735380Y-2460571D01*
X105687761Y-2032000D02*
X105735380Y-1889142D01*
X105735380Y-1651047D01*
X105687761Y-1555809D01*
X105640142Y-1508190D01*
X105544904Y-1460571D01*
X105449666Y-1460571D01*
X105354428Y-1508190D01*
X105306809Y-1555809D01*
X105259190Y-1651047D01*
X105211571Y-1841523D01*
X105163952Y-1936761D01*
X105116333Y-1984380D01*
X105021095Y-2032000D01*
X104925857Y-2032000D01*
X104830619Y-1984380D01*
X104783000Y-1936761D01*
X104735380Y-1841523D01*
X104735380Y-1603428D01*
X104783000Y-1460571D01*
X104735380Y-841523D02*
X104735380Y-651047D01*
X104783000Y-555809D01*
X104878238Y-460571D01*
X105068714Y-412952D01*
X105402047Y-412952D01*
X105592523Y-460571D01*
X105687761Y-555809D01*
X105735380Y-651047D01*
X105735380Y-841523D01*
X105687761Y-936761D01*
X105592523Y-1032000D01*
X105402047Y-1079619D01*
X105068714Y-1079619D01*
X104878238Y-1032000D01*
X104783000Y-936761D01*
X104735380Y-841523D01*
X29272753Y11585789D02*
X28796563Y11585789D01*
X28796563Y12585789D01*
X29558468Y11633408D02*
X29701325Y11585789D01*
X29939420Y11585789D01*
X30034658Y11633408D01*
X30082277Y11681027D01*
X30129896Y11776265D01*
X30129896Y11871503D01*
X30082277Y11966741D01*
X30034658Y12014360D01*
X29939420Y12061979D01*
X29748944Y12109598D01*
X29653706Y12157217D01*
X29606087Y12204836D01*
X29558468Y12300074D01*
X29558468Y12395312D01*
X29606087Y12490550D01*
X29653706Y12538170D01*
X29748944Y12585789D01*
X29987039Y12585789D01*
X30129896Y12538170D01*
X30606087Y11585789D02*
X30796563Y11585789D01*
X30891801Y11633408D01*
X30939420Y11681027D01*
X31034658Y11823884D01*
X31082277Y12014360D01*
X31082277Y12395312D01*
X31034658Y12490550D01*
X30987039Y12538170D01*
X30891801Y12585789D01*
X30701325Y12585789D01*
X30606087Y12538170D01*
X30558468Y12490550D01*
X30510849Y12395312D01*
X30510849Y12157217D01*
X30558468Y12061979D01*
X30606087Y12014360D01*
X30701325Y11966741D01*
X30891801Y11966741D01*
X30987039Y12014360D01*
X31034658Y12061979D01*
X31082277Y12157217D01*
X29106087Y10975789D02*
X29677515Y10975789D01*
X29391801Y9975789D02*
X29391801Y10975789D01*
X30201325Y10975789D02*
X30391801Y10975789D01*
X30487039Y10928170D01*
X30582277Y10832931D01*
X30629896Y10642455D01*
X30629896Y10309122D01*
X30582277Y10118646D01*
X30487039Y10023408D01*
X30391801Y9975789D01*
X30201325Y9975789D01*
X30106087Y10023408D01*
X30010849Y10118646D01*
X29963230Y10309122D01*
X29963230Y10642455D01*
X30010849Y10832931D01*
X30106087Y10928170D01*
X30201325Y10975789D01*
X28796563Y8365789D02*
X28320372Y8365789D01*
X28320372Y9365789D01*
X29082277Y8413408D02*
X29225134Y8365789D01*
X29463230Y8365789D01*
X29558468Y8413408D01*
X29606087Y8461027D01*
X29653706Y8556265D01*
X29653706Y8651503D01*
X29606087Y8746741D01*
X29558468Y8794360D01*
X29463230Y8841979D01*
X29272753Y8889598D01*
X29177515Y8937217D01*
X29129896Y8984836D01*
X29082277Y9080074D01*
X29082277Y9175312D01*
X29129896Y9270550D01*
X29177515Y9318170D01*
X29272753Y9365789D01*
X29510849Y9365789D01*
X29653706Y9318170D01*
X30606087Y8365789D02*
X30034658Y8365789D01*
X30320372Y8365789D02*
X30320372Y9365789D01*
X30225134Y9222931D01*
X30129896Y9127693D01*
X30034658Y9080074D01*
X31463230Y9365789D02*
X31272753Y9365789D01*
X31177515Y9318170D01*
X31129896Y9270550D01*
X31034658Y9127693D01*
X30987039Y8937217D01*
X30987039Y8556265D01*
X31034658Y8461027D01*
X31082277Y8413408D01*
X31177515Y8365789D01*
X31367991Y8365789D01*
X31463230Y8413408D01*
X31510849Y8461027D01*
X31558468Y8556265D01*
X31558468Y8794360D01*
X31510849Y8889598D01*
X31463230Y8937217D01*
X31367991Y8984836D01*
X31177515Y8984836D01*
X31082277Y8937217D01*
X31034658Y8889598D01*
X30987039Y8794360D01*
X128933644Y18133247D02*
X128933644Y18609437D01*
X129219358Y18038009D02*
X128219358Y18371342D01*
X129219358Y18704675D01*
X128219358Y18895152D02*
X129219358Y19228485D01*
X128219358Y19561818D01*
X129219358Y20418961D02*
X129219358Y19847533D01*
X129219358Y20133247D02*
X128219358Y20133247D01*
X128362216Y20038009D01*
X128457454Y19942771D01*
X128505073Y19847533D01*
X128219358Y21038009D02*
X128219358Y21133247D01*
X128266978Y21228485D01*
X128314597Y21276104D01*
X128409835Y21323723D01*
X128600311Y21371342D01*
X128838406Y21371342D01*
X129028882Y21323723D01*
X129124120Y21276104D01*
X129171739Y21228485D01*
X129219358Y21133247D01*
X129219358Y21038009D01*
X129171739Y20942771D01*
X129124120Y20895152D01*
X129028882Y20847533D01*
X128838406Y20799914D01*
X128600311Y20799914D01*
X128409835Y20847533D01*
X128314597Y20895152D01*
X128266978Y20942771D01*
X128219358Y21038009D01*
X128282464Y57535025D02*
X128282464Y57058834D01*
X128758655Y57011215D01*
X128711036Y57058834D01*
X128663417Y57154072D01*
X128663417Y57392168D01*
X128711036Y57487406D01*
X128758655Y57535025D01*
X128853893Y57582644D01*
X129091988Y57582644D01*
X129187226Y57535025D01*
X129234845Y57487406D01*
X129282464Y57392168D01*
X129282464Y57154072D01*
X129234845Y57058834D01*
X129187226Y57011215D01*
X128282464Y57868358D02*
X129282464Y58201691D01*
X128282464Y58535025D01*
X128282464Y59820739D02*
X128282464Y60011215D01*
X128330084Y60106453D01*
X128425322Y60201691D01*
X128615798Y60249310D01*
X128949131Y60249310D01*
X129139607Y60201691D01*
X129234845Y60106453D01*
X129282464Y60011215D01*
X129282464Y59820739D01*
X129234845Y59725501D01*
X129139607Y59630263D01*
X128949131Y59582644D01*
X128615798Y59582644D01*
X128425322Y59630263D01*
X128330084Y59725501D01*
X128282464Y59820739D01*
X128282464Y60677882D02*
X129091988Y60677882D01*
X129187226Y60725501D01*
X129234845Y60773120D01*
X129282464Y60868358D01*
X129282464Y61058834D01*
X129234845Y61154072D01*
X129187226Y61201691D01*
X129091988Y61249310D01*
X128282464Y61249310D01*
X128282464Y61582644D02*
X128282464Y62154072D01*
X129282464Y61868358D02*
X128282464Y61868358D01*
X128377703Y63201691D02*
X128330084Y63249310D01*
X128282464Y63344548D01*
X128282464Y63582644D01*
X128330084Y63677882D01*
X128377703Y63725501D01*
X128472941Y63773120D01*
X128568179Y63773120D01*
X128711036Y63725501D01*
X129282464Y63154072D01*
X129282464Y63773120D01*
D15*
X122544057Y71428508D02*
X122401200Y71499936D01*
X122186915Y71499936D01*
X121972629Y71428508D01*
X121829772Y71285650D01*
X121758343Y71142793D01*
X121686915Y70857079D01*
X121686915Y70642793D01*
X121758343Y70357079D01*
X121829772Y70214222D01*
X121972629Y70071365D01*
X122186915Y69999936D01*
X122329772Y69999936D01*
X122544057Y70071365D01*
X122615486Y70142793D01*
X122615486Y70642793D01*
X122329772Y70642793D01*
X123258343Y69999936D02*
X123258343Y71499936D01*
X124115486Y69999936D01*
X124115486Y71499936D01*
X124829772Y69999936D02*
X124829772Y71499936D01*
X125186915Y71499936D01*
X125401200Y71428508D01*
X125544057Y71285650D01*
X125615486Y71142793D01*
X125686915Y70857079D01*
X125686915Y70642793D01*
X125615486Y70357079D01*
X125544057Y70214222D01*
X125401200Y70071365D01*
X125186915Y69999936D01*
X124829772Y69999936D01*
D12*
X108006320Y53009182D02*
X107958701Y52961563D01*
X107815844Y52913944D01*
X107720606Y52913944D01*
X107577749Y52961563D01*
X107482511Y53056801D01*
X107434892Y53152039D01*
X107387272Y53342515D01*
X107387272Y53485372D01*
X107434892Y53675848D01*
X107482511Y53771086D01*
X107577749Y53866325D01*
X107720606Y53913944D01*
X107815844Y53913944D01*
X107958701Y53866325D01*
X108006320Y53818705D01*
X109006320Y52913944D02*
X108672987Y53390134D01*
X108434892Y52913944D02*
X108434892Y53913944D01*
X108815844Y53913944D01*
X108911082Y53866325D01*
X108958701Y53818705D01*
X109006320Y53723467D01*
X109006320Y53580610D01*
X108958701Y53485372D01*
X108911082Y53437753D01*
X108815844Y53390134D01*
X108434892Y53390134D01*
X109434892Y53294896D02*
X110196796Y53294896D01*
X109815844Y52913944D02*
X109815844Y53675848D01*
X111244415Y53009182D02*
X111196796Y52961563D01*
X111053939Y52913944D01*
X110958701Y52913944D01*
X110815844Y52961563D01*
X110720606Y53056801D01*
X110672987Y53152039D01*
X110625368Y53342515D01*
X110625368Y53485372D01*
X110672987Y53675848D01*
X110720606Y53771086D01*
X110815844Y53866325D01*
X110958701Y53913944D01*
X111053939Y53913944D01*
X111196796Y53866325D01*
X111244415Y53818705D01*
X112244415Y52913944D02*
X111911082Y53390134D01*
X111672987Y52913944D02*
X111672987Y53913944D01*
X112053939Y53913944D01*
X112149177Y53866325D01*
X112196796Y53818705D01*
X112244415Y53723467D01*
X112244415Y53580610D01*
X112196796Y53485372D01*
X112149177Y53437753D01*
X112053939Y53390134D01*
X111672987Y53390134D01*
X112672987Y53294896D02*
X113434892Y53294896D01*
X129088978Y-9016154D02*
X128088978Y-9016154D01*
X129088978Y-8444725D02*
X128517550Y-8873296D01*
X128088978Y-8444725D02*
X128660407Y-9016154D01*
X129088978Y-7492344D02*
X129088978Y-8063773D01*
X129088978Y-7778058D02*
X128088978Y-7778058D01*
X128231836Y-7873296D01*
X128327074Y-7968535D01*
X128374693Y-8063773D01*
X129088978Y-6301868D02*
X128088978Y-6301868D01*
X129088978Y-5730439D02*
X128517550Y-6159011D01*
X128088978Y-5730439D02*
X128660407Y-6301868D01*
X128184217Y-5349487D02*
X128136598Y-5301868D01*
X128088978Y-5206630D01*
X128088978Y-4968535D01*
X128136598Y-4873296D01*
X128184217Y-4825677D01*
X128279455Y-4778058D01*
X128374693Y-4778058D01*
X128517550Y-4825677D01*
X129088978Y-5397106D01*
X129088978Y-4778058D01*
X129314018Y65012373D02*
X129314018Y64555231D01*
X129314018Y64783802D02*
X128314018Y64783802D01*
X128456876Y64707611D01*
X128552114Y64631421D01*
X128599733Y64555231D01*
X128409257Y65317135D02*
X128361638Y65355231D01*
X128314018Y65431421D01*
X128314018Y65621897D01*
X128361638Y65698088D01*
X128409257Y65736183D01*
X128504495Y65774278D01*
X128599733Y65774278D01*
X128742590Y65736183D01*
X129314018Y65279040D01*
X129314018Y65774278D01*
X128314018Y66002850D02*
X129314018Y66269516D01*
X128314018Y66536183D01*
X128314018Y67564754D02*
X128314018Y67717135D01*
X128361638Y67793326D01*
X128456876Y67869516D01*
X128647352Y67907611D01*
X128980685Y67907611D01*
X129171161Y67869516D01*
X129266399Y67793326D01*
X129314018Y67717135D01*
X129314018Y67564754D01*
X129266399Y67488564D01*
X129171161Y67412373D01*
X128980685Y67374278D01*
X128647352Y67374278D01*
X128456876Y67412373D01*
X128361638Y67488564D01*
X128314018Y67564754D01*
X128314018Y68250469D02*
X129123542Y68250469D01*
X129218780Y68288564D01*
X129266399Y68326659D01*
X129314018Y68402850D01*
X129314018Y68555231D01*
X129266399Y68631421D01*
X129218780Y68669516D01*
X129123542Y68707611D01*
X128314018Y68707611D01*
X128314018Y68974278D02*
X128314018Y69431421D01*
X129314018Y69202850D02*
X128314018Y69202850D01*
X29206141Y62417186D02*
X28729951Y62417186D01*
X28729951Y63417186D01*
X29491856Y62464805D02*
X29634713Y62417186D01*
X29872808Y62417186D01*
X29968046Y62464805D01*
X30015665Y62512424D01*
X30063284Y62607662D01*
X30063284Y62702900D01*
X30015665Y62798138D01*
X29968046Y62845757D01*
X29872808Y62893376D01*
X29682332Y62940995D01*
X29587094Y62988614D01*
X29539475Y63036233D01*
X29491856Y63131471D01*
X29491856Y63226709D01*
X29539475Y63321947D01*
X29587094Y63369567D01*
X29682332Y63417186D01*
X29920427Y63417186D01*
X30063284Y63369567D01*
X31015665Y62417186D02*
X30444237Y62417186D01*
X30729951Y62417186D02*
X30729951Y63417186D01*
X30634713Y63274328D01*
X30539475Y63179090D01*
X30444237Y63131471D01*
X71574364Y53568357D02*
X72183888Y53568357D01*
X71879126Y53187405D02*
X71879126Y53949309D01*
X72945793Y54187405D02*
X72564840Y54187405D01*
X72526745Y53711214D01*
X72564840Y53758833D01*
X72641031Y53806452D01*
X72831507Y53806452D01*
X72907697Y53758833D01*
X72945793Y53711214D01*
X72983888Y53615976D01*
X72983888Y53377881D01*
X72945793Y53282643D01*
X72907697Y53235024D01*
X72831507Y53187405D01*
X72641031Y53187405D01*
X72564840Y53235024D01*
X72526745Y53282643D01*
X73212459Y54187405D02*
X73479126Y53187405D01*
X73745793Y54187405D01*
X29206141Y52225507D02*
X28729951Y52225507D01*
X28729951Y53225507D01*
X29491856Y52273126D02*
X29634713Y52225507D01*
X29872808Y52225507D01*
X29968046Y52273126D01*
X30015665Y52320745D01*
X30063284Y52415983D01*
X30063284Y52511221D01*
X30015665Y52606459D01*
X29968046Y52654078D01*
X29872808Y52701697D01*
X29682332Y52749316D01*
X29587094Y52796935D01*
X29539475Y52844554D01*
X29491856Y52939792D01*
X29491856Y53035030D01*
X29539475Y53130268D01*
X29587094Y53177888D01*
X29682332Y53225507D01*
X29920427Y53225507D01*
X30063284Y53177888D01*
X30968046Y53225507D02*
X30491856Y53225507D01*
X30444237Y52749316D01*
X30491856Y52796935D01*
X30587094Y52844554D01*
X30825189Y52844554D01*
X30920427Y52796935D01*
X30968046Y52749316D01*
X31015665Y52654078D01*
X31015665Y52415983D01*
X30968046Y52320745D01*
X30920427Y52273126D01*
X30825189Y52225507D01*
X30587094Y52225507D01*
X30491856Y52273126D01*
X30444237Y52320745D01*
X29111481Y44684295D02*
X28635291Y44684295D01*
X28635291Y45684295D01*
X29397196Y44731914D02*
X29540053Y44684295D01*
X29778148Y44684295D01*
X29873386Y44731914D01*
X29921005Y44779533D01*
X29968624Y44874771D01*
X29968624Y44970009D01*
X29921005Y45065247D01*
X29873386Y45112866D01*
X29778148Y45160485D01*
X29587672Y45208104D01*
X29492434Y45255723D01*
X29444815Y45303342D01*
X29397196Y45398580D01*
X29397196Y45493818D01*
X29444815Y45589056D01*
X29492434Y45636676D01*
X29587672Y45684295D01*
X29825767Y45684295D01*
X29968624Y45636676D01*
X30540053Y45255723D02*
X30444815Y45303342D01*
X30397196Y45350961D01*
X30349577Y45446199D01*
X30349577Y45493818D01*
X30397196Y45589056D01*
X30444815Y45636676D01*
X30540053Y45684295D01*
X30730529Y45684295D01*
X30825767Y45636676D01*
X30873386Y45589056D01*
X30921005Y45493818D01*
X30921005Y45446199D01*
X30873386Y45350961D01*
X30825767Y45303342D01*
X30730529Y45255723D01*
X30540053Y45255723D01*
X30444815Y45208104D01*
X30397196Y45160485D01*
X30349577Y45065247D01*
X30349577Y44874771D01*
X30397196Y44779533D01*
X30444815Y44731914D01*
X30540053Y44684295D01*
X30730529Y44684295D01*
X30825767Y44731914D01*
X30873386Y44779533D01*
X30921005Y44874771D01*
X30921005Y45065247D01*
X30873386Y45160485D01*
X30825767Y45208104D01*
X30730529Y45255723D01*
X69525999Y67725221D02*
X70287904Y67725221D01*
X69906951Y67344269D02*
X69906951Y68106173D01*
X72287904Y67725221D02*
X73049808Y67725221D01*
X75308188Y54230084D02*
X75308188Y53620560D01*
X74927236Y53925322D02*
X75689140Y53925322D01*
X75927236Y53315798D02*
X75927236Y52820560D01*
X75546283Y53087226D01*
X75546283Y52972941D01*
X75498664Y52896750D01*
X75451045Y52858655D01*
X75355807Y52820560D01*
X75117712Y52820560D01*
X75022474Y52858655D01*
X74974855Y52896750D01*
X74927236Y52972941D01*
X74927236Y53201512D01*
X74974855Y53277703D01*
X75022474Y53315798D01*
X75022474Y52477703D02*
X74974855Y52439607D01*
X74927236Y52477703D01*
X74974855Y52515798D01*
X75022474Y52477703D01*
X74927236Y52477703D01*
X75927236Y52172941D02*
X75927236Y51677703D01*
X75546283Y51944369D01*
X75546283Y51830084D01*
X75498664Y51753893D01*
X75451045Y51715798D01*
X75355807Y51677703D01*
X75117712Y51677703D01*
X75022474Y51715798D01*
X74974855Y51753893D01*
X74927236Y51830084D01*
X74927236Y52058655D01*
X74974855Y52134845D01*
X75022474Y52172941D01*
X75927236Y51449131D02*
X74927236Y51182464D01*
X75927236Y50915798D01*
D15*
X121449127Y59485468D02*
X121306270Y59556896D01*
X121091985Y59556896D01*
X120877699Y59485468D01*
X120734842Y59342610D01*
X120663413Y59199753D01*
X120591985Y58914039D01*
X120591985Y58699753D01*
X120663413Y58414039D01*
X120734842Y58271182D01*
X120877699Y58128325D01*
X121091985Y58056896D01*
X121234842Y58056896D01*
X121449127Y58128325D01*
X121520556Y58199753D01*
X121520556Y58699753D01*
X121234842Y58699753D01*
X122163413Y58056896D02*
X122163413Y59556896D01*
X123020556Y58056896D01*
X123020556Y59556896D01*
X123734842Y58056896D02*
X123734842Y59556896D01*
X124091985Y59556896D01*
X124306270Y59485468D01*
X124449127Y59342610D01*
X124520556Y59199753D01*
X124591985Y58914039D01*
X124591985Y58699753D01*
X124520556Y58414039D01*
X124449127Y58271182D01*
X124306270Y58128325D01*
X124091985Y58056896D01*
X123734842Y58056896D01*
D12*
X56115383Y37551316D02*
X55115383Y37551316D01*
X55115383Y37789411D01*
X55163003Y37932269D01*
X55258241Y38027507D01*
X55353479Y38075126D01*
X55543955Y38122745D01*
X55686812Y38122745D01*
X55877288Y38075126D01*
X55972526Y38027507D01*
X56067764Y37932269D01*
X56115383Y37789411D01*
X56115383Y37551316D01*
X55734431Y38551316D02*
X55734431Y39313221D01*
X56115383Y38932269D02*
X55353479Y38932269D01*
X50935095Y34837619D02*
X50935095Y34028095D01*
X50982714Y33932857D01*
X51030333Y33885238D01*
X51125571Y33837619D01*
X51316047Y33837619D01*
X51411285Y33885238D01*
X51458904Y33932857D01*
X51506523Y34028095D01*
X51506523Y34837619D01*
X51935095Y33885238D02*
X52077952Y33837619D01*
X52316047Y33837619D01*
X52411285Y33885238D01*
X52458904Y33932857D01*
X52506523Y34028095D01*
X52506523Y34123333D01*
X52458904Y34218571D01*
X52411285Y34266190D01*
X52316047Y34313809D01*
X52125571Y34361428D01*
X52030333Y34409047D01*
X51982714Y34456666D01*
X51935095Y34551904D01*
X51935095Y34647142D01*
X51982714Y34742380D01*
X52030333Y34790000D01*
X52125571Y34837619D01*
X52363666Y34837619D01*
X52506523Y34790000D01*
X53268428Y34361428D02*
X53411285Y34313809D01*
X53458904Y34266190D01*
X53506523Y34170952D01*
X53506523Y34028095D01*
X53458904Y33932857D01*
X53411285Y33885238D01*
X53316047Y33837619D01*
X52935095Y33837619D01*
X52935095Y34837619D01*
X53268428Y34837619D01*
X53363666Y34790000D01*
X53411285Y34742380D01*
X53458904Y34647142D01*
X53458904Y34551904D01*
X53411285Y34456666D01*
X53363666Y34409047D01*
X53268428Y34361428D01*
X52935095Y34361428D01*
X102930307Y54136315D02*
X103692212Y54136315D01*
X103311259Y53755363D02*
X103311259Y54517267D01*
X105692212Y54136315D02*
X106454116Y54136315D01*
X29260436Y-9750684D02*
X28803293Y-9750684D01*
X29031864Y-9750684D02*
X29031864Y-8750684D01*
X28955674Y-8893542D01*
X28879483Y-8988780D01*
X28803293Y-9036399D01*
X29565198Y-8845923D02*
X29603293Y-8798304D01*
X29679483Y-8750684D01*
X29869960Y-8750684D01*
X29946150Y-8798304D01*
X29984245Y-8845923D01*
X30022341Y-8941161D01*
X30022341Y-9036399D01*
X29984245Y-9179256D01*
X29527102Y-9750684D01*
X30022341Y-9750684D01*
X30289007Y-9084018D02*
X30479483Y-9750684D01*
X30669960Y-9084018D01*
X30974722Y-9750684D02*
X30974722Y-8750684D01*
X31241388Y-9464970D01*
X31508055Y-8750684D01*
X31508055Y-9750684D01*
X32346150Y-9750684D02*
X32079483Y-9274494D01*
X31889007Y-9750684D02*
X31889007Y-8750684D01*
X32193769Y-8750684D01*
X32269960Y-8798304D01*
X32308055Y-8845923D01*
X32346150Y-8941161D01*
X32346150Y-9084018D01*
X32308055Y-9179256D01*
X32269960Y-9226875D01*
X32193769Y-9274494D01*
X31889007Y-9274494D01*
X28285893Y14109257D02*
X28285893Y15109257D01*
X29285893Y15061638D02*
X29190654Y15109257D01*
X29047797Y15109257D01*
X28904940Y15061638D01*
X28809702Y14966399D01*
X28762083Y14871161D01*
X28714464Y14680685D01*
X28714464Y14537828D01*
X28762083Y14347352D01*
X28809702Y14252114D01*
X28904940Y14156876D01*
X29047797Y14109257D01*
X29143035Y14109257D01*
X29285893Y14156876D01*
X29333512Y14204495D01*
X29333512Y14537828D01*
X29143035Y14537828D01*
X29762083Y14109257D02*
X29762083Y15109257D01*
X30333512Y14109257D01*
X30333512Y15109257D01*
X31333512Y14109257D02*
X30762083Y14109257D01*
X31047797Y14109257D02*
X31047797Y15109257D01*
X30952559Y14966399D01*
X30857321Y14871161D01*
X30762083Y14823542D01*
X100560142Y-2960666D02*
X100607761Y-3008285D01*
X100655380Y-3151142D01*
X100655380Y-3246380D01*
X100607761Y-3389238D01*
X100512523Y-3484476D01*
X100417285Y-3532095D01*
X100226809Y-3579714D01*
X100083952Y-3579714D01*
X99893476Y-3532095D01*
X99798238Y-3484476D01*
X99703000Y-3389238D01*
X99655380Y-3246380D01*
X99655380Y-3151142D01*
X99703000Y-3008285D01*
X99750619Y-2960666D01*
X100607761Y-2579714D02*
X100655380Y-2436857D01*
X100655380Y-2198761D01*
X100607761Y-2103523D01*
X100560142Y-2055904D01*
X100464904Y-2008285D01*
X100369666Y-2008285D01*
X100274428Y-2055904D01*
X100226809Y-2103523D01*
X100179190Y-2198761D01*
X100131571Y-2389238D01*
X100083952Y-2484476D01*
X100036333Y-2532095D01*
X99941095Y-2579714D01*
X99845857Y-2579714D01*
X99750619Y-2532095D01*
X99703000Y-2484476D01*
X99655380Y-2389238D01*
X99655380Y-2151142D01*
X99703000Y-2008285D01*
D15*
X114559806Y53078519D02*
X114559806Y54221376D01*
X115131235Y53649948D02*
X113988378Y53649948D01*
X113631235Y55649948D02*
X113631235Y54935662D01*
X114345521Y54864233D01*
X114274092Y54935662D01*
X114202664Y55078519D01*
X114202664Y55435662D01*
X114274092Y55578519D01*
X114345521Y55649948D01*
X114488378Y55721376D01*
X114845521Y55721376D01*
X114988378Y55649948D01*
X115059806Y55578519D01*
X115131235Y55435662D01*
X115131235Y55078519D01*
X115059806Y54935662D01*
X114988378Y54864233D01*
X113631235Y56149948D02*
X115131235Y56649948D01*
X113631235Y57149948D01*
D12*
X128282464Y49899154D02*
X128282464Y49422963D01*
X128758655Y49375344D01*
X128711036Y49422963D01*
X128663417Y49518201D01*
X128663417Y49756297D01*
X128711036Y49851535D01*
X128758655Y49899154D01*
X128853893Y49946773D01*
X129091988Y49946773D01*
X129187226Y49899154D01*
X129234845Y49851535D01*
X129282464Y49756297D01*
X129282464Y49518201D01*
X129234845Y49422963D01*
X129187226Y49375344D01*
X128282464Y50232487D02*
X129282464Y50565820D01*
X128282464Y50899154D01*
X128282464Y52184868D02*
X128282464Y52375344D01*
X128330084Y52470582D01*
X128425322Y52565820D01*
X128615798Y52613439D01*
X128949131Y52613439D01*
X129139607Y52565820D01*
X129234845Y52470582D01*
X129282464Y52375344D01*
X129282464Y52184868D01*
X129234845Y52089630D01*
X129139607Y51994392D01*
X128949131Y51946773D01*
X128615798Y51946773D01*
X128425322Y51994392D01*
X128330084Y52089630D01*
X128282464Y52184868D01*
X128282464Y53042011D02*
X129091988Y53042011D01*
X129187226Y53089630D01*
X129234845Y53137249D01*
X129282464Y53232487D01*
X129282464Y53422963D01*
X129234845Y53518201D01*
X129187226Y53565820D01*
X129091988Y53613439D01*
X128282464Y53613439D01*
X128282464Y53946773D02*
X128282464Y54518201D01*
X129282464Y54232487D02*
X128282464Y54232487D01*
X129282464Y56137249D02*
X129282464Y55565820D01*
X129282464Y55851535D02*
X128282464Y55851535D01*
X128425322Y55756297D01*
X128520560Y55661058D01*
X128568179Y55565820D01*
X70205826Y71236407D02*
X70158207Y71188788D01*
X70015350Y71141169D01*
X69920112Y71141169D01*
X69777254Y71188788D01*
X69682016Y71284026D01*
X69634397Y71379264D01*
X69586778Y71569740D01*
X69586778Y71712597D01*
X69634397Y71903073D01*
X69682016Y71998311D01*
X69777254Y72093550D01*
X69920112Y72141169D01*
X70015350Y72141169D01*
X70158207Y72093550D01*
X70205826Y72045930D01*
X70586778Y71426883D02*
X71062969Y71426883D01*
X70491540Y71141169D02*
X70824874Y72141169D01*
X71158207Y71141169D01*
X71491540Y71141169D02*
X71491540Y72141169D01*
X72062969Y71141169D01*
X72062969Y72141169D01*
X72491540Y72045930D02*
X72539159Y72093550D01*
X72634397Y72141169D01*
X72872493Y72141169D01*
X72967731Y72093550D01*
X73015350Y72045930D01*
X73062969Y71950692D01*
X73062969Y71855454D01*
X73015350Y71712597D01*
X72443921Y71141169D01*
X73062969Y71141169D01*
X103147761Y-3571714D02*
X103195380Y-3428857D01*
X103195380Y-3190761D01*
X103147761Y-3095523D01*
X103100142Y-3047904D01*
X103004904Y-3000285D01*
X102909666Y-3000285D01*
X102814428Y-3047904D01*
X102766809Y-3095523D01*
X102719190Y-3190761D01*
X102671571Y-3381238D01*
X102623952Y-3476476D01*
X102576333Y-3524095D01*
X102481095Y-3571714D01*
X102385857Y-3571714D01*
X102290619Y-3524095D01*
X102243000Y-3476476D01*
X102195380Y-3381238D01*
X102195380Y-3143142D01*
X102243000Y-3000285D01*
X103100142Y-2000285D02*
X103147761Y-2047904D01*
X103195380Y-2190761D01*
X103195380Y-2286000D01*
X103147761Y-2428857D01*
X103052523Y-2524095D01*
X102957285Y-2571714D01*
X102766809Y-2619333D01*
X102623952Y-2619333D01*
X102433476Y-2571714D01*
X102338238Y-2524095D01*
X102243000Y-2428857D01*
X102195380Y-2286000D01*
X102195380Y-2190761D01*
X102243000Y-2047904D01*
X102290619Y-2000285D01*
X103195380Y-1571714D02*
X102195380Y-1571714D01*
X103195380Y-1000285D02*
X102623952Y-1428857D01*
X102195380Y-1000285D02*
X102766809Y-1571714D01*
X48769285Y71109616D02*
X48769285Y72109616D01*
X48769285Y71633425D02*
X49340714Y71633425D01*
X49340714Y71109616D02*
X49340714Y72109616D01*
X49769285Y71157235D02*
X49912142Y71109616D01*
X50150238Y71109616D01*
X50245476Y71157235D01*
X50293095Y71204854D01*
X50340714Y71300092D01*
X50340714Y71395330D01*
X50293095Y71490568D01*
X50245476Y71538187D01*
X50150238Y71585806D01*
X49959761Y71633425D01*
X49864523Y71681044D01*
X49816904Y71728663D01*
X49769285Y71823901D01*
X49769285Y71919139D01*
X49816904Y72014377D01*
X49864523Y72061997D01*
X49959761Y72109616D01*
X50197857Y72109616D01*
X50340714Y72061997D01*
X51293095Y71109616D02*
X50721666Y71109616D01*
X51007380Y71109616D02*
X51007380Y72109616D01*
X50912142Y71966758D01*
X50816904Y71871520D01*
X50721666Y71823901D01*
X52340714Y72109616D02*
X52912142Y72109616D01*
X52626428Y71109616D02*
X52626428Y72109616D01*
X53435952Y72109616D02*
X53626428Y72109616D01*
X53721666Y72061997D01*
X53816904Y71966758D01*
X53864523Y71776282D01*
X53864523Y71442949D01*
X53816904Y71252473D01*
X53721666Y71157235D01*
X53626428Y71109616D01*
X53435952Y71109616D01*
X53340714Y71157235D01*
X53245476Y71252473D01*
X53197857Y71442949D01*
X53197857Y71776282D01*
X53245476Y71966758D01*
X53340714Y72061997D01*
X53435952Y72109616D01*
X55054999Y71109616D02*
X55054999Y72109616D01*
X55054999Y71633425D02*
X55626428Y71633425D01*
X55626428Y71109616D02*
X55626428Y72109616D01*
X56054999Y71157235D02*
X56197857Y71109616D01*
X56435952Y71109616D01*
X56531190Y71157235D01*
X56578809Y71204854D01*
X56626428Y71300092D01*
X56626428Y71395330D01*
X56578809Y71490568D01*
X56531190Y71538187D01*
X56435952Y71585806D01*
X56245476Y71633425D01*
X56150238Y71681044D01*
X56102618Y71728663D01*
X56054999Y71823901D01*
X56054999Y71919139D01*
X56102618Y72014377D01*
X56150238Y72061997D01*
X56245476Y72109616D01*
X56483571Y72109616D01*
X56626428Y72061997D01*
X57483571Y71776282D02*
X57483571Y71109616D01*
X57245476Y72157235D02*
X57007380Y71442949D01*
X57626428Y71442949D01*
X97242380Y-3587571D02*
X97242380Y-2968523D01*
X97623333Y-3301857D01*
X97623333Y-3159000D01*
X97670952Y-3063761D01*
X97718571Y-3016142D01*
X97813809Y-2968523D01*
X98051904Y-2968523D01*
X98147142Y-3016142D01*
X98194761Y-3063761D01*
X98242380Y-3159000D01*
X98242380Y-3444714D01*
X98194761Y-3539952D01*
X98147142Y-3587571D01*
X98147142Y-2539952D02*
X98194761Y-2492333D01*
X98242380Y-2539952D01*
X98194761Y-2587571D01*
X98147142Y-2539952D01*
X98242380Y-2539952D01*
X97242380Y-2159000D02*
X97242380Y-1539952D01*
X97623333Y-1873285D01*
X97623333Y-1730428D01*
X97670952Y-1635190D01*
X97718571Y-1587571D01*
X97813809Y-1539952D01*
X98051904Y-1539952D01*
X98147142Y-1587571D01*
X98194761Y-1635190D01*
X98242380Y-1730428D01*
X98242380Y-2016142D01*
X98194761Y-2111380D01*
X98147142Y-2159000D01*
X97575714Y-1206619D02*
X98242380Y-968523D01*
X97575714Y-730428D01*
X128996750Y5946091D02*
X128996750Y6422282D01*
X129282464Y5850853D02*
X128282464Y6184187D01*
X129282464Y6517520D01*
X128282464Y6707996D02*
X129282464Y7041329D01*
X128282464Y7374663D01*
X128282464Y8184187D02*
X128282464Y7707996D01*
X128758655Y7660377D01*
X128711036Y7707996D01*
X128663417Y7803234D01*
X128663417Y8041329D01*
X128711036Y8136568D01*
X128758655Y8184187D01*
X128853893Y8231806D01*
X129091988Y8231806D01*
X129187226Y8184187D01*
X129234845Y8136568D01*
X129282464Y8041329D01*
X129282464Y7803234D01*
X129234845Y7707996D01*
X129187226Y7660377D01*
X95220249Y52982152D02*
X94763107Y52982152D01*
X94991678Y52982152D02*
X94991678Y53982152D01*
X94915488Y53839294D01*
X94839297Y53744056D01*
X94763107Y53696437D01*
X95525011Y53886913D02*
X95563107Y53934533D01*
X95639297Y53982152D01*
X95829773Y53982152D01*
X95905964Y53934533D01*
X95944059Y53886913D01*
X95982154Y53791675D01*
X95982154Y53696437D01*
X95944059Y53553580D01*
X95486916Y52982152D01*
X95982154Y52982152D01*
X96210726Y53982152D02*
X96477392Y52982152D01*
X96744059Y53982152D01*
X108275380Y-3603428D02*
X107275380Y-3603428D01*
X107989666Y-3270095D01*
X107275380Y-2936761D01*
X108275380Y-2936761D01*
X107275380Y-2270095D02*
X107275380Y-2079619D01*
X107323000Y-1984380D01*
X107418238Y-1889142D01*
X107608714Y-1841523D01*
X107942047Y-1841523D01*
X108132523Y-1889142D01*
X108227761Y-1984380D01*
X108275380Y-2079619D01*
X108275380Y-2270095D01*
X108227761Y-2365333D01*
X108132523Y-2460571D01*
X107942047Y-2508190D01*
X107608714Y-2508190D01*
X107418238Y-2460571D01*
X107323000Y-2365333D01*
X107275380Y-2270095D01*
X108227761Y-1460571D02*
X108275380Y-1317714D01*
X108275380Y-1079619D01*
X108227761Y-984380D01*
X108180142Y-936761D01*
X108084904Y-889142D01*
X107989666Y-889142D01*
X107894428Y-936761D01*
X107846809Y-984380D01*
X107799190Y-1079619D01*
X107751571Y-1270095D01*
X107703952Y-1365333D01*
X107656333Y-1412952D01*
X107561095Y-1460571D01*
X107465857Y-1460571D01*
X107370619Y-1412952D01*
X107323000Y-1365333D01*
X107275380Y-1270095D01*
X107275380Y-1032000D01*
X107323000Y-889142D01*
X108275380Y-460571D02*
X107275380Y-460571D01*
X29023988Y69553992D02*
X28928750Y69601611D01*
X28785893Y69601611D01*
X28643035Y69553992D01*
X28547797Y69458753D01*
X28500178Y69363515D01*
X28452559Y69173039D01*
X28452559Y69030182D01*
X28500178Y68839706D01*
X28547797Y68744468D01*
X28643035Y68649230D01*
X28785893Y68601611D01*
X28881131Y68601611D01*
X29023988Y68649230D01*
X29071607Y68696849D01*
X29071607Y69030182D01*
X28881131Y69030182D01*
X29500178Y68601611D02*
X29500178Y69601611D01*
X30071607Y68601611D01*
X30071607Y69601611D01*
X30547797Y68601611D02*
X30547797Y69601611D01*
X30785893Y69601611D01*
X30928750Y69553992D01*
X31023988Y69458753D01*
X31071607Y69363515D01*
X31119226Y69173039D01*
X31119226Y69030182D01*
X31071607Y68839706D01*
X31023988Y68744468D01*
X30928750Y68649230D01*
X30785893Y68601611D01*
X30547797Y68601611D01*
X86566794Y53737902D02*
X86833460Y53737902D01*
X86947746Y53214093D02*
X86566794Y53214093D01*
X86566794Y54214093D01*
X86947746Y54214093D01*
X87176318Y54214093D02*
X87633460Y54214093D01*
X87404889Y53214093D02*
X87404889Y54214093D01*
X88166794Y53737902D02*
X88281079Y53690283D01*
X88319175Y53642664D01*
X88357270Y53547426D01*
X88357270Y53404569D01*
X88319175Y53309331D01*
X88281079Y53261712D01*
X88204889Y53214093D01*
X87900127Y53214093D01*
X87900127Y54214093D01*
X88166794Y54214093D01*
X88242984Y54166474D01*
X88281079Y54118854D01*
X88319175Y54023616D01*
X88319175Y53928378D01*
X88281079Y53833140D01*
X88242984Y53785521D01*
X88166794Y53737902D01*
X87900127Y53737902D01*
X89728699Y53214093D02*
X89271556Y53214093D01*
X89500127Y53214093D02*
X89500127Y54214093D01*
X89423937Y54071235D01*
X89347746Y53975997D01*
X89271556Y53928378D01*
X84433460Y51604093D02*
X84433460Y52604093D01*
X84738222Y52604093D01*
X84814413Y52556474D01*
X84852508Y52508854D01*
X84890603Y52413616D01*
X84890603Y52270759D01*
X84852508Y52175521D01*
X84814413Y52127902D01*
X84738222Y52080283D01*
X84433460Y52080283D01*
X85157270Y52604093D02*
X85347746Y51604093D01*
X85500127Y52318378D01*
X85652508Y51604093D01*
X85842984Y52604093D01*
X86147746Y51604093D02*
X86147746Y52604093D01*
X86414413Y51889807D01*
X86681079Y52604093D01*
X86681079Y51604093D01*
X87671556Y51604093D02*
X87671556Y52604093D01*
X87862032Y52604093D01*
X87976318Y52556474D01*
X88052508Y52461235D01*
X88090603Y52365997D01*
X88128699Y52175521D01*
X88128699Y52032664D01*
X88090603Y51842188D01*
X88052508Y51746950D01*
X87976318Y51651712D01*
X87862032Y51604093D01*
X87671556Y51604093D01*
X88471556Y51604093D02*
X88471556Y52604093D01*
X88814413Y51651712D02*
X88928699Y51604093D01*
X89119175Y51604093D01*
X89195365Y51651712D01*
X89233460Y51699331D01*
X89271556Y51794569D01*
X89271556Y51889807D01*
X89233460Y51985045D01*
X89195365Y52032664D01*
X89119175Y52080283D01*
X88966794Y52127902D01*
X88890603Y52175521D01*
X88852508Y52223140D01*
X88814413Y52318378D01*
X88814413Y52413616D01*
X88852508Y52508854D01*
X88890603Y52556474D01*
X88966794Y52604093D01*
X89157270Y52604093D01*
X89271556Y52556474D01*
X90223937Y51604093D02*
X90223937Y52604093D01*
X90414413Y52604093D01*
X90528699Y52556474D01*
X90604889Y52461235D01*
X90642984Y52365997D01*
X90681079Y52175521D01*
X90681079Y52032664D01*
X90642984Y51842188D01*
X90604889Y51746950D01*
X90528699Y51651712D01*
X90414413Y51604093D01*
X90223937Y51604093D01*
X91023937Y51604093D02*
X91023937Y52604093D01*
X91862032Y51604093D02*
X91595365Y52080283D01*
X91404889Y51604093D02*
X91404889Y52604093D01*
X91709651Y52604093D01*
X91785841Y52556474D01*
X91823937Y52508854D01*
X91862032Y52413616D01*
X91862032Y52270759D01*
X91823937Y52175521D01*
X91785841Y52127902D01*
X91709651Y52080283D01*
X91404889Y52080283D01*
X52356080Y41997703D02*
X52308460Y41902465D01*
X52308460Y41759608D01*
X52356080Y41616750D01*
X52451318Y41521512D01*
X52546556Y41473893D01*
X52737032Y41426274D01*
X52879889Y41426274D01*
X53070365Y41473893D01*
X53165603Y41521512D01*
X53260841Y41616750D01*
X53308460Y41759608D01*
X53308460Y41854846D01*
X53260841Y41997703D01*
X53213222Y42045322D01*
X52879889Y42045322D01*
X52879889Y41854846D01*
X53308460Y42473893D02*
X52308460Y42473893D01*
X53308460Y43045322D01*
X52308460Y43045322D01*
X53308460Y43521512D02*
X52308460Y43521512D01*
X52308460Y43759608D01*
X52356080Y43902465D01*
X52451318Y43997703D01*
X52546556Y44045322D01*
X52737032Y44092941D01*
X52879889Y44092941D01*
X53070365Y44045322D01*
X53165603Y43997703D01*
X53260841Y43902465D01*
X53308460Y43759608D01*
X53308460Y43521512D01*
X91314084Y69732156D02*
X90980750Y69732156D01*
X90980750Y69208347D02*
X90980750Y70208347D01*
X91456941Y70208347D01*
X92266465Y69875013D02*
X92266465Y69208347D01*
X91837893Y69875013D02*
X91837893Y69351204D01*
X91885512Y69255966D01*
X91980750Y69208347D01*
X92123607Y69208347D01*
X92218845Y69255966D01*
X92266465Y69303585D01*
X92599798Y69875013D02*
X92980750Y69875013D01*
X92742655Y70208347D02*
X92742655Y69351204D01*
X92790274Y69255966D01*
X92885512Y69208347D01*
X92980750Y69208347D01*
X93742655Y69875013D02*
X93742655Y69208347D01*
X93314084Y69875013D02*
X93314084Y69351204D01*
X93361703Y69255966D01*
X93456941Y69208347D01*
X93599798Y69208347D01*
X93695036Y69255966D01*
X93742655Y69303585D01*
X94218845Y69208347D02*
X94218845Y69875013D01*
X94218845Y69684537D02*
X94266465Y69779775D01*
X94314084Y69827394D01*
X94409322Y69875013D01*
X94504560Y69875013D01*
X95218845Y69255966D02*
X95123607Y69208347D01*
X94933131Y69208347D01*
X94837893Y69255966D01*
X94790274Y69351204D01*
X94790274Y69732156D01*
X94837893Y69827394D01*
X94933131Y69875013D01*
X95123607Y69875013D01*
X95218845Y69827394D01*
X95266465Y69732156D01*
X95266465Y69636918D01*
X94790274Y69541680D01*
X95695036Y69208347D02*
X95695036Y70208347D01*
X96075988Y70208347D01*
X96171226Y70160728D01*
X96218845Y70113108D01*
X96266465Y70017870D01*
X96266465Y69875013D01*
X96218845Y69779775D01*
X96171226Y69732156D01*
X96075988Y69684537D01*
X95695036Y69684537D01*
X96695036Y69208347D02*
X96695036Y69875013D01*
X96695036Y69684537D02*
X96742655Y69779775D01*
X96790274Y69827394D01*
X96885512Y69875013D01*
X96980750Y69875013D01*
X97456941Y69208347D02*
X97361703Y69255966D01*
X97314084Y69303585D01*
X97266465Y69398823D01*
X97266465Y69684537D01*
X97314084Y69779775D01*
X97361703Y69827394D01*
X97456941Y69875013D01*
X97599798Y69875013D01*
X97695036Y69827394D01*
X97742655Y69779775D01*
X97790274Y69684537D01*
X97790274Y69398823D01*
X97742655Y69303585D01*
X97695036Y69255966D01*
X97599798Y69208347D01*
X97456941Y69208347D01*
X98361703Y69208347D02*
X98266465Y69255966D01*
X98218845Y69303585D01*
X98171226Y69398823D01*
X98171226Y69684537D01*
X98218845Y69779775D01*
X98266465Y69827394D01*
X98361703Y69875013D01*
X98504560Y69875013D01*
X98599798Y69827394D01*
X98647417Y69779775D01*
X98695036Y69684537D01*
X98695036Y69398823D01*
X98647417Y69303585D01*
X98599798Y69255966D01*
X98504560Y69208347D01*
X98361703Y69208347D01*
X98980750Y69875013D02*
X99361703Y69875013D01*
X99123607Y69208347D02*
X99123607Y70065489D01*
X99171226Y70160728D01*
X99266465Y70208347D01*
X99361703Y70208347D01*
X99695036Y69208347D02*
X99695036Y70208347D01*
X100075988Y70208347D01*
X100171226Y70160728D01*
X100218845Y70113108D01*
X100266465Y70017870D01*
X100266465Y69875013D01*
X100218845Y69779775D01*
X100171226Y69732156D01*
X100075988Y69684537D01*
X99695036Y69684537D01*
X101075988Y69255966D02*
X100980750Y69208347D01*
X100790274Y69208347D01*
X100695036Y69255966D01*
X100647417Y69351204D01*
X100647417Y69732156D01*
X100695036Y69827394D01*
X100790274Y69875013D01*
X100980750Y69875013D01*
X101075988Y69827394D01*
X101123607Y69732156D01*
X101123607Y69636918D01*
X100647417Y69541680D01*
X101552179Y69208347D02*
X101552179Y69875013D01*
X101552179Y69684537D02*
X101599798Y69779775D01*
X101647417Y69827394D01*
X101742655Y69875013D01*
X101837893Y69875013D01*
X102028369Y69875013D02*
X102409322Y69875013D01*
X102171226Y69208347D02*
X102171226Y70065489D01*
X102218845Y70160728D01*
X102314084Y70208347D01*
X102409322Y70208347D01*
X102885512Y69208347D02*
X102790274Y69255966D01*
X102742655Y69303585D01*
X102695036Y69398823D01*
X102695036Y69684537D01*
X102742655Y69779775D01*
X102790274Y69827394D01*
X102885512Y69875013D01*
X103028369Y69875013D01*
X103123607Y69827394D01*
X103171226Y69779775D01*
X103218845Y69684537D01*
X103218845Y69398823D01*
X103171226Y69303585D01*
X103123607Y69255966D01*
X103028369Y69208347D01*
X102885512Y69208347D01*
X103647417Y69208347D02*
X103647417Y69875013D01*
X103647417Y69684537D02*
X103695036Y69779775D01*
X103742655Y69827394D01*
X103837893Y69875013D01*
X103933131Y69875013D01*
X104266465Y69208347D02*
X104266465Y69875013D01*
X104266465Y69779775D02*
X104314084Y69827394D01*
X104409322Y69875013D01*
X104552179Y69875013D01*
X104647417Y69827394D01*
X104695036Y69732156D01*
X104695036Y69208347D01*
X104695036Y69732156D02*
X104742655Y69827394D01*
X104837893Y69875013D01*
X104980750Y69875013D01*
X105075988Y69827394D01*
X105123607Y69732156D01*
X105123607Y69208347D01*
X106028369Y69208347D02*
X106028369Y69732156D01*
X105980750Y69827394D01*
X105885512Y69875013D01*
X105695036Y69875013D01*
X105599798Y69827394D01*
X106028369Y69255966D02*
X105933131Y69208347D01*
X105695036Y69208347D01*
X105599798Y69255966D01*
X105552179Y69351204D01*
X105552179Y69446442D01*
X105599798Y69541680D01*
X105695036Y69589299D01*
X105933131Y69589299D01*
X106028369Y69636918D01*
X106504560Y69875013D02*
X106504560Y69208347D01*
X106504560Y69779775D02*
X106552179Y69827394D01*
X106647417Y69875013D01*
X106790274Y69875013D01*
X106885512Y69827394D01*
X106933131Y69732156D01*
X106933131Y69208347D01*
X107837893Y69255966D02*
X107742655Y69208347D01*
X107552179Y69208347D01*
X107456941Y69255966D01*
X107409322Y69303585D01*
X107361703Y69398823D01*
X107361703Y69684537D01*
X107409322Y69779775D01*
X107456941Y69827394D01*
X107552179Y69875013D01*
X107742655Y69875013D01*
X107837893Y69827394D01*
X108647417Y69255966D02*
X108552179Y69208347D01*
X108361703Y69208347D01*
X108266465Y69255966D01*
X108218845Y69351204D01*
X108218845Y69732156D01*
X108266465Y69827394D01*
X108361703Y69875013D01*
X108552179Y69875013D01*
X108647417Y69827394D01*
X108695036Y69732156D01*
X108695036Y69636918D01*
X108218845Y69541680D01*
X109123607Y69303585D02*
X109171226Y69255966D01*
X109123607Y69208347D01*
X109075988Y69255966D01*
X109123607Y69303585D01*
X109123607Y69208347D01*
X110028369Y69255966D02*
X109933131Y69208347D01*
X109742655Y69208347D01*
X109647417Y69255966D01*
X109599798Y69303585D01*
X109552179Y69398823D01*
X109552179Y69684537D01*
X109599798Y69779775D01*
X109647417Y69827394D01*
X109742655Y69875013D01*
X109933131Y69875013D01*
X110028369Y69827394D01*
X110599798Y69208347D02*
X110504560Y69255966D01*
X110456941Y69303585D01*
X110409322Y69398823D01*
X110409322Y69684537D01*
X110456941Y69779775D01*
X110504560Y69827394D01*
X110599798Y69875013D01*
X110742655Y69875013D01*
X110837893Y69827394D01*
X110885512Y69779775D01*
X110933131Y69684537D01*
X110933131Y69398823D01*
X110885512Y69303585D01*
X110837893Y69255966D01*
X110742655Y69208347D01*
X110599798Y69208347D01*
X111361703Y69208347D02*
X111361703Y69875013D01*
X111361703Y69779775D02*
X111409322Y69827394D01*
X111504560Y69875013D01*
X111647417Y69875013D01*
X111742655Y69827394D01*
X111790274Y69732156D01*
X111790274Y69208347D01*
X111790274Y69732156D02*
X111837893Y69827394D01*
X111933131Y69875013D01*
X112075988Y69875013D01*
X112171226Y69827394D01*
X112218845Y69732156D01*
X112218845Y69208347D01*
X113409322Y70113108D02*
X113456941Y70160728D01*
X113552179Y70208347D01*
X113790274Y70208347D01*
X113885512Y70160728D01*
X113933131Y70113108D01*
X113980750Y70017870D01*
X113980750Y69922632D01*
X113933131Y69779775D01*
X113361703Y69208347D01*
X113980750Y69208347D01*
X114599798Y70208347D02*
X114695036Y70208347D01*
X114790274Y70160728D01*
X114837893Y70113108D01*
X114885512Y70017870D01*
X114933131Y69827394D01*
X114933131Y69589299D01*
X114885512Y69398823D01*
X114837893Y69303585D01*
X114790274Y69255966D01*
X114695036Y69208347D01*
X114599798Y69208347D01*
X114504560Y69255966D01*
X114456941Y69303585D01*
X114409322Y69398823D01*
X114361703Y69589299D01*
X114361703Y69827394D01*
X114409322Y70017870D01*
X114456941Y70113108D01*
X114504560Y70160728D01*
X114599798Y70208347D01*
X115314084Y70113108D02*
X115361703Y70160728D01*
X115456941Y70208347D01*
X115695036Y70208347D01*
X115790274Y70160728D01*
X115837893Y70113108D01*
X115885512Y70017870D01*
X115885512Y69922632D01*
X115837893Y69779775D01*
X115266465Y69208347D01*
X115885512Y69208347D01*
X116266465Y70113108D02*
X116314084Y70160728D01*
X116409322Y70208347D01*
X116647417Y70208347D01*
X116742655Y70160728D01*
X116790274Y70113108D01*
X116837893Y70017870D01*
X116837893Y69922632D01*
X116790274Y69779775D01*
X116218845Y69208347D01*
X116837893Y69208347D01*
X78769651Y53723879D02*
X79036317Y53723879D01*
X79150603Y53200070D02*
X78769651Y53200070D01*
X78769651Y54200070D01*
X79150603Y54200070D01*
X79379175Y54200070D02*
X79836317Y54200070D01*
X79607746Y53200070D02*
X79607746Y54200070D01*
X80369651Y53723879D02*
X80483936Y53676260D01*
X80522032Y53628641D01*
X80560127Y53533403D01*
X80560127Y53390546D01*
X80522032Y53295308D01*
X80483936Y53247689D01*
X80407746Y53200070D01*
X80102984Y53200070D01*
X80102984Y54200070D01*
X80369651Y54200070D01*
X80445841Y54152451D01*
X80483936Y54104831D01*
X80522032Y54009593D01*
X80522032Y53914355D01*
X80483936Y53819117D01*
X80445841Y53771498D01*
X80369651Y53723879D01*
X80102984Y53723879D01*
X81474413Y54104831D02*
X81512508Y54152451D01*
X81588698Y54200070D01*
X81779175Y54200070D01*
X81855365Y54152451D01*
X81893460Y54104831D01*
X81931556Y54009593D01*
X81931556Y53914355D01*
X81893460Y53771498D01*
X81436317Y53200070D01*
X81931556Y53200070D01*
X76636317Y51590070D02*
X76636317Y52590070D01*
X76941079Y52590070D01*
X77017270Y52542451D01*
X77055365Y52494831D01*
X77093460Y52399593D01*
X77093460Y52256736D01*
X77055365Y52161498D01*
X77017270Y52113879D01*
X76941079Y52066260D01*
X76636317Y52066260D01*
X77360127Y52590070D02*
X77550603Y51590070D01*
X77702984Y52304355D01*
X77855365Y51590070D01*
X78045841Y52590070D01*
X78350603Y51590070D02*
X78350603Y52590070D01*
X78617270Y51875784D01*
X78883936Y52590070D01*
X78883936Y51590070D01*
X79874413Y51590070D02*
X79874413Y52590070D01*
X80064889Y52590070D01*
X80179175Y52542451D01*
X80255365Y52447212D01*
X80293460Y52351974D01*
X80331556Y52161498D01*
X80331556Y52018641D01*
X80293460Y51828165D01*
X80255365Y51732927D01*
X80179175Y51637689D01*
X80064889Y51590070D01*
X79874413Y51590070D01*
X80674413Y51590070D02*
X80674413Y52590070D01*
X81017270Y51637689D02*
X81131556Y51590070D01*
X81322032Y51590070D01*
X81398222Y51637689D01*
X81436317Y51685308D01*
X81474413Y51780546D01*
X81474413Y51875784D01*
X81436317Y51971022D01*
X81398222Y52018641D01*
X81322032Y52066260D01*
X81169651Y52113879D01*
X81093460Y52161498D01*
X81055365Y52209117D01*
X81017270Y52304355D01*
X81017270Y52399593D01*
X81055365Y52494831D01*
X81093460Y52542451D01*
X81169651Y52590070D01*
X81360127Y52590070D01*
X81474413Y52542451D01*
X82426794Y51590070D02*
X82426794Y52590070D01*
X82617270Y52590070D01*
X82731556Y52542451D01*
X82807746Y52447212D01*
X82845841Y52351974D01*
X82883936Y52161498D01*
X82883936Y52018641D01*
X82845841Y51828165D01*
X82807746Y51732927D01*
X82731556Y51637689D01*
X82617270Y51590070D01*
X82426794Y51590070D01*
X83226794Y51590070D02*
X83226794Y52590070D01*
X84064889Y51590070D02*
X83798222Y52066260D01*
X83607746Y51590070D02*
X83607746Y52590070D01*
X83912508Y52590070D01*
X83988698Y52542451D01*
X84026794Y52494831D01*
X84064889Y52399593D01*
X84064889Y52256736D01*
X84026794Y52161498D01*
X83988698Y52113879D01*
X83912508Y52066260D01*
X83607746Y52066260D01*
X98724347Y53945050D02*
X98629109Y53992669D01*
X98486252Y53992669D01*
X98343394Y53945050D01*
X98248156Y53849811D01*
X98200537Y53754573D01*
X98152918Y53564097D01*
X98152918Y53421240D01*
X98200537Y53230764D01*
X98248156Y53135526D01*
X98343394Y53040288D01*
X98486252Y52992669D01*
X98581490Y52992669D01*
X98724347Y53040288D01*
X98771966Y53087907D01*
X98771966Y53421240D01*
X98581490Y53421240D01*
X99200537Y52992669D02*
X99200537Y53992669D01*
X99771966Y52992669D01*
X99771966Y53992669D01*
X100248156Y52992669D02*
X100248156Y53992669D01*
X100486252Y53992669D01*
X100629109Y53945050D01*
X100724347Y53849811D01*
X100771966Y53754573D01*
X100819585Y53564097D01*
X100819585Y53421240D01*
X100771966Y53230764D01*
X100724347Y53135526D01*
X100629109Y53040288D01*
X100486252Y52992669D01*
X100248156Y52992669D01*
X103594199Y52672615D02*
X103546580Y52624996D01*
X103403723Y52577377D01*
X103308485Y52577377D01*
X103165627Y52624996D01*
X103070389Y52720234D01*
X103022770Y52815472D01*
X102975151Y53005948D01*
X102975151Y53148805D01*
X103022770Y53339281D01*
X103070389Y53434519D01*
X103165627Y53529758D01*
X103308485Y53577377D01*
X103403723Y53577377D01*
X103546580Y53529758D01*
X103594199Y53482138D01*
X103975151Y52863091D02*
X104451342Y52863091D01*
X103879913Y52577377D02*
X104213247Y53577377D01*
X104546580Y52577377D01*
X104879913Y52577377D02*
X104879913Y53577377D01*
X105451342Y52577377D01*
X105451342Y53577377D01*
X106451342Y52577377D02*
X105879913Y52577377D01*
X106165627Y52577377D02*
X106165627Y53577377D01*
X106070389Y53434519D01*
X105975151Y53339281D01*
X105879913Y53291662D01*
X73588761Y-6532571D02*
X73922095Y-6532571D01*
X74064952Y-7056380D02*
X73588761Y-7056380D01*
X73588761Y-6056380D01*
X74064952Y-6056380D01*
X74493523Y-7056380D02*
X74493523Y-6389714D01*
X74493523Y-6580190D02*
X74541142Y-6484952D01*
X74588761Y-6437333D01*
X74684000Y-6389714D01*
X74779238Y-6389714D01*
X75112571Y-7056380D02*
X75112571Y-6389714D01*
X75112571Y-6580190D02*
X75160190Y-6484952D01*
X75207809Y-6437333D01*
X75303047Y-6389714D01*
X75398285Y-6389714D01*
X75874476Y-7056380D02*
X75779238Y-7008761D01*
X75731619Y-6961142D01*
X75684000Y-6865904D01*
X75684000Y-6580190D01*
X75731619Y-6484952D01*
X75779238Y-6437333D01*
X75874476Y-6389714D01*
X76017333Y-6389714D01*
X76112571Y-6437333D01*
X76160190Y-6484952D01*
X76207809Y-6580190D01*
X76207809Y-6865904D01*
X76160190Y-6961142D01*
X76112571Y-7008761D01*
X76017333Y-7056380D01*
X75874476Y-7056380D01*
X76636380Y-7056380D02*
X76636380Y-6389714D01*
X76636380Y-6580190D02*
X76684000Y-6484952D01*
X76731619Y-6437333D01*
X76826857Y-6389714D01*
X76922095Y-6389714D01*
X28141833Y36953764D02*
X28141833Y37953764D01*
X28941833Y37906145D02*
X28865643Y37953764D01*
X28751357Y37953764D01*
X28637071Y37906145D01*
X28560881Y37810906D01*
X28522786Y37715668D01*
X28484690Y37525192D01*
X28484690Y37382335D01*
X28522786Y37191859D01*
X28560881Y37096621D01*
X28637071Y37001383D01*
X28751357Y36953764D01*
X28827547Y36953764D01*
X28941833Y37001383D01*
X28979928Y37049002D01*
X28979928Y37382335D01*
X28827547Y37382335D01*
X29322786Y36953764D02*
X29322786Y37953764D01*
X29779928Y36953764D01*
X29779928Y37953764D01*
X30579928Y36953764D02*
X30122786Y36953764D01*
X30351357Y36953764D02*
X30351357Y37953764D01*
X30275166Y37810906D01*
X30198976Y37715668D01*
X30122786Y37668049D01*
X31075166Y37953764D02*
X31151357Y37953764D01*
X31227547Y37906145D01*
X31265643Y37858525D01*
X31303738Y37763287D01*
X31341833Y37572811D01*
X31341833Y37334716D01*
X31303738Y37144240D01*
X31265643Y37049002D01*
X31227547Y37001383D01*
X31151357Y36953764D01*
X31075166Y36953764D01*
X30998976Y37001383D01*
X30960881Y37049002D01*
X30922786Y37144240D01*
X30884690Y37334716D01*
X30884690Y37572811D01*
X30922786Y37763287D01*
X30960881Y37858525D01*
X30998976Y37906145D01*
X31075166Y37953764D01*
X28412105Y24458702D02*
X28412105Y25458702D01*
X29412105Y25411083D02*
X29316866Y25458702D01*
X29174009Y25458702D01*
X29031152Y25411083D01*
X28935914Y25315844D01*
X28888295Y25220606D01*
X28840676Y25030130D01*
X28840676Y24887273D01*
X28888295Y24696797D01*
X28935914Y24601559D01*
X29031152Y24506321D01*
X29174009Y24458702D01*
X29269247Y24458702D01*
X29412105Y24506321D01*
X29459724Y24553940D01*
X29459724Y24887273D01*
X29269247Y24887273D01*
X29888295Y24458702D02*
X29888295Y25458702D01*
X30459724Y24458702D01*
X30459724Y25458702D01*
X31412105Y25458702D02*
X30935914Y25458702D01*
X30888295Y24982511D01*
X30935914Y25030130D01*
X31031152Y25077749D01*
X31269247Y25077749D01*
X31364485Y25030130D01*
X31412105Y24982511D01*
X31459724Y24887273D01*
X31459724Y24649178D01*
X31412105Y24553940D01*
X31364485Y24506321D01*
X31269247Y24458702D01*
X31031152Y24458702D01*
X30935914Y24506321D01*
X30888295Y24553940D01*
X93687619Y66858629D02*
X93687619Y67858629D01*
X94068571Y67858629D01*
X94163809Y67811010D01*
X94211428Y67763390D01*
X94259047Y67668152D01*
X94259047Y67525295D01*
X94211428Y67430057D01*
X94163809Y67382438D01*
X94068571Y67334819D01*
X93687619Y67334819D01*
X94830476Y66858629D02*
X94735238Y66906248D01*
X94687619Y66953867D01*
X94640000Y67049105D01*
X94640000Y67334819D01*
X94687619Y67430057D01*
X94735238Y67477676D01*
X94830476Y67525295D01*
X94973333Y67525295D01*
X95068571Y67477676D01*
X95116190Y67430057D01*
X95163809Y67334819D01*
X95163809Y67049105D01*
X95116190Y66953867D01*
X95068571Y66906248D01*
X94973333Y66858629D01*
X94830476Y66858629D01*
X95735238Y66858629D02*
X95640000Y66906248D01*
X95592380Y67001486D01*
X95592380Y67858629D01*
X96020952Y67525295D02*
X96259047Y66858629D01*
X96497142Y67525295D02*
X96259047Y66858629D01*
X96163809Y66620533D01*
X96116190Y66572914D01*
X96020952Y66525295D01*
X97306666Y67525295D02*
X97306666Y66715771D01*
X97259047Y66620533D01*
X97211428Y66572914D01*
X97116190Y66525295D01*
X96973333Y66525295D01*
X96878095Y66572914D01*
X97306666Y66906248D02*
X97211428Y66858629D01*
X97020952Y66858629D01*
X96925714Y66906248D01*
X96878095Y66953867D01*
X96830476Y67049105D01*
X96830476Y67334819D01*
X96878095Y67430057D01*
X96925714Y67477676D01*
X97020952Y67525295D01*
X97211428Y67525295D01*
X97306666Y67477676D01*
X97925714Y66858629D02*
X97830476Y66906248D01*
X97782857Y66953867D01*
X97735238Y67049105D01*
X97735238Y67334819D01*
X97782857Y67430057D01*
X97830476Y67477676D01*
X97925714Y67525295D01*
X98068571Y67525295D01*
X98163809Y67477676D01*
X98211428Y67430057D01*
X98259047Y67334819D01*
X98259047Y67049105D01*
X98211428Y66953867D01*
X98163809Y66906248D01*
X98068571Y66858629D01*
X97925714Y66858629D01*
X98687619Y67525295D02*
X98687619Y66858629D01*
X98687619Y67430057D02*
X98735238Y67477676D01*
X98830476Y67525295D01*
X98973333Y67525295D01*
X99068571Y67477676D01*
X99116190Y67382438D01*
X99116190Y66858629D01*
X100020952Y67525295D02*
X100020952Y66858629D01*
X99592380Y67525295D02*
X99592380Y67001486D01*
X99640000Y66906248D01*
X99735238Y66858629D01*
X99878095Y66858629D01*
X99973333Y66906248D01*
X100020952Y66953867D01*
X100449523Y66906248D02*
X100544761Y66858629D01*
X100735238Y66858629D01*
X100830476Y66906248D01*
X100878095Y67001486D01*
X100878095Y67049105D01*
X100830476Y67144343D01*
X100735238Y67191962D01*
X100592380Y67191962D01*
X100497142Y67239581D01*
X100449523Y67334819D01*
X100449523Y67382438D01*
X100497142Y67477676D01*
X100592380Y67525295D01*
X100735238Y67525295D01*
X100830476Y67477676D01*
X102401904Y67382438D02*
X102544761Y67334819D01*
X102592380Y67287200D01*
X102640000Y67191962D01*
X102640000Y67049105D01*
X102592380Y66953867D01*
X102544761Y66906248D01*
X102449523Y66858629D01*
X102068571Y66858629D01*
X102068571Y67858629D01*
X102401904Y67858629D01*
X102497142Y67811010D01*
X102544761Y67763390D01*
X102592380Y67668152D01*
X102592380Y67572914D01*
X102544761Y67477676D01*
X102497142Y67430057D01*
X102401904Y67382438D01*
X102068571Y67382438D01*
X103068571Y66858629D02*
X103068571Y67525295D01*
X103068571Y67334819D02*
X103116190Y67430057D01*
X103163809Y67477676D01*
X103259047Y67525295D01*
X103354285Y67525295D01*
X104116190Y66858629D02*
X104116190Y67382438D01*
X104068571Y67477676D01*
X103973333Y67525295D01*
X103782857Y67525295D01*
X103687619Y67477676D01*
X104116190Y66906248D02*
X104020952Y66858629D01*
X103782857Y66858629D01*
X103687619Y66906248D01*
X103640000Y67001486D01*
X103640000Y67096724D01*
X103687619Y67191962D01*
X103782857Y67239581D01*
X104020952Y67239581D01*
X104116190Y67287200D01*
X104592380Y66858629D02*
X104592380Y67525295D01*
X104592380Y67858629D02*
X104544761Y67811010D01*
X104592380Y67763390D01*
X104640000Y67811010D01*
X104592380Y67858629D01*
X104592380Y67763390D01*
X105068571Y67525295D02*
X105068571Y66858629D01*
X105068571Y67430057D02*
X105116190Y67477676D01*
X105211428Y67525295D01*
X105354285Y67525295D01*
X105449523Y67477676D01*
X105497142Y67382438D01*
X105497142Y66858629D01*
X107068571Y67382438D02*
X107211428Y67334819D01*
X107259047Y67287200D01*
X107306666Y67191962D01*
X107306666Y67049105D01*
X107259047Y66953867D01*
X107211428Y66906248D01*
X107116190Y66858629D01*
X106735238Y66858629D01*
X106735238Y67858629D01*
X107068571Y67858629D01*
X107163809Y67811010D01*
X107211428Y67763390D01*
X107259047Y67668152D01*
X107259047Y67572914D01*
X107211428Y67477676D01*
X107163809Y67430057D01*
X107068571Y67382438D01*
X106735238Y67382438D01*
X107878095Y66858629D02*
X107782857Y66906248D01*
X107735238Y66953867D01*
X107687619Y67049105D01*
X107687619Y67334819D01*
X107735238Y67430057D01*
X107782857Y67477676D01*
X107878095Y67525295D01*
X108020952Y67525295D01*
X108116190Y67477676D01*
X108163809Y67430057D01*
X108211428Y67334819D01*
X108211428Y67049105D01*
X108163809Y66953867D01*
X108116190Y66906248D01*
X108020952Y66858629D01*
X107878095Y66858629D01*
X109068571Y66858629D02*
X109068571Y67382438D01*
X109020952Y67477676D01*
X108925714Y67525295D01*
X108735238Y67525295D01*
X108640000Y67477676D01*
X109068571Y66906248D02*
X108973333Y66858629D01*
X108735238Y66858629D01*
X108640000Y66906248D01*
X108592380Y67001486D01*
X108592380Y67096724D01*
X108640000Y67191962D01*
X108735238Y67239581D01*
X108973333Y67239581D01*
X109068571Y67287200D01*
X109544761Y66858629D02*
X109544761Y67525295D01*
X109544761Y67334819D02*
X109592380Y67430057D01*
X109640000Y67477676D01*
X109735238Y67525295D01*
X109830476Y67525295D01*
X110592380Y66858629D02*
X110592380Y67858629D01*
X110592380Y66906248D02*
X110497142Y66858629D01*
X110306666Y66858629D01*
X110211428Y66906248D01*
X110163809Y66953867D01*
X110116190Y67049105D01*
X110116190Y67334819D01*
X110163809Y67430057D01*
X110211428Y67477676D01*
X110306666Y67525295D01*
X110497142Y67525295D01*
X110592380Y67477676D01*
X111687619Y67858629D02*
X112020952Y66858629D01*
X112354285Y67858629D01*
X113211428Y66858629D02*
X112640000Y66858629D01*
X112925714Y66858629D02*
X112925714Y67858629D01*
X112830476Y67715771D01*
X112735238Y67620533D01*
X112640000Y67572914D01*
X113640000Y66953867D02*
X113687619Y66906248D01*
X113640000Y66858629D01*
X113592380Y66906248D01*
X113640000Y66953867D01*
X113640000Y66858629D01*
X114306666Y67858629D02*
X114401904Y67858629D01*
X114497142Y67811010D01*
X114544761Y67763390D01*
X114592380Y67668152D01*
X114640000Y67477676D01*
X114640000Y67239581D01*
X114592380Y67049105D01*
X114544761Y66953867D01*
X114497142Y66906248D01*
X114401904Y66858629D01*
X114306666Y66858629D01*
X114211428Y66906248D01*
X114163809Y66953867D01*
X114116190Y67049105D01*
X114068571Y67239581D01*
X114068571Y67477676D01*
X114116190Y67668152D01*
X114163809Y67763390D01*
X114211428Y67811010D01*
X114306666Y67858629D01*
X79569868Y71109616D02*
X79112726Y71109616D01*
X79341297Y71109616D02*
X79341297Y72109616D01*
X79265107Y71966758D01*
X79188916Y71871520D01*
X79112726Y71823901D01*
X79874630Y72014377D02*
X79912726Y72061997D01*
X79988916Y72109616D01*
X80179392Y72109616D01*
X80255583Y72061997D01*
X80293678Y72014377D01*
X80331773Y71919139D01*
X80331773Y71823901D01*
X80293678Y71681044D01*
X79836535Y71109616D01*
X80331773Y71109616D01*
X80560345Y72109616D02*
X80827011Y71109616D01*
X81093678Y72109616D01*
X93621115Y53525213D02*
X93668734Y53620451D01*
X93668734Y53763309D01*
X93621115Y53906166D01*
X93525876Y54001404D01*
X93430638Y54049023D01*
X93240162Y54096642D01*
X93097305Y54096642D01*
X92906829Y54049023D01*
X92811591Y54001404D01*
X92716353Y53906166D01*
X92668734Y53763309D01*
X92668734Y53668070D01*
X92716353Y53525213D01*
X92763972Y53477594D01*
X93097305Y53477594D01*
X93097305Y53668070D01*
X92668734Y53049023D02*
X93668734Y53049023D01*
X92668734Y52477594D01*
X93668734Y52477594D01*
X92668734Y52001404D02*
X93668734Y52001404D01*
X93668734Y51763309D01*
X93621115Y51620451D01*
X93525876Y51525213D01*
X93430638Y51477594D01*
X93240162Y51429975D01*
X93097305Y51429975D01*
X92906829Y51477594D01*
X92811591Y51525213D01*
X92716353Y51620451D01*
X92668734Y51763309D01*
X92668734Y52001404D01*
X75246592Y71109616D02*
X74913259Y71585806D01*
X74675164Y71109616D02*
X74675164Y72109616D01*
X75056116Y72109616D01*
X75151354Y72061997D01*
X75198973Y72014377D01*
X75246592Y71919139D01*
X75246592Y71776282D01*
X75198973Y71681044D01*
X75151354Y71633425D01*
X75056116Y71585806D01*
X74675164Y71585806D01*
X75627545Y71157235D02*
X75770402Y71109616D01*
X76008497Y71109616D01*
X76103735Y71157235D01*
X76151354Y71204854D01*
X76198973Y71300092D01*
X76198973Y71395330D01*
X76151354Y71490568D01*
X76103735Y71538187D01*
X76008497Y71585806D01*
X75818021Y71633425D01*
X75722783Y71681044D01*
X75675164Y71728663D01*
X75627545Y71823901D01*
X75627545Y71919139D01*
X75675164Y72014377D01*
X75722783Y72061997D01*
X75818021Y72109616D01*
X76056116Y72109616D01*
X76198973Y72061997D01*
X76484688Y72109616D02*
X76818021Y71109616D01*
X77151354Y72109616D01*
X77484688Y71109616D02*
X77484688Y72109616D01*
X77722783Y72109616D01*
X77865640Y72061997D01*
X77960878Y71966758D01*
X78008497Y71871520D01*
X78056116Y71681044D01*
X78056116Y71538187D01*
X78008497Y71347711D01*
X77960878Y71252473D01*
X77865640Y71157235D01*
X77722783Y71109616D01*
X77484688Y71109616D01*
X58861799Y9252483D02*
X57861799Y9252483D01*
X57861799Y9633436D01*
X57909419Y9728674D01*
X57957038Y9776293D01*
X58052276Y9823912D01*
X58195133Y9823912D01*
X58290371Y9776293D01*
X58337990Y9728674D01*
X58385609Y9633436D01*
X58385609Y9252483D01*
X58861799Y10823912D02*
X58385609Y10490578D01*
X58861799Y10252483D02*
X57861799Y10252483D01*
X57861799Y10633436D01*
X57909419Y10728674D01*
X57957038Y10776293D01*
X58052276Y10823912D01*
X58195133Y10823912D01*
X58290371Y10776293D01*
X58337990Y10728674D01*
X58385609Y10633436D01*
X58385609Y10252483D01*
X57861799Y11442959D02*
X57861799Y11633436D01*
X57909419Y11728674D01*
X58004657Y11823912D01*
X58195133Y11871531D01*
X58528466Y11871531D01*
X58718942Y11823912D01*
X58814180Y11728674D01*
X58861799Y11633436D01*
X58861799Y11442959D01*
X58814180Y11347721D01*
X58718942Y11252483D01*
X58528466Y11204864D01*
X58195133Y11204864D01*
X58004657Y11252483D01*
X57909419Y11347721D01*
X57861799Y11442959D01*
X57909419Y12823912D02*
X57861799Y12728674D01*
X57861799Y12585817D01*
X57909419Y12442959D01*
X58004657Y12347721D01*
X58099895Y12300102D01*
X58290371Y12252483D01*
X58433228Y12252483D01*
X58623704Y12300102D01*
X58718942Y12347721D01*
X58814180Y12442959D01*
X58861799Y12585817D01*
X58861799Y12681055D01*
X58814180Y12823912D01*
X58766561Y12871531D01*
X58433228Y12871531D01*
X58433228Y12681055D01*
X83892165Y71109616D02*
X83558832Y71585806D01*
X83320737Y71109616D02*
X83320737Y72109616D01*
X83701689Y72109616D01*
X83796927Y72061997D01*
X83844546Y72014377D01*
X83892165Y71919139D01*
X83892165Y71776282D01*
X83844546Y71681044D01*
X83796927Y71633425D01*
X83701689Y71585806D01*
X83320737Y71585806D01*
X84273118Y71157235D02*
X84415975Y71109616D01*
X84654070Y71109616D01*
X84749308Y71157235D01*
X84796927Y71204854D01*
X84844546Y71300092D01*
X84844546Y71395330D01*
X84796927Y71490568D01*
X84749308Y71538187D01*
X84654070Y71585806D01*
X84463594Y71633425D01*
X84368356Y71681044D01*
X84320737Y71728663D01*
X84273118Y71823901D01*
X84273118Y71919139D01*
X84320737Y72014377D01*
X84368356Y72061997D01*
X84463594Y72109616D01*
X84701689Y72109616D01*
X84844546Y72061997D01*
X85130261Y72109616D02*
X85463594Y71109616D01*
X85796927Y72109616D01*
X86130261Y71109616D02*
X86130261Y72109616D01*
X86368356Y72109616D01*
X86511213Y72061997D01*
X86606451Y71966758D01*
X86654070Y71871520D01*
X86701689Y71681044D01*
X86701689Y71538187D01*
X86654070Y71347711D01*
X86606451Y71252473D01*
X86511213Y71157235D01*
X86368356Y71109616D01*
X86130261Y71109616D01*
X128996750Y24518532D02*
X128996750Y24994723D01*
X129282464Y24423294D02*
X128282464Y24756628D01*
X129282464Y25089961D01*
X128282464Y25280437D02*
X128282464Y25851866D01*
X129282464Y25566152D02*
X128282464Y25566152D01*
X129282464Y26709009D02*
X129282464Y26137580D01*
X129282464Y26423294D02*
X128282464Y26423294D01*
X128425322Y26328056D01*
X128520560Y26232818D01*
X128568179Y26137580D01*
X128282464Y27756628D02*
X128282464Y28328056D01*
X129282464Y28042342D02*
X128282464Y28042342D01*
X128282464Y28851866D02*
X128282464Y29042342D01*
X128330084Y29137580D01*
X128425322Y29232818D01*
X128615798Y29280437D01*
X128949131Y29280437D01*
X129139607Y29232818D01*
X129234845Y29137580D01*
X129282464Y29042342D01*
X129282464Y28851866D01*
X129234845Y28756628D01*
X129139607Y28661390D01*
X128949131Y28613771D01*
X128615798Y28613771D01*
X128425322Y28661390D01*
X128330084Y28756628D01*
X128282464Y28851866D01*
X128996750Y30423294D02*
X128996750Y30899485D01*
X129282464Y30328056D02*
X128282464Y30661390D01*
X129282464Y30994723D01*
X128282464Y31185199D02*
X128282464Y31756628D01*
X129282464Y31470913D02*
X128282464Y31470913D01*
X128615798Y32518532D02*
X129282464Y32518532D01*
X128234845Y32280437D02*
X128949131Y32042342D01*
X128949131Y32661390D01*
X128912609Y-3856431D02*
X128912609Y-3380240D01*
X129198323Y-3951669D02*
X128198323Y-3618335D01*
X129198323Y-3285002D01*
X128198323Y-3094526D02*
X129198323Y-2761193D01*
X128198323Y-2427859D01*
X129198323Y-1570716D02*
X129198323Y-2142145D01*
X129198323Y-1856431D02*
X128198323Y-1856431D01*
X128341181Y-1951669D01*
X128436419Y-2046907D01*
X128484038Y-2142145D01*
G04 #@! TO.C,U1602*
X45613113Y11578366D02*
X46422637Y11578366D01*
X46517875Y11616461D01*
X46565494Y11654556D01*
X46613113Y11730747D01*
X46613113Y11883127D01*
X46565494Y11959318D01*
X46517875Y11997413D01*
X46422637Y12035508D01*
X45613113Y12035508D01*
X46613113Y12835508D02*
X46613113Y12378366D01*
X46613113Y12606937D02*
X45613113Y12606937D01*
X45755971Y12530747D01*
X45851209Y12454556D01*
X45898828Y12378366D01*
X45613113Y13521223D02*
X45613113Y13368842D01*
X45660733Y13292651D01*
X45708352Y13254556D01*
X45851209Y13178366D01*
X46041685Y13140270D01*
X46422637Y13140270D01*
X46517875Y13178366D01*
X46565494Y13216461D01*
X46613113Y13292651D01*
X46613113Y13445032D01*
X46565494Y13521223D01*
X46517875Y13559318D01*
X46422637Y13597413D01*
X46184542Y13597413D01*
X46089304Y13559318D01*
X46041685Y13521223D01*
X45994066Y13445032D01*
X45994066Y13292651D01*
X46041685Y13216461D01*
X46089304Y13178366D01*
X46184542Y13140270D01*
X45613113Y14092651D02*
X45613113Y14168842D01*
X45660733Y14245032D01*
X45708352Y14283127D01*
X45803590Y14321223D01*
X45994066Y14359318D01*
X46232161Y14359318D01*
X46422637Y14321223D01*
X46517875Y14283127D01*
X46565494Y14245032D01*
X46613113Y14168842D01*
X46613113Y14092651D01*
X46565494Y14016461D01*
X46517875Y13978366D01*
X46422637Y13940270D01*
X46232161Y13902175D01*
X45994066Y13902175D01*
X45803590Y13940270D01*
X45708352Y13978366D01*
X45660733Y14016461D01*
X45613113Y14092651D01*
X45708352Y14664080D02*
X45660733Y14702175D01*
X45613113Y14778366D01*
X45613113Y14968842D01*
X45660733Y15045032D01*
X45708352Y15083127D01*
X45803590Y15121223D01*
X45898828Y15121223D01*
X46041685Y15083127D01*
X46613113Y14625985D01*
X46613113Y15121223D01*
G04 #@! TO.C,U1603*
X45266976Y19377420D02*
X46076500Y19377420D01*
X46171738Y19415515D01*
X46219357Y19453610D01*
X46266976Y19529801D01*
X46266976Y19682181D01*
X46219357Y19758372D01*
X46171738Y19796467D01*
X46076500Y19834562D01*
X45266976Y19834562D01*
X46266976Y20634562D02*
X46266976Y20177420D01*
X46266976Y20405991D02*
X45266976Y20405991D01*
X45409834Y20329801D01*
X45505072Y20253610D01*
X45552691Y20177420D01*
X45266976Y21320277D02*
X45266976Y21167896D01*
X45314596Y21091705D01*
X45362215Y21053610D01*
X45505072Y20977420D01*
X45695548Y20939324D01*
X46076500Y20939324D01*
X46171738Y20977420D01*
X46219357Y21015515D01*
X46266976Y21091705D01*
X46266976Y21244086D01*
X46219357Y21320277D01*
X46171738Y21358372D01*
X46076500Y21396467D01*
X45838405Y21396467D01*
X45743167Y21358372D01*
X45695548Y21320277D01*
X45647929Y21244086D01*
X45647929Y21091705D01*
X45695548Y21015515D01*
X45743167Y20977420D01*
X45838405Y20939324D01*
X45266976Y21891705D02*
X45266976Y21967896D01*
X45314596Y22044086D01*
X45362215Y22082181D01*
X45457453Y22120277D01*
X45647929Y22158372D01*
X45886024Y22158372D01*
X46076500Y22120277D01*
X46171738Y22082181D01*
X46219357Y22044086D01*
X46266976Y21967896D01*
X46266976Y21891705D01*
X46219357Y21815515D01*
X46171738Y21777420D01*
X46076500Y21739324D01*
X45886024Y21701229D01*
X45647929Y21701229D01*
X45457453Y21739324D01*
X45362215Y21777420D01*
X45314596Y21815515D01*
X45266976Y21891705D01*
X45266976Y22425039D02*
X45266976Y22920277D01*
X45647929Y22653610D01*
X45647929Y22767896D01*
X45695548Y22844086D01*
X45743167Y22882181D01*
X45838405Y22920277D01*
X46076500Y22920277D01*
X46171738Y22882181D01*
X46219357Y22844086D01*
X46266976Y22767896D01*
X46266976Y22539324D01*
X46219357Y22463134D01*
X46171738Y22425039D01*
G04 #@! TO.C,U1701*
X45161799Y24341789D02*
X45971323Y24341789D01*
X46066561Y24379884D01*
X46114180Y24417979D01*
X46161799Y24494170D01*
X46161799Y24646550D01*
X46114180Y24722741D01*
X46066561Y24760836D01*
X45971323Y24798931D01*
X45161799Y24798931D01*
X46161799Y25598931D02*
X46161799Y25141789D01*
X46161799Y25370360D02*
X45161799Y25370360D01*
X45304657Y25294170D01*
X45399895Y25217979D01*
X45447514Y25141789D01*
X45161799Y25865598D02*
X45161799Y26398931D01*
X46161799Y26056074D01*
X45161799Y26856074D02*
X45161799Y26932265D01*
X45209419Y27008455D01*
X45257038Y27046550D01*
X45352276Y27084646D01*
X45542752Y27122741D01*
X45780847Y27122741D01*
X45971323Y27084646D01*
X46066561Y27046550D01*
X46114180Y27008455D01*
X46161799Y26932265D01*
X46161799Y26856074D01*
X46114180Y26779884D01*
X46066561Y26741789D01*
X45971323Y26703693D01*
X45780847Y26665598D01*
X45542752Y26665598D01*
X45352276Y26703693D01*
X45257038Y26741789D01*
X45209419Y26779884D01*
X45161799Y26856074D01*
X46161799Y27884646D02*
X46161799Y27427503D01*
X46161799Y27656074D02*
X45161799Y27656074D01*
X45304657Y27579884D01*
X45399895Y27503693D01*
X45447514Y27427503D01*
G04 #@! TO.C,U1702*
X45077657Y31514880D02*
X45887181Y31514880D01*
X45982419Y31552975D01*
X46030038Y31591070D01*
X46077657Y31667261D01*
X46077657Y31819641D01*
X46030038Y31895832D01*
X45982419Y31933927D01*
X45887181Y31972022D01*
X45077657Y31972022D01*
X46077657Y32772022D02*
X46077657Y32314880D01*
X46077657Y32543451D02*
X45077657Y32543451D01*
X45220515Y32467261D01*
X45315753Y32391070D01*
X45363372Y32314880D01*
X45077657Y33038689D02*
X45077657Y33572022D01*
X46077657Y33229165D01*
X45077657Y34029165D02*
X45077657Y34105356D01*
X45125277Y34181546D01*
X45172896Y34219641D01*
X45268134Y34257737D01*
X45458610Y34295832D01*
X45696705Y34295832D01*
X45887181Y34257737D01*
X45982419Y34219641D01*
X46030038Y34181546D01*
X46077657Y34105356D01*
X46077657Y34029165D01*
X46030038Y33952975D01*
X45982419Y33914880D01*
X45887181Y33876784D01*
X45696705Y33838689D01*
X45458610Y33838689D01*
X45268134Y33876784D01*
X45172896Y33914880D01*
X45125277Y33952975D01*
X45077657Y34029165D01*
X45172896Y34600594D02*
X45125277Y34638689D01*
X45077657Y34714880D01*
X45077657Y34905356D01*
X45125277Y34981546D01*
X45172896Y35019641D01*
X45268134Y35057737D01*
X45363372Y35057737D01*
X45506229Y35019641D01*
X46077657Y34562499D01*
X46077657Y35057737D01*
G04 #@! TO.C,R1503*
X100815380Y42473761D02*
X100339190Y42140428D01*
X100815380Y41902333D02*
X99815380Y41902333D01*
X99815380Y42283285D01*
X99863000Y42378523D01*
X99910619Y42426142D01*
X100005857Y42473761D01*
X100148714Y42473761D01*
X100243952Y42426142D01*
X100291571Y42378523D01*
X100339190Y42283285D01*
X100339190Y41902333D01*
X100815380Y43426142D02*
X100815380Y42854714D01*
X100815380Y43140428D02*
X99815380Y43140428D01*
X99958238Y43045190D01*
X100053476Y42949952D01*
X100101095Y42854714D01*
X99815380Y44330904D02*
X99815380Y43854714D01*
X100291571Y43807095D01*
X100243952Y43854714D01*
X100196333Y43949952D01*
X100196333Y44188047D01*
X100243952Y44283285D01*
X100291571Y44330904D01*
X100386809Y44378523D01*
X100624904Y44378523D01*
X100720142Y44330904D01*
X100767761Y44283285D01*
X100815380Y44188047D01*
X100815380Y43949952D01*
X100767761Y43854714D01*
X100720142Y43807095D01*
X99815380Y44997571D02*
X99815380Y45092809D01*
X99863000Y45188047D01*
X99910619Y45235666D01*
X100005857Y45283285D01*
X100196333Y45330904D01*
X100434428Y45330904D01*
X100624904Y45283285D01*
X100720142Y45235666D01*
X100767761Y45188047D01*
X100815380Y45092809D01*
X100815380Y44997571D01*
X100767761Y44902333D01*
X100720142Y44854714D01*
X100624904Y44807095D01*
X100434428Y44759476D01*
X100196333Y44759476D01*
X100005857Y44807095D01*
X99910619Y44854714D01*
X99863000Y44902333D01*
X99815380Y44997571D01*
X99815380Y45664238D02*
X99815380Y46283285D01*
X100196333Y45949952D01*
X100196333Y46092809D01*
X100243952Y46188047D01*
X100291571Y46235666D01*
X100386809Y46283285D01*
X100624904Y46283285D01*
X100720142Y46235666D01*
X100767761Y46188047D01*
X100815380Y46092809D01*
X100815380Y45807095D01*
X100767761Y45711857D01*
X100720142Y45664238D01*
G04 #@! TO.C,R50*
X100792893Y57805670D02*
X100459560Y58281860D01*
X100221465Y57805670D02*
X100221465Y58805670D01*
X100602417Y58805670D01*
X100697655Y58758051D01*
X100745274Y58710431D01*
X100792893Y58615193D01*
X100792893Y58472336D01*
X100745274Y58377098D01*
X100697655Y58329479D01*
X100602417Y58281860D01*
X100221465Y58281860D01*
X101697655Y58805670D02*
X101221465Y58805670D01*
X101173846Y58329479D01*
X101221465Y58377098D01*
X101316703Y58424717D01*
X101554798Y58424717D01*
X101650036Y58377098D01*
X101697655Y58329479D01*
X101745274Y58234241D01*
X101745274Y57996146D01*
X101697655Y57900908D01*
X101650036Y57853289D01*
X101554798Y57805670D01*
X101316703Y57805670D01*
X101221465Y57853289D01*
X101173846Y57900908D01*
X102364322Y58805670D02*
X102459560Y58805670D01*
X102554798Y58758051D01*
X102602417Y58710431D01*
X102650036Y58615193D01*
X102697655Y58424717D01*
X102697655Y58186622D01*
X102650036Y57996146D01*
X102602417Y57900908D01*
X102554798Y57853289D01*
X102459560Y57805670D01*
X102364322Y57805670D01*
X102269084Y57853289D01*
X102221465Y57900908D01*
X102173846Y57996146D01*
X102126227Y58186622D01*
X102126227Y58424717D01*
X102173846Y58615193D01*
X102221465Y58710431D01*
X102269084Y58758051D01*
X102364322Y58805670D01*
G04 #@! TO.C,R53*
X113778348Y60372452D02*
X113445015Y60848642D01*
X113206920Y60372452D02*
X113206920Y61372452D01*
X113587872Y61372452D01*
X113683110Y61324833D01*
X113730729Y61277213D01*
X113778348Y61181975D01*
X113778348Y61039118D01*
X113730729Y60943880D01*
X113683110Y60896261D01*
X113587872Y60848642D01*
X113206920Y60848642D01*
X114683110Y61372452D02*
X114206920Y61372452D01*
X114159301Y60896261D01*
X114206920Y60943880D01*
X114302158Y60991499D01*
X114540253Y60991499D01*
X114635491Y60943880D01*
X114683110Y60896261D01*
X114730729Y60801023D01*
X114730729Y60562928D01*
X114683110Y60467690D01*
X114635491Y60420071D01*
X114540253Y60372452D01*
X114302158Y60372452D01*
X114206920Y60420071D01*
X114159301Y60467690D01*
X115064063Y61372452D02*
X115683110Y61372452D01*
X115349777Y60991499D01*
X115492634Y60991499D01*
X115587872Y60943880D01*
X115635491Y60896261D01*
X115683110Y60801023D01*
X115683110Y60562928D01*
X115635491Y60467690D01*
X115587872Y60420071D01*
X115492634Y60372452D01*
X115206920Y60372452D01*
X115111682Y60420071D01*
X115064063Y60467690D01*
G04 #@! TO.C,D6*
X90392784Y63590407D02*
X90392784Y64590407D01*
X90630880Y64590407D01*
X90773737Y64542788D01*
X90868975Y64447549D01*
X90916594Y64352311D01*
X90964213Y64161835D01*
X90964213Y64018978D01*
X90916594Y63828502D01*
X90868975Y63733264D01*
X90773737Y63638026D01*
X90630880Y63590407D01*
X90392784Y63590407D01*
X91821356Y64590407D02*
X91630880Y64590407D01*
X91535641Y64542788D01*
X91488022Y64495168D01*
X91392784Y64352311D01*
X91345165Y64161835D01*
X91345165Y63780883D01*
X91392784Y63685645D01*
X91440403Y63638026D01*
X91535641Y63590407D01*
X91726118Y63590407D01*
X91821356Y63638026D01*
X91868975Y63685645D01*
X91916594Y63780883D01*
X91916594Y64018978D01*
X91868975Y64114216D01*
X91821356Y64161835D01*
X91726118Y64209454D01*
X91535641Y64209454D01*
X91440403Y64161835D01*
X91392784Y64114216D01*
X91345165Y64018978D01*
G04 #@! TO.C,U27*
X84705659Y62407343D02*
X84705659Y61597819D01*
X84753278Y61502581D01*
X84800897Y61454962D01*
X84896135Y61407343D01*
X85086612Y61407343D01*
X85181850Y61454962D01*
X85229469Y61502581D01*
X85277088Y61597819D01*
X85277088Y62407343D01*
X85705659Y62312104D02*
X85753278Y62359724D01*
X85848516Y62407343D01*
X86086612Y62407343D01*
X86181850Y62359724D01*
X86229469Y62312104D01*
X86277088Y62216866D01*
X86277088Y62121628D01*
X86229469Y61978771D01*
X85658040Y61407343D01*
X86277088Y61407343D01*
X86610421Y62407343D02*
X87277088Y62407343D01*
X86848516Y61407343D01*
G04 #@! TO.C,U25*
X113059980Y63844519D02*
X113059980Y63034995D01*
X113107599Y62939757D01*
X113155218Y62892138D01*
X113250456Y62844519D01*
X113440933Y62844519D01*
X113536171Y62892138D01*
X113583790Y62939757D01*
X113631409Y63034995D01*
X113631409Y63844519D01*
X114059980Y63749280D02*
X114107599Y63796900D01*
X114202837Y63844519D01*
X114440933Y63844519D01*
X114536171Y63796900D01*
X114583790Y63749280D01*
X114631409Y63654042D01*
X114631409Y63558804D01*
X114583790Y63415947D01*
X114012361Y62844519D01*
X114631409Y62844519D01*
X115536171Y63844519D02*
X115059980Y63844519D01*
X115012361Y63368328D01*
X115059980Y63415947D01*
X115155218Y63463566D01*
X115393314Y63463566D01*
X115488552Y63415947D01*
X115536171Y63368328D01*
X115583790Y63273090D01*
X115583790Y63034995D01*
X115536171Y62939757D01*
X115488552Y62892138D01*
X115393314Y62844519D01*
X115155218Y62844519D01*
X115059980Y62892138D01*
X115012361Y62939757D01*
G04 #@! TO.C,U6*
X81506366Y34983439D02*
X81506366Y34173915D01*
X81553985Y34078677D01*
X81601604Y34031058D01*
X81696842Y33983439D01*
X81887318Y33983439D01*
X81982556Y34031058D01*
X82030175Y34078677D01*
X82077794Y34173915D01*
X82077794Y34983439D01*
X82982556Y34983439D02*
X82792080Y34983439D01*
X82696842Y34935820D01*
X82649223Y34888200D01*
X82553985Y34745343D01*
X82506366Y34554867D01*
X82506366Y34173915D01*
X82553985Y34078677D01*
X82601604Y34031058D01*
X82696842Y33983439D01*
X82887318Y33983439D01*
X82982556Y34031058D01*
X83030175Y34078677D01*
X83077794Y34173915D01*
X83077794Y34412010D01*
X83030175Y34507248D01*
X82982556Y34554867D01*
X82887318Y34602486D01*
X82696842Y34602486D01*
X82601604Y34554867D01*
X82553985Y34507248D01*
X82506366Y34412010D01*
G04 #@! TO.C,C29*
X103999003Y63830080D02*
X103951384Y63782461D01*
X103808527Y63734842D01*
X103713289Y63734842D01*
X103570432Y63782461D01*
X103475194Y63877699D01*
X103427575Y63972937D01*
X103379956Y64163413D01*
X103379956Y64306270D01*
X103427575Y64496746D01*
X103475194Y64591984D01*
X103570432Y64687223D01*
X103713289Y64734842D01*
X103808527Y64734842D01*
X103951384Y64687223D01*
X103999003Y64639603D01*
X104379956Y64639603D02*
X104427575Y64687223D01*
X104522813Y64734842D01*
X104760908Y64734842D01*
X104856146Y64687223D01*
X104903765Y64639603D01*
X104951384Y64544365D01*
X104951384Y64449127D01*
X104903765Y64306270D01*
X104332337Y63734842D01*
X104951384Y63734842D01*
X105427575Y63734842D02*
X105618051Y63734842D01*
X105713289Y63782461D01*
X105760908Y63830080D01*
X105856146Y63972937D01*
X105903765Y64163413D01*
X105903765Y64544365D01*
X105856146Y64639603D01*
X105808527Y64687223D01*
X105713289Y64734842D01*
X105522813Y64734842D01*
X105427575Y64687223D01*
X105379956Y64639603D01*
X105332337Y64544365D01*
X105332337Y64306270D01*
X105379956Y64211032D01*
X105427575Y64163413D01*
X105522813Y64115794D01*
X105713289Y64115794D01*
X105808527Y64163413D01*
X105856146Y64211032D01*
X105903765Y64306270D01*
G04 #@! TO.C,C28*
X113664690Y61698988D02*
X113617071Y61651369D01*
X113474214Y61603750D01*
X113378976Y61603750D01*
X113236119Y61651369D01*
X113140881Y61746607D01*
X113093262Y61841845D01*
X113045643Y62032321D01*
X113045643Y62175178D01*
X113093262Y62365654D01*
X113140881Y62460892D01*
X113236119Y62556131D01*
X113378976Y62603750D01*
X113474214Y62603750D01*
X113617071Y62556131D01*
X113664690Y62508511D01*
X114045643Y62508511D02*
X114093262Y62556131D01*
X114188500Y62603750D01*
X114426595Y62603750D01*
X114521833Y62556131D01*
X114569452Y62508511D01*
X114617071Y62413273D01*
X114617071Y62318035D01*
X114569452Y62175178D01*
X113998024Y61603750D01*
X114617071Y61603750D01*
X115188500Y62175178D02*
X115093262Y62222797D01*
X115045643Y62270416D01*
X114998024Y62365654D01*
X114998024Y62413273D01*
X115045643Y62508511D01*
X115093262Y62556131D01*
X115188500Y62603750D01*
X115378976Y62603750D01*
X115474214Y62556131D01*
X115521833Y62508511D01*
X115569452Y62413273D01*
X115569452Y62365654D01*
X115521833Y62270416D01*
X115474214Y62222797D01*
X115378976Y62175178D01*
X115188500Y62175178D01*
X115093262Y62127559D01*
X115045643Y62079940D01*
X114998024Y61984702D01*
X114998024Y61794226D01*
X115045643Y61698988D01*
X115093262Y61651369D01*
X115188500Y61603750D01*
X115378976Y61603750D01*
X115474214Y61651369D01*
X115521833Y61698988D01*
X115569452Y61794226D01*
X115569452Y61984702D01*
X115521833Y62079940D01*
X115474214Y62127559D01*
X115378976Y62175178D01*
G04 #@! TO.C,U14*
X37067157Y63448740D02*
X37067157Y62639216D01*
X37114776Y62543978D01*
X37162395Y62496359D01*
X37257633Y62448740D01*
X37448110Y62448740D01*
X37543348Y62496359D01*
X37590967Y62543978D01*
X37638586Y62639216D01*
X37638586Y63448740D01*
X38638586Y62448740D02*
X38067157Y62448740D01*
X38352872Y62448740D02*
X38352872Y63448740D01*
X38257633Y63305882D01*
X38162395Y63210644D01*
X38067157Y63163025D01*
X39495729Y63115406D02*
X39495729Y62448740D01*
X39257633Y63496359D02*
X39019538Y62782073D01*
X39638586Y62782073D01*
G04 #@! TO.C,C18*
X75168241Y62835433D02*
X75120622Y62787814D01*
X74977765Y62740195D01*
X74882527Y62740195D01*
X74739670Y62787814D01*
X74644432Y62883052D01*
X74596813Y62978290D01*
X74549194Y63168766D01*
X74549194Y63311623D01*
X74596813Y63502099D01*
X74644432Y63597337D01*
X74739670Y63692576D01*
X74882527Y63740195D01*
X74977765Y63740195D01*
X75120622Y63692576D01*
X75168241Y63644956D01*
X76120622Y62740195D02*
X75549194Y62740195D01*
X75834908Y62740195D02*
X75834908Y63740195D01*
X75739670Y63597337D01*
X75644432Y63502099D01*
X75549194Y63454480D01*
X76692051Y63311623D02*
X76596813Y63359242D01*
X76549194Y63406861D01*
X76501575Y63502099D01*
X76501575Y63549718D01*
X76549194Y63644956D01*
X76596813Y63692576D01*
X76692051Y63740195D01*
X76882527Y63740195D01*
X76977765Y63692576D01*
X77025384Y63644956D01*
X77073003Y63549718D01*
X77073003Y63502099D01*
X77025384Y63406861D01*
X76977765Y63359242D01*
X76882527Y63311623D01*
X76692051Y63311623D01*
X76596813Y63264004D01*
X76549194Y63216385D01*
X76501575Y63121147D01*
X76501575Y62930671D01*
X76549194Y62835433D01*
X76596813Y62787814D01*
X76692051Y62740195D01*
X76882527Y62740195D01*
X76977765Y62787814D01*
X77025384Y62835433D01*
X77073003Y62930671D01*
X77073003Y63121147D01*
X77025384Y63216385D01*
X76977765Y63264004D01*
X76882527Y63311623D01*
G04 #@! TO.C,U1208*
X97768883Y25266208D02*
X98341303Y24693788D01*
X98442318Y24660117D01*
X98509661Y24660117D01*
X98610677Y24693788D01*
X98745364Y24828475D01*
X98779035Y24929491D01*
X98779035Y24996834D01*
X98745364Y25097849D01*
X98172944Y25670269D01*
X99587157Y25670269D02*
X99183096Y25266208D01*
X99385127Y25468239D02*
X98678020Y26175345D01*
X98711692Y26006987D01*
X98711692Y25872300D01*
X98678020Y25771284D01*
X99216768Y26579406D02*
X99216768Y26646750D01*
X99250440Y26747765D01*
X99418799Y26916124D01*
X99519814Y26949796D01*
X99587157Y26949796D01*
X99688173Y26916124D01*
X99755516Y26848780D01*
X99822860Y26714093D01*
X99822860Y25905971D01*
X100260592Y26343704D01*
X99991218Y27488544D02*
X100058562Y27555887D01*
X100159577Y27589559D01*
X100226921Y27589559D01*
X100327936Y27555887D01*
X100496295Y27454872D01*
X100664653Y27286513D01*
X100765669Y27118154D01*
X100799340Y27017139D01*
X100799340Y26949796D01*
X100765669Y26848780D01*
X100698325Y26781437D01*
X100597310Y26747765D01*
X100529966Y26747765D01*
X100428951Y26781437D01*
X100260592Y26882452D01*
X100092234Y27050811D01*
X99991218Y27219170D01*
X99957547Y27320185D01*
X99957547Y27387528D01*
X99991218Y27488544D01*
X100934027Y27825261D02*
X100833012Y27791589D01*
X100765669Y27791589D01*
X100664653Y27825261D01*
X100630982Y27858933D01*
X100597310Y27959948D01*
X100597310Y28027292D01*
X100630982Y28128307D01*
X100765669Y28262994D01*
X100866684Y28296666D01*
X100934027Y28296666D01*
X101035043Y28262994D01*
X101068714Y28229322D01*
X101102386Y28128307D01*
X101102386Y28060963D01*
X101068714Y27959948D01*
X100934027Y27825261D01*
X100900356Y27724246D01*
X100900356Y27656902D01*
X100934027Y27555887D01*
X101068714Y27421200D01*
X101169730Y27387528D01*
X101237073Y27387528D01*
X101338088Y27421200D01*
X101472775Y27555887D01*
X101506447Y27656902D01*
X101506447Y27724246D01*
X101472775Y27825261D01*
X101338088Y27959948D01*
X101237073Y27993620D01*
X101169730Y27993620D01*
X101068714Y27959948D01*
G04 #@! TO.C,R51*
X113778348Y57540467D02*
X113445015Y58016657D01*
X113206920Y57540467D02*
X113206920Y58540467D01*
X113587872Y58540467D01*
X113683110Y58492848D01*
X113730729Y58445228D01*
X113778348Y58349990D01*
X113778348Y58207133D01*
X113730729Y58111895D01*
X113683110Y58064276D01*
X113587872Y58016657D01*
X113206920Y58016657D01*
X114683110Y58540467D02*
X114206920Y58540467D01*
X114159301Y58064276D01*
X114206920Y58111895D01*
X114302158Y58159514D01*
X114540253Y58159514D01*
X114635491Y58111895D01*
X114683110Y58064276D01*
X114730729Y57969038D01*
X114730729Y57730943D01*
X114683110Y57635705D01*
X114635491Y57588086D01*
X114540253Y57540467D01*
X114302158Y57540467D01*
X114206920Y57588086D01*
X114159301Y57635705D01*
X115683110Y57540467D02*
X115111682Y57540467D01*
X115397396Y57540467D02*
X115397396Y58540467D01*
X115302158Y58397609D01*
X115206920Y58302371D01*
X115111682Y58254752D01*
G04 #@! TO.C,R49*
X75558091Y65176759D02*
X75224758Y65652949D01*
X74986663Y65176759D02*
X74986663Y66176759D01*
X75367615Y66176759D01*
X75462853Y66129140D01*
X75510472Y66081520D01*
X75558091Y65986282D01*
X75558091Y65843425D01*
X75510472Y65748187D01*
X75462853Y65700568D01*
X75367615Y65652949D01*
X74986663Y65652949D01*
X76415234Y65843425D02*
X76415234Y65176759D01*
X76177139Y66224378D02*
X75939044Y65510092D01*
X76558091Y65510092D01*
X76986663Y65176759D02*
X77177139Y65176759D01*
X77272377Y65224378D01*
X77319996Y65271997D01*
X77415234Y65414854D01*
X77462853Y65605330D01*
X77462853Y65986282D01*
X77415234Y66081520D01*
X77367615Y66129140D01*
X77272377Y66176759D01*
X77081901Y66176759D01*
X76986663Y66129140D01*
X76939044Y66081520D01*
X76891425Y65986282D01*
X76891425Y65748187D01*
X76939044Y65652949D01*
X76986663Y65605330D01*
X77081901Y65557711D01*
X77272377Y65557711D01*
X77367615Y65605330D01*
X77415234Y65652949D01*
X77462853Y65748187D01*
G04 #@! TO.C,C19*
X75148748Y64043969D02*
X75101129Y63996350D01*
X74958272Y63948731D01*
X74863034Y63948731D01*
X74720177Y63996350D01*
X74624939Y64091588D01*
X74577320Y64186826D01*
X74529701Y64377302D01*
X74529701Y64520159D01*
X74577320Y64710635D01*
X74624939Y64805873D01*
X74720177Y64901112D01*
X74863034Y64948731D01*
X74958272Y64948731D01*
X75101129Y64901112D01*
X75148748Y64853492D01*
X76101129Y63948731D02*
X75529701Y63948731D01*
X75815415Y63948731D02*
X75815415Y64948731D01*
X75720177Y64805873D01*
X75624939Y64710635D01*
X75529701Y64663016D01*
X76577320Y63948731D02*
X76767796Y63948731D01*
X76863034Y63996350D01*
X76910653Y64043969D01*
X77005891Y64186826D01*
X77053510Y64377302D01*
X77053510Y64758254D01*
X77005891Y64853492D01*
X76958272Y64901112D01*
X76863034Y64948731D01*
X76672558Y64948731D01*
X76577320Y64901112D01*
X76529701Y64853492D01*
X76482082Y64758254D01*
X76482082Y64520159D01*
X76529701Y64424921D01*
X76577320Y64377302D01*
X76672558Y64329683D01*
X76863034Y64329683D01*
X76958272Y64377302D01*
X77005891Y64424921D01*
X77053510Y64520159D01*
G04 #@! TO.C,U13*
X44955454Y54960932D02*
X44955454Y54151408D01*
X45003073Y54056170D01*
X45050692Y54008551D01*
X45145930Y53960932D01*
X45336407Y53960932D01*
X45431645Y54008551D01*
X45479264Y54056170D01*
X45526883Y54151408D01*
X45526883Y54960932D01*
X46526883Y53960932D02*
X45955454Y53960932D01*
X46241169Y53960932D02*
X46241169Y54960932D01*
X46145930Y54818074D01*
X46050692Y54722836D01*
X45955454Y54675217D01*
X46860216Y54960932D02*
X47479264Y54960932D01*
X47145930Y54579979D01*
X47288788Y54579979D01*
X47384026Y54532360D01*
X47431645Y54484741D01*
X47479264Y54389503D01*
X47479264Y54151408D01*
X47431645Y54056170D01*
X47384026Y54008551D01*
X47288788Y53960932D01*
X47003073Y53960932D01*
X46907835Y54008551D01*
X46860216Y54056170D01*
G04 #@! TO.C,R37*
X72246299Y30118954D02*
X71912966Y30595144D01*
X71674871Y30118954D02*
X71674871Y31118954D01*
X72055823Y31118954D01*
X72151061Y31071335D01*
X72198680Y31023715D01*
X72246299Y30928477D01*
X72246299Y30785620D01*
X72198680Y30690382D01*
X72151061Y30642763D01*
X72055823Y30595144D01*
X71674871Y30595144D01*
X72579633Y31118954D02*
X73198680Y31118954D01*
X72865347Y30738001D01*
X73008204Y30738001D01*
X73103442Y30690382D01*
X73151061Y30642763D01*
X73198680Y30547525D01*
X73198680Y30309430D01*
X73151061Y30214192D01*
X73103442Y30166573D01*
X73008204Y30118954D01*
X72722490Y30118954D01*
X72627252Y30166573D01*
X72579633Y30214192D01*
X73532014Y31118954D02*
X74198680Y31118954D01*
X73770109Y30118954D01*
G04 #@! TO.C,U26*
X113306240Y59875952D02*
X113306240Y59066428D01*
X113353859Y58971190D01*
X113401478Y58923571D01*
X113496716Y58875952D01*
X113687193Y58875952D01*
X113782431Y58923571D01*
X113830050Y58971190D01*
X113877669Y59066428D01*
X113877669Y59875952D01*
X114306240Y59780713D02*
X114353859Y59828333D01*
X114449097Y59875952D01*
X114687193Y59875952D01*
X114782431Y59828333D01*
X114830050Y59780713D01*
X114877669Y59685475D01*
X114877669Y59590237D01*
X114830050Y59447380D01*
X114258621Y58875952D01*
X114877669Y58875952D01*
X115734812Y59875952D02*
X115544336Y59875952D01*
X115449097Y59828333D01*
X115401478Y59780713D01*
X115306240Y59637856D01*
X115258621Y59447380D01*
X115258621Y59066428D01*
X115306240Y58971190D01*
X115353859Y58923571D01*
X115449097Y58875952D01*
X115639574Y58875952D01*
X115734812Y58923571D01*
X115782431Y58971190D01*
X115830050Y59066428D01*
X115830050Y59304523D01*
X115782431Y59399761D01*
X115734812Y59447380D01*
X115639574Y59494999D01*
X115449097Y59494999D01*
X115353859Y59447380D01*
X115306240Y59399761D01*
X115258621Y59304523D01*
G04 #@! TO.C,R52*
X100802364Y59283227D02*
X100469031Y59759417D01*
X100230936Y59283227D02*
X100230936Y60283227D01*
X100611888Y60283227D01*
X100707126Y60235608D01*
X100754745Y60187988D01*
X100802364Y60092750D01*
X100802364Y59949893D01*
X100754745Y59854655D01*
X100707126Y59807036D01*
X100611888Y59759417D01*
X100230936Y59759417D01*
X101707126Y60283227D02*
X101230936Y60283227D01*
X101183317Y59807036D01*
X101230936Y59854655D01*
X101326174Y59902274D01*
X101564269Y59902274D01*
X101659507Y59854655D01*
X101707126Y59807036D01*
X101754745Y59711798D01*
X101754745Y59473703D01*
X101707126Y59378465D01*
X101659507Y59330846D01*
X101564269Y59283227D01*
X101326174Y59283227D01*
X101230936Y59330846D01*
X101183317Y59378465D01*
X102135698Y60187988D02*
X102183317Y60235608D01*
X102278555Y60283227D01*
X102516650Y60283227D01*
X102611888Y60235608D01*
X102659507Y60187988D01*
X102707126Y60092750D01*
X102707126Y59997512D01*
X102659507Y59854655D01*
X102088079Y59283227D01*
X102707126Y59283227D01*
G04 #@! TO.C,C31*
X110643275Y63896381D02*
X110595656Y63848762D01*
X110452799Y63801143D01*
X110357561Y63801143D01*
X110214704Y63848762D01*
X110119466Y63944000D01*
X110071847Y64039238D01*
X110024228Y64229714D01*
X110024228Y64372571D01*
X110071847Y64563047D01*
X110119466Y64658285D01*
X110214704Y64753524D01*
X110357561Y64801143D01*
X110452799Y64801143D01*
X110595656Y64753524D01*
X110643275Y64705904D01*
X110976609Y64801143D02*
X111595656Y64801143D01*
X111262323Y64420190D01*
X111405180Y64420190D01*
X111500418Y64372571D01*
X111548037Y64324952D01*
X111595656Y64229714D01*
X111595656Y63991619D01*
X111548037Y63896381D01*
X111500418Y63848762D01*
X111405180Y63801143D01*
X111119466Y63801143D01*
X111024228Y63848762D01*
X110976609Y63896381D01*
X112548037Y63801143D02*
X111976609Y63801143D01*
X112262323Y63801143D02*
X112262323Y64801143D01*
X112167085Y64658285D01*
X112071847Y64563047D01*
X111976609Y64515428D01*
G04 #@! TO.C,U10*
X111138717Y35732676D02*
X111138717Y34923152D01*
X111186336Y34827914D01*
X111233955Y34780295D01*
X111329193Y34732676D01*
X111519670Y34732676D01*
X111614908Y34780295D01*
X111662527Y34827914D01*
X111710146Y34923152D01*
X111710146Y35732676D01*
X112710146Y34732676D02*
X112138717Y34732676D01*
X112424432Y34732676D02*
X112424432Y35732676D01*
X112329193Y35589818D01*
X112233955Y35494580D01*
X112138717Y35446961D01*
X113329193Y35732676D02*
X113424432Y35732676D01*
X113519670Y35685057D01*
X113567289Y35637437D01*
X113614908Y35542199D01*
X113662527Y35351723D01*
X113662527Y35113628D01*
X113614908Y34923152D01*
X113567289Y34827914D01*
X113519670Y34780295D01*
X113424432Y34732676D01*
X113329193Y34732676D01*
X113233955Y34780295D01*
X113186336Y34827914D01*
X113138717Y34923152D01*
X113091098Y35113628D01*
X113091098Y35351723D01*
X113138717Y35542199D01*
X113186336Y35637437D01*
X113233955Y35685057D01*
X113329193Y35732676D01*
G04 #@! TO.C,U12*
X56925721Y57876326D02*
X57735245Y57876326D01*
X57830483Y57923945D01*
X57878102Y57971564D01*
X57925721Y58066802D01*
X57925721Y58257279D01*
X57878102Y58352517D01*
X57830483Y58400136D01*
X57735245Y58447755D01*
X56925721Y58447755D01*
X57925721Y59447755D02*
X57925721Y58876326D01*
X57925721Y59162041D02*
X56925721Y59162041D01*
X57068579Y59066802D01*
X57163817Y58971564D01*
X57211436Y58876326D01*
X57020960Y59828707D02*
X56973341Y59876326D01*
X56925721Y59971564D01*
X56925721Y60209660D01*
X56973341Y60304898D01*
X57020960Y60352517D01*
X57116198Y60400136D01*
X57211436Y60400136D01*
X57354293Y60352517D01*
X57925721Y59781088D01*
X57925721Y60400136D01*
G04 #@! TO.C,R36*
X87184334Y31167815D02*
X86611915Y31268830D01*
X86780273Y30763754D02*
X86073167Y31470861D01*
X86342541Y31740235D01*
X86443556Y31773907D01*
X86510899Y31773907D01*
X86611915Y31740235D01*
X86712930Y31639220D01*
X86746602Y31538204D01*
X86746602Y31470861D01*
X86712930Y31369846D01*
X86443556Y31100472D01*
X86712930Y32110624D02*
X87150663Y32548357D01*
X87184334Y32043281D01*
X87285350Y32144296D01*
X87386365Y32177968D01*
X87453709Y32177968D01*
X87554724Y32144296D01*
X87723083Y31975937D01*
X87756754Y31874922D01*
X87756754Y31807578D01*
X87723083Y31706563D01*
X87521052Y31504533D01*
X87420037Y31470861D01*
X87352693Y31470861D01*
X87756754Y33154449D02*
X87622067Y33019762D01*
X87588396Y32918746D01*
X87588396Y32851403D01*
X87622067Y32683044D01*
X87723083Y32514685D01*
X87992457Y32245311D01*
X88093472Y32211640D01*
X88160815Y32211640D01*
X88261831Y32245311D01*
X88396518Y32379998D01*
X88430189Y32481014D01*
X88430189Y32548357D01*
X88396518Y32649372D01*
X88228159Y32817731D01*
X88127144Y32851403D01*
X88059800Y32851403D01*
X87958785Y32817731D01*
X87824098Y32683044D01*
X87790426Y32582029D01*
X87790426Y32514685D01*
X87824098Y32413670D01*
G04 #@! TO.C,C33*
X86041024Y67159313D02*
X85993405Y67111694D01*
X85850548Y67064075D01*
X85755310Y67064075D01*
X85612453Y67111694D01*
X85517215Y67206932D01*
X85469596Y67302170D01*
X85421977Y67492646D01*
X85421977Y67635503D01*
X85469596Y67825979D01*
X85517215Y67921217D01*
X85612453Y68016456D01*
X85755310Y68064075D01*
X85850548Y68064075D01*
X85993405Y68016456D01*
X86041024Y67968836D01*
X86374358Y68064075D02*
X86993405Y68064075D01*
X86660072Y67683122D01*
X86802929Y67683122D01*
X86898167Y67635503D01*
X86945786Y67587884D01*
X86993405Y67492646D01*
X86993405Y67254551D01*
X86945786Y67159313D01*
X86898167Y67111694D01*
X86802929Y67064075D01*
X86517215Y67064075D01*
X86421977Y67111694D01*
X86374358Y67159313D01*
X87326739Y68064075D02*
X87945786Y68064075D01*
X87612453Y67683122D01*
X87755310Y67683122D01*
X87850548Y67635503D01*
X87898167Y67587884D01*
X87945786Y67492646D01*
X87945786Y67254551D01*
X87898167Y67159313D01*
X87850548Y67111694D01*
X87755310Y67064075D01*
X87469596Y67064075D01*
X87374358Y67111694D01*
X87326739Y67159313D01*
G04 #@! TO.C,U18*
X36877838Y44106636D02*
X36877838Y43297112D01*
X36925457Y43201874D01*
X36973076Y43154255D01*
X37068314Y43106636D01*
X37258791Y43106636D01*
X37354029Y43154255D01*
X37401648Y43201874D01*
X37449267Y43297112D01*
X37449267Y44106636D01*
X38449267Y43106636D02*
X37877838Y43106636D01*
X38163553Y43106636D02*
X38163553Y44106636D01*
X38068314Y43963778D01*
X37973076Y43868540D01*
X37877838Y43820921D01*
X39020695Y43678064D02*
X38925457Y43725683D01*
X38877838Y43773302D01*
X38830219Y43868540D01*
X38830219Y43916159D01*
X38877838Y44011397D01*
X38925457Y44059017D01*
X39020695Y44106636D01*
X39211172Y44106636D01*
X39306410Y44059017D01*
X39354029Y44011397D01*
X39401648Y43916159D01*
X39401648Y43868540D01*
X39354029Y43773302D01*
X39306410Y43725683D01*
X39211172Y43678064D01*
X39020695Y43678064D01*
X38925457Y43630445D01*
X38877838Y43582826D01*
X38830219Y43487588D01*
X38830219Y43297112D01*
X38877838Y43201874D01*
X38925457Y43154255D01*
X39020695Y43106636D01*
X39211172Y43106636D01*
X39306410Y43154255D01*
X39354029Y43201874D01*
X39401648Y43297112D01*
X39401648Y43487588D01*
X39354029Y43582826D01*
X39306410Y43630445D01*
X39211172Y43678064D01*
G04 #@! TO.C,R48*
X75168241Y61492674D02*
X74834908Y61968864D01*
X74596813Y61492674D02*
X74596813Y62492674D01*
X74977765Y62492674D01*
X75073003Y62445055D01*
X75120622Y62397435D01*
X75168241Y62302197D01*
X75168241Y62159340D01*
X75120622Y62064102D01*
X75073003Y62016483D01*
X74977765Y61968864D01*
X74596813Y61968864D01*
X76025384Y62159340D02*
X76025384Y61492674D01*
X75787289Y62540293D02*
X75549194Y61826007D01*
X76168241Y61826007D01*
X76692051Y62064102D02*
X76596813Y62111721D01*
X76549194Y62159340D01*
X76501575Y62254578D01*
X76501575Y62302197D01*
X76549194Y62397435D01*
X76596813Y62445055D01*
X76692051Y62492674D01*
X76882527Y62492674D01*
X76977765Y62445055D01*
X77025384Y62397435D01*
X77073003Y62302197D01*
X77073003Y62254578D01*
X77025384Y62159340D01*
X76977765Y62111721D01*
X76882527Y62064102D01*
X76692051Y62064102D01*
X76596813Y62016483D01*
X76549194Y61968864D01*
X76501575Y61873626D01*
X76501575Y61683150D01*
X76549194Y61587912D01*
X76596813Y61540293D01*
X76692051Y61492674D01*
X76882527Y61492674D01*
X76977765Y61540293D01*
X77025384Y61587912D01*
X77073003Y61683150D01*
X77073003Y61873626D01*
X77025384Y61968864D01*
X76977765Y62016483D01*
X76882527Y62064102D01*
G04 #@! TO.C,U7*
X99202794Y35504434D02*
X99202794Y34694910D01*
X99250413Y34599672D01*
X99298032Y34552053D01*
X99393270Y34504434D01*
X99583746Y34504434D01*
X99678984Y34552053D01*
X99726603Y34599672D01*
X99774222Y34694910D01*
X99774222Y35504434D01*
X100155175Y35504434D02*
X100821841Y35504434D01*
X100393270Y34504434D01*
G04 #@! TO.C,U20*
X49690298Y45819340D02*
X50499822Y45819340D01*
X50595060Y45866959D01*
X50642679Y45914578D01*
X50690298Y46009816D01*
X50690298Y46200293D01*
X50642679Y46295531D01*
X50595060Y46343150D01*
X50499822Y46390769D01*
X49690298Y46390769D01*
X49785537Y46819340D02*
X49737918Y46866959D01*
X49690298Y46962197D01*
X49690298Y47200293D01*
X49737918Y47295531D01*
X49785537Y47343150D01*
X49880775Y47390769D01*
X49976013Y47390769D01*
X50118870Y47343150D01*
X50690298Y46771721D01*
X50690298Y47390769D01*
X49690298Y48009816D02*
X49690298Y48105055D01*
X49737918Y48200293D01*
X49785537Y48247912D01*
X49880775Y48295531D01*
X50071251Y48343150D01*
X50309346Y48343150D01*
X50499822Y48295531D01*
X50595060Y48247912D01*
X50642679Y48200293D01*
X50690298Y48105055D01*
X50690298Y48009816D01*
X50642679Y47914578D01*
X50595060Y47866959D01*
X50499822Y47819340D01*
X50309346Y47771721D01*
X50071251Y47771721D01*
X49880775Y47819340D01*
X49785537Y47866959D01*
X49737918Y47914578D01*
X49690298Y48009816D01*
G04 #@! TO.C,IC1*
X81048610Y61407343D02*
X81048610Y62407343D01*
X82096229Y61502581D02*
X82048610Y61454962D01*
X81905753Y61407343D01*
X81810515Y61407343D01*
X81667658Y61454962D01*
X81572420Y61550200D01*
X81524801Y61645438D01*
X81477181Y61835914D01*
X81477181Y61978771D01*
X81524801Y62169247D01*
X81572420Y62264485D01*
X81667658Y62359724D01*
X81810515Y62407343D01*
X81905753Y62407343D01*
X82048610Y62359724D01*
X82096229Y62312104D01*
X83048610Y61407343D02*
X82477181Y61407343D01*
X82762896Y61407343D02*
X82762896Y62407343D01*
X82667658Y62264485D01*
X82572420Y62169247D01*
X82477181Y62121628D01*
G04 #@! TO.C,U1207*
X104308163Y33533836D02*
X104880583Y32961416D01*
X104981598Y32927745D01*
X105048941Y32927745D01*
X105149957Y32961416D01*
X105284644Y33096103D01*
X105318315Y33197119D01*
X105318315Y33264462D01*
X105284644Y33365477D01*
X104712224Y33937897D01*
X106126437Y33937897D02*
X105722376Y33533836D01*
X105924407Y33735867D02*
X105217300Y34442973D01*
X105250972Y34274615D01*
X105250972Y34139928D01*
X105217300Y34038912D01*
X105756048Y34847034D02*
X105756048Y34914378D01*
X105789720Y35015393D01*
X105958079Y35183752D01*
X106059094Y35217424D01*
X106126437Y35217424D01*
X106227453Y35183752D01*
X106294796Y35116408D01*
X106362140Y34981721D01*
X106362140Y34173599D01*
X106799872Y34611332D01*
X106530498Y35756172D02*
X106597842Y35823515D01*
X106698857Y35857187D01*
X106766201Y35857187D01*
X106867216Y35823515D01*
X107035575Y35722500D01*
X107203933Y35554141D01*
X107304949Y35385782D01*
X107338620Y35284767D01*
X107338620Y35217424D01*
X107304949Y35116408D01*
X107237605Y35049065D01*
X107136590Y35015393D01*
X107069246Y35015393D01*
X106968231Y35049065D01*
X106799872Y35150080D01*
X106631514Y35318439D01*
X106530498Y35486798D01*
X106496827Y35587813D01*
X106496827Y35655156D01*
X106530498Y35756172D01*
X107001903Y36227576D02*
X107473307Y36698981D01*
X107877368Y35688828D01*
G04 #@! TO.C,U19*
X57373498Y49427030D02*
X58183022Y49427030D01*
X58278260Y49474649D01*
X58325879Y49522268D01*
X58373498Y49617506D01*
X58373498Y49807983D01*
X58325879Y49903221D01*
X58278260Y49950840D01*
X58183022Y49998459D01*
X57373498Y49998459D01*
X58373498Y50998459D02*
X58373498Y50427030D01*
X58373498Y50712745D02*
X57373498Y50712745D01*
X57516356Y50617506D01*
X57611594Y50522268D01*
X57659213Y50427030D01*
X58373498Y51474649D02*
X58373498Y51665126D01*
X58325879Y51760364D01*
X58278260Y51807983D01*
X58135403Y51903221D01*
X57944927Y51950840D01*
X57563975Y51950840D01*
X57468737Y51903221D01*
X57421118Y51855602D01*
X57373498Y51760364D01*
X57373498Y51569887D01*
X57421118Y51474649D01*
X57468737Y51427030D01*
X57563975Y51379411D01*
X57802070Y51379411D01*
X57897308Y51427030D01*
X57944927Y51474649D01*
X57992546Y51569887D01*
X57992546Y51760364D01*
X57944927Y51855602D01*
X57897308Y51903221D01*
X57802070Y51950840D01*
G04 #@! TO.C,U15*
X52054921Y65499697D02*
X52054921Y64690173D01*
X52102540Y64594935D01*
X52150159Y64547316D01*
X52245397Y64499697D01*
X52435874Y64499697D01*
X52531112Y64547316D01*
X52578731Y64594935D01*
X52626350Y64690173D01*
X52626350Y65499697D01*
X53626350Y64499697D02*
X53054921Y64499697D01*
X53340636Y64499697D02*
X53340636Y65499697D01*
X53245397Y65356839D01*
X53150159Y65261601D01*
X53054921Y65213982D01*
X54531112Y65499697D02*
X54054921Y65499697D01*
X54007302Y65023506D01*
X54054921Y65071125D01*
X54150159Y65118744D01*
X54388255Y65118744D01*
X54483493Y65071125D01*
X54531112Y65023506D01*
X54578731Y64928268D01*
X54578731Y64690173D01*
X54531112Y64594935D01*
X54483493Y64547316D01*
X54388255Y64499697D01*
X54150159Y64499697D01*
X54054921Y64547316D01*
X54007302Y64594935D01*
G04 #@! TO.C,U22*
X50290167Y-1843937D02*
X51099691Y-1843937D01*
X51194929Y-1796318D01*
X51242548Y-1748699D01*
X51290167Y-1653461D01*
X51290167Y-1462984D01*
X51242548Y-1367746D01*
X51194929Y-1320127D01*
X51099691Y-1272508D01*
X50290167Y-1272508D01*
X50385406Y-843937D02*
X50337787Y-796318D01*
X50290167Y-701080D01*
X50290167Y-462984D01*
X50337787Y-367746D01*
X50385406Y-320127D01*
X50480644Y-272508D01*
X50575882Y-272508D01*
X50718739Y-320127D01*
X51290167Y-891556D01*
X51290167Y-272508D01*
X50385406Y108443D02*
X50337787Y156062D01*
X50290167Y251300D01*
X50290167Y489396D01*
X50337787Y584634D01*
X50385406Y632253D01*
X50480644Y679872D01*
X50575882Y679872D01*
X50718739Y632253D01*
X51290167Y60824D01*
X51290167Y679872D01*
G04 #@! TO.C,D5*
X75947085Y66669502D02*
X75947085Y67669502D01*
X76185181Y67669502D01*
X76328038Y67621883D01*
X76423276Y67526644D01*
X76470895Y67431406D01*
X76518514Y67240930D01*
X76518514Y67098073D01*
X76470895Y66907597D01*
X76423276Y66812359D01*
X76328038Y66717121D01*
X76185181Y66669502D01*
X75947085Y66669502D01*
X77423276Y67669502D02*
X76947085Y67669502D01*
X76899466Y67193311D01*
X76947085Y67240930D01*
X77042323Y67288549D01*
X77280419Y67288549D01*
X77375657Y67240930D01*
X77423276Y67193311D01*
X77470895Y67098073D01*
X77470895Y66859978D01*
X77423276Y66764740D01*
X77375657Y66717121D01*
X77280419Y66669502D01*
X77042323Y66669502D01*
X76947085Y66717121D01*
X76899466Y66764740D01*
G04 #@! TO.C,U1202*
X97103767Y30779447D02*
X97676187Y30207027D01*
X97777202Y30173356D01*
X97844545Y30173356D01*
X97945561Y30207027D01*
X98080248Y30341714D01*
X98113919Y30442730D01*
X98113919Y30510073D01*
X98080248Y30611088D01*
X97507828Y31183508D01*
X98922041Y31183508D02*
X98517980Y30779447D01*
X98720011Y30981478D02*
X98012904Y31688584D01*
X98046576Y31520226D01*
X98046576Y31385539D01*
X98012904Y31284523D01*
X98551652Y32092645D02*
X98551652Y32159989D01*
X98585324Y32261004D01*
X98753683Y32429363D01*
X98854698Y32463035D01*
X98922041Y32463035D01*
X99023057Y32429363D01*
X99090400Y32362019D01*
X99157744Y32227332D01*
X99157744Y31419210D01*
X99595476Y31856943D01*
X99326102Y33001783D02*
X99393446Y33069126D01*
X99494461Y33102798D01*
X99561805Y33102798D01*
X99662820Y33069126D01*
X99831179Y32968111D01*
X99999537Y32799752D01*
X100100553Y32631393D01*
X100134224Y32530378D01*
X100134224Y32463035D01*
X100100553Y32362019D01*
X100033209Y32294676D01*
X99932194Y32261004D01*
X99864850Y32261004D01*
X99763835Y32294676D01*
X99595476Y32395691D01*
X99427118Y32564050D01*
X99326102Y32732409D01*
X99292431Y32833424D01*
X99292431Y32900767D01*
X99326102Y33001783D01*
X99898522Y33439515D02*
X99898522Y33506859D01*
X99932194Y33607874D01*
X100100553Y33776233D01*
X100201568Y33809905D01*
X100268911Y33809905D01*
X100369927Y33776233D01*
X100437270Y33708889D01*
X100504614Y33574202D01*
X100504614Y32766080D01*
X100942346Y33203813D01*
G04 #@! TO.C,U11*
X72777071Y24394454D02*
X72777071Y23584930D01*
X72824690Y23489692D01*
X72872309Y23442073D01*
X72967547Y23394454D01*
X73158024Y23394454D01*
X73253262Y23442073D01*
X73300881Y23489692D01*
X73348500Y23584930D01*
X73348500Y24394454D01*
X74348500Y23394454D02*
X73777071Y23394454D01*
X74062786Y23394454D02*
X74062786Y24394454D01*
X73967547Y24251596D01*
X73872309Y24156358D01*
X73777071Y24108739D01*
X75300881Y23394454D02*
X74729452Y23394454D01*
X75015167Y23394454D02*
X75015167Y24394454D01*
X74919928Y24251596D01*
X74824690Y24156358D01*
X74729452Y24108739D01*
G04 #@! TO.C,U21*
X37892641Y5280597D02*
X37892641Y4471073D01*
X37940260Y4375835D01*
X37987879Y4328216D01*
X38083117Y4280597D01*
X38273594Y4280597D01*
X38368832Y4328216D01*
X38416451Y4375835D01*
X38464070Y4471073D01*
X38464070Y5280597D01*
X38892641Y5185358D02*
X38940260Y5232978D01*
X39035498Y5280597D01*
X39273594Y5280597D01*
X39368832Y5232978D01*
X39416451Y5185358D01*
X39464070Y5090120D01*
X39464070Y4994882D01*
X39416451Y4852025D01*
X38845022Y4280597D01*
X39464070Y4280597D01*
X40416451Y4280597D02*
X39845022Y4280597D01*
X40130737Y4280597D02*
X40130737Y5280597D01*
X40035498Y5137739D01*
X39940260Y5042501D01*
X39845022Y4994882D01*
G04 #@! TO.C,U24*
X40627251Y-3070478D02*
X40627251Y-3880002D01*
X40674870Y-3975240D01*
X40722489Y-4022859D01*
X40817727Y-4070478D01*
X41008204Y-4070478D01*
X41103442Y-4022859D01*
X41151061Y-3975240D01*
X41198680Y-3880002D01*
X41198680Y-3070478D01*
X41627251Y-3165717D02*
X41674870Y-3118098D01*
X41770108Y-3070478D01*
X42008204Y-3070478D01*
X42103442Y-3118098D01*
X42151061Y-3165717D01*
X42198680Y-3260955D01*
X42198680Y-3356193D01*
X42151061Y-3499050D01*
X41579632Y-4070478D01*
X42198680Y-4070478D01*
X43055823Y-3403812D02*
X43055823Y-4070478D01*
X42817727Y-3022859D02*
X42579632Y-3737145D01*
X43198680Y-3737145D01*
G04 #@! TO.C,C27*
X100830142Y60856857D02*
X100782523Y60809238D01*
X100639666Y60761619D01*
X100544428Y60761619D01*
X100401571Y60809238D01*
X100306333Y60904476D01*
X100258714Y60999714D01*
X100211095Y61190190D01*
X100211095Y61333047D01*
X100258714Y61523523D01*
X100306333Y61618761D01*
X100401571Y61714000D01*
X100544428Y61761619D01*
X100639666Y61761619D01*
X100782523Y61714000D01*
X100830142Y61666380D01*
X101211095Y61666380D02*
X101258714Y61714000D01*
X101353952Y61761619D01*
X101592047Y61761619D01*
X101687285Y61714000D01*
X101734904Y61666380D01*
X101782523Y61571142D01*
X101782523Y61475904D01*
X101734904Y61333047D01*
X101163476Y60761619D01*
X101782523Y60761619D01*
X102115857Y61761619D02*
X102782523Y61761619D01*
X102353952Y60761619D01*
G04 #@! TO.C,R54*
X81783287Y66293270D02*
X81449954Y66769460D01*
X81211859Y66293270D02*
X81211859Y67293270D01*
X81592811Y67293270D01*
X81688049Y67245651D01*
X81735668Y67198031D01*
X81783287Y67102793D01*
X81783287Y66959936D01*
X81735668Y66864698D01*
X81688049Y66817079D01*
X81592811Y66769460D01*
X81211859Y66769460D01*
X82688049Y67293270D02*
X82211859Y67293270D01*
X82164240Y66817079D01*
X82211859Y66864698D01*
X82307097Y66912317D01*
X82545192Y66912317D01*
X82640430Y66864698D01*
X82688049Y66817079D01*
X82735668Y66721841D01*
X82735668Y66483746D01*
X82688049Y66388508D01*
X82640430Y66340889D01*
X82545192Y66293270D01*
X82307097Y66293270D01*
X82211859Y66340889D01*
X82164240Y66388508D01*
X83592811Y66959936D02*
X83592811Y66293270D01*
X83354716Y67340889D02*
X83116621Y66626603D01*
X83735668Y66626603D01*
G04 #@! TO.C,C32*
X79539698Y62005299D02*
X79587317Y61957680D01*
X79634936Y61814823D01*
X79634936Y61719585D01*
X79587317Y61576728D01*
X79492079Y61481490D01*
X79396841Y61433871D01*
X79206365Y61386252D01*
X79063508Y61386252D01*
X78873032Y61433871D01*
X78777794Y61481490D01*
X78682556Y61576728D01*
X78634936Y61719585D01*
X78634936Y61814823D01*
X78682556Y61957680D01*
X78730175Y62005299D01*
X78634936Y62338633D02*
X78634936Y62957680D01*
X79015889Y62624347D01*
X79015889Y62767204D01*
X79063508Y62862442D01*
X79111127Y62910061D01*
X79206365Y62957680D01*
X79444460Y62957680D01*
X79539698Y62910061D01*
X79587317Y62862442D01*
X79634936Y62767204D01*
X79634936Y62481490D01*
X79587317Y62386252D01*
X79539698Y62338633D01*
X78730175Y63338633D02*
X78682556Y63386252D01*
X78634936Y63481490D01*
X78634936Y63719585D01*
X78682556Y63814823D01*
X78730175Y63862442D01*
X78825413Y63910061D01*
X78920651Y63910061D01*
X79063508Y63862442D01*
X79634936Y63291014D01*
X79634936Y63910061D01*
D10*
G04 #@! TO.C,C1015*
X112513326Y46413368D02*
X112513326Y46694528D01*
X111493326Y46413368D02*
X111493326Y46694528D01*
G04 #@! TO.C,R902*
X123487334Y20927317D02*
X123794616Y20927317D01*
X123487334Y21687317D02*
X123794616Y21687317D01*
G04 #@! TO.C,R903*
X123498553Y22876586D02*
X123805835Y22876586D01*
X123498553Y22116586D02*
X123805835Y22116586D01*
G04 #@! TO.C,R904*
X123476114Y23507806D02*
X123783396Y23507806D01*
X123476114Y24267806D02*
X123783396Y24267806D01*
G04 #@! TO.C,R1007*
X88041440Y-5901841D02*
X87824159Y-5684560D01*
X88578841Y-5364440D02*
X88361560Y-5147159D01*
G04 #@! TO.C,U801*
X107880000Y14224000D02*
X107880000Y16424000D01*
X107880000Y14224000D02*
X107880000Y10624000D01*
X113100000Y14224000D02*
X113100000Y16424000D01*
X113100000Y14224000D02*
X113100000Y12024000D01*
G04 #@! TO.C,U901*
X113538000Y23946000D02*
X115738000Y23946000D01*
X113538000Y18726000D02*
X111338000Y18726000D01*
X113538000Y18726000D02*
X117138000Y18726000D01*
X113538000Y23946000D02*
X111338000Y23946000D01*
D12*
G04 #@! TO.C,U1004*
X115334671Y50622123D02*
X115479671Y50622123D01*
X120434671Y50622123D02*
X120434671Y52022123D01*
X120484671Y50622123D02*
X120434671Y50622123D01*
X120484671Y50622123D02*
X120484671Y46472123D01*
X120484671Y46472123D02*
X120339671Y46472123D01*
X115334671Y50622123D02*
X115334671Y46472123D01*
X115334671Y46472123D02*
X115479671Y46472123D01*
G04 #@! TO.C,U1005*
X110753142Y50659989D02*
X110753142Y46509989D01*
X110703142Y50659989D02*
X110703142Y52059989D01*
X105603142Y50659989D02*
X105748142Y50659989D01*
X105603142Y50659989D02*
X105603142Y46509989D01*
X105603142Y46509989D02*
X105748142Y46509989D01*
X110753142Y50659989D02*
X110703142Y50659989D01*
X110753142Y46509989D02*
X110608142Y46509989D01*
D10*
G04 #@! TO.C,C1016*
X121029912Y50794349D02*
X121029912Y50513189D01*
X122049912Y50794349D02*
X122049912Y50513189D01*
G04 #@! TO.C,C1017*
X122204368Y46439918D02*
X122204368Y46721078D01*
X121184368Y46439918D02*
X121184368Y46721078D01*
G04 #@! TO.C,C1018*
X111386736Y50811178D02*
X111386736Y50530018D01*
X112406736Y50811178D02*
X112406736Y50530018D01*
G04 #@! TO.C,R1006*
X86998659Y-1684060D02*
X87215940Y-1901341D01*
X87536060Y-1146659D02*
X87753341Y-1363940D01*
G04 #@! TO.C,C701*
X108571420Y760000D02*
X108852580Y760000D01*
X108571420Y1780000D02*
X108852580Y1780000D01*
G04 #@! TO.C,C801*
X107190000Y15099420D02*
X107190000Y15380580D01*
X106170000Y15099420D02*
X106170000Y15380580D01*
G04 #@! TO.C,C901*
X118828686Y19825608D02*
X119109846Y19825608D01*
X118828686Y20845608D02*
X119109846Y20845608D01*
G04 #@! TO.C,C1518*
X82724970Y26804219D02*
X82923781Y27003030D01*
X83446219Y26082970D02*
X83645030Y26281781D01*
G04 #@! TO.C,C1521*
X91078164Y-5440000D02*
X91293836Y-5440000D01*
X91078164Y-4720000D02*
X91293836Y-4720000D01*
G04 #@! TO.C,C1503*
X79361420Y26160000D02*
X79642580Y26160000D01*
X79361420Y27180000D02*
X79642580Y27180000D01*
G04 #@! TO.C,C1505*
X94480781Y4365970D02*
X94281970Y4564781D01*
X95202030Y5087219D02*
X95003219Y5286030D01*
G04 #@! TO.C,C1506*
X95964030Y13977219D02*
X95765219Y14176030D01*
X95242781Y13255970D02*
X95043970Y13454781D01*
G04 #@! TO.C,C1507*
X72397219Y23320030D02*
X72596030Y23121219D01*
X71675970Y22598781D02*
X71874781Y22399970D01*
G04 #@! TO.C,C1501*
X97289219Y7413970D02*
X97488030Y7612781D01*
X96567970Y8135219D02*
X96766781Y8334030D01*
G04 #@! TO.C,C1502*
X97837970Y7119219D02*
X98036781Y7318030D01*
X98559219Y6397970D02*
X98758030Y6596781D01*
G04 #@! TO.C,C1101*
X101846781Y21637970D02*
X101647970Y21836781D01*
X102568030Y22359219D02*
X102369219Y22558030D01*
G04 #@! TO.C,FB1501*
X102786555Y6209404D02*
X102221404Y6774555D01*
X101994596Y5417445D02*
X101429445Y5982596D01*
G04 #@! TO.C,R901*
X119558674Y18478535D02*
X119865956Y18478535D01*
X119558674Y17718535D02*
X119865956Y17718535D01*
G04 #@! TO.C,R1502*
X96874359Y-380000D02*
X97181641Y-380000D01*
X96874359Y380000D02*
X97181641Y380000D01*
G04 #@! TO.C,R1101*
X123615795Y27024816D02*
X123141279Y27024816D01*
X123615795Y28069816D02*
X123141279Y28069816D01*
G04 #@! TO.C,R1102*
X123582136Y29651768D02*
X123107620Y29651768D01*
X123582136Y28606768D02*
X123107620Y28606768D01*
G04 #@! TO.C,R1103*
X123593356Y31312257D02*
X123118840Y31312257D01*
X123593356Y30267257D02*
X123118840Y30267257D01*
G04 #@! TO.C,R1104*
X119998258Y33923500D02*
X119523742Y33923500D01*
X119998258Y32878500D02*
X119523742Y32878500D01*
G04 #@! TO.C,RN701*
X119487074Y7367074D02*
X120487074Y7367074D01*
X119487074Y4007074D02*
X120487074Y4007074D01*
G04 #@! TO.C,RN801*
X121901709Y15192926D02*
X122901709Y15192926D01*
X121901709Y11832926D02*
X122901709Y11832926D01*
G04 #@! TO.C,RN901*
X119134000Y28096000D02*
X120134000Y28096000D01*
X119134000Y24736000D02*
X120134000Y24736000D01*
G04 #@! TO.C,RN1101*
X119134000Y29054000D02*
X120134000Y29054000D01*
X119134000Y32414000D02*
X120134000Y32414000D01*
G04 #@! TO.C,U1101*
X106493549Y26737549D02*
X104937914Y28293184D01*
X102802451Y23046451D02*
X101246816Y24602086D01*
X102802451Y23046451D02*
X105348036Y20500867D01*
X106493549Y26737549D02*
X108049184Y25181914D01*
G04 #@! TO.C,C1516*
X53296882Y38043142D02*
X53578042Y38043142D01*
X53296882Y37023142D02*
X53578042Y37023142D01*
G04 #@! TO.C,R1501*
X53757089Y35504875D02*
X54064371Y35504875D01*
X53757089Y36264875D02*
X54064371Y36264875D01*
G04 #@! TO.C,C1301*
X61728413Y47468283D02*
X61728413Y47187123D01*
X60708413Y47468283D02*
X60708413Y47187123D01*
G04 #@! TO.C,C1302*
X76605584Y59029287D02*
X76886744Y59029287D01*
X76605584Y58009287D02*
X76886744Y58009287D01*
G04 #@! TO.C,RN1301*
X64870175Y49264268D02*
X64870175Y50264268D01*
X68230175Y49264268D02*
X68230175Y50264268D01*
G04 #@! TO.C,C1523*
X97344133Y33696675D02*
X97344133Y33415515D01*
X98364133Y33696675D02*
X98364133Y33415515D01*
G04 #@! TO.C,R1504*
X98451641Y42290000D02*
X98144359Y42290000D01*
X98451641Y41530000D02*
X98144359Y41530000D01*
G04 #@! TO.C,U701*
X105340000Y6096000D02*
X105340000Y2496000D01*
X110560000Y6096000D02*
X110560000Y3896000D01*
X110560000Y6096000D02*
X110560000Y8296000D01*
X105340000Y6096000D02*
X105340000Y8296000D01*
G04 #@! TO.C,C1508*
X68587219Y20119630D02*
X68786030Y19920819D01*
X67865970Y19398381D02*
X68064781Y19199570D01*
G04 #@! TO.C,C1509*
X90416781Y18335970D02*
X90217970Y18534781D01*
X91138030Y19057219D02*
X90939219Y19256030D01*
G04 #@! TO.C,C1510*
X68328000Y4458580D02*
X68328000Y4177420D01*
X67308000Y4458580D02*
X67308000Y4177420D01*
G04 #@! TO.C,C1511*
X78118580Y-5336000D02*
X77837420Y-5336000D01*
X78118580Y-4316000D02*
X77837420Y-4316000D01*
G04 #@! TO.C,C1513*
X65153000Y10908420D02*
X65153000Y11189580D01*
X64133000Y10908420D02*
X64133000Y11189580D01*
G04 #@! TO.C,C1515*
X88185970Y1277219D02*
X88384781Y1476030D01*
X88907219Y555970D02*
X89106030Y754781D01*
G04 #@! TO.C,U1501*
X93625948Y11671751D02*
X94297699Y11000000D01*
X80000000Y25297699D02*
X79328249Y24625948D01*
X66374052Y10328249D02*
X65702301Y11000000D01*
X80671751Y-2625948D02*
X81583919Y-3538115D01*
X80671751Y24625948D02*
X80000000Y25297699D01*
X79328249Y-2625948D02*
X80000000Y-3297699D01*
X65702301Y11000000D02*
X66374052Y11671751D01*
X80000000Y-3297699D02*
X80671751Y-2625948D01*
X94297699Y11000000D02*
X93625948Y10328249D01*
G04 #@! TO.C,C1002*
X67704580Y35304000D02*
X67423420Y35304000D01*
X67704580Y36324000D02*
X67423420Y36324000D01*
G04 #@! TO.C,C1004*
X80568748Y35158000D02*
X81991252Y35158000D01*
X80568748Y36978000D02*
X81991252Y36978000D01*
G04 #@! TO.C,R1004*
X96409742Y47766500D02*
X96884258Y47766500D01*
X96409742Y46721500D02*
X96884258Y46721500D01*
G04 #@! TO.C,C1522*
X94341836Y-4720000D02*
X94126164Y-4720000D01*
X94341836Y-5440000D02*
X94126164Y-5440000D01*
G04 #@! TO.C,C1504*
X87836030Y22105219D02*
X87637219Y22304030D01*
X87114781Y21383970D02*
X86915970Y21582781D01*
G04 #@! TO.C,RN501*
X48038751Y-8805729D02*
X49038751Y-8805729D01*
X48038751Y-5445729D02*
X49038751Y-5445729D01*
G04 #@! TO.C,RN201*
X44047547Y39547586D02*
X44047547Y38547586D01*
X47407547Y39547586D02*
X47407547Y38547586D01*
G04 #@! TO.C,RN301*
X40227013Y39547586D02*
X40227013Y38547586D01*
X43587013Y39547586D02*
X43587013Y38547586D01*
G04 #@! TO.C,C1006*
X75821000Y47865420D02*
X75821000Y48146580D01*
X74801000Y47865420D02*
X74801000Y48146580D01*
G04 #@! TO.C,D903*
X77372000Y48386000D02*
X77372000Y45086000D01*
X77372000Y48386000D02*
X82772000Y48386000D01*
X77372000Y45086000D02*
X82772000Y45086000D01*
G04 #@! TO.C,RN202*
X59492921Y45276889D02*
X60492921Y45276889D01*
X59492921Y41916889D02*
X60492921Y41916889D01*
G04 #@! TO.C,RN302*
X55224059Y45276889D02*
X56224059Y45276889D01*
X55224059Y41916889D02*
X56224059Y41916889D01*
G04 #@! TO.C,RN502*
X70332197Y-6905853D02*
X69332197Y-6905853D01*
X70332197Y-3545853D02*
X69332197Y-3545853D01*
G04 #@! TO.C,C1604*
X39927944Y17530011D02*
X39927944Y17811171D01*
X38907944Y17530011D02*
X38907944Y17811171D01*
G04 #@! TO.C,C1605*
X36446025Y13908165D02*
X36727185Y13908165D01*
X36446025Y14928165D02*
X36727185Y14928165D01*
G04 #@! TO.C,C1606*
X36446025Y17481793D02*
X36727185Y17481793D01*
X36446025Y18501793D02*
X36727185Y18501793D01*
G04 #@! TO.C,C1607*
X41467852Y16938709D02*
X41467852Y16657549D01*
X40447852Y16938709D02*
X40447852Y16657549D01*
G04 #@! TO.C,C1608*
X36433030Y22049431D02*
X36714190Y22049431D01*
X36433030Y21029431D02*
X36714190Y21029431D01*
G04 #@! TO.C,C1609*
X36394045Y25597070D02*
X36675205Y25597070D01*
X36394045Y24577070D02*
X36675205Y24577070D01*
G04 #@! TO.C,C1701*
X38861411Y25698001D02*
X38861411Y25979161D01*
X39881411Y25698001D02*
X39881411Y25979161D01*
G04 #@! TO.C,C1702*
X36389345Y28150698D02*
X36670505Y28150698D01*
X36389345Y29170698D02*
X36670505Y29170698D01*
G04 #@! TO.C,C1703*
X36363355Y32705341D02*
X36644515Y32705341D01*
X36363355Y31685341D02*
X36644515Y31685341D01*
G04 #@! TO.C,C1704*
X36349088Y40505081D02*
X36630248Y40505081D01*
X36349088Y41525081D02*
X36630248Y41525081D01*
G04 #@! TO.C,C1705*
X36355060Y35335890D02*
X36636220Y35335890D01*
X36355060Y36355890D02*
X36636220Y36355890D01*
G04 #@! TO.C,C1706*
X36337365Y37915291D02*
X36618525Y37915291D01*
X36337365Y36895291D02*
X36618525Y36895291D01*
G04 #@! TO.C,R1601*
X36554467Y13372848D02*
X37008595Y13372848D01*
X36554467Y11902848D02*
X37008595Y11902848D01*
G04 #@! TO.C,R1602*
X36554467Y16933482D02*
X37008595Y16933482D01*
X36554467Y15463482D02*
X37008595Y15463482D01*
G04 #@! TO.C,R1603*
X36541472Y20494115D02*
X36995600Y20494115D01*
X36541472Y19024115D02*
X36995600Y19024115D01*
G04 #@! TO.C,R1604*
X36531326Y24054748D02*
X36985454Y24054748D01*
X36531326Y22584748D02*
X36985454Y22584748D01*
G04 #@! TO.C,R1701*
X36492341Y26132386D02*
X36946469Y26132386D01*
X36492341Y27602386D02*
X36946469Y27602386D01*
G04 #@! TO.C,R1702*
X36489492Y29706014D02*
X36943620Y29706014D01*
X36489492Y31176014D02*
X36943620Y31176014D01*
G04 #@! TO.C,R1703*
X36479346Y34709608D02*
X36933474Y34709608D01*
X36479346Y33239608D02*
X36933474Y33239608D01*
G04 #@! TO.C,R1704*
X36457529Y38486769D02*
X36911657Y38486769D01*
X36457529Y39956769D02*
X36911657Y39956769D01*
G04 #@! TO.C,U1602*
X41854508Y15070208D02*
X40354508Y15070208D01*
X41854508Y11850208D02*
X40354508Y11850208D01*
X41854508Y11850208D02*
X44779508Y11850208D01*
X41854508Y15070208D02*
X43354508Y15070208D01*
G04 #@! TO.C,U1603*
X41854508Y22652797D02*
X43354508Y22652797D01*
X41854508Y19432797D02*
X40354508Y19432797D01*
X41854508Y19432797D02*
X44779508Y19432797D01*
X41854508Y22652797D02*
X40354508Y22652797D01*
G04 #@! TO.C,U1701*
X41769230Y31357205D02*
X40269230Y31357205D01*
X41769230Y28137205D02*
X40269230Y28137205D01*
X41769230Y31357205D02*
X43269230Y31357205D01*
X41769230Y28137205D02*
X44694230Y28137205D01*
G04 #@! TO.C,U1702*
X41685573Y34962947D02*
X40185573Y34962947D01*
X41685573Y34962947D02*
X43185573Y34962947D01*
X41685573Y31742947D02*
X40185573Y31742947D01*
X41685573Y31742947D02*
X44610573Y31742947D01*
G04 #@! TO.C,D1502*
X71281000Y-7443000D02*
X68796000Y-7443000D01*
X68796000Y-8813000D02*
X71281000Y-8813000D01*
X71281000Y-8813000D02*
X71281000Y-7443000D01*
G04 #@! TO.C,R1508*
X71756000Y-7466359D02*
X71756000Y-7773641D01*
X72516000Y-7466359D02*
X72516000Y-7773641D01*
G04 #@! TO.C,RN1601*
X44664463Y18933702D02*
X45664463Y18933702D01*
X44664463Y15573702D02*
X45664463Y15573702D01*
G04 #@! TO.C,RN1701*
X43816447Y27703760D02*
X42816447Y27703760D01*
X43816447Y24343760D02*
X42816447Y24343760D01*
G04 #@! TO.C,C1204*
X110679903Y41330894D02*
X110679903Y41612054D01*
X109659903Y41330894D02*
X109659903Y41612054D01*
G04 #@! TO.C,C1208*
X102809940Y40243047D02*
X102809940Y40524207D01*
X103829940Y40243047D02*
X103829940Y40524207D01*
G04 #@! TO.C,C1402*
X114582196Y38238920D02*
X114582196Y38520080D01*
X115602196Y38238920D02*
X115602196Y38520080D01*
G04 #@! TO.C,C1403*
X121066828Y41325133D02*
X121066828Y41606293D01*
X120046828Y41325133D02*
X120046828Y41606293D01*
G04 #@! TO.C,C1404*
X121570828Y38277133D02*
X121570828Y38558293D01*
X122590828Y38277133D02*
X122590828Y38558293D01*
G04 #@! TO.C,C1405*
X117590632Y41309126D02*
X117590632Y41590286D01*
X116570632Y41309126D02*
X116570632Y41590286D01*
G04 #@! TO.C,C1406*
X119114632Y38261126D02*
X119114632Y38542286D01*
X118094632Y38261126D02*
X118094632Y38542286D01*
G04 #@! TO.C,C1407*
X105839131Y41277505D02*
X105839131Y41558665D01*
X106859131Y41277505D02*
X106859131Y41558665D01*
G04 #@! TO.C,C1408*
X108391702Y38239245D02*
X108391702Y38520405D01*
X107371702Y38239245D02*
X107371702Y38520405D01*
G04 #@! TO.C,R1201*
X111171403Y41708732D02*
X111171403Y41234216D01*
X112216403Y41708732D02*
X112216403Y41234216D01*
G04 #@! TO.C,R1202*
X110692403Y38186216D02*
X110692403Y38660732D01*
X109647403Y38186216D02*
X109647403Y38660732D01*
G04 #@! TO.C,R1203*
X102797440Y43668885D02*
X102797440Y43194369D01*
X103842440Y43668885D02*
X103842440Y43194369D01*
G04 #@! TO.C,R1204*
X101273440Y40146369D02*
X101273440Y40620885D01*
X102318440Y40146369D02*
X102318440Y40620885D01*
G04 #@! TO.C,R1401*
X114569696Y41664758D02*
X114569696Y41190242D01*
X115614696Y41664758D02*
X115614696Y41190242D01*
G04 #@! TO.C,R1402*
X114090696Y38142242D02*
X114090696Y38616758D01*
X113045696Y38142242D02*
X113045696Y38616758D01*
G04 #@! TO.C,R1403*
X122603328Y41702971D02*
X122603328Y41228455D01*
X121558328Y41702971D02*
X121558328Y41228455D01*
G04 #@! TO.C,R1404*
X121079328Y38180455D02*
X121079328Y38654971D01*
X120034328Y38180455D02*
X120034328Y38654971D01*
G04 #@! TO.C,R1405*
X119127132Y41686964D02*
X119127132Y41212448D01*
X118082132Y41686964D02*
X118082132Y41212448D01*
G04 #@! TO.C,R1406*
X117603132Y38164448D02*
X117603132Y38638964D01*
X116558132Y38164448D02*
X116558132Y38638964D01*
G04 #@! TO.C,R1407*
X108404202Y41665083D02*
X108404202Y41190567D01*
X107359202Y41665083D02*
X107359202Y41190567D01*
G04 #@! TO.C,C1409*
X123237957Y32960246D02*
X123519117Y32960246D01*
X123237957Y31940246D02*
X123519117Y31940246D01*
G04 #@! TO.C,R1408*
X106880202Y38142567D02*
X106880202Y38617083D01*
X105835202Y38142567D02*
X105835202Y38617083D01*
G04 #@! TO.C,C1401*
X113058196Y41286920D02*
X113058196Y41568080D01*
X114078196Y41286920D02*
X114078196Y41568080D01*
G04 #@! TO.C,C1207*
X102305940Y43291047D02*
X102305940Y43572207D01*
X101285940Y43291047D02*
X101285940Y43572207D01*
G04 #@! TO.C,C1205*
X111183903Y38282894D02*
X111183903Y38564054D01*
X112203903Y38282894D02*
X112203903Y38564054D01*
G04 #@! TO.C,C1519*
X64508781Y15795970D02*
X64309970Y15994781D01*
X65230030Y16517219D02*
X65031219Y16716030D01*
G04 #@! TO.C,C1512*
X71421970Y-246781D02*
X71620781Y-47970D01*
X72143219Y-968030D02*
X72342030Y-769219D01*
G04 #@! TO.C,D1503*
X64597462Y26742595D02*
X64597462Y30642595D01*
X62597462Y26742595D02*
X64597462Y26742595D01*
X62597462Y26742595D02*
X62597462Y30642595D01*
G04 #@! TO.C,F101*
X123099012Y66947561D02*
X121644884Y66947561D01*
X123099012Y68767561D02*
X121644884Y68767561D01*
G04 #@! TO.C,F102*
X121644884Y66344146D02*
X123099012Y66344146D01*
X121644884Y64524146D02*
X123099012Y64524146D01*
G04 #@! TO.C,D1504*
X76869000Y-8813000D02*
X76869000Y-7443000D01*
X74384000Y-8813000D02*
X76869000Y-8813000D01*
X76869000Y-7443000D02*
X74384000Y-7443000D01*
G04 #@! TO.C,D1505*
X80480000Y-8813000D02*
X82965000Y-8813000D01*
X82965000Y-8813000D02*
X82965000Y-7443000D01*
X82965000Y-7443000D02*
X80480000Y-7443000D01*
G04 #@! TO.C,D1506*
X86576000Y-8813000D02*
X89061000Y-8813000D01*
X89061000Y-8813000D02*
X89061000Y-7443000D01*
X89061000Y-7443000D02*
X86576000Y-7443000D01*
G04 #@! TO.C,D1507*
X95157000Y-8813000D02*
X95157000Y-7443000D01*
X95157000Y-7443000D02*
X92672000Y-7443000D01*
X92672000Y-8813000D02*
X95157000Y-8813000D01*
G04 #@! TO.C,R1509*
X78131641Y-8508000D02*
X77824359Y-8508000D01*
X78131641Y-7748000D02*
X77824359Y-7748000D01*
G04 #@! TO.C,R1510*
X84227641Y-7748000D02*
X83920359Y-7748000D01*
X84227641Y-8508000D02*
X83920359Y-8508000D01*
G04 #@! TO.C,R1511*
X90323641Y-8508000D02*
X90016359Y-8508000D01*
X90323641Y-7748000D02*
X90016359Y-7748000D01*
G04 #@! TO.C,R1512*
X96419641Y-7748000D02*
X96112359Y-7748000D01*
X96419641Y-8508000D02*
X96112359Y-8508000D01*
G04 #@! TO.C,J105*
X124341985Y55617435D02*
G75*
G03*
X124341985Y55617435I-1750000J0D01*
G01*
G04 #@! TO.C,J107*
X118911176Y55529842D02*
G75*
G03*
X118911176Y55529842I-1750000J0D01*
G01*
G04 #@! TO.C,J108*
X100048000Y16002000D02*
G75*
G03*
X100048000Y16002000I-1750000J0D01*
G01*
G04 #@! TO.C,U1502*
X62059201Y36579583D02*
X62059201Y35779583D01*
X62059201Y36579583D02*
X62059201Y37379583D01*
X58939201Y36579583D02*
X58939201Y34779583D01*
X58939201Y36579583D02*
X58939201Y37379583D01*
G04 #@! TO.C,D1*
X95487000Y45130000D02*
X95487000Y43720000D01*
X96147000Y43720000D02*
X95487000Y43720000D01*
X97807000Y43720000D02*
X97807000Y45750000D01*
X97807000Y43720000D02*
X97147000Y43720000D01*
G04 #@! TO.C,R1513*
X58673000Y7974359D02*
X58673000Y8281641D01*
X57913000Y7974359D02*
X57913000Y8281641D01*
G04 #@! TO.C,C1517*
X59942000Y14845420D02*
X59942000Y15126580D01*
X60962000Y14845420D02*
X60962000Y15126580D01*
G04 #@! TO.C,D1001*
X84989000Y46684000D02*
X93389000Y46684000D01*
X84989000Y40184000D02*
X93389000Y40184000D01*
X84989000Y40184000D02*
X84989000Y46684000D01*
G04 #@! TO.C,C1*
X116678567Y5845123D02*
X116462895Y5845123D01*
X116678567Y5125123D02*
X116462895Y5125123D01*
G04 #@! TO.C,C2*
X116641169Y6392357D02*
X116425497Y6392357D01*
X116641169Y7112357D02*
X116425497Y7112357D01*
G04 #@! TO.C,C3*
X116641169Y7641463D02*
X116425497Y7641463D01*
X116641169Y8361463D02*
X116425497Y8361463D01*
G04 #@! TO.C,C4*
X116576371Y9629269D02*
X116360699Y9629269D01*
X116576371Y8909269D02*
X116360699Y8909269D01*
G04 #@! TO.C,C5*
X119079250Y12470291D02*
X118863578Y12470291D01*
X119079250Y13190291D02*
X118863578Y13190291D01*
G04 #@! TO.C,C6*
X119079250Y13486291D02*
X118863578Y13486291D01*
X119079250Y14206291D02*
X118863578Y14206291D01*
G04 #@! TO.C,C7*
X119079250Y15222291D02*
X118863578Y15222291D01*
X119079250Y14502291D02*
X118863578Y14502291D01*
G04 #@! TO.C,C8*
X119079250Y15518291D02*
X118863578Y15518291D01*
X119079250Y16238291D02*
X118863578Y16238291D01*
G04 #@! TO.C,C9*
X116439836Y25252000D02*
X116224164Y25252000D01*
X116439836Y24532000D02*
X116224164Y24532000D01*
G04 #@! TO.C,C10*
X116439836Y26268000D02*
X116224164Y26268000D01*
X116439836Y25548000D02*
X116224164Y25548000D01*
G04 #@! TO.C,C11*
X116439836Y26564000D02*
X116224164Y26564000D01*
X116439836Y27284000D02*
X116224164Y27284000D01*
G04 #@! TO.C,C12*
X116439836Y28300000D02*
X116224164Y28300000D01*
X116439836Y27580000D02*
X116224164Y27580000D01*
G04 #@! TO.C,C13*
X116439836Y29570000D02*
X116224164Y29570000D01*
X116439836Y28850000D02*
X116224164Y28850000D01*
G04 #@! TO.C,C14*
X116439836Y30586000D02*
X116224164Y30586000D01*
X116439836Y29866000D02*
X116224164Y29866000D01*
G04 #@! TO.C,C15*
X116439836Y31602000D02*
X116224164Y31602000D01*
X116439836Y30882000D02*
X116224164Y30882000D01*
G04 #@! TO.C,C16*
X116439836Y32618000D02*
X116224164Y32618000D01*
X116439836Y31898000D02*
X116224164Y31898000D01*
G04 #@! TO.C,R2*
X111126000Y3455641D02*
X111126000Y3148359D01*
X111886000Y3455641D02*
X111886000Y3148359D01*
G04 #@! TO.C,R3*
X102970359Y10032000D02*
X103277641Y10032000D01*
X102970359Y9272000D02*
X103277641Y9272000D01*
G04 #@! TO.C,R5*
X105028000Y3455641D02*
X105028000Y3148359D01*
X104268000Y3455641D02*
X104268000Y3148359D01*
G04 #@! TO.C,R6*
X112167641Y5968000D02*
X111860359Y5968000D01*
X112167641Y5208000D02*
X111860359Y5208000D01*
G04 #@! TO.C,R7*
X103277641Y9016000D02*
X102970359Y9016000D01*
X103277641Y8256000D02*
X102970359Y8256000D01*
G04 #@! TO.C,R8*
X105028000Y6831359D02*
X105028000Y7138641D01*
X104268000Y6831359D02*
X104268000Y7138641D01*
G04 #@! TO.C,R10*
X114550249Y11456810D02*
X114550249Y11149528D01*
X113790249Y11456810D02*
X113790249Y11149528D01*
G04 #@! TO.C,R11*
X104830083Y16750382D02*
X104830083Y17057664D01*
X105590083Y16750382D02*
X105590083Y17057664D01*
G04 #@! TO.C,R12*
X107050598Y18631177D02*
X107050598Y18323895D01*
X106290598Y18631177D02*
X106290598Y18323895D01*
G04 #@! TO.C,R13*
X106227171Y13439024D02*
X106534453Y13439024D01*
X106227171Y12679024D02*
X106534453Y12679024D01*
G04 #@! TO.C,R14*
X115728298Y11132699D02*
X115728298Y11439981D01*
X114968298Y11132699D02*
X114968298Y11439981D01*
G04 #@! TO.C,R15*
X104811834Y14669938D02*
X104811834Y14977220D01*
X105571834Y14669938D02*
X105571834Y14977220D01*
G04 #@! TO.C,R16*
X108611641Y19176000D02*
X108304359Y19176000D01*
X108611641Y18416000D02*
X108304359Y18416000D01*
G04 #@! TO.C,R17*
X117608779Y17289773D02*
X117608779Y17597055D01*
X118368779Y17289773D02*
X118368779Y17597055D01*
G04 #@! TO.C,R18*
X118771641Y23496000D02*
X118464359Y23496000D01*
X118771641Y24256000D02*
X118464359Y24256000D01*
G04 #@! TO.C,R19*
X102268060Y20443341D02*
X102485341Y20226060D01*
X101730659Y19905940D02*
X101947940Y19688659D01*
G04 #@! TO.C,R20*
X108314002Y20303577D02*
X108621284Y20303577D01*
X108314002Y19543577D02*
X108621284Y19543577D01*
G04 #@! TO.C,R21*
X119859007Y17329755D02*
X119551725Y17329755D01*
X119859007Y16569755D02*
X119551725Y16569755D01*
G04 #@! TO.C,R22*
X119885834Y22412682D02*
X119578552Y22412682D01*
X119885834Y23172682D02*
X119578552Y23172682D01*
G04 #@! TO.C,R23*
X100744060Y21967341D02*
X100961341Y21750060D01*
X100206659Y21429940D02*
X100423940Y21212659D01*
G04 #@! TO.C,R24*
X108525853Y21635484D02*
X108525853Y21328202D01*
X109285853Y21635484D02*
X109285853Y21328202D01*
G04 #@! TO.C,R25*
X107565341Y28033940D02*
X107348060Y27816659D01*
X107027940Y28571341D02*
X106810659Y28354060D01*
G04 #@! TO.C,R26*
X109089341Y27017940D02*
X108872060Y26800659D01*
X108551940Y27555341D02*
X108334659Y27338060D01*
G04 #@! TO.C,R27*
X104713876Y29157498D02*
X104931157Y28940217D01*
X105251277Y29694899D02*
X105468558Y29477618D01*
G04 #@! TO.C,R28*
X99514201Y24230206D02*
X99731482Y24447487D01*
X98976800Y24767607D02*
X99194081Y24984888D01*
G04 #@! TO.C,R29*
X109597341Y30065940D02*
X109380060Y29848659D01*
X109059940Y30603341D02*
X108842659Y30386060D01*
G04 #@! TO.C,R30*
X109380060Y25784659D02*
X109597341Y26001940D01*
X108842659Y26322060D02*
X109059940Y26539341D01*
G04 #@! TO.C,R32*
X97808885Y23020059D02*
X98026166Y23237340D01*
X98346286Y22482658D02*
X98563567Y22699939D01*
G04 #@! TO.C,R801*
X123468557Y11346584D02*
X123775839Y11346584D01*
X123468557Y10586584D02*
X123775839Y10586584D01*
G04 #@! TO.C,R704*
X120749737Y8729268D02*
X120442455Y8729268D01*
X120749737Y7969268D02*
X120442455Y7969268D01*
G04 #@! TO.C,R804*
X123025365Y16286847D02*
X123025365Y16594129D01*
X123785365Y16286847D02*
X123785365Y16594129D01*
G04 #@! TO.C,R803*
X122730730Y16294976D02*
X122730730Y16602258D01*
X121970730Y16294976D02*
X121970730Y16602258D01*
G04 #@! TO.C,R802*
X121722667Y11363413D02*
X121415385Y11363413D01*
X121722667Y10603413D02*
X121415385Y10603413D01*
G04 #@! TO.C,R703*
X122827317Y6501480D02*
X122827317Y6808762D01*
X122067317Y6501480D02*
X122067317Y6808762D01*
G04 #@! TO.C,R702*
X122056097Y4419005D02*
X122056097Y4111723D01*
X122816097Y4419005D02*
X122816097Y4111723D01*
G04 #@! TO.C,R701*
X120626323Y3377558D02*
X120319041Y3377558D01*
X120626323Y2617558D02*
X120319041Y2617558D01*
G04 #@! TO.C,U1*
X112776000Y9688000D02*
X113576000Y9688000D01*
X112776000Y6568000D02*
X114576000Y6568000D01*
X112776000Y9688000D02*
X111976000Y9688000D01*
X112776000Y6568000D02*
X111976000Y6568000D01*
G04 #@! TO.C,U2*
X115600737Y15909269D02*
X114800737Y15909269D01*
X115600737Y12789269D02*
X117400737Y12789269D01*
X115600737Y15909269D02*
X116400737Y15909269D01*
X115600737Y12789269D02*
X114800737Y12789269D01*
G04 #@! TO.C,U3*
X112830017Y24838528D02*
X112030017Y24838528D01*
X112830017Y27958528D02*
X113630017Y27958528D01*
X112830017Y24838528D02*
X114630017Y24838528D01*
X112830017Y27958528D02*
X112030017Y27958528D01*
G04 #@! TO.C,U4*
X112776000Y32294000D02*
X113576000Y32294000D01*
X112776000Y29174000D02*
X111976000Y29174000D01*
X112776000Y32294000D02*
X111976000Y32294000D01*
X112776000Y29174000D02*
X114576000Y29174000D01*
G04 #@! TO.C,R4*
X105028000Y8863359D02*
X105028000Y9170641D01*
X104268000Y8863359D02*
X104268000Y9170641D01*
G04 #@! TO.C,R31*
X105931315Y30337812D02*
X106148596Y30120531D01*
X106468716Y30875213D02*
X106685997Y30657932D01*
G04 #@! TO.C,R9*
X107194634Y11574615D02*
X107194634Y11267333D01*
X106434634Y11574615D02*
X106434634Y11267333D01*
G04 #@! TO.C,R1*
X105764359Y1904000D02*
X106071641Y1904000D01*
X105764359Y1144000D02*
X106071641Y1144000D01*
G04 #@! TO.C,C23*
X113104875Y3361496D02*
X113104875Y3145824D01*
X112384875Y3361496D02*
X112384875Y3145824D01*
G04 #@! TO.C,C24*
X113208942Y-8592387D02*
X113208942Y-8376715D01*
X112488942Y-8592387D02*
X112488942Y-8376715D01*
G04 #@! TO.C,R44*
X114262943Y4598538D02*
X114570225Y4598538D01*
X114262943Y3838538D02*
X114570225Y3838538D01*
G04 #@! TO.C,R45*
X114363269Y-9305852D02*
X114670551Y-9305852D01*
X114363269Y-8545852D02*
X114670551Y-8545852D01*
G04 #@! TO.C,R46*
X114352699Y2413660D02*
X114659981Y2413660D01*
X114352699Y3173660D02*
X114659981Y3173660D01*
G04 #@! TO.C,R47*
X114385708Y-7944551D02*
X114692990Y-7944551D01*
X114385708Y-7184551D02*
X114692990Y-7184551D01*
G04 #@! TO.C,U5*
X112480976Y-2287560D02*
X112480976Y-87560D01*
X117700976Y-2287560D02*
X117700976Y-4487560D01*
X117700976Y-2287560D02*
X117700976Y1312440D01*
X112480976Y-2287560D02*
X112480976Y-4487560D01*
G04 #@! TO.C,C903*
X96522000Y33668580D02*
X96522000Y33387420D01*
X95502000Y33668580D02*
X95502000Y33387420D01*
G04 #@! TO.C,R906*
X76961000Y47217359D02*
X76961000Y47524641D01*
X76201000Y47217359D02*
X76201000Y47524641D01*
G04 #@! TO.C,U902*
X88514000Y39732000D02*
X88514000Y38472000D01*
X92274000Y39732000D02*
X88514000Y39732000D01*
X94524000Y32912000D02*
X88514000Y32912000D01*
X88514000Y32912000D02*
X88514000Y34172000D01*
G04 #@! TO.C,Y1501*
X89382007Y-4065893D02*
X95132007Y-4065893D01*
X95132007Y-465893D02*
X89382007Y-465893D01*
X89382007Y-465893D02*
X89382007Y-4065893D01*
G04 #@! TO.C,C902*
X68782913Y31787551D02*
X68501753Y31787551D01*
X68782913Y32807551D02*
X68501753Y32807551D01*
G04 #@! TO.C,C904*
X70737000Y39356420D02*
X70737000Y39637580D01*
X71757000Y39356420D02*
X71757000Y39637580D01*
G04 #@! TO.C,R905*
X69495641Y34162000D02*
X69188359Y34162000D01*
X69495641Y33402000D02*
X69188359Y33402000D01*
G04 #@! TO.C,R908*
X77062359Y31116000D02*
X77369641Y31116000D01*
X77062359Y31876000D02*
X77369641Y31876000D01*
G04 #@! TO.C,U903*
X74168000Y37612000D02*
X70718000Y37612000D01*
X74168000Y37612000D02*
X76118000Y37612000D01*
X74168000Y32492000D02*
X72218000Y32492000D01*
X74168000Y32492000D02*
X76118000Y32492000D01*
G04 #@! TO.C,D901*
X72264000Y38002000D02*
X75564000Y38002000D01*
X75564000Y38002000D02*
X75564000Y43402000D01*
X72264000Y38002000D02*
X72264000Y43402000D01*
G04 #@! TO.C,D101*
X31091548Y5380689D02*
X27791548Y5380689D01*
X27791548Y5380689D02*
X27791548Y-19311D01*
X31091548Y5380689D02*
X31091548Y-19311D01*
G04 #@! TO.C,D102*
X34897124Y-5666291D02*
X34897124Y-8966291D01*
X34897124Y-8966291D02*
X40297124Y-8966291D01*
X34897124Y-5666291D02*
X40297124Y-5666291D01*
G04 #@! TO.C,D103*
X38060648Y11195957D02*
X34760648Y11195957D01*
X38060648Y11195957D02*
X38060648Y5795957D01*
X34760648Y11195957D02*
X34760648Y5795957D01*
G04 #@! TO.C,D104*
X27784480Y-8526837D02*
X31084480Y-8526837D01*
X31084480Y-8526837D02*
X31084480Y-3126837D01*
X27784480Y-8526837D02*
X27784480Y-3126837D01*
G04 #@! TO.C,R907*
X75337641Y31876000D02*
X75030359Y31876000D01*
X75337641Y31116000D02*
X75030359Y31116000D01*
G04 #@! TO.C,D1501*
X95722000Y39116000D02*
X95722000Y39916000D01*
X95722000Y39116000D02*
X95722000Y38316000D01*
X98842000Y39116000D02*
X98842000Y40916000D01*
X98842000Y39116000D02*
X98842000Y38316000D01*
G04 #@! TO.C,C905*
X76561836Y30120000D02*
X76346164Y30120000D01*
X76561836Y30840000D02*
X76346164Y30840000D01*
G04 #@! TO.C,L1002*
X72738064Y48350000D02*
X71533936Y48350000D01*
X72738064Y45630000D02*
X71533936Y45630000D01*
G04 #@! TO.C,R1105*
X72239870Y59365807D02*
X72547152Y59365807D01*
X72239870Y58605807D02*
X72547152Y58605807D01*
G04 #@! TO.C,R1106*
X64450608Y51558521D02*
X64115075Y51222988D01*
X63711681Y52297448D02*
X63376148Y51961915D01*
G04 #@! TO.C,R1107*
X72245842Y58338152D02*
X72553124Y58338152D01*
X72245842Y57578152D02*
X72553124Y57578152D01*
G04 #@! TO.C,R1108*
X59630759Y51828904D02*
X59630759Y51354388D01*
X60675759Y51828904D02*
X60675759Y51354388D01*
G04 #@! TO.C,L1001*
X81948000Y38548000D02*
X81948000Y39748000D01*
X81948000Y38548000D02*
X76548000Y38548000D01*
X81948000Y43748000D02*
X81948000Y42548000D01*
X76548000Y43748000D02*
X81948000Y43748000D01*
X76548000Y38548000D02*
X76548000Y39748000D01*
X76548000Y43748000D02*
X76548000Y42548000D01*
G04 #@! TO.C,C906*
X82656000Y40843252D02*
X82656000Y39420748D01*
X84476000Y40843252D02*
X84476000Y39420748D01*
G04 #@! TO.C,C1901*
X122667283Y-1844511D02*
X123189787Y-1844511D01*
X122667283Y-374511D02*
X123189787Y-374511D01*
G04 #@! TO.C,C21*
X115903658Y3483996D02*
X115903658Y3202836D01*
X116923658Y3483996D02*
X116923658Y3202836D01*
G04 #@! TO.C,C22*
X115960610Y-7954628D02*
X115960610Y-8235788D01*
X116980610Y-7954628D02*
X116980610Y-8235788D01*
G04 #@! TO.C,C25*
X111762922Y-477526D02*
X111762922Y-693198D01*
X111042922Y-477526D02*
X111042922Y-693198D01*
G04 #@! TO.C,C26*
X110582996Y-1779831D02*
X110582996Y-1995503D01*
X109862996Y-1779831D02*
X109862996Y-1995503D01*
G04 #@! TO.C,C1902*
X122752651Y-9078658D02*
X123275155Y-9078658D01*
X122752651Y-7608658D02*
X123275155Y-7608658D01*
G04 #@! TO.C,R42*
X118236000Y3455641D02*
X118236000Y3148359D01*
X117476000Y3455641D02*
X117476000Y3148359D01*
G04 #@! TO.C,R43*
X117588782Y-8641932D02*
X117588782Y-8334650D01*
X118348782Y-8641932D02*
X118348782Y-8334650D01*
G04 #@! TO.C,R1901*
X119219528Y864386D02*
X119526810Y864386D01*
X119219528Y104386D02*
X119526810Y104386D01*
G04 #@! TO.C,R1902*
X120040345Y-7087315D02*
X120347627Y-7087315D01*
X120040345Y-7847315D02*
X120347627Y-7847315D01*
G04 #@! TO.C,R1903*
X119226359Y1398000D02*
X119533641Y1398000D01*
X119226359Y2158000D02*
X119533641Y2158000D01*
G04 #@! TO.C,R1904*
X119456930Y-8538373D02*
X119764212Y-8538373D01*
X119456930Y-9298373D02*
X119764212Y-9298373D01*
G04 #@! TO.C,C1903*
X119687651Y-4232193D02*
X119406491Y-4232193D01*
X119687651Y-5252193D02*
X119406491Y-5252193D01*
G04 #@! TO.C,R38*
X118973919Y-1822193D02*
X119281201Y-1822193D01*
X118973919Y-2582193D02*
X119281201Y-2582193D01*
G04 #@! TO.C,R40*
X118972359Y-382000D02*
X119279641Y-382000D01*
X118972359Y-1142000D02*
X119279641Y-1142000D01*
G04 #@! TO.C,J1505*
X98875501Y-6456837D02*
X98875501Y-3796837D01*
X98875501Y-3796837D02*
X111635501Y-3796837D01*
X111635501Y-6456837D02*
X111635501Y-3796837D01*
X96275501Y-6456837D02*
X96275501Y-5126837D01*
X97605501Y-6456837D02*
X96275501Y-6456837D01*
X98875501Y-6456837D02*
X111635501Y-6456837D01*
G04 #@! TO.C,JP1*
X124345365Y-4398293D02*
X121545365Y-4398293D01*
X121545365Y-4398293D02*
X121545365Y-2398293D01*
X121545365Y-2398293D02*
X124345365Y-2398293D01*
X124345365Y-2398293D02*
X124345365Y-4398293D01*
G04 #@! TO.C,JP2*
X121563415Y-7038047D02*
X121563415Y-5038047D01*
X124363415Y-5038047D02*
X124363415Y-7038047D01*
X124363415Y-7038047D02*
X121563415Y-7038047D01*
X121563415Y-5038047D02*
X124363415Y-5038047D01*
G04 #@! TO.C,J1*
X65838000Y-5176000D02*
X65838000Y604000D01*
X53928000Y-8896000D02*
X53428000Y-8996000D01*
X52018000Y5824000D02*
X65838000Y5824000D01*
X56728000Y-8396000D02*
X55228000Y-8596000D01*
X65838000Y3124000D02*
X65838000Y5824000D01*
X52018000Y-8096000D02*
X52018000Y-7696000D01*
X65838000Y-8096000D02*
X65838000Y-7696000D01*
X63928000Y-9596000D02*
X53928000Y-9596000D01*
X64428000Y-8096000D02*
X64428000Y-9096000D01*
X63628000Y-8796000D02*
X61928000Y-8496000D01*
X61928000Y-8496000D02*
X61128000Y-8396000D01*
X64428000Y-8996000D02*
X63628000Y-8796000D01*
X59828000Y-8296000D02*
X58028000Y-8296000D01*
X58028000Y-8296000D02*
X56728000Y-8396000D01*
X52018000Y-5176000D02*
X52018000Y604000D01*
X65838000Y-8096000D02*
X52018000Y-8096000D01*
X52018000Y3124000D02*
X52018000Y5824000D01*
X55228000Y-8596000D02*
X53928000Y-8896000D01*
X53428000Y-8096000D02*
X53428000Y-9096000D01*
X61128000Y-8396000D02*
X59828000Y-8296000D01*
X63928000Y-9596000D02*
G75*
G03*
X64428000Y-9096000I-1J500001D01*
G01*
X53428000Y-9096000D02*
G75*
G03*
X53928000Y-9596000I500001J1D01*
G01*
G04 #@! TO.C,D2*
X63483000Y36748000D02*
X63483000Y35338000D01*
X65803000Y35338000D02*
X65803000Y37368000D01*
X64143000Y35338000D02*
X63483000Y35338000D01*
X65803000Y35338000D02*
X65143000Y35338000D01*
G04 #@! TO.C,R33*
X66054500Y32046242D02*
X66054500Y32520758D01*
X65009500Y32046242D02*
X65009500Y32520758D01*
G04 #@! TO.C,J2*
X109082339Y-6966983D02*
X111682339Y-6966983D01*
X106482339Y-9626983D02*
X106482339Y-8296983D01*
X109082339Y-9626983D02*
X111682339Y-9626983D01*
X107812339Y-9626983D02*
X106482339Y-9626983D01*
X109082339Y-9626983D02*
X109082339Y-6966983D01*
X111682339Y-9626983D02*
X111682339Y-6966983D01*
G04 #@! TO.C,J1501*
X62920000Y24900000D02*
X62920000Y25900000D01*
X62220000Y19600000D02*
X57420000Y19600000D01*
X62920000Y25900000D02*
X62420000Y25400000D01*
X49120000Y19600000D02*
X49120000Y33700000D01*
X62420000Y25400000D02*
X62920000Y24900000D01*
X53920000Y19600000D02*
X49120000Y19600000D01*
X49120000Y33700000D02*
X53920000Y33700000D01*
X62220000Y33700000D02*
X62220000Y19600000D01*
X57420000Y33700000D02*
X62220000Y33700000D01*
G04 #@! TO.C,R34*
X58670609Y47652230D02*
X58670609Y47198102D01*
X60140609Y47652230D02*
X60140609Y47198102D01*
G04 #@! TO.C,R35*
X76460623Y61096330D02*
X76914751Y61096330D01*
X76460623Y59626330D02*
X76914751Y59626330D01*
G04 #@! TO.C,U8*
X99353913Y2579913D02*
X98894294Y3039533D01*
X101560087Y4786087D02*
X100375683Y5970490D01*
X101560087Y4786087D02*
X102019706Y4326467D01*
X99353913Y2579913D02*
X99813533Y2120294D01*
G04 #@! TO.C,U9*
X94705000Y26245000D02*
X94705000Y25945000D01*
X91985000Y26245000D02*
X91985000Y25945000D01*
X94705000Y28365000D02*
X94705000Y28665000D01*
X91985000Y28365000D02*
X91985000Y28665000D01*
X94705000Y25945000D02*
X94105000Y25945000D01*
X91985000Y28665000D02*
X92585000Y28665000D01*
X91985000Y25945000D02*
X92585000Y25945000D01*
G04 #@! TO.C,C1520*
X96082719Y6302030D02*
X96281530Y6103219D01*
X95361470Y5580781D02*
X95560281Y5381970D01*
G04 #@! TO.C,C20*
X94728420Y30228000D02*
X95009580Y30228000D01*
X94728420Y29208000D02*
X95009580Y29208000D01*
G04 #@! TO.C,R39*
X86107000Y27966641D02*
X86107000Y27659359D01*
X86867000Y27966641D02*
X86867000Y27659359D01*
G04 #@! TO.C,R41*
X91974641Y24639000D02*
X91667359Y24639000D01*
X91974641Y25399000D02*
X91667359Y25399000D01*
G04 #@! TO.C,SW1501*
X49068314Y12921456D02*
X55768314Y12921456D01*
X49068314Y12921456D02*
X49068314Y13121456D01*
X55768314Y12921456D02*
X55768314Y13121456D01*
X55768314Y17221456D02*
X55768314Y14821456D01*
X55768314Y19121456D02*
X49068314Y19121456D01*
X55768314Y19121456D02*
X55768314Y18921456D01*
X49068314Y17221456D02*
X49068314Y14821456D01*
X49068314Y19121456D02*
X49068314Y18921456D01*
G04 #@! TO.C,SW1502*
X49068314Y12566852D02*
X49068314Y12366852D01*
X55768314Y12566852D02*
X55768314Y12366852D01*
X49068314Y8266852D02*
X49068314Y10666852D01*
X55768314Y8266852D02*
X55768314Y10666852D01*
X49068314Y6366852D02*
X49068314Y6566852D01*
X49068314Y6366852D02*
X55768314Y6366852D01*
X55768314Y6366852D02*
X55768314Y6566852D01*
X55768314Y12566852D02*
X49068314Y12566852D01*
G04 #@! TO.C,J4*
X62230000Y7874000D02*
X61595000Y7874000D01*
X62230000Y8509000D02*
X62230000Y7874000D01*
G04 #@! TO.C,D3*
X96810000Y11668000D02*
X100710000Y11668000D01*
X96810000Y9668000D02*
X100710000Y9668000D01*
X96810000Y11668000D02*
X96810000Y9668000D01*
G04 #@! TO.C,D4*
X84460117Y-1384903D02*
X87217833Y-4142619D01*
X83045903Y-2799117D02*
X85803619Y-5556833D01*
X84460117Y-1384903D02*
X83045903Y-2799117D01*
G04 #@! TO.C,C30*
X82851970Y-4706219D02*
X83050781Y-4905030D01*
X83573219Y-3984970D02*
X83772030Y-4183781D01*
G04 #@! TO.C,R1503*
X98410500Y44306258D02*
X98410500Y43831742D01*
X99455500Y44306258D02*
X99455500Y43831742D01*
G04 #@! TO.C,R50*
X104434913Y57422661D02*
X104909429Y57422661D01*
X104434913Y58467661D02*
X104909429Y58467661D01*
G04 #@! TO.C,R53*
X111066450Y60715679D02*
X111066450Y60241163D01*
X110021450Y60715679D02*
X110021450Y60241163D01*
G04 #@! TO.C,D6*
X89959396Y62767788D02*
X89959396Y65317788D01*
X88259396Y62767788D02*
X89959396Y62767788D01*
X88259396Y62767788D02*
X88259396Y65317788D01*
G04 #@! TO.C,U27*
X85943755Y65885912D02*
X84143755Y65885912D01*
X85943755Y62765912D02*
X86743755Y62765912D01*
X85943755Y62765912D02*
X85143755Y62765912D01*
X85943755Y65885912D02*
X86743755Y65885912D01*
G04 #@! TO.C,U25*
X106385469Y63531075D02*
X106385469Y64331075D01*
X106385469Y63531075D02*
X106385469Y62731075D01*
X109505469Y63531075D02*
X109505469Y65331075D01*
X109505469Y63531075D02*
X109505469Y62731075D01*
G04 #@! TO.C,U6*
X82268271Y33595820D02*
X84218271Y33595820D01*
X82268271Y28475820D02*
X80318271Y28475820D01*
X82268271Y28475820D02*
X84218271Y28475820D01*
X82268271Y33595820D02*
X78818271Y33595820D01*
G04 #@! TO.C,C29*
X104782441Y62133166D02*
X104501281Y62133166D01*
X104782441Y63153166D02*
X104501281Y63153166D01*
G04 #@! TO.C,C28*
X111649558Y60329331D02*
X111649558Y60610491D01*
X112669558Y60329331D02*
X112669558Y60610491D01*
G04 #@! TO.C,U14*
X34945601Y59635816D02*
X36205601Y59635816D01*
X34945601Y53625816D02*
X34945601Y59635816D01*
X41765601Y59635816D02*
X40505601Y59635816D01*
X41765601Y55875816D02*
X41765601Y59635816D01*
G04 #@! TO.C,C18*
X72775880Y61841515D02*
X73057040Y61841515D01*
X72775880Y62861515D02*
X73057040Y62861515D01*
G04 #@! TO.C,U1208*
X96904866Y29228027D02*
X96339181Y28662341D01*
X96904866Y29228027D02*
X97470552Y29793712D01*
X99111040Y27021853D02*
X98545354Y26456168D01*
X99111040Y27021853D02*
X100383832Y28294646D01*
G04 #@! TO.C,R51*
X111545582Y58595057D02*
X111071066Y58595057D01*
X111545582Y57550057D02*
X111071066Y57550057D01*
G04 #@! TO.C,R49*
X72884321Y66536691D02*
X73338449Y66536691D01*
X72884321Y65066691D02*
X73338449Y65066691D01*
G04 #@! TO.C,C19*
X72780581Y64459902D02*
X73061741Y64459902D01*
X72780581Y63439902D02*
X73061741Y63439902D01*
G04 #@! TO.C,U13*
X49265348Y61741008D02*
X48005348Y61741008D01*
X49265348Y57981008D02*
X49265348Y61741008D01*
X42445348Y61741008D02*
X43705348Y61741008D01*
X42445348Y55731008D02*
X42445348Y61741008D01*
G04 #@! TO.C,R37*
X69847417Y30208061D02*
X70321933Y30208061D01*
X69847417Y31253061D02*
X70321933Y31253061D01*
G04 #@! TO.C,U26*
X106409206Y59238611D02*
X106409206Y60038611D01*
X106409206Y59238611D02*
X106409206Y58438611D01*
X109529206Y59238611D02*
X109529206Y61038611D01*
X109529206Y59238611D02*
X109529206Y58438611D01*
G04 #@! TO.C,R52*
X104890882Y60547748D02*
X104890882Y60073232D01*
X105935882Y60547748D02*
X105935882Y60073232D01*
G04 #@! TO.C,C31*
X111140912Y63322835D02*
X111422072Y63322835D01*
X111140912Y62302835D02*
X111422072Y62302835D01*
G04 #@! TO.C,U10*
X115845124Y36402186D02*
X116645124Y36402186D01*
X115845124Y36402186D02*
X114045124Y36402186D01*
X115845124Y33282186D02*
X115045124Y33282186D01*
X115845124Y33282186D02*
X116645124Y33282186D01*
G04 #@! TO.C,U12*
X58129941Y55445269D02*
X58129941Y63245269D01*
X58429941Y53645269D02*
X58429941Y55445269D01*
X70829941Y63245269D02*
X71129941Y63245269D01*
X71129941Y63245269D02*
X71129941Y55445269D01*
X58429941Y55445269D02*
X58129941Y55445269D01*
X70829941Y55445269D02*
X71129941Y55445269D01*
X58429941Y63245269D02*
X58129941Y63245269D01*
G04 #@! TO.C,R36*
X87792955Y31132800D02*
X88128488Y31468333D01*
X88531882Y30393873D02*
X88867415Y30729406D01*
G04 #@! TO.C,U18*
X34953148Y50670595D02*
X36213148Y50670595D01*
X41773148Y50670595D02*
X40513148Y50670595D01*
X34953148Y44660595D02*
X34953148Y50670595D01*
X41773148Y46910595D02*
X41773148Y50670595D01*
G04 #@! TO.C,R48*
X72903814Y61293204D02*
X73357942Y61293204D01*
X72903814Y59823204D02*
X73357942Y59823204D01*
G04 #@! TO.C,U7*
X103002500Y37938934D02*
X101202500Y37938934D01*
X103002500Y37938934D02*
X103802500Y37938934D01*
X103002500Y34818934D02*
X102202500Y34818934D01*
X103002500Y34818934D02*
X103802500Y34818934D01*
G04 #@! TO.C,U20*
X42327918Y45147436D02*
X43587918Y45147436D01*
X49147918Y51157436D02*
X49147918Y45147436D01*
X49147918Y45147436D02*
X47887918Y45147436D01*
X42327918Y48907436D02*
X42327918Y45147436D01*
G04 #@! TO.C,IC1*
X81873291Y65880137D02*
X80198291Y65880137D01*
X81873291Y65880137D02*
X82523291Y65880137D01*
X81873291Y62760137D02*
X81223291Y62760137D01*
X81873291Y62760137D02*
X82523291Y62760137D01*
G04 #@! TO.C,U1207*
X108883102Y31694573D02*
X110155894Y32967366D01*
X108883102Y31694573D02*
X108317416Y31128888D01*
X106676928Y33900747D02*
X107242614Y34466432D01*
X106676928Y33900747D02*
X106111243Y33335061D01*
G04 #@! TO.C,U19*
X50011118Y52515126D02*
X50011118Y48755126D01*
X50011118Y48755126D02*
X51271118Y48755126D01*
X56831118Y54765126D02*
X56831118Y48755126D01*
X56831118Y48755126D02*
X55571118Y48755126D01*
G04 #@! TO.C,U15*
X49937547Y61744781D02*
X51197547Y61744781D01*
X56757547Y61744781D02*
X55497547Y61744781D01*
X56757547Y57984781D02*
X56757547Y61744781D01*
X49937547Y55734781D02*
X49937547Y61744781D01*
G04 #@! TO.C,U22*
X42927787Y1244158D02*
X42927787Y-2515842D01*
X49747787Y-2515842D02*
X48487787Y-2515842D01*
X42927787Y-2515842D02*
X44187787Y-2515842D01*
X49747787Y3494158D02*
X49747787Y-2515842D01*
G04 #@! TO.C,D5*
X77912877Y66271883D02*
X80462877Y66271883D01*
X77912877Y67971883D02*
X80462877Y67971883D01*
X77912877Y67971883D02*
X77912877Y66271883D01*
G04 #@! TO.C,U1202*
X103802599Y30700816D02*
X105075391Y31973609D01*
X101596425Y32906990D02*
X102162111Y33472675D01*
X101596425Y32906990D02*
X101030740Y32341304D01*
X103802599Y30700816D02*
X103236913Y30135131D01*
G04 #@! TO.C,U11*
X73225722Y24656728D02*
X76675722Y24656728D01*
X73225722Y29776728D02*
X71275722Y29776728D01*
X73225722Y24656728D02*
X71275722Y24656728D01*
X73225722Y29776728D02*
X75175722Y29776728D01*
G04 #@! TO.C,U21*
X40736154Y4496415D02*
X40736154Y5756415D01*
X46746154Y4496415D02*
X40736154Y4496415D01*
X44496154Y11316415D02*
X40736154Y11316415D01*
X40736154Y11316415D02*
X40736154Y10056415D01*
G04 #@! TO.C,U24*
X41794840Y-2619802D02*
X40534840Y-2619802D01*
X34974840Y-2619802D02*
X36234840Y-2619802D01*
X41794840Y3390198D02*
X41794840Y-2619802D01*
X34974840Y1140198D02*
X34974840Y-2619802D01*
G04 #@! TO.C,C27*
X104270134Y60148864D02*
X104270134Y60430024D01*
X103250134Y60148864D02*
X103250134Y60430024D01*
G04 #@! TO.C,R54*
X78718294Y65049259D02*
X79025576Y65049259D01*
X78718294Y65809259D02*
X79025576Y65809259D01*
G04 #@! TD*
M02*
