G04 #@! TF.GenerationSoftware,KiCad,Pcbnew,(6.0.1)*
G04 #@! TF.CreationDate,2022-12-03T00:01:53+00:00*
G04 #@! TF.ProjectId,polygonus-Shortage-Version,706f6c79-676f-46e7-9573-2d53686f7274,rev?*
G04 #@! TF.SameCoordinates,Original*
G04 #@! TF.FileFunction,Paste,Bot*
G04 #@! TF.FilePolarity,Positive*
%FSLAX46Y46*%
G04 Gerber Fmt 4.6, Leading zero omitted, Abs format (unit mm)*
G04 Created by KiCad (PCBNEW (6.0.1)) date 2022-12-03 00:01:53*
%MOMM*%
%LPD*%
G01*
G04 APERTURE LIST*
G04 Aperture macros list*
%AMRotRect*
0 Rectangle, with rotation*
0 The origin of the aperture is its center*
0 $1 length*
0 $2 width*
0 $3 Rotation angle, in degrees counterclockwise*
0 Add horizontal line*
21,1,$1,$2,0,0,$3*%
G04 Aperture macros list end*
G04 #@! TA.AperFunction,Profile*
%ADD10C,0.050000*%
G04 #@! TD*
%ADD11R,0.740000X2.400000*%
%ADD12RotRect,2.600000X3.600000X235.000000*%
%ADD13R,1.500000X2.000000*%
%ADD14R,3.800000X2.000000*%
%ADD15R,2.000000X1.500000*%
%ADD16R,2.000000X3.800000*%
%ADD17R,1.200000X0.900000*%
G04 APERTURE END LIST*
D10*
X27598758Y70480030D02*
X27566743Y-7944264D01*
X29598758Y72480030D02*
G75*
G03*
X27598758Y70480030I-1J-1999999D01*
G01*
X127511245Y72474911D02*
X29598758Y72480030D01*
X29566743Y-9944264D02*
X127539293Y-9975264D01*
X127539293Y-9975264D02*
G75*
G03*
X129539293Y-7975264I1J1999999D01*
G01*
X129539293Y-7975264D02*
X129511245Y70474911D01*
X27566743Y-7944264D02*
G75*
G03*
X29566743Y-9944264I1999999J-1D01*
G01*
X129511245Y70474911D02*
G75*
G03*
X127511245Y72474911I-1999999J1D01*
G01*
D11*
G04 #@! TO.C,J1502*
X77851000Y12618000D03*
X77851000Y8718000D03*
X79121000Y12618000D03*
X79121000Y8718000D03*
X80391000Y12618000D03*
X80391000Y8718000D03*
X81661000Y12618000D03*
X81661000Y8718000D03*
X82931000Y12618000D03*
X82931000Y8718000D03*
G04 #@! TD*
D12*
G04 #@! TO.C,BT1*
X90403105Y10859423D03*
X107208895Y34860577D03*
G04 #@! TD*
D13*
G04 #@! TO.C,U17*
X42977410Y45616805D03*
X40677410Y45616805D03*
X38377410Y45616805D03*
D14*
X40677410Y51916805D03*
G04 #@! TD*
D13*
G04 #@! TO.C,U16*
X42870201Y54528659D03*
X40570201Y54528659D03*
X38270201Y54528659D03*
D14*
X40570201Y60828659D03*
G04 #@! TD*
D15*
G04 #@! TO.C,U23*
X45408978Y-3481730D03*
X45408978Y-5781730D03*
X45408978Y-8081730D03*
D16*
X39108978Y-5781730D03*
G04 #@! TD*
D17*
G04 #@! TO.C,D7*
X85908431Y13041269D03*
X85908431Y9741269D03*
G04 #@! TD*
M02*
