G04 #@! TF.GenerationSoftware,KiCad,Pcbnew,(6.0.1)*
G04 #@! TF.CreationDate,2022-12-03T00:01:54+00:00*
G04 #@! TF.ProjectId,polygonus-Shortage-Version,706f6c79-676f-46e7-9573-2d53686f7274,rev?*
G04 #@! TF.SameCoordinates,Original*
G04 #@! TF.FileFunction,Soldermask,Bot*
G04 #@! TF.FilePolarity,Negative*
%FSLAX46Y46*%
G04 Gerber Fmt 4.6, Leading zero omitted, Abs format (unit mm)*
G04 Created by KiCad (PCBNEW (6.0.1)) date 2022-12-03 00:01:54*
%MOMM*%
%LPD*%
G01*
G04 APERTURE LIST*
G04 Aperture macros list*
%AMRoundRect*
0 Rectangle with rounded corners*
0 $1 Rounding radius*
0 $2 $3 $4 $5 $6 $7 $8 $9 X,Y pos of 4 corners*
0 Add a 4 corners polygon primitive as box body*
4,1,4,$2,$3,$4,$5,$6,$7,$8,$9,$2,$3,0*
0 Add four circle primitives for the rounded corners*
1,1,$1+$1,$2,$3*
1,1,$1+$1,$4,$5*
1,1,$1+$1,$6,$7*
1,1,$1+$1,$8,$9*
0 Add four rect primitives between the rounded corners*
20,1,$1+$1,$2,$3,$4,$5,0*
20,1,$1+$1,$4,$5,$6,$7,0*
20,1,$1+$1,$6,$7,$8,$9,0*
20,1,$1+$1,$8,$9,$2,$3,0*%
G04 Aperture macros list end*
G04 #@! TA.AperFunction,Profile*
%ADD10C,0.050000*%
G04 #@! TD*
%ADD11RoundRect,0.048000X0.800000X0.800000X-0.800000X0.800000X-0.800000X-0.800000X0.800000X-0.800000X0*%
%ADD12C,1.696000*%
%ADD13RoundRect,0.048000X0.850000X-0.850000X0.850000X0.850000X-0.850000X0.850000X-0.850000X-0.850000X0*%
%ADD14O,1.796000X1.796000*%
%ADD15RoundRect,0.048000X-0.700000X0.700000X-0.700000X-0.700000X0.700000X-0.700000X0.700000X0.700000X0*%
%ADD16C,1.496000*%
%ADD17C,3.096000*%
%ADD18C,1.086600*%
%ADD19RoundRect,0.048000X0.800000X-0.800000X0.800000X0.800000X-0.800000X0.800000X-0.800000X-0.800000X0*%
%ADD20RoundRect,0.048000X-0.370000X1.200000X-0.370000X-1.200000X0.370000X-1.200000X0.370000X1.200000X0*%
%ADD21RoundRect,0.048000X-0.728824X2.097335X-2.220123X-0.032460X0.728824X-2.097335X2.220123X0.032460X0*%
%ADD22RoundRect,0.048000X0.750000X-1.000000X0.750000X1.000000X-0.750000X1.000000X-0.750000X-1.000000X0*%
%ADD23RoundRect,0.048000X1.900000X-1.000000X1.900000X1.000000X-1.900000X1.000000X-1.900000X-1.000000X0*%
%ADD24RoundRect,0.048000X0.850000X0.850000X-0.850000X0.850000X-0.850000X-0.850000X0.850000X-0.850000X0*%
%ADD25RoundRect,0.048000X1.000000X0.750000X-1.000000X0.750000X-1.000000X-0.750000X1.000000X-0.750000X0*%
%ADD26RoundRect,0.048000X1.000000X1.900000X-1.000000X1.900000X-1.000000X-1.900000X1.000000X-1.900000X0*%
%ADD27RoundRect,0.048000X-0.850000X0.850000X-0.850000X-0.850000X0.850000X-0.850000X0.850000X0.850000X0*%
%ADD28RoundRect,0.048000X-0.600000X0.450000X-0.600000X-0.450000X0.600000X-0.450000X0.600000X0.450000X0*%
G04 APERTURE END LIST*
D10*
X27598758Y70480030D02*
X27566743Y-7944264D01*
X29598758Y72480030D02*
G75*
G03*
X27598758Y70480030I-1J-1999999D01*
G01*
X127511245Y72474911D02*
X29598758Y72480030D01*
X29566743Y-9944264D02*
X127539293Y-9975264D01*
X127539293Y-9975264D02*
G75*
G03*
X129539293Y-7975264I1J1999999D01*
G01*
X129539293Y-7975264D02*
X129511245Y70474911D01*
X27566743Y-7944264D02*
G75*
G03*
X29566743Y-9944264I1999999J-1D01*
G01*
X129511245Y70474911D02*
G75*
G03*
X127511245Y72474911I-1999999J1D01*
G01*
X27598758Y70480030D02*
X27566743Y-7944264D01*
X29598758Y72480030D02*
G75*
G03*
X27598758Y70480030I-1J-1999999D01*
G01*
X127511245Y72474911D02*
X29598758Y72480030D01*
X29566743Y-9944264D02*
X127539293Y-9975264D01*
X127539293Y-9975264D02*
G75*
G03*
X129539293Y-7975264I1J1999999D01*
G01*
X129539293Y-7975264D02*
X129511245Y70474911D01*
X27566743Y-7944264D02*
G75*
G03*
X29566743Y-9944264I1999999J-1D01*
G01*
X129511245Y70474911D02*
G75*
G03*
X127511245Y72474911I-1999999J1D01*
G01*
D11*
G04 #@! TO.C,J1504*
X60334209Y40322147D03*
D12*
X57834209Y40322147D03*
X55334209Y40322147D03*
X52834209Y40322147D03*
X50334209Y40322147D03*
G04 #@! TD*
D13*
G04 #@! TO.C,J1505*
X97605501Y-5126837D03*
D14*
X100145501Y-5126837D03*
X102685501Y-5126837D03*
X105225501Y-5126837D03*
X107765501Y-5126837D03*
X110305501Y-5126837D03*
G04 #@! TD*
D13*
G04 #@! TO.C,J2*
X107812339Y-8296983D03*
D14*
X110352339Y-8296983D03*
G04 #@! TD*
D15*
G04 #@! TO.C,J1501*
X58420000Y25400000D03*
D16*
X58420000Y27900000D03*
X55220000Y27900000D03*
X55220000Y25400000D03*
D17*
X55710000Y20630000D03*
X55710000Y32670000D03*
G04 #@! TD*
D18*
G04 #@! TO.C,J4*
X60960000Y7239000D03*
X61976000Y12319000D03*
X59944000Y12319000D03*
G04 #@! TD*
D11*
G04 #@! TO.C,C1001*
X68072000Y42799000D03*
D12*
X64572000Y42799000D03*
G04 #@! TD*
D19*
G04 #@! TO.C,C17*
X40640000Y65494972D03*
D12*
X40640000Y68994972D03*
G04 #@! TD*
D20*
G04 #@! TO.C,J1502*
X77851000Y12618000D03*
X77851000Y8718000D03*
X79121000Y12618000D03*
X79121000Y8718000D03*
X80391000Y12618000D03*
X80391000Y8718000D03*
X81661000Y12618000D03*
X81661000Y8718000D03*
X82931000Y12618000D03*
X82931000Y8718000D03*
G04 #@! TD*
D21*
G04 #@! TO.C,BT1*
X90403105Y10859423D03*
X107208895Y34860577D03*
G04 #@! TD*
D22*
G04 #@! TO.C,U17*
X42977410Y45616805D03*
X40677410Y45616805D03*
X38377410Y45616805D03*
D23*
X40677410Y51916805D03*
G04 #@! TD*
D24*
G04 #@! TO.C,J5*
X33087317Y70582684D03*
D14*
X33087317Y68042684D03*
X33087317Y65502684D03*
X33087317Y62962684D03*
X33087317Y60422684D03*
X33087317Y57882684D03*
X33087317Y55342684D03*
X33087317Y52802684D03*
X33087317Y50262684D03*
X33087317Y47722684D03*
X33087317Y45182684D03*
X33087317Y42642684D03*
X33087317Y40102684D03*
X33087317Y37562684D03*
X33087317Y35022684D03*
X33087317Y32482684D03*
X33087317Y29942684D03*
X33087317Y27402684D03*
X33087317Y24862684D03*
X33087317Y22322684D03*
X33087317Y19782684D03*
X33087317Y17242684D03*
X33087317Y14702684D03*
X33087317Y12162684D03*
X33087317Y9622684D03*
X33087317Y7082684D03*
X33087317Y4542684D03*
X33087317Y2002684D03*
X33087317Y-537316D03*
X33087317Y-3077316D03*
X33087317Y-5617316D03*
X33087317Y-8157316D03*
G04 #@! TD*
D22*
G04 #@! TO.C,U16*
X42870201Y54528659D03*
X40570201Y54528659D03*
X38270201Y54528659D03*
D23*
X40570201Y60828659D03*
G04 #@! TD*
D25*
G04 #@! TO.C,U23*
X45408978Y-3481730D03*
X45408978Y-5781730D03*
X45408978Y-8081730D03*
D26*
X39108978Y-5781730D03*
G04 #@! TD*
D27*
G04 #@! TO.C,J6*
X72806286Y55705029D03*
D14*
X75346286Y55705029D03*
X77886286Y55705029D03*
X80426286Y55705029D03*
X82966286Y55705029D03*
X85506286Y55705029D03*
X88046286Y55705029D03*
X90586286Y55705029D03*
X93126286Y55705029D03*
X95666286Y55705029D03*
X98206286Y55705029D03*
X100746286Y55705029D03*
X103286286Y55705029D03*
X105826286Y55705029D03*
X108366286Y55705029D03*
X110906286Y55705029D03*
G04 #@! TD*
D28*
G04 #@! TO.C,D7*
X85908431Y13041269D03*
X85908431Y9741269D03*
G04 #@! TD*
D24*
G04 #@! TO.C,J3*
X127000000Y70587779D03*
D14*
X127000000Y68047779D03*
X127000000Y65507779D03*
X127000000Y62967779D03*
X127000000Y60427779D03*
X127000000Y57887779D03*
X127000000Y55347779D03*
X127000000Y52807779D03*
X127000000Y50267779D03*
X127000000Y47727779D03*
X127000000Y45187779D03*
X127000000Y42647779D03*
X127000000Y40107779D03*
X127000000Y37567779D03*
X127000000Y35027779D03*
X127000000Y32487779D03*
X127000000Y29947779D03*
X127000000Y27407779D03*
X127000000Y24867779D03*
X127000000Y22327779D03*
X127000000Y19787779D03*
X127000000Y17247779D03*
X127000000Y14707779D03*
X127000000Y12167779D03*
X127000000Y9627779D03*
X127000000Y7087779D03*
X127000000Y4547779D03*
X127000000Y2007779D03*
X127000000Y-532221D03*
X127000000Y-3072221D03*
X127000000Y-5612221D03*
X127000000Y-8152221D03*
G04 #@! TD*
D27*
G04 #@! TO.C,J7*
X49530000Y69596912D03*
D14*
X52070000Y69596912D03*
X54610000Y69596912D03*
X57150000Y69596912D03*
X59690000Y69596912D03*
X62230000Y69596912D03*
X64770000Y69596912D03*
X67310000Y69596912D03*
X69850000Y69596912D03*
X72390000Y69596912D03*
X74930000Y69596912D03*
X77470000Y69596912D03*
X80010000Y69596912D03*
X82550000Y69596912D03*
X85090000Y69596912D03*
X87630000Y69596912D03*
G04 #@! TD*
M02*
