G04 #@! TF.GenerationSoftware,KiCad,Pcbnew,(6.0.1)*
G04 #@! TF.CreationDate,2022-08-30T16:06:41+01:00*
G04 #@! TF.ProjectId,polygonus-Shortage-Version,706f6c79-676f-46e7-9573-2d53686f7274,rev?*
G04 #@! TF.SameCoordinates,Original*
G04 #@! TF.FileFunction,Legend,Top*
G04 #@! TF.FilePolarity,Positive*
%FSLAX46Y46*%
G04 Gerber Fmt 4.6, Leading zero omitted, Abs format (unit mm)*
G04 Created by KiCad (PCBNEW (6.0.1)) date 2022-08-30 16:06:41*
%MOMM*%
%LPD*%
G01*
G04 APERTURE LIST*
%ADD10C,0.120000*%
G04 #@! TA.AperFunction,Profile*
%ADD11C,0.050000*%
G04 #@! TD*
%ADD12C,0.150000*%
%ADD13C,0.130000*%
%ADD14C,0.300000*%
G04 APERTURE END LIST*
D10*
X89408000Y27940000D02*
X89408000Y23749000D01*
X124206000Y29972000D02*
X123952000Y29972000D01*
X95631000Y28956000D02*
X91440000Y28956000D01*
X47498000Y27813000D02*
X47498000Y20320000D01*
X62611000Y33401000D02*
X62611000Y38354000D01*
X91694000Y23749000D02*
X95631000Y25400000D01*
X95631000Y25400000D02*
X95631000Y28956000D01*
X91440000Y28956000D02*
X89408000Y27940000D01*
X124206000Y37973000D02*
X123063000Y37973000D01*
X89408000Y23749000D02*
X91694000Y23749000D01*
D11*
X27598758Y70480030D02*
X27566743Y-7944264D01*
X29598758Y72480030D02*
G75*
G03*
X27598758Y70480030I-1J-1999999D01*
G01*
X127511245Y72474911D02*
X29598758Y72480030D01*
X29566743Y-9944264D02*
X127539293Y-9975264D01*
X127539293Y-9975264D02*
G75*
G03*
X129539293Y-7975264I1J1999999D01*
G01*
X129539293Y-7975264D02*
X129511245Y70474911D01*
X27566743Y-7944264D02*
G75*
G03*
X29566743Y-9944264I1999999J-1D01*
G01*
X129511245Y70474911D02*
G75*
G03*
X127511245Y72474911I-1999999J1D01*
G01*
D12*
X59126380Y15311619D02*
X58650190Y14978285D01*
X59126380Y14740190D02*
X58126380Y14740190D01*
X58126380Y15121142D01*
X58174000Y15216380D01*
X58221619Y15264000D01*
X58316857Y15311619D01*
X58459714Y15311619D01*
X58554952Y15264000D01*
X58602571Y15216380D01*
X58650190Y15121142D01*
X58650190Y14740190D01*
X58602571Y15740190D02*
X58602571Y16073523D01*
X59126380Y16216380D02*
X59126380Y15740190D01*
X58126380Y15740190D01*
X58126380Y16216380D01*
X59078761Y16597333D02*
X59126380Y16740190D01*
X59126380Y16978285D01*
X59078761Y17073523D01*
X59031142Y17121142D01*
X58935904Y17168761D01*
X58840666Y17168761D01*
X58745428Y17121142D01*
X58697809Y17073523D01*
X58650190Y16978285D01*
X58602571Y16787809D01*
X58554952Y16692571D01*
X58507333Y16644952D01*
X58412095Y16597333D01*
X58316857Y16597333D01*
X58221619Y16644952D01*
X58174000Y16692571D01*
X58126380Y16787809D01*
X58126380Y17025904D01*
X58174000Y17168761D01*
X58602571Y17597333D02*
X58602571Y17930666D01*
X59126380Y18073523D02*
X59126380Y17597333D01*
X58126380Y17597333D01*
X58126380Y18073523D01*
X58126380Y18359238D02*
X58126380Y18930666D01*
X59126380Y18644952D02*
X58126380Y18644952D01*
D13*
X112433974Y-7418233D02*
X112133974Y-6989662D01*
X111919688Y-7418233D02*
X111919688Y-6518233D01*
X112262545Y-6518233D01*
X112348259Y-6561091D01*
X112391116Y-6603948D01*
X112433974Y-6689662D01*
X112433974Y-6818233D01*
X112391116Y-6903948D01*
X112348259Y-6946805D01*
X112262545Y-6989662D01*
X111919688Y-6989662D01*
X112733974Y-6518233D02*
X113333974Y-7418233D01*
X113333974Y-6518233D02*
X112733974Y-7418233D01*
D12*
X90241428Y27288952D02*
X90193809Y27146095D01*
X90146190Y27098476D01*
X90050952Y27050857D01*
X89908095Y27050857D01*
X89812857Y27098476D01*
X89765238Y27146095D01*
X89717619Y27241333D01*
X89717619Y27622285D01*
X90717619Y27622285D01*
X90717619Y27288952D01*
X90670000Y27193714D01*
X90622380Y27146095D01*
X90527142Y27098476D01*
X90431904Y27098476D01*
X90336666Y27146095D01*
X90289047Y27193714D01*
X90241428Y27288952D01*
X90241428Y27622285D01*
X90003333Y26669904D02*
X90003333Y26193714D01*
X89717619Y26765142D02*
X90717619Y26431809D01*
X89717619Y26098476D01*
X89717619Y25193714D02*
X90193809Y25527047D01*
X89717619Y25765142D02*
X90717619Y25765142D01*
X90717619Y25384190D01*
X90670000Y25288952D01*
X90622380Y25241333D01*
X90527142Y25193714D01*
X90384285Y25193714D01*
X90289047Y25241333D01*
X90241428Y25288952D01*
X90193809Y25384190D01*
X90193809Y25765142D01*
X90717619Y24574666D02*
X90717619Y24384190D01*
X90670000Y24288952D01*
X90574761Y24193714D01*
X90384285Y24146095D01*
X90050952Y24146095D01*
X89860476Y24193714D01*
X89765238Y24288952D01*
X89717619Y24384190D01*
X89717619Y24574666D01*
X89765238Y24669904D01*
X89860476Y24765142D01*
X90050952Y24812761D01*
X90384285Y24812761D01*
X90574761Y24765142D01*
X90670000Y24669904D01*
X90717619Y24574666D01*
D13*
X85404571Y-7011142D02*
X85104571Y-6582571D01*
X84890285Y-7011142D02*
X84890285Y-6111142D01*
X85233142Y-6111142D01*
X85318857Y-6154000D01*
X85361714Y-6196857D01*
X85404571Y-6282571D01*
X85404571Y-6411142D01*
X85361714Y-6496857D01*
X85318857Y-6539714D01*
X85233142Y-6582571D01*
X84890285Y-6582571D01*
X86176000Y-6411142D02*
X86176000Y-7011142D01*
X85790285Y-6411142D02*
X85790285Y-6882571D01*
X85833142Y-6968285D01*
X85918857Y-7011142D01*
X86047428Y-7011142D01*
X86133142Y-6968285D01*
X86176000Y-6925428D01*
X86604571Y-6411142D02*
X86604571Y-7011142D01*
X86604571Y-6496857D02*
X86647428Y-6454000D01*
X86733142Y-6411142D01*
X86861714Y-6411142D01*
X86947428Y-6454000D01*
X86990285Y-6539714D01*
X86990285Y-7011142D01*
X87418857Y-6411142D02*
X87418857Y-7011142D01*
X87418857Y-6496857D02*
X87461714Y-6454000D01*
X87547428Y-6411142D01*
X87676000Y-6411142D01*
X87761714Y-6454000D01*
X87804571Y-6539714D01*
X87804571Y-7011142D01*
X88233142Y-7011142D02*
X88233142Y-6411142D01*
X88233142Y-6111142D02*
X88190285Y-6154000D01*
X88233142Y-6196857D01*
X88276000Y-6154000D01*
X88233142Y-6111142D01*
X88233142Y-6196857D01*
X88661714Y-6411142D02*
X88661714Y-7011142D01*
X88661714Y-6496857D02*
X88704571Y-6454000D01*
X88790285Y-6411142D01*
X88918857Y-6411142D01*
X89004571Y-6454000D01*
X89047428Y-6539714D01*
X89047428Y-7011142D01*
X89861714Y-6411142D02*
X89861714Y-7139714D01*
X89818857Y-7225428D01*
X89776000Y-7268285D01*
X89690285Y-7311142D01*
X89561714Y-7311142D01*
X89476000Y-7268285D01*
X89861714Y-6968285D02*
X89776000Y-7011142D01*
X89604571Y-7011142D01*
X89518857Y-6968285D01*
X89476000Y-6925428D01*
X89433142Y-6839714D01*
X89433142Y-6582571D01*
X89476000Y-6496857D01*
X89518857Y-6454000D01*
X89604571Y-6411142D01*
X89776000Y-6411142D01*
X89861714Y-6454000D01*
D12*
X58571440Y37531824D02*
X57571440Y37531824D01*
X57571440Y37769919D01*
X57619060Y37912777D01*
X57714298Y38008015D01*
X57809536Y38055634D01*
X58000012Y38103253D01*
X58142869Y38103253D01*
X58333345Y38055634D01*
X58428583Y38008015D01*
X58523821Y37912777D01*
X58571440Y37769919D01*
X58571440Y37531824D01*
X58190488Y38531824D02*
X58190488Y39293729D01*
D14*
X92583357Y20145238D02*
X93821452Y20145238D01*
X93154785Y19383333D01*
X93440500Y19383333D01*
X93630976Y19288095D01*
X93726214Y19192857D01*
X93821452Y19002380D01*
X93821452Y18526190D01*
X93726214Y18335714D01*
X93630976Y18240476D01*
X93440500Y18145238D01*
X92869071Y18145238D01*
X92678595Y18240476D01*
X92583357Y18335714D01*
X94678595Y18335714D02*
X94773833Y18240476D01*
X94678595Y18145238D01*
X94583357Y18240476D01*
X94678595Y18335714D01*
X94678595Y18145238D01*
X95440500Y20145238D02*
X96678595Y20145238D01*
X96011928Y19383333D01*
X96297642Y19383333D01*
X96488119Y19288095D01*
X96583357Y19192857D01*
X96678595Y19002380D01*
X96678595Y18526190D01*
X96583357Y18335714D01*
X96488119Y18240476D01*
X96297642Y18145238D01*
X95726214Y18145238D01*
X95535738Y18240476D01*
X95440500Y18335714D01*
X97345261Y19478571D02*
X97821452Y18145238D01*
X98297642Y19478571D01*
D13*
X90964857Y-6238142D02*
X91179142Y-7138142D01*
X91350571Y-6495285D01*
X91522000Y-7138142D01*
X91736285Y-6238142D01*
X92464857Y-7138142D02*
X92464857Y-6666714D01*
X92422000Y-6581000D01*
X92336285Y-6538142D01*
X92164857Y-6538142D01*
X92079142Y-6581000D01*
X92464857Y-7095285D02*
X92379142Y-7138142D01*
X92164857Y-7138142D01*
X92079142Y-7095285D01*
X92036285Y-7009571D01*
X92036285Y-6923857D01*
X92079142Y-6838142D01*
X92164857Y-6795285D01*
X92379142Y-6795285D01*
X92464857Y-6752428D01*
X92893428Y-7138142D02*
X92893428Y-6538142D01*
X92893428Y-6709571D02*
X92936285Y-6623857D01*
X92979142Y-6581000D01*
X93064857Y-6538142D01*
X93150571Y-6538142D01*
X93450571Y-6538142D02*
X93450571Y-7138142D01*
X93450571Y-6623857D02*
X93493428Y-6581000D01*
X93579142Y-6538142D01*
X93707714Y-6538142D01*
X93793428Y-6581000D01*
X93836285Y-6666714D01*
X93836285Y-7138142D01*
X94264857Y-7138142D02*
X94264857Y-6538142D01*
X94264857Y-6238142D02*
X94222000Y-6281000D01*
X94264857Y-6323857D01*
X94307714Y-6281000D01*
X94264857Y-6238142D01*
X94264857Y-6323857D01*
X94693428Y-6538142D02*
X94693428Y-7138142D01*
X94693428Y-6623857D02*
X94736285Y-6581000D01*
X94822000Y-6538142D01*
X94950571Y-6538142D01*
X95036285Y-6581000D01*
X95079142Y-6666714D01*
X95079142Y-7138142D01*
X95893428Y-6538142D02*
X95893428Y-7266714D01*
X95850571Y-7352428D01*
X95807714Y-7395285D01*
X95722000Y-7438142D01*
X95593428Y-7438142D01*
X95507714Y-7395285D01*
X95893428Y-7095285D02*
X95807714Y-7138142D01*
X95636285Y-7138142D01*
X95550571Y-7095285D01*
X95507714Y-7052428D01*
X95464857Y-6966714D01*
X95464857Y-6709571D01*
X95507714Y-6623857D01*
X95550571Y-6581000D01*
X95636285Y-6538142D01*
X95807714Y-6538142D01*
X95893428Y-6581000D01*
X104343285Y-8016142D02*
X104857571Y-8016142D01*
X104600428Y-8916142D02*
X104600428Y-8016142D01*
X105071857Y-8016142D02*
X105671857Y-8916142D01*
X105671857Y-8016142D02*
X105071857Y-8916142D01*
D12*
X79803809Y-6961142D02*
X79756190Y-7008761D01*
X79613333Y-7056380D01*
X79518095Y-7056380D01*
X79375238Y-7008761D01*
X79280000Y-6913523D01*
X79232380Y-6818285D01*
X79184761Y-6627809D01*
X79184761Y-6484952D01*
X79232380Y-6294476D01*
X79280000Y-6199238D01*
X79375238Y-6104000D01*
X79518095Y-6056380D01*
X79613333Y-6056380D01*
X79756190Y-6104000D01*
X79803809Y-6151619D01*
X80375238Y-7056380D02*
X80280000Y-7008761D01*
X80232380Y-6961142D01*
X80184761Y-6865904D01*
X80184761Y-6580190D01*
X80232380Y-6484952D01*
X80280000Y-6437333D01*
X80375238Y-6389714D01*
X80518095Y-6389714D01*
X80613333Y-6437333D01*
X80660952Y-6484952D01*
X80708571Y-6580190D01*
X80708571Y-6865904D01*
X80660952Y-6961142D01*
X80613333Y-7008761D01*
X80518095Y-7056380D01*
X80375238Y-7056380D01*
X81137142Y-7056380D02*
X81137142Y-6389714D01*
X81137142Y-6484952D02*
X81184761Y-6437333D01*
X81280000Y-6389714D01*
X81422857Y-6389714D01*
X81518095Y-6437333D01*
X81565714Y-6532571D01*
X81565714Y-7056380D01*
X81565714Y-6532571D02*
X81613333Y-6437333D01*
X81708571Y-6389714D01*
X81851428Y-6389714D01*
X81946666Y-6437333D01*
X81994285Y-6532571D01*
X81994285Y-7056380D01*
X82470476Y-7056380D02*
X82470476Y-6389714D01*
X82470476Y-6484952D02*
X82518095Y-6437333D01*
X82613333Y-6389714D01*
X82756190Y-6389714D01*
X82851428Y-6437333D01*
X82899047Y-6532571D01*
X82899047Y-7056380D01*
X82899047Y-6532571D02*
X82946666Y-6437333D01*
X83041904Y-6389714D01*
X83184761Y-6389714D01*
X83280000Y-6437333D01*
X83327619Y-6532571D01*
X83327619Y-7056380D01*
X105735380Y-3603428D02*
X104735380Y-3603428D01*
X105449666Y-3270095D01*
X104735380Y-2936761D01*
X105735380Y-2936761D01*
X105735380Y-2460571D02*
X104735380Y-2460571D01*
X105687761Y-2032000D02*
X105735380Y-1889142D01*
X105735380Y-1651047D01*
X105687761Y-1555809D01*
X105640142Y-1508190D01*
X105544904Y-1460571D01*
X105449666Y-1460571D01*
X105354428Y-1508190D01*
X105306809Y-1555809D01*
X105259190Y-1651047D01*
X105211571Y-1841523D01*
X105163952Y-1936761D01*
X105116333Y-1984380D01*
X105021095Y-2032000D01*
X104925857Y-2032000D01*
X104830619Y-1984380D01*
X104783000Y-1936761D01*
X104735380Y-1841523D01*
X104735380Y-1603428D01*
X104783000Y-1460571D01*
X104735380Y-841523D02*
X104735380Y-651047D01*
X104783000Y-555809D01*
X104878238Y-460571D01*
X105068714Y-412952D01*
X105402047Y-412952D01*
X105592523Y-460571D01*
X105687761Y-555809D01*
X105735380Y-651047D01*
X105735380Y-841523D01*
X105687761Y-936761D01*
X105592523Y-1032000D01*
X105402047Y-1079619D01*
X105068714Y-1079619D01*
X104878238Y-1032000D01*
X104783000Y-936761D01*
X104735380Y-841523D01*
X56115383Y37551316D02*
X55115383Y37551316D01*
X55115383Y37789411D01*
X55163003Y37932269D01*
X55258241Y38027507D01*
X55353479Y38075126D01*
X55543955Y38122745D01*
X55686812Y38122745D01*
X55877288Y38075126D01*
X55972526Y38027507D01*
X56067764Y37932269D01*
X56115383Y37789411D01*
X56115383Y37551316D01*
X55734431Y38551316D02*
X55734431Y39313221D01*
X56115383Y38932269D02*
X55353479Y38932269D01*
X50935095Y34837619D02*
X50935095Y34028095D01*
X50982714Y33932857D01*
X51030333Y33885238D01*
X51125571Y33837619D01*
X51316047Y33837619D01*
X51411285Y33885238D01*
X51458904Y33932857D01*
X51506523Y34028095D01*
X51506523Y34837619D01*
X51935095Y33885238D02*
X52077952Y33837619D01*
X52316047Y33837619D01*
X52411285Y33885238D01*
X52458904Y33932857D01*
X52506523Y34028095D01*
X52506523Y34123333D01*
X52458904Y34218571D01*
X52411285Y34266190D01*
X52316047Y34313809D01*
X52125571Y34361428D01*
X52030333Y34409047D01*
X51982714Y34456666D01*
X51935095Y34551904D01*
X51935095Y34647142D01*
X51982714Y34742380D01*
X52030333Y34790000D01*
X52125571Y34837619D01*
X52363666Y34837619D01*
X52506523Y34790000D01*
X53268428Y34361428D02*
X53411285Y34313809D01*
X53458904Y34266190D01*
X53506523Y34170952D01*
X53506523Y34028095D01*
X53458904Y33932857D01*
X53411285Y33885238D01*
X53316047Y33837619D01*
X52935095Y33837619D01*
X52935095Y34837619D01*
X53268428Y34837619D01*
X53363666Y34790000D01*
X53411285Y34742380D01*
X53458904Y34647142D01*
X53458904Y34551904D01*
X53411285Y34456666D01*
X53363666Y34409047D01*
X53268428Y34361428D01*
X52935095Y34361428D01*
X100560142Y-2960666D02*
X100607761Y-3008285D01*
X100655380Y-3151142D01*
X100655380Y-3246380D01*
X100607761Y-3389238D01*
X100512523Y-3484476D01*
X100417285Y-3532095D01*
X100226809Y-3579714D01*
X100083952Y-3579714D01*
X99893476Y-3532095D01*
X99798238Y-3484476D01*
X99703000Y-3389238D01*
X99655380Y-3246380D01*
X99655380Y-3151142D01*
X99703000Y-3008285D01*
X99750619Y-2960666D01*
X100607761Y-2579714D02*
X100655380Y-2436857D01*
X100655380Y-2198761D01*
X100607761Y-2103523D01*
X100560142Y-2055904D01*
X100464904Y-2008285D01*
X100369666Y-2008285D01*
X100274428Y-2055904D01*
X100226809Y-2103523D01*
X100179190Y-2198761D01*
X100131571Y-2389238D01*
X100083952Y-2484476D01*
X100036333Y-2532095D01*
X99941095Y-2579714D01*
X99845857Y-2579714D01*
X99750619Y-2532095D01*
X99703000Y-2484476D01*
X99655380Y-2389238D01*
X99655380Y-2151142D01*
X99703000Y-2008285D01*
X103147761Y-3571714D02*
X103195380Y-3428857D01*
X103195380Y-3190761D01*
X103147761Y-3095523D01*
X103100142Y-3047904D01*
X103004904Y-3000285D01*
X102909666Y-3000285D01*
X102814428Y-3047904D01*
X102766809Y-3095523D01*
X102719190Y-3190761D01*
X102671571Y-3381238D01*
X102623952Y-3476476D01*
X102576333Y-3524095D01*
X102481095Y-3571714D01*
X102385857Y-3571714D01*
X102290619Y-3524095D01*
X102243000Y-3476476D01*
X102195380Y-3381238D01*
X102195380Y-3143142D01*
X102243000Y-3000285D01*
X103100142Y-2000285D02*
X103147761Y-2047904D01*
X103195380Y-2190761D01*
X103195380Y-2286000D01*
X103147761Y-2428857D01*
X103052523Y-2524095D01*
X102957285Y-2571714D01*
X102766809Y-2619333D01*
X102623952Y-2619333D01*
X102433476Y-2571714D01*
X102338238Y-2524095D01*
X102243000Y-2428857D01*
X102195380Y-2286000D01*
X102195380Y-2190761D01*
X102243000Y-2047904D01*
X102290619Y-2000285D01*
X103195380Y-1571714D02*
X102195380Y-1571714D01*
X103195380Y-1000285D02*
X102623952Y-1428857D01*
X102195380Y-1000285D02*
X102766809Y-1571714D01*
X97242380Y-3587571D02*
X97242380Y-2968523D01*
X97623333Y-3301857D01*
X97623333Y-3159000D01*
X97670952Y-3063761D01*
X97718571Y-3016142D01*
X97813809Y-2968523D01*
X98051904Y-2968523D01*
X98147142Y-3016142D01*
X98194761Y-3063761D01*
X98242380Y-3159000D01*
X98242380Y-3444714D01*
X98194761Y-3539952D01*
X98147142Y-3587571D01*
X98147142Y-2539952D02*
X98194761Y-2492333D01*
X98242380Y-2539952D01*
X98194761Y-2587571D01*
X98147142Y-2539952D01*
X98242380Y-2539952D01*
X97242380Y-2159000D02*
X97242380Y-1539952D01*
X97623333Y-1873285D01*
X97623333Y-1730428D01*
X97670952Y-1635190D01*
X97718571Y-1587571D01*
X97813809Y-1539952D01*
X98051904Y-1539952D01*
X98147142Y-1587571D01*
X98194761Y-1635190D01*
X98242380Y-1730428D01*
X98242380Y-2016142D01*
X98194761Y-2111380D01*
X98147142Y-2159000D01*
X97575714Y-1206619D02*
X98242380Y-968523D01*
X97575714Y-730428D01*
X108275380Y-3603428D02*
X107275380Y-3603428D01*
X107989666Y-3270095D01*
X107275380Y-2936761D01*
X108275380Y-2936761D01*
X107275380Y-2270095D02*
X107275380Y-2079619D01*
X107323000Y-1984380D01*
X107418238Y-1889142D01*
X107608714Y-1841523D01*
X107942047Y-1841523D01*
X108132523Y-1889142D01*
X108227761Y-1984380D01*
X108275380Y-2079619D01*
X108275380Y-2270095D01*
X108227761Y-2365333D01*
X108132523Y-2460571D01*
X107942047Y-2508190D01*
X107608714Y-2508190D01*
X107418238Y-2460571D01*
X107323000Y-2365333D01*
X107275380Y-2270095D01*
X108227761Y-1460571D02*
X108275380Y-1317714D01*
X108275380Y-1079619D01*
X108227761Y-984380D01*
X108180142Y-936761D01*
X108084904Y-889142D01*
X107989666Y-889142D01*
X107894428Y-936761D01*
X107846809Y-984380D01*
X107799190Y-1079619D01*
X107751571Y-1270095D01*
X107703952Y-1365333D01*
X107656333Y-1412952D01*
X107561095Y-1460571D01*
X107465857Y-1460571D01*
X107370619Y-1412952D01*
X107323000Y-1365333D01*
X107275380Y-1270095D01*
X107275380Y-1032000D01*
X107323000Y-889142D01*
X108275380Y-460571D02*
X107275380Y-460571D01*
X52356080Y41997703D02*
X52308460Y41902465D01*
X52308460Y41759608D01*
X52356080Y41616750D01*
X52451318Y41521512D01*
X52546556Y41473893D01*
X52737032Y41426274D01*
X52879889Y41426274D01*
X53070365Y41473893D01*
X53165603Y41521512D01*
X53260841Y41616750D01*
X53308460Y41759608D01*
X53308460Y41854846D01*
X53260841Y41997703D01*
X53213222Y42045322D01*
X52879889Y42045322D01*
X52879889Y41854846D01*
X53308460Y42473893D02*
X52308460Y42473893D01*
X53308460Y43045322D01*
X52308460Y43045322D01*
X53308460Y43521512D02*
X52308460Y43521512D01*
X52308460Y43759608D01*
X52356080Y43902465D01*
X52451318Y43997703D01*
X52546556Y44045322D01*
X52737032Y44092941D01*
X52879889Y44092941D01*
X53070365Y44045322D01*
X53165603Y43997703D01*
X53260841Y43902465D01*
X53308460Y43759608D01*
X53308460Y43521512D01*
X91314084Y69732156D02*
X90980750Y69732156D01*
X90980750Y69208347D02*
X90980750Y70208347D01*
X91456941Y70208347D01*
X92266465Y69875013D02*
X92266465Y69208347D01*
X91837893Y69875013D02*
X91837893Y69351204D01*
X91885512Y69255966D01*
X91980750Y69208347D01*
X92123607Y69208347D01*
X92218845Y69255966D01*
X92266465Y69303585D01*
X92599798Y69875013D02*
X92980750Y69875013D01*
X92742655Y70208347D02*
X92742655Y69351204D01*
X92790274Y69255966D01*
X92885512Y69208347D01*
X92980750Y69208347D01*
X93742655Y69875013D02*
X93742655Y69208347D01*
X93314084Y69875013D02*
X93314084Y69351204D01*
X93361703Y69255966D01*
X93456941Y69208347D01*
X93599798Y69208347D01*
X93695036Y69255966D01*
X93742655Y69303585D01*
X94218845Y69208347D02*
X94218845Y69875013D01*
X94218845Y69684537D02*
X94266465Y69779775D01*
X94314084Y69827394D01*
X94409322Y69875013D01*
X94504560Y69875013D01*
X95218845Y69255966D02*
X95123607Y69208347D01*
X94933131Y69208347D01*
X94837893Y69255966D01*
X94790274Y69351204D01*
X94790274Y69732156D01*
X94837893Y69827394D01*
X94933131Y69875013D01*
X95123607Y69875013D01*
X95218845Y69827394D01*
X95266465Y69732156D01*
X95266465Y69636918D01*
X94790274Y69541680D01*
X95695036Y69208347D02*
X95695036Y70208347D01*
X96075988Y70208347D01*
X96171226Y70160728D01*
X96218845Y70113108D01*
X96266465Y70017870D01*
X96266465Y69875013D01*
X96218845Y69779775D01*
X96171226Y69732156D01*
X96075988Y69684537D01*
X95695036Y69684537D01*
X96695036Y69208347D02*
X96695036Y69875013D01*
X96695036Y69684537D02*
X96742655Y69779775D01*
X96790274Y69827394D01*
X96885512Y69875013D01*
X96980750Y69875013D01*
X97456941Y69208347D02*
X97361703Y69255966D01*
X97314084Y69303585D01*
X97266465Y69398823D01*
X97266465Y69684537D01*
X97314084Y69779775D01*
X97361703Y69827394D01*
X97456941Y69875013D01*
X97599798Y69875013D01*
X97695036Y69827394D01*
X97742655Y69779775D01*
X97790274Y69684537D01*
X97790274Y69398823D01*
X97742655Y69303585D01*
X97695036Y69255966D01*
X97599798Y69208347D01*
X97456941Y69208347D01*
X98361703Y69208347D02*
X98266465Y69255966D01*
X98218845Y69303585D01*
X98171226Y69398823D01*
X98171226Y69684537D01*
X98218845Y69779775D01*
X98266465Y69827394D01*
X98361703Y69875013D01*
X98504560Y69875013D01*
X98599798Y69827394D01*
X98647417Y69779775D01*
X98695036Y69684537D01*
X98695036Y69398823D01*
X98647417Y69303585D01*
X98599798Y69255966D01*
X98504560Y69208347D01*
X98361703Y69208347D01*
X98980750Y69875013D02*
X99361703Y69875013D01*
X99123607Y69208347D02*
X99123607Y70065489D01*
X99171226Y70160728D01*
X99266465Y70208347D01*
X99361703Y70208347D01*
X99695036Y69208347D02*
X99695036Y70208347D01*
X100075988Y70208347D01*
X100171226Y70160728D01*
X100218845Y70113108D01*
X100266465Y70017870D01*
X100266465Y69875013D01*
X100218845Y69779775D01*
X100171226Y69732156D01*
X100075988Y69684537D01*
X99695036Y69684537D01*
X101075988Y69255966D02*
X100980750Y69208347D01*
X100790274Y69208347D01*
X100695036Y69255966D01*
X100647417Y69351204D01*
X100647417Y69732156D01*
X100695036Y69827394D01*
X100790274Y69875013D01*
X100980750Y69875013D01*
X101075988Y69827394D01*
X101123607Y69732156D01*
X101123607Y69636918D01*
X100647417Y69541680D01*
X101552179Y69208347D02*
X101552179Y69875013D01*
X101552179Y69684537D02*
X101599798Y69779775D01*
X101647417Y69827394D01*
X101742655Y69875013D01*
X101837893Y69875013D01*
X102028369Y69875013D02*
X102409322Y69875013D01*
X102171226Y69208347D02*
X102171226Y70065489D01*
X102218845Y70160728D01*
X102314084Y70208347D01*
X102409322Y70208347D01*
X102885512Y69208347D02*
X102790274Y69255966D01*
X102742655Y69303585D01*
X102695036Y69398823D01*
X102695036Y69684537D01*
X102742655Y69779775D01*
X102790274Y69827394D01*
X102885512Y69875013D01*
X103028369Y69875013D01*
X103123607Y69827394D01*
X103171226Y69779775D01*
X103218845Y69684537D01*
X103218845Y69398823D01*
X103171226Y69303585D01*
X103123607Y69255966D01*
X103028369Y69208347D01*
X102885512Y69208347D01*
X103647417Y69208347D02*
X103647417Y69875013D01*
X103647417Y69684537D02*
X103695036Y69779775D01*
X103742655Y69827394D01*
X103837893Y69875013D01*
X103933131Y69875013D01*
X104266465Y69208347D02*
X104266465Y69875013D01*
X104266465Y69779775D02*
X104314084Y69827394D01*
X104409322Y69875013D01*
X104552179Y69875013D01*
X104647417Y69827394D01*
X104695036Y69732156D01*
X104695036Y69208347D01*
X104695036Y69732156D02*
X104742655Y69827394D01*
X104837893Y69875013D01*
X104980750Y69875013D01*
X105075988Y69827394D01*
X105123607Y69732156D01*
X105123607Y69208347D01*
X106028369Y69208347D02*
X106028369Y69732156D01*
X105980750Y69827394D01*
X105885512Y69875013D01*
X105695036Y69875013D01*
X105599798Y69827394D01*
X106028369Y69255966D02*
X105933131Y69208347D01*
X105695036Y69208347D01*
X105599798Y69255966D01*
X105552179Y69351204D01*
X105552179Y69446442D01*
X105599798Y69541680D01*
X105695036Y69589299D01*
X105933131Y69589299D01*
X106028369Y69636918D01*
X106504560Y69875013D02*
X106504560Y69208347D01*
X106504560Y69779775D02*
X106552179Y69827394D01*
X106647417Y69875013D01*
X106790274Y69875013D01*
X106885512Y69827394D01*
X106933131Y69732156D01*
X106933131Y69208347D01*
X107837893Y69255966D02*
X107742655Y69208347D01*
X107552179Y69208347D01*
X107456941Y69255966D01*
X107409322Y69303585D01*
X107361703Y69398823D01*
X107361703Y69684537D01*
X107409322Y69779775D01*
X107456941Y69827394D01*
X107552179Y69875013D01*
X107742655Y69875013D01*
X107837893Y69827394D01*
X108647417Y69255966D02*
X108552179Y69208347D01*
X108361703Y69208347D01*
X108266465Y69255966D01*
X108218845Y69351204D01*
X108218845Y69732156D01*
X108266465Y69827394D01*
X108361703Y69875013D01*
X108552179Y69875013D01*
X108647417Y69827394D01*
X108695036Y69732156D01*
X108695036Y69636918D01*
X108218845Y69541680D01*
X109123607Y69303585D02*
X109171226Y69255966D01*
X109123607Y69208347D01*
X109075988Y69255966D01*
X109123607Y69303585D01*
X109123607Y69208347D01*
X110028369Y69255966D02*
X109933131Y69208347D01*
X109742655Y69208347D01*
X109647417Y69255966D01*
X109599798Y69303585D01*
X109552179Y69398823D01*
X109552179Y69684537D01*
X109599798Y69779775D01*
X109647417Y69827394D01*
X109742655Y69875013D01*
X109933131Y69875013D01*
X110028369Y69827394D01*
X110599798Y69208347D02*
X110504560Y69255966D01*
X110456941Y69303585D01*
X110409322Y69398823D01*
X110409322Y69684537D01*
X110456941Y69779775D01*
X110504560Y69827394D01*
X110599798Y69875013D01*
X110742655Y69875013D01*
X110837893Y69827394D01*
X110885512Y69779775D01*
X110933131Y69684537D01*
X110933131Y69398823D01*
X110885512Y69303585D01*
X110837893Y69255966D01*
X110742655Y69208347D01*
X110599798Y69208347D01*
X111361703Y69208347D02*
X111361703Y69875013D01*
X111361703Y69779775D02*
X111409322Y69827394D01*
X111504560Y69875013D01*
X111647417Y69875013D01*
X111742655Y69827394D01*
X111790274Y69732156D01*
X111790274Y69208347D01*
X111790274Y69732156D02*
X111837893Y69827394D01*
X111933131Y69875013D01*
X112075988Y69875013D01*
X112171226Y69827394D01*
X112218845Y69732156D01*
X112218845Y69208347D01*
X113409322Y70113108D02*
X113456941Y70160728D01*
X113552179Y70208347D01*
X113790274Y70208347D01*
X113885512Y70160728D01*
X113933131Y70113108D01*
X113980750Y70017870D01*
X113980750Y69922632D01*
X113933131Y69779775D01*
X113361703Y69208347D01*
X113980750Y69208347D01*
X114599798Y70208347D02*
X114695036Y70208347D01*
X114790274Y70160728D01*
X114837893Y70113108D01*
X114885512Y70017870D01*
X114933131Y69827394D01*
X114933131Y69589299D01*
X114885512Y69398823D01*
X114837893Y69303585D01*
X114790274Y69255966D01*
X114695036Y69208347D01*
X114599798Y69208347D01*
X114504560Y69255966D01*
X114456941Y69303585D01*
X114409322Y69398823D01*
X114361703Y69589299D01*
X114361703Y69827394D01*
X114409322Y70017870D01*
X114456941Y70113108D01*
X114504560Y70160728D01*
X114599798Y70208347D01*
X115314084Y70113108D02*
X115361703Y70160728D01*
X115456941Y70208347D01*
X115695036Y70208347D01*
X115790274Y70160728D01*
X115837893Y70113108D01*
X115885512Y70017870D01*
X115885512Y69922632D01*
X115837893Y69779775D01*
X115266465Y69208347D01*
X115885512Y69208347D01*
X116266465Y70113108D02*
X116314084Y70160728D01*
X116409322Y70208347D01*
X116647417Y70208347D01*
X116742655Y70160728D01*
X116790274Y70113108D01*
X116837893Y70017870D01*
X116837893Y69922632D01*
X116790274Y69779775D01*
X116218845Y69208347D01*
X116837893Y69208347D01*
X73588761Y-6532571D02*
X73922095Y-6532571D01*
X74064952Y-7056380D02*
X73588761Y-7056380D01*
X73588761Y-6056380D01*
X74064952Y-6056380D01*
X74493523Y-7056380D02*
X74493523Y-6389714D01*
X74493523Y-6580190D02*
X74541142Y-6484952D01*
X74588761Y-6437333D01*
X74684000Y-6389714D01*
X74779238Y-6389714D01*
X75112571Y-7056380D02*
X75112571Y-6389714D01*
X75112571Y-6580190D02*
X75160190Y-6484952D01*
X75207809Y-6437333D01*
X75303047Y-6389714D01*
X75398285Y-6389714D01*
X75874476Y-7056380D02*
X75779238Y-7008761D01*
X75731619Y-6961142D01*
X75684000Y-6865904D01*
X75684000Y-6580190D01*
X75731619Y-6484952D01*
X75779238Y-6437333D01*
X75874476Y-6389714D01*
X76017333Y-6389714D01*
X76112571Y-6437333D01*
X76160190Y-6484952D01*
X76207809Y-6580190D01*
X76207809Y-6865904D01*
X76160190Y-6961142D01*
X76112571Y-7008761D01*
X76017333Y-7056380D01*
X75874476Y-7056380D01*
X76636380Y-7056380D02*
X76636380Y-6389714D01*
X76636380Y-6580190D02*
X76684000Y-6484952D01*
X76731619Y-6437333D01*
X76826857Y-6389714D01*
X76922095Y-6389714D01*
X93687619Y66858629D02*
X93687619Y67858629D01*
X94068571Y67858629D01*
X94163809Y67811010D01*
X94211428Y67763390D01*
X94259047Y67668152D01*
X94259047Y67525295D01*
X94211428Y67430057D01*
X94163809Y67382438D01*
X94068571Y67334819D01*
X93687619Y67334819D01*
X94830476Y66858629D02*
X94735238Y66906248D01*
X94687619Y66953867D01*
X94640000Y67049105D01*
X94640000Y67334819D01*
X94687619Y67430057D01*
X94735238Y67477676D01*
X94830476Y67525295D01*
X94973333Y67525295D01*
X95068571Y67477676D01*
X95116190Y67430057D01*
X95163809Y67334819D01*
X95163809Y67049105D01*
X95116190Y66953867D01*
X95068571Y66906248D01*
X94973333Y66858629D01*
X94830476Y66858629D01*
X95735238Y66858629D02*
X95640000Y66906248D01*
X95592380Y67001486D01*
X95592380Y67858629D01*
X96020952Y67525295D02*
X96259047Y66858629D01*
X96497142Y67525295D02*
X96259047Y66858629D01*
X96163809Y66620533D01*
X96116190Y66572914D01*
X96020952Y66525295D01*
X97306666Y67525295D02*
X97306666Y66715771D01*
X97259047Y66620533D01*
X97211428Y66572914D01*
X97116190Y66525295D01*
X96973333Y66525295D01*
X96878095Y66572914D01*
X97306666Y66906248D02*
X97211428Y66858629D01*
X97020952Y66858629D01*
X96925714Y66906248D01*
X96878095Y66953867D01*
X96830476Y67049105D01*
X96830476Y67334819D01*
X96878095Y67430057D01*
X96925714Y67477676D01*
X97020952Y67525295D01*
X97211428Y67525295D01*
X97306666Y67477676D01*
X97925714Y66858629D02*
X97830476Y66906248D01*
X97782857Y66953867D01*
X97735238Y67049105D01*
X97735238Y67334819D01*
X97782857Y67430057D01*
X97830476Y67477676D01*
X97925714Y67525295D01*
X98068571Y67525295D01*
X98163809Y67477676D01*
X98211428Y67430057D01*
X98259047Y67334819D01*
X98259047Y67049105D01*
X98211428Y66953867D01*
X98163809Y66906248D01*
X98068571Y66858629D01*
X97925714Y66858629D01*
X98687619Y67525295D02*
X98687619Y66858629D01*
X98687619Y67430057D02*
X98735238Y67477676D01*
X98830476Y67525295D01*
X98973333Y67525295D01*
X99068571Y67477676D01*
X99116190Y67382438D01*
X99116190Y66858629D01*
X100020952Y67525295D02*
X100020952Y66858629D01*
X99592380Y67525295D02*
X99592380Y67001486D01*
X99640000Y66906248D01*
X99735238Y66858629D01*
X99878095Y66858629D01*
X99973333Y66906248D01*
X100020952Y66953867D01*
X100449523Y66906248D02*
X100544761Y66858629D01*
X100735238Y66858629D01*
X100830476Y66906248D01*
X100878095Y67001486D01*
X100878095Y67049105D01*
X100830476Y67144343D01*
X100735238Y67191962D01*
X100592380Y67191962D01*
X100497142Y67239581D01*
X100449523Y67334819D01*
X100449523Y67382438D01*
X100497142Y67477676D01*
X100592380Y67525295D01*
X100735238Y67525295D01*
X100830476Y67477676D01*
X102401904Y67382438D02*
X102544761Y67334819D01*
X102592380Y67287200D01*
X102640000Y67191962D01*
X102640000Y67049105D01*
X102592380Y66953867D01*
X102544761Y66906248D01*
X102449523Y66858629D01*
X102068571Y66858629D01*
X102068571Y67858629D01*
X102401904Y67858629D01*
X102497142Y67811010D01*
X102544761Y67763390D01*
X102592380Y67668152D01*
X102592380Y67572914D01*
X102544761Y67477676D01*
X102497142Y67430057D01*
X102401904Y67382438D01*
X102068571Y67382438D01*
X103068571Y66858629D02*
X103068571Y67525295D01*
X103068571Y67334819D02*
X103116190Y67430057D01*
X103163809Y67477676D01*
X103259047Y67525295D01*
X103354285Y67525295D01*
X104116190Y66858629D02*
X104116190Y67382438D01*
X104068571Y67477676D01*
X103973333Y67525295D01*
X103782857Y67525295D01*
X103687619Y67477676D01*
X104116190Y66906248D02*
X104020952Y66858629D01*
X103782857Y66858629D01*
X103687619Y66906248D01*
X103640000Y67001486D01*
X103640000Y67096724D01*
X103687619Y67191962D01*
X103782857Y67239581D01*
X104020952Y67239581D01*
X104116190Y67287200D01*
X104592380Y66858629D02*
X104592380Y67525295D01*
X104592380Y67858629D02*
X104544761Y67811010D01*
X104592380Y67763390D01*
X104640000Y67811010D01*
X104592380Y67858629D01*
X104592380Y67763390D01*
X105068571Y67525295D02*
X105068571Y66858629D01*
X105068571Y67430057D02*
X105116190Y67477676D01*
X105211428Y67525295D01*
X105354285Y67525295D01*
X105449523Y67477676D01*
X105497142Y67382438D01*
X105497142Y66858629D01*
X107068571Y67382438D02*
X107211428Y67334819D01*
X107259047Y67287200D01*
X107306666Y67191962D01*
X107306666Y67049105D01*
X107259047Y66953867D01*
X107211428Y66906248D01*
X107116190Y66858629D01*
X106735238Y66858629D01*
X106735238Y67858629D01*
X107068571Y67858629D01*
X107163809Y67811010D01*
X107211428Y67763390D01*
X107259047Y67668152D01*
X107259047Y67572914D01*
X107211428Y67477676D01*
X107163809Y67430057D01*
X107068571Y67382438D01*
X106735238Y67382438D01*
X107878095Y66858629D02*
X107782857Y66906248D01*
X107735238Y66953867D01*
X107687619Y67049105D01*
X107687619Y67334819D01*
X107735238Y67430057D01*
X107782857Y67477676D01*
X107878095Y67525295D01*
X108020952Y67525295D01*
X108116190Y67477676D01*
X108163809Y67430057D01*
X108211428Y67334819D01*
X108211428Y67049105D01*
X108163809Y66953867D01*
X108116190Y66906248D01*
X108020952Y66858629D01*
X107878095Y66858629D01*
X109068571Y66858629D02*
X109068571Y67382438D01*
X109020952Y67477676D01*
X108925714Y67525295D01*
X108735238Y67525295D01*
X108640000Y67477676D01*
X109068571Y66906248D02*
X108973333Y66858629D01*
X108735238Y66858629D01*
X108640000Y66906248D01*
X108592380Y67001486D01*
X108592380Y67096724D01*
X108640000Y67191962D01*
X108735238Y67239581D01*
X108973333Y67239581D01*
X109068571Y67287200D01*
X109544761Y66858629D02*
X109544761Y67525295D01*
X109544761Y67334819D02*
X109592380Y67430057D01*
X109640000Y67477676D01*
X109735238Y67525295D01*
X109830476Y67525295D01*
X110592380Y66858629D02*
X110592380Y67858629D01*
X110592380Y66906248D02*
X110497142Y66858629D01*
X110306666Y66858629D01*
X110211428Y66906248D01*
X110163809Y66953867D01*
X110116190Y67049105D01*
X110116190Y67334819D01*
X110163809Y67430057D01*
X110211428Y67477676D01*
X110306666Y67525295D01*
X110497142Y67525295D01*
X110592380Y67477676D01*
X111687619Y67858629D02*
X112020952Y66858629D01*
X112354285Y67858629D01*
X112878095Y67858629D02*
X112973333Y67858629D01*
X113068571Y67811010D01*
X113116190Y67763390D01*
X113163809Y67668152D01*
X113211428Y67477676D01*
X113211428Y67239581D01*
X113163809Y67049105D01*
X113116190Y66953867D01*
X113068571Y66906248D01*
X112973333Y66858629D01*
X112878095Y66858629D01*
X112782857Y66906248D01*
X112735238Y66953867D01*
X112687619Y67049105D01*
X112640000Y67239581D01*
X112640000Y67477676D01*
X112687619Y67668152D01*
X112735238Y67763390D01*
X112782857Y67811010D01*
X112878095Y67858629D01*
X113640000Y66953867D02*
X113687619Y66906248D01*
X113640000Y66858629D01*
X113592380Y66906248D01*
X113640000Y66953867D01*
X113640000Y66858629D01*
X114068571Y67763390D02*
X114116190Y67811010D01*
X114211428Y67858629D01*
X114449523Y67858629D01*
X114544761Y67811010D01*
X114592380Y67763390D01*
X114640000Y67668152D01*
X114640000Y67572914D01*
X114592380Y67430057D01*
X114020952Y66858629D01*
X114640000Y66858629D01*
X47871285Y5135619D02*
X47871285Y6135619D01*
X48252238Y6135619D01*
X48347476Y6088000D01*
X48395095Y6040380D01*
X48442714Y5945142D01*
X48442714Y5802285D01*
X48395095Y5707047D01*
X48347476Y5659428D01*
X48252238Y5611809D01*
X47871285Y5611809D01*
X49442714Y5135619D02*
X49109380Y5611809D01*
X48871285Y5135619D02*
X48871285Y6135619D01*
X49252238Y6135619D01*
X49347476Y6088000D01*
X49395095Y6040380D01*
X49442714Y5945142D01*
X49442714Y5802285D01*
X49395095Y5707047D01*
X49347476Y5659428D01*
X49252238Y5611809D01*
X48871285Y5611809D01*
X50061761Y6135619D02*
X50252238Y6135619D01*
X50347476Y6088000D01*
X50442714Y5992761D01*
X50490333Y5802285D01*
X50490333Y5468952D01*
X50442714Y5278476D01*
X50347476Y5183238D01*
X50252238Y5135619D01*
X50061761Y5135619D01*
X49966523Y5183238D01*
X49871285Y5278476D01*
X49823666Y5468952D01*
X49823666Y5802285D01*
X49871285Y5992761D01*
X49966523Y6088000D01*
X50061761Y6135619D01*
X51442714Y6088000D02*
X51347476Y6135619D01*
X51204619Y6135619D01*
X51061761Y6088000D01*
X50966523Y5992761D01*
X50918904Y5897523D01*
X50871285Y5707047D01*
X50871285Y5564190D01*
X50918904Y5373714D01*
X50966523Y5278476D01*
X51061761Y5183238D01*
X51204619Y5135619D01*
X51299857Y5135619D01*
X51442714Y5183238D01*
X51490333Y5230857D01*
X51490333Y5564190D01*
X51299857Y5564190D01*
G04 #@! TO.C,U1602*
X41306888Y10747323D02*
X42116412Y10747323D01*
X42211650Y10794942D01*
X42259269Y10842561D01*
X42306888Y10937800D01*
X42306888Y11128276D01*
X42259269Y11223514D01*
X42211650Y11271133D01*
X42116412Y11318752D01*
X41306888Y11318752D01*
X42306888Y12318752D02*
X42306888Y11747323D01*
X42306888Y12033038D02*
X41306888Y12033038D01*
X41449746Y11937800D01*
X41544984Y11842561D01*
X41592603Y11747323D01*
X41306888Y13175895D02*
X41306888Y12985419D01*
X41354508Y12890180D01*
X41402127Y12842561D01*
X41544984Y12747323D01*
X41735460Y12699704D01*
X42116412Y12699704D01*
X42211650Y12747323D01*
X42259269Y12794942D01*
X42306888Y12890180D01*
X42306888Y13080657D01*
X42259269Y13175895D01*
X42211650Y13223514D01*
X42116412Y13271133D01*
X41878317Y13271133D01*
X41783079Y13223514D01*
X41735460Y13175895D01*
X41687841Y13080657D01*
X41687841Y12890180D01*
X41735460Y12794942D01*
X41783079Y12747323D01*
X41878317Y12699704D01*
X41306888Y13890180D02*
X41306888Y13985419D01*
X41354508Y14080657D01*
X41402127Y14128276D01*
X41497365Y14175895D01*
X41687841Y14223514D01*
X41925936Y14223514D01*
X42116412Y14175895D01*
X42211650Y14128276D01*
X42259269Y14080657D01*
X42306888Y13985419D01*
X42306888Y13890180D01*
X42259269Y13794942D01*
X42211650Y13747323D01*
X42116412Y13699704D01*
X41925936Y13652085D01*
X41687841Y13652085D01*
X41497365Y13699704D01*
X41402127Y13747323D01*
X41354508Y13794942D01*
X41306888Y13890180D01*
X41402127Y14604466D02*
X41354508Y14652085D01*
X41306888Y14747323D01*
X41306888Y14985419D01*
X41354508Y15080657D01*
X41402127Y15128276D01*
X41497365Y15175895D01*
X41592603Y15175895D01*
X41735460Y15128276D01*
X42306888Y14556847D01*
X42306888Y15175895D01*
G04 #@! TO.C,U1603*
X41306888Y18770660D02*
X42116412Y18770660D01*
X42211650Y18818279D01*
X42259269Y18865898D01*
X42306888Y18961137D01*
X42306888Y19151613D01*
X42259269Y19246851D01*
X42211650Y19294470D01*
X42116412Y19342089D01*
X41306888Y19342089D01*
X42306888Y20342089D02*
X42306888Y19770660D01*
X42306888Y20056375D02*
X41306888Y20056375D01*
X41449746Y19961137D01*
X41544984Y19865898D01*
X41592603Y19770660D01*
X41306888Y21199232D02*
X41306888Y21008756D01*
X41354508Y20913517D01*
X41402127Y20865898D01*
X41544984Y20770660D01*
X41735460Y20723041D01*
X42116412Y20723041D01*
X42211650Y20770660D01*
X42259269Y20818279D01*
X42306888Y20913517D01*
X42306888Y21103994D01*
X42259269Y21199232D01*
X42211650Y21246851D01*
X42116412Y21294470D01*
X41878317Y21294470D01*
X41783079Y21246851D01*
X41735460Y21199232D01*
X41687841Y21103994D01*
X41687841Y20913517D01*
X41735460Y20818279D01*
X41783079Y20770660D01*
X41878317Y20723041D01*
X41306888Y21913517D02*
X41306888Y22008756D01*
X41354508Y22103994D01*
X41402127Y22151613D01*
X41497365Y22199232D01*
X41687841Y22246851D01*
X41925936Y22246851D01*
X42116412Y22199232D01*
X42211650Y22151613D01*
X42259269Y22103994D01*
X42306888Y22008756D01*
X42306888Y21913517D01*
X42259269Y21818279D01*
X42211650Y21770660D01*
X42116412Y21723041D01*
X41925936Y21675422D01*
X41687841Y21675422D01*
X41497365Y21723041D01*
X41402127Y21770660D01*
X41354508Y21818279D01*
X41306888Y21913517D01*
X41306888Y22580184D02*
X41306888Y23199232D01*
X41687841Y22865898D01*
X41687841Y23008756D01*
X41735460Y23103994D01*
X41783079Y23151613D01*
X41878317Y23199232D01*
X42116412Y23199232D01*
X42211650Y23151613D01*
X42259269Y23103994D01*
X42306888Y23008756D01*
X42306888Y22723041D01*
X42259269Y22627803D01*
X42211650Y22580184D01*
G04 #@! TO.C,U1701*
X40471610Y23553366D02*
X41281134Y23553366D01*
X41376372Y23600985D01*
X41423991Y23648604D01*
X41471610Y23743843D01*
X41471610Y23934319D01*
X41423991Y24029557D01*
X41376372Y24077176D01*
X41281134Y24124795D01*
X40471610Y24124795D01*
X41471610Y25124795D02*
X41471610Y24553366D01*
X41471610Y24839081D02*
X40471610Y24839081D01*
X40614468Y24743843D01*
X40709706Y24648604D01*
X40757325Y24553366D01*
X40471610Y25458128D02*
X40471610Y26124795D01*
X41471610Y25696223D01*
X40471610Y26696223D02*
X40471610Y26791462D01*
X40519230Y26886700D01*
X40566849Y26934319D01*
X40662087Y26981938D01*
X40852563Y27029557D01*
X41090658Y27029557D01*
X41281134Y26981938D01*
X41376372Y26934319D01*
X41423991Y26886700D01*
X41471610Y26791462D01*
X41471610Y26696223D01*
X41423991Y26600985D01*
X41376372Y26553366D01*
X41281134Y26505747D01*
X41090658Y26458128D01*
X40852563Y26458128D01*
X40662087Y26505747D01*
X40566849Y26553366D01*
X40519230Y26600985D01*
X40471610Y26696223D01*
X41471610Y27981938D02*
X41471610Y27410509D01*
X41471610Y27696223D02*
X40471610Y27696223D01*
X40614468Y27600985D01*
X40709706Y27505747D01*
X40757325Y27410509D01*
G04 #@! TO.C,U1702*
X41137953Y30349757D02*
X41947477Y30349757D01*
X42042715Y30397376D01*
X42090334Y30444995D01*
X42137953Y30540234D01*
X42137953Y30730710D01*
X42090334Y30825948D01*
X42042715Y30873567D01*
X41947477Y30921186D01*
X41137953Y30921186D01*
X42137953Y31921186D02*
X42137953Y31349757D01*
X42137953Y31635472D02*
X41137953Y31635472D01*
X41280811Y31540234D01*
X41376049Y31444995D01*
X41423668Y31349757D01*
X41137953Y32254519D02*
X41137953Y32921186D01*
X42137953Y32492614D01*
X41137953Y33492614D02*
X41137953Y33587853D01*
X41185573Y33683091D01*
X41233192Y33730710D01*
X41328430Y33778329D01*
X41518906Y33825948D01*
X41757001Y33825948D01*
X41947477Y33778329D01*
X42042715Y33730710D01*
X42090334Y33683091D01*
X42137953Y33587853D01*
X42137953Y33492614D01*
X42090334Y33397376D01*
X42042715Y33349757D01*
X41947477Y33302138D01*
X41757001Y33254519D01*
X41518906Y33254519D01*
X41328430Y33302138D01*
X41233192Y33349757D01*
X41185573Y33397376D01*
X41137953Y33492614D01*
X41233192Y34206900D02*
X41185573Y34254519D01*
X41137953Y34349757D01*
X41137953Y34587853D01*
X41185573Y34683091D01*
X41233192Y34730710D01*
X41328430Y34778329D01*
X41423668Y34778329D01*
X41566525Y34730710D01*
X42137953Y34159281D01*
X42137953Y34778329D01*
G04 #@! TO.C,R1503*
X100815380Y42473761D02*
X100339190Y42140428D01*
X100815380Y41902333D02*
X99815380Y41902333D01*
X99815380Y42283285D01*
X99863000Y42378523D01*
X99910619Y42426142D01*
X100005857Y42473761D01*
X100148714Y42473761D01*
X100243952Y42426142D01*
X100291571Y42378523D01*
X100339190Y42283285D01*
X100339190Y41902333D01*
X100815380Y43426142D02*
X100815380Y42854714D01*
X100815380Y43140428D02*
X99815380Y43140428D01*
X99958238Y43045190D01*
X100053476Y42949952D01*
X100101095Y42854714D01*
X99815380Y44330904D02*
X99815380Y43854714D01*
X100291571Y43807095D01*
X100243952Y43854714D01*
X100196333Y43949952D01*
X100196333Y44188047D01*
X100243952Y44283285D01*
X100291571Y44330904D01*
X100386809Y44378523D01*
X100624904Y44378523D01*
X100720142Y44330904D01*
X100767761Y44283285D01*
X100815380Y44188047D01*
X100815380Y43949952D01*
X100767761Y43854714D01*
X100720142Y43807095D01*
X99815380Y44997571D02*
X99815380Y45092809D01*
X99863000Y45188047D01*
X99910619Y45235666D01*
X100005857Y45283285D01*
X100196333Y45330904D01*
X100434428Y45330904D01*
X100624904Y45283285D01*
X100720142Y45235666D01*
X100767761Y45188047D01*
X100815380Y45092809D01*
X100815380Y44997571D01*
X100767761Y44902333D01*
X100720142Y44854714D01*
X100624904Y44807095D01*
X100434428Y44759476D01*
X100196333Y44759476D01*
X100005857Y44807095D01*
X99910619Y44854714D01*
X99863000Y44902333D01*
X99815380Y44997571D01*
X99815380Y45664238D02*
X99815380Y46283285D01*
X100196333Y45949952D01*
X100196333Y46092809D01*
X100243952Y46188047D01*
X100291571Y46235666D01*
X100386809Y46283285D01*
X100624904Y46283285D01*
X100720142Y46235666D01*
X100767761Y46188047D01*
X100815380Y46092809D01*
X100815380Y45807095D01*
X100767761Y45711857D01*
X100720142Y45664238D01*
G04 #@! TO.C,R50*
X100792893Y57805670D02*
X100459560Y58281860D01*
X100221465Y57805670D02*
X100221465Y58805670D01*
X100602417Y58805670D01*
X100697655Y58758051D01*
X100745274Y58710431D01*
X100792893Y58615193D01*
X100792893Y58472336D01*
X100745274Y58377098D01*
X100697655Y58329479D01*
X100602417Y58281860D01*
X100221465Y58281860D01*
X101697655Y58805670D02*
X101221465Y58805670D01*
X101173846Y58329479D01*
X101221465Y58377098D01*
X101316703Y58424717D01*
X101554798Y58424717D01*
X101650036Y58377098D01*
X101697655Y58329479D01*
X101745274Y58234241D01*
X101745274Y57996146D01*
X101697655Y57900908D01*
X101650036Y57853289D01*
X101554798Y57805670D01*
X101316703Y57805670D01*
X101221465Y57853289D01*
X101173846Y57900908D01*
X102364322Y58805670D02*
X102459560Y58805670D01*
X102554798Y58758051D01*
X102602417Y58710431D01*
X102650036Y58615193D01*
X102697655Y58424717D01*
X102697655Y58186622D01*
X102650036Y57996146D01*
X102602417Y57900908D01*
X102554798Y57853289D01*
X102459560Y57805670D01*
X102364322Y57805670D01*
X102269084Y57853289D01*
X102221465Y57900908D01*
X102173846Y57996146D01*
X102126227Y58186622D01*
X102126227Y58424717D01*
X102173846Y58615193D01*
X102221465Y58710431D01*
X102269084Y58758051D01*
X102364322Y58805670D01*
G04 #@! TO.C,R53*
X113778348Y60372452D02*
X113445015Y60848642D01*
X113206920Y60372452D02*
X113206920Y61372452D01*
X113587872Y61372452D01*
X113683110Y61324833D01*
X113730729Y61277213D01*
X113778348Y61181975D01*
X113778348Y61039118D01*
X113730729Y60943880D01*
X113683110Y60896261D01*
X113587872Y60848642D01*
X113206920Y60848642D01*
X114683110Y61372452D02*
X114206920Y61372452D01*
X114159301Y60896261D01*
X114206920Y60943880D01*
X114302158Y60991499D01*
X114540253Y60991499D01*
X114635491Y60943880D01*
X114683110Y60896261D01*
X114730729Y60801023D01*
X114730729Y60562928D01*
X114683110Y60467690D01*
X114635491Y60420071D01*
X114540253Y60372452D01*
X114302158Y60372452D01*
X114206920Y60420071D01*
X114159301Y60467690D01*
X115064063Y61372452D02*
X115683110Y61372452D01*
X115349777Y60991499D01*
X115492634Y60991499D01*
X115587872Y60943880D01*
X115635491Y60896261D01*
X115683110Y60801023D01*
X115683110Y60562928D01*
X115635491Y60467690D01*
X115587872Y60420071D01*
X115492634Y60372452D01*
X115206920Y60372452D01*
X115111682Y60420071D01*
X115064063Y60467690D01*
G04 #@! TO.C,D6*
X90392784Y63590407D02*
X90392784Y64590407D01*
X90630880Y64590407D01*
X90773737Y64542788D01*
X90868975Y64447549D01*
X90916594Y64352311D01*
X90964213Y64161835D01*
X90964213Y64018978D01*
X90916594Y63828502D01*
X90868975Y63733264D01*
X90773737Y63638026D01*
X90630880Y63590407D01*
X90392784Y63590407D01*
X91821356Y64590407D02*
X91630880Y64590407D01*
X91535641Y64542788D01*
X91488022Y64495168D01*
X91392784Y64352311D01*
X91345165Y64161835D01*
X91345165Y63780883D01*
X91392784Y63685645D01*
X91440403Y63638026D01*
X91535641Y63590407D01*
X91726118Y63590407D01*
X91821356Y63638026D01*
X91868975Y63685645D01*
X91916594Y63780883D01*
X91916594Y64018978D01*
X91868975Y64114216D01*
X91821356Y64161835D01*
X91726118Y64209454D01*
X91535641Y64209454D01*
X91440403Y64161835D01*
X91392784Y64114216D01*
X91345165Y64018978D01*
G04 #@! TO.C,U27*
X84705659Y62407343D02*
X84705659Y61597819D01*
X84753278Y61502581D01*
X84800897Y61454962D01*
X84896135Y61407343D01*
X85086612Y61407343D01*
X85181850Y61454962D01*
X85229469Y61502581D01*
X85277088Y61597819D01*
X85277088Y62407343D01*
X85705659Y62312104D02*
X85753278Y62359724D01*
X85848516Y62407343D01*
X86086612Y62407343D01*
X86181850Y62359724D01*
X86229469Y62312104D01*
X86277088Y62216866D01*
X86277088Y62121628D01*
X86229469Y61978771D01*
X85658040Y61407343D01*
X86277088Y61407343D01*
X86610421Y62407343D02*
X87277088Y62407343D01*
X86848516Y61407343D01*
G04 #@! TO.C,U25*
X113059980Y63844519D02*
X113059980Y63034995D01*
X113107599Y62939757D01*
X113155218Y62892138D01*
X113250456Y62844519D01*
X113440933Y62844519D01*
X113536171Y62892138D01*
X113583790Y62939757D01*
X113631409Y63034995D01*
X113631409Y63844519D01*
X114059980Y63749280D02*
X114107599Y63796900D01*
X114202837Y63844519D01*
X114440933Y63844519D01*
X114536171Y63796900D01*
X114583790Y63749280D01*
X114631409Y63654042D01*
X114631409Y63558804D01*
X114583790Y63415947D01*
X114012361Y62844519D01*
X114631409Y62844519D01*
X115536171Y63844519D02*
X115059980Y63844519D01*
X115012361Y63368328D01*
X115059980Y63415947D01*
X115155218Y63463566D01*
X115393314Y63463566D01*
X115488552Y63415947D01*
X115536171Y63368328D01*
X115583790Y63273090D01*
X115583790Y63034995D01*
X115536171Y62939757D01*
X115488552Y62892138D01*
X115393314Y62844519D01*
X115155218Y62844519D01*
X115059980Y62892138D01*
X115012361Y62939757D01*
G04 #@! TO.C,U6*
X81506366Y34983439D02*
X81506366Y34173915D01*
X81553985Y34078677D01*
X81601604Y34031058D01*
X81696842Y33983439D01*
X81887318Y33983439D01*
X81982556Y34031058D01*
X82030175Y34078677D01*
X82077794Y34173915D01*
X82077794Y34983439D01*
X82982556Y34983439D02*
X82792080Y34983439D01*
X82696842Y34935820D01*
X82649223Y34888200D01*
X82553985Y34745343D01*
X82506366Y34554867D01*
X82506366Y34173915D01*
X82553985Y34078677D01*
X82601604Y34031058D01*
X82696842Y33983439D01*
X82887318Y33983439D01*
X82982556Y34031058D01*
X83030175Y34078677D01*
X83077794Y34173915D01*
X83077794Y34412010D01*
X83030175Y34507248D01*
X82982556Y34554867D01*
X82887318Y34602486D01*
X82696842Y34602486D01*
X82601604Y34554867D01*
X82553985Y34507248D01*
X82506366Y34412010D01*
G04 #@! TO.C,C29*
X103999003Y63830080D02*
X103951384Y63782461D01*
X103808527Y63734842D01*
X103713289Y63734842D01*
X103570432Y63782461D01*
X103475194Y63877699D01*
X103427575Y63972937D01*
X103379956Y64163413D01*
X103379956Y64306270D01*
X103427575Y64496746D01*
X103475194Y64591984D01*
X103570432Y64687223D01*
X103713289Y64734842D01*
X103808527Y64734842D01*
X103951384Y64687223D01*
X103999003Y64639603D01*
X104379956Y64639603D02*
X104427575Y64687223D01*
X104522813Y64734842D01*
X104760908Y64734842D01*
X104856146Y64687223D01*
X104903765Y64639603D01*
X104951384Y64544365D01*
X104951384Y64449127D01*
X104903765Y64306270D01*
X104332337Y63734842D01*
X104951384Y63734842D01*
X105427575Y63734842D02*
X105618051Y63734842D01*
X105713289Y63782461D01*
X105760908Y63830080D01*
X105856146Y63972937D01*
X105903765Y64163413D01*
X105903765Y64544365D01*
X105856146Y64639603D01*
X105808527Y64687223D01*
X105713289Y64734842D01*
X105522813Y64734842D01*
X105427575Y64687223D01*
X105379956Y64639603D01*
X105332337Y64544365D01*
X105332337Y64306270D01*
X105379956Y64211032D01*
X105427575Y64163413D01*
X105522813Y64115794D01*
X105713289Y64115794D01*
X105808527Y64163413D01*
X105856146Y64211032D01*
X105903765Y64306270D01*
G04 #@! TO.C,C28*
X113664690Y61698988D02*
X113617071Y61651369D01*
X113474214Y61603750D01*
X113378976Y61603750D01*
X113236119Y61651369D01*
X113140881Y61746607D01*
X113093262Y61841845D01*
X113045643Y62032321D01*
X113045643Y62175178D01*
X113093262Y62365654D01*
X113140881Y62460892D01*
X113236119Y62556131D01*
X113378976Y62603750D01*
X113474214Y62603750D01*
X113617071Y62556131D01*
X113664690Y62508511D01*
X114045643Y62508511D02*
X114093262Y62556131D01*
X114188500Y62603750D01*
X114426595Y62603750D01*
X114521833Y62556131D01*
X114569452Y62508511D01*
X114617071Y62413273D01*
X114617071Y62318035D01*
X114569452Y62175178D01*
X113998024Y61603750D01*
X114617071Y61603750D01*
X115188500Y62175178D02*
X115093262Y62222797D01*
X115045643Y62270416D01*
X114998024Y62365654D01*
X114998024Y62413273D01*
X115045643Y62508511D01*
X115093262Y62556131D01*
X115188500Y62603750D01*
X115378976Y62603750D01*
X115474214Y62556131D01*
X115521833Y62508511D01*
X115569452Y62413273D01*
X115569452Y62365654D01*
X115521833Y62270416D01*
X115474214Y62222797D01*
X115378976Y62175178D01*
X115188500Y62175178D01*
X115093262Y62127559D01*
X115045643Y62079940D01*
X114998024Y61984702D01*
X114998024Y61794226D01*
X115045643Y61698988D01*
X115093262Y61651369D01*
X115188500Y61603750D01*
X115378976Y61603750D01*
X115474214Y61651369D01*
X115521833Y61698988D01*
X115569452Y61794226D01*
X115569452Y61984702D01*
X115521833Y62079940D01*
X115474214Y62127559D01*
X115378976Y62175178D01*
G04 #@! TO.C,U14*
X30686237Y56373635D02*
X31495761Y56373635D01*
X31590999Y56421254D01*
X31638618Y56468873D01*
X31686237Y56564111D01*
X31686237Y56754588D01*
X31638618Y56849826D01*
X31590999Y56897445D01*
X31495761Y56945064D01*
X30686237Y56945064D01*
X31686237Y57945064D02*
X31686237Y57373635D01*
X31686237Y57659350D02*
X30686237Y57659350D01*
X30829095Y57564111D01*
X30924333Y57468873D01*
X30971952Y57373635D01*
X31019571Y58802207D02*
X31686237Y58802207D01*
X30638618Y58564111D02*
X31352904Y58326016D01*
X31352904Y58945064D01*
G04 #@! TO.C,C18*
X75168241Y62835433D02*
X75120622Y62787814D01*
X74977765Y62740195D01*
X74882527Y62740195D01*
X74739670Y62787814D01*
X74644432Y62883052D01*
X74596813Y62978290D01*
X74549194Y63168766D01*
X74549194Y63311623D01*
X74596813Y63502099D01*
X74644432Y63597337D01*
X74739670Y63692576D01*
X74882527Y63740195D01*
X74977765Y63740195D01*
X75120622Y63692576D01*
X75168241Y63644956D01*
X76120622Y62740195D02*
X75549194Y62740195D01*
X75834908Y62740195D02*
X75834908Y63740195D01*
X75739670Y63597337D01*
X75644432Y63502099D01*
X75549194Y63454480D01*
X76692051Y63311623D02*
X76596813Y63359242D01*
X76549194Y63406861D01*
X76501575Y63502099D01*
X76501575Y63549718D01*
X76549194Y63644956D01*
X76596813Y63692576D01*
X76692051Y63740195D01*
X76882527Y63740195D01*
X76977765Y63692576D01*
X77025384Y63644956D01*
X77073003Y63549718D01*
X77073003Y63502099D01*
X77025384Y63406861D01*
X76977765Y63359242D01*
X76882527Y63311623D01*
X76692051Y63311623D01*
X76596813Y63264004D01*
X76549194Y63216385D01*
X76501575Y63121147D01*
X76501575Y62930671D01*
X76549194Y62835433D01*
X76596813Y62787814D01*
X76692051Y62740195D01*
X76882527Y62740195D01*
X76977765Y62787814D01*
X77025384Y62835433D01*
X77073003Y62930671D01*
X77073003Y63121147D01*
X77025384Y63216385D01*
X76977765Y63264004D01*
X76882527Y63311623D01*
G04 #@! TO.C,U1208*
X97768883Y25266208D02*
X98341303Y24693788D01*
X98442318Y24660117D01*
X98509661Y24660117D01*
X98610677Y24693788D01*
X98745364Y24828475D01*
X98779035Y24929491D01*
X98779035Y24996834D01*
X98745364Y25097849D01*
X98172944Y25670269D01*
X99587157Y25670269D02*
X99183096Y25266208D01*
X99385127Y25468239D02*
X98678020Y26175345D01*
X98711692Y26006987D01*
X98711692Y25872300D01*
X98678020Y25771284D01*
X99216768Y26579406D02*
X99216768Y26646750D01*
X99250440Y26747765D01*
X99418799Y26916124D01*
X99519814Y26949796D01*
X99587157Y26949796D01*
X99688173Y26916124D01*
X99755516Y26848780D01*
X99822860Y26714093D01*
X99822860Y25905971D01*
X100260592Y26343704D01*
X99991218Y27488544D02*
X100058562Y27555887D01*
X100159577Y27589559D01*
X100226921Y27589559D01*
X100327936Y27555887D01*
X100496295Y27454872D01*
X100664653Y27286513D01*
X100765669Y27118154D01*
X100799340Y27017139D01*
X100799340Y26949796D01*
X100765669Y26848780D01*
X100698325Y26781437D01*
X100597310Y26747765D01*
X100529966Y26747765D01*
X100428951Y26781437D01*
X100260592Y26882452D01*
X100092234Y27050811D01*
X99991218Y27219170D01*
X99957547Y27320185D01*
X99957547Y27387528D01*
X99991218Y27488544D01*
X100934027Y27825261D02*
X100833012Y27791589D01*
X100765669Y27791589D01*
X100664653Y27825261D01*
X100630982Y27858933D01*
X100597310Y27959948D01*
X100597310Y28027292D01*
X100630982Y28128307D01*
X100765669Y28262994D01*
X100866684Y28296666D01*
X100934027Y28296666D01*
X101035043Y28262994D01*
X101068714Y28229322D01*
X101102386Y28128307D01*
X101102386Y28060963D01*
X101068714Y27959948D01*
X100934027Y27825261D01*
X100900356Y27724246D01*
X100900356Y27656902D01*
X100934027Y27555887D01*
X101068714Y27421200D01*
X101169730Y27387528D01*
X101237073Y27387528D01*
X101338088Y27421200D01*
X101472775Y27555887D01*
X101506447Y27656902D01*
X101506447Y27724246D01*
X101472775Y27825261D01*
X101338088Y27959948D01*
X101237073Y27993620D01*
X101169730Y27993620D01*
X101068714Y27959948D01*
G04 #@! TO.C,R51*
X113778348Y57540467D02*
X113445015Y58016657D01*
X113206920Y57540467D02*
X113206920Y58540467D01*
X113587872Y58540467D01*
X113683110Y58492848D01*
X113730729Y58445228D01*
X113778348Y58349990D01*
X113778348Y58207133D01*
X113730729Y58111895D01*
X113683110Y58064276D01*
X113587872Y58016657D01*
X113206920Y58016657D01*
X114683110Y58540467D02*
X114206920Y58540467D01*
X114159301Y58064276D01*
X114206920Y58111895D01*
X114302158Y58159514D01*
X114540253Y58159514D01*
X114635491Y58111895D01*
X114683110Y58064276D01*
X114730729Y57969038D01*
X114730729Y57730943D01*
X114683110Y57635705D01*
X114635491Y57588086D01*
X114540253Y57540467D01*
X114302158Y57540467D01*
X114206920Y57588086D01*
X114159301Y57635705D01*
X115683110Y57540467D02*
X115111682Y57540467D01*
X115397396Y57540467D02*
X115397396Y58540467D01*
X115302158Y58397609D01*
X115206920Y58302371D01*
X115111682Y58254752D01*
G04 #@! TO.C,R49*
X75558091Y65176759D02*
X75224758Y65652949D01*
X74986663Y65176759D02*
X74986663Y66176759D01*
X75367615Y66176759D01*
X75462853Y66129140D01*
X75510472Y66081520D01*
X75558091Y65986282D01*
X75558091Y65843425D01*
X75510472Y65748187D01*
X75462853Y65700568D01*
X75367615Y65652949D01*
X74986663Y65652949D01*
X76415234Y65843425D02*
X76415234Y65176759D01*
X76177139Y66224378D02*
X75939044Y65510092D01*
X76558091Y65510092D01*
X76986663Y65176759D02*
X77177139Y65176759D01*
X77272377Y65224378D01*
X77319996Y65271997D01*
X77415234Y65414854D01*
X77462853Y65605330D01*
X77462853Y65986282D01*
X77415234Y66081520D01*
X77367615Y66129140D01*
X77272377Y66176759D01*
X77081901Y66176759D01*
X76986663Y66129140D01*
X76939044Y66081520D01*
X76891425Y65986282D01*
X76891425Y65748187D01*
X76939044Y65652949D01*
X76986663Y65605330D01*
X77081901Y65557711D01*
X77272377Y65557711D01*
X77367615Y65605330D01*
X77415234Y65652949D01*
X77462853Y65748187D01*
G04 #@! TO.C,C19*
X75148748Y64043969D02*
X75101129Y63996350D01*
X74958272Y63948731D01*
X74863034Y63948731D01*
X74720177Y63996350D01*
X74624939Y64091588D01*
X74577320Y64186826D01*
X74529701Y64377302D01*
X74529701Y64520159D01*
X74577320Y64710635D01*
X74624939Y64805873D01*
X74720177Y64901112D01*
X74863034Y64948731D01*
X74958272Y64948731D01*
X75101129Y64901112D01*
X75148748Y64853492D01*
X76101129Y63948731D02*
X75529701Y63948731D01*
X75815415Y63948731D02*
X75815415Y64948731D01*
X75720177Y64805873D01*
X75624939Y64710635D01*
X75529701Y64663016D01*
X76577320Y63948731D02*
X76767796Y63948731D01*
X76863034Y63996350D01*
X76910653Y64043969D01*
X77005891Y64186826D01*
X77053510Y64377302D01*
X77053510Y64758254D01*
X77005891Y64853492D01*
X76958272Y64901112D01*
X76863034Y64948731D01*
X76672558Y64948731D01*
X76577320Y64901112D01*
X76529701Y64853492D01*
X76482082Y64758254D01*
X76482082Y64520159D01*
X76529701Y64424921D01*
X76577320Y64377302D01*
X76672558Y64329683D01*
X76863034Y64329683D01*
X76958272Y64377302D01*
X77005891Y64424921D01*
X77053510Y64520159D01*
G04 #@! TO.C,U13*
X40415203Y56754642D02*
X41224727Y56754642D01*
X41319965Y56802261D01*
X41367584Y56849880D01*
X41415203Y56945118D01*
X41415203Y57135595D01*
X41367584Y57230833D01*
X41319965Y57278452D01*
X41224727Y57326071D01*
X40415203Y57326071D01*
X41415203Y58326071D02*
X41415203Y57754642D01*
X41415203Y58040357D02*
X40415203Y58040357D01*
X40558061Y57945118D01*
X40653299Y57849880D01*
X40700918Y57754642D01*
X40415203Y58659404D02*
X40415203Y59278452D01*
X40796156Y58945118D01*
X40796156Y59087976D01*
X40843775Y59183214D01*
X40891394Y59230833D01*
X40986632Y59278452D01*
X41224727Y59278452D01*
X41319965Y59230833D01*
X41367584Y59183214D01*
X41415203Y59087976D01*
X41415203Y58802261D01*
X41367584Y58707023D01*
X41319965Y58659404D01*
G04 #@! TO.C,R37*
X72246299Y30118954D02*
X71912966Y30595144D01*
X71674871Y30118954D02*
X71674871Y31118954D01*
X72055823Y31118954D01*
X72151061Y31071335D01*
X72198680Y31023715D01*
X72246299Y30928477D01*
X72246299Y30785620D01*
X72198680Y30690382D01*
X72151061Y30642763D01*
X72055823Y30595144D01*
X71674871Y30595144D01*
X72579633Y31118954D02*
X73198680Y31118954D01*
X72865347Y30738001D01*
X73008204Y30738001D01*
X73103442Y30690382D01*
X73151061Y30642763D01*
X73198680Y30547525D01*
X73198680Y30309430D01*
X73151061Y30214192D01*
X73103442Y30166573D01*
X73008204Y30118954D01*
X72722490Y30118954D01*
X72627252Y30166573D01*
X72579633Y30214192D01*
X73532014Y31118954D02*
X74198680Y31118954D01*
X73770109Y30118954D01*
G04 #@! TO.C,U26*
X113306240Y59875952D02*
X113306240Y59066428D01*
X113353859Y58971190D01*
X113401478Y58923571D01*
X113496716Y58875952D01*
X113687193Y58875952D01*
X113782431Y58923571D01*
X113830050Y58971190D01*
X113877669Y59066428D01*
X113877669Y59875952D01*
X114306240Y59780713D02*
X114353859Y59828333D01*
X114449097Y59875952D01*
X114687193Y59875952D01*
X114782431Y59828333D01*
X114830050Y59780713D01*
X114877669Y59685475D01*
X114877669Y59590237D01*
X114830050Y59447380D01*
X114258621Y58875952D01*
X114877669Y58875952D01*
X115734812Y59875952D02*
X115544336Y59875952D01*
X115449097Y59828333D01*
X115401478Y59780713D01*
X115306240Y59637856D01*
X115258621Y59447380D01*
X115258621Y59066428D01*
X115306240Y58971190D01*
X115353859Y58923571D01*
X115449097Y58875952D01*
X115639574Y58875952D01*
X115734812Y58923571D01*
X115782431Y58971190D01*
X115830050Y59066428D01*
X115830050Y59304523D01*
X115782431Y59399761D01*
X115734812Y59447380D01*
X115639574Y59494999D01*
X115449097Y59494999D01*
X115353859Y59447380D01*
X115306240Y59399761D01*
X115258621Y59304523D01*
G04 #@! TO.C,R52*
X100802364Y59283227D02*
X100469031Y59759417D01*
X100230936Y59283227D02*
X100230936Y60283227D01*
X100611888Y60283227D01*
X100707126Y60235608D01*
X100754745Y60187988D01*
X100802364Y60092750D01*
X100802364Y59949893D01*
X100754745Y59854655D01*
X100707126Y59807036D01*
X100611888Y59759417D01*
X100230936Y59759417D01*
X101707126Y60283227D02*
X101230936Y60283227D01*
X101183317Y59807036D01*
X101230936Y59854655D01*
X101326174Y59902274D01*
X101564269Y59902274D01*
X101659507Y59854655D01*
X101707126Y59807036D01*
X101754745Y59711798D01*
X101754745Y59473703D01*
X101707126Y59378465D01*
X101659507Y59330846D01*
X101564269Y59283227D01*
X101326174Y59283227D01*
X101230936Y59330846D01*
X101183317Y59378465D01*
X102135698Y60187988D02*
X102183317Y60235608D01*
X102278555Y60283227D01*
X102516650Y60283227D01*
X102611888Y60235608D01*
X102659507Y60187988D01*
X102707126Y60092750D01*
X102707126Y59997512D01*
X102659507Y59854655D01*
X102088079Y59283227D01*
X102707126Y59283227D01*
G04 #@! TO.C,C31*
X110643275Y63896381D02*
X110595656Y63848762D01*
X110452799Y63801143D01*
X110357561Y63801143D01*
X110214704Y63848762D01*
X110119466Y63944000D01*
X110071847Y64039238D01*
X110024228Y64229714D01*
X110024228Y64372571D01*
X110071847Y64563047D01*
X110119466Y64658285D01*
X110214704Y64753524D01*
X110357561Y64801143D01*
X110452799Y64801143D01*
X110595656Y64753524D01*
X110643275Y64705904D01*
X110976609Y64801143D02*
X111595656Y64801143D01*
X111262323Y64420190D01*
X111405180Y64420190D01*
X111500418Y64372571D01*
X111548037Y64324952D01*
X111595656Y64229714D01*
X111595656Y63991619D01*
X111548037Y63896381D01*
X111500418Y63848762D01*
X111405180Y63801143D01*
X111119466Y63801143D01*
X111024228Y63848762D01*
X110976609Y63896381D01*
X112548037Y63801143D02*
X111976609Y63801143D01*
X112262323Y63801143D02*
X112262323Y64801143D01*
X112167085Y64658285D01*
X112071847Y64563047D01*
X111976609Y64515428D01*
G04 #@! TO.C,U10*
X111138717Y35732676D02*
X111138717Y34923152D01*
X111186336Y34827914D01*
X111233955Y34780295D01*
X111329193Y34732676D01*
X111519670Y34732676D01*
X111614908Y34780295D01*
X111662527Y34827914D01*
X111710146Y34923152D01*
X111710146Y35732676D01*
X112710146Y34732676D02*
X112138717Y34732676D01*
X112424432Y34732676D02*
X112424432Y35732676D01*
X112329193Y35589818D01*
X112233955Y35494580D01*
X112138717Y35446961D01*
X113329193Y35732676D02*
X113424432Y35732676D01*
X113519670Y35685057D01*
X113567289Y35637437D01*
X113614908Y35542199D01*
X113662527Y35351723D01*
X113662527Y35113628D01*
X113614908Y34923152D01*
X113567289Y34827914D01*
X113519670Y34780295D01*
X113424432Y34732676D01*
X113329193Y34732676D01*
X113233955Y34780295D01*
X113186336Y34827914D01*
X113138717Y34923152D01*
X113091098Y35113628D01*
X113091098Y35351723D01*
X113138717Y35542199D01*
X113186336Y35637437D01*
X113233955Y35685057D01*
X113329193Y35732676D01*
G04 #@! TO.C,U12*
X58612853Y56652426D02*
X59422377Y56652426D01*
X59517615Y56700045D01*
X59565234Y56747664D01*
X59612853Y56842902D01*
X59612853Y57033379D01*
X59565234Y57128617D01*
X59517615Y57176236D01*
X59422377Y57223855D01*
X58612853Y57223855D01*
X59612853Y58223855D02*
X59612853Y57652426D01*
X59612853Y57938141D02*
X58612853Y57938141D01*
X58755711Y57842902D01*
X58850949Y57747664D01*
X58898568Y57652426D01*
X58708092Y58604807D02*
X58660473Y58652426D01*
X58612853Y58747664D01*
X58612853Y58985760D01*
X58660473Y59080998D01*
X58708092Y59128617D01*
X58803330Y59176236D01*
X58898568Y59176236D01*
X59041425Y59128617D01*
X59612853Y58557188D01*
X59612853Y59176236D01*
G04 #@! TO.C,R36*
X87184334Y31167815D02*
X86611915Y31268830D01*
X86780273Y30763754D02*
X86073167Y31470861D01*
X86342541Y31740235D01*
X86443556Y31773907D01*
X86510899Y31773907D01*
X86611915Y31740235D01*
X86712930Y31639220D01*
X86746602Y31538204D01*
X86746602Y31470861D01*
X86712930Y31369846D01*
X86443556Y31100472D01*
X86712930Y32110624D02*
X87150663Y32548357D01*
X87184334Y32043281D01*
X87285350Y32144296D01*
X87386365Y32177968D01*
X87453709Y32177968D01*
X87554724Y32144296D01*
X87723083Y31975937D01*
X87756754Y31874922D01*
X87756754Y31807578D01*
X87723083Y31706563D01*
X87521052Y31504533D01*
X87420037Y31470861D01*
X87352693Y31470861D01*
X87756754Y33154449D02*
X87622067Y33019762D01*
X87588396Y32918746D01*
X87588396Y32851403D01*
X87622067Y32683044D01*
X87723083Y32514685D01*
X87992457Y32245311D01*
X88093472Y32211640D01*
X88160815Y32211640D01*
X88261831Y32245311D01*
X88396518Y32379998D01*
X88430189Y32481014D01*
X88430189Y32548357D01*
X88396518Y32649372D01*
X88228159Y32817731D01*
X88127144Y32851403D01*
X88059800Y32851403D01*
X87958785Y32817731D01*
X87824098Y32683044D01*
X87790426Y32582029D01*
X87790426Y32514685D01*
X87824098Y32413670D01*
G04 #@! TO.C,C33*
X86041024Y67159313D02*
X85993405Y67111694D01*
X85850548Y67064075D01*
X85755310Y67064075D01*
X85612453Y67111694D01*
X85517215Y67206932D01*
X85469596Y67302170D01*
X85421977Y67492646D01*
X85421977Y67635503D01*
X85469596Y67825979D01*
X85517215Y67921217D01*
X85612453Y68016456D01*
X85755310Y68064075D01*
X85850548Y68064075D01*
X85993405Y68016456D01*
X86041024Y67968836D01*
X86374358Y68064075D02*
X86993405Y68064075D01*
X86660072Y67683122D01*
X86802929Y67683122D01*
X86898167Y67635503D01*
X86945786Y67587884D01*
X86993405Y67492646D01*
X86993405Y67254551D01*
X86945786Y67159313D01*
X86898167Y67111694D01*
X86802929Y67064075D01*
X86517215Y67064075D01*
X86421977Y67111694D01*
X86374358Y67159313D01*
X87326739Y68064075D02*
X87945786Y68064075D01*
X87612453Y67683122D01*
X87755310Y67683122D01*
X87850548Y67635503D01*
X87898167Y67587884D01*
X87945786Y67492646D01*
X87945786Y67254551D01*
X87898167Y67159313D01*
X87850548Y67111694D01*
X87755310Y67064075D01*
X87469596Y67064075D01*
X87374358Y67111694D01*
X87326739Y67159313D01*
G04 #@! TO.C,U18*
X30771754Y47473767D02*
X31581278Y47473767D01*
X31676516Y47521386D01*
X31724135Y47569005D01*
X31771754Y47664243D01*
X31771754Y47854720D01*
X31724135Y47949958D01*
X31676516Y47997577D01*
X31581278Y48045196D01*
X30771754Y48045196D01*
X31771754Y49045196D02*
X31771754Y48473767D01*
X31771754Y48759482D02*
X30771754Y48759482D01*
X30914612Y48664243D01*
X31009850Y48569005D01*
X31057469Y48473767D01*
X31200326Y49616624D02*
X31152707Y49521386D01*
X31105088Y49473767D01*
X31009850Y49426148D01*
X30962231Y49426148D01*
X30866993Y49473767D01*
X30819374Y49521386D01*
X30771754Y49616624D01*
X30771754Y49807101D01*
X30819374Y49902339D01*
X30866993Y49949958D01*
X30962231Y49997577D01*
X31009850Y49997577D01*
X31105088Y49949958D01*
X31152707Y49902339D01*
X31200326Y49807101D01*
X31200326Y49616624D01*
X31247945Y49521386D01*
X31295564Y49473767D01*
X31390802Y49426148D01*
X31581278Y49426148D01*
X31676516Y49473767D01*
X31724135Y49521386D01*
X31771754Y49616624D01*
X31771754Y49807101D01*
X31724135Y49902339D01*
X31676516Y49949958D01*
X31581278Y49997577D01*
X31390802Y49997577D01*
X31295564Y49949958D01*
X31247945Y49902339D01*
X31200326Y49807101D01*
G04 #@! TO.C,R48*
X75168241Y61492674D02*
X74834908Y61968864D01*
X74596813Y61492674D02*
X74596813Y62492674D01*
X74977765Y62492674D01*
X75073003Y62445055D01*
X75120622Y62397435D01*
X75168241Y62302197D01*
X75168241Y62159340D01*
X75120622Y62064102D01*
X75073003Y62016483D01*
X74977765Y61968864D01*
X74596813Y61968864D01*
X76025384Y62159340D02*
X76025384Y61492674D01*
X75787289Y62540293D02*
X75549194Y61826007D01*
X76168241Y61826007D01*
X76692051Y62064102D02*
X76596813Y62111721D01*
X76549194Y62159340D01*
X76501575Y62254578D01*
X76501575Y62302197D01*
X76549194Y62397435D01*
X76596813Y62445055D01*
X76692051Y62492674D01*
X76882527Y62492674D01*
X76977765Y62445055D01*
X77025384Y62397435D01*
X77073003Y62302197D01*
X77073003Y62254578D01*
X77025384Y62159340D01*
X76977765Y62111721D01*
X76882527Y62064102D01*
X76692051Y62064102D01*
X76596813Y62016483D01*
X76549194Y61968864D01*
X76501575Y61873626D01*
X76501575Y61683150D01*
X76549194Y61587912D01*
X76596813Y61540293D01*
X76692051Y61492674D01*
X76882527Y61492674D01*
X76977765Y61540293D01*
X77025384Y61587912D01*
X77073003Y61683150D01*
X77073003Y61873626D01*
X77025384Y61968864D01*
X76977765Y62016483D01*
X76882527Y62064102D01*
G04 #@! TO.C,U7*
X99202794Y35504434D02*
X99202794Y34694910D01*
X99250413Y34599672D01*
X99298032Y34552053D01*
X99393270Y34504434D01*
X99583746Y34504434D01*
X99678984Y34552053D01*
X99726603Y34599672D01*
X99774222Y34694910D01*
X99774222Y35504434D01*
X100155175Y35504434D02*
X100821841Y35504434D01*
X100393270Y34504434D01*
G04 #@! TO.C,U20*
X49690298Y45819340D02*
X50499822Y45819340D01*
X50595060Y45866959D01*
X50642679Y45914578D01*
X50690298Y46009816D01*
X50690298Y46200293D01*
X50642679Y46295531D01*
X50595060Y46343150D01*
X50499822Y46390769D01*
X49690298Y46390769D01*
X49785537Y46819340D02*
X49737918Y46866959D01*
X49690298Y46962197D01*
X49690298Y47200293D01*
X49737918Y47295531D01*
X49785537Y47343150D01*
X49880775Y47390769D01*
X49976013Y47390769D01*
X50118870Y47343150D01*
X50690298Y46771721D01*
X50690298Y47390769D01*
X49690298Y48009816D02*
X49690298Y48105055D01*
X49737918Y48200293D01*
X49785537Y48247912D01*
X49880775Y48295531D01*
X50071251Y48343150D01*
X50309346Y48343150D01*
X50499822Y48295531D01*
X50595060Y48247912D01*
X50642679Y48200293D01*
X50690298Y48105055D01*
X50690298Y48009816D01*
X50642679Y47914578D01*
X50595060Y47866959D01*
X50499822Y47819340D01*
X50309346Y47771721D01*
X50071251Y47771721D01*
X49880775Y47819340D01*
X49785537Y47866959D01*
X49737918Y47914578D01*
X49690298Y48009816D01*
G04 #@! TO.C,IC1*
X81048610Y61407343D02*
X81048610Y62407343D01*
X82096229Y61502581D02*
X82048610Y61454962D01*
X81905753Y61407343D01*
X81810515Y61407343D01*
X81667658Y61454962D01*
X81572420Y61550200D01*
X81524801Y61645438D01*
X81477181Y61835914D01*
X81477181Y61978771D01*
X81524801Y62169247D01*
X81572420Y62264485D01*
X81667658Y62359724D01*
X81810515Y62407343D01*
X81905753Y62407343D01*
X82048610Y62359724D01*
X82096229Y62312104D01*
X83048610Y61407343D02*
X82477181Y61407343D01*
X82762896Y61407343D02*
X82762896Y62407343D01*
X82667658Y62264485D01*
X82572420Y62169247D01*
X82477181Y62121628D01*
G04 #@! TO.C,U1207*
X104308163Y33533836D02*
X104880583Y32961416D01*
X104981598Y32927745D01*
X105048941Y32927745D01*
X105149957Y32961416D01*
X105284644Y33096103D01*
X105318315Y33197119D01*
X105318315Y33264462D01*
X105284644Y33365477D01*
X104712224Y33937897D01*
X106126437Y33937897D02*
X105722376Y33533836D01*
X105924407Y33735867D02*
X105217300Y34442973D01*
X105250972Y34274615D01*
X105250972Y34139928D01*
X105217300Y34038912D01*
X105756048Y34847034D02*
X105756048Y34914378D01*
X105789720Y35015393D01*
X105958079Y35183752D01*
X106059094Y35217424D01*
X106126437Y35217424D01*
X106227453Y35183752D01*
X106294796Y35116408D01*
X106362140Y34981721D01*
X106362140Y34173599D01*
X106799872Y34611332D01*
X106530498Y35756172D02*
X106597842Y35823515D01*
X106698857Y35857187D01*
X106766201Y35857187D01*
X106867216Y35823515D01*
X107035575Y35722500D01*
X107203933Y35554141D01*
X107304949Y35385782D01*
X107338620Y35284767D01*
X107338620Y35217424D01*
X107304949Y35116408D01*
X107237605Y35049065D01*
X107136590Y35015393D01*
X107069246Y35015393D01*
X106968231Y35049065D01*
X106799872Y35150080D01*
X106631514Y35318439D01*
X106530498Y35486798D01*
X106496827Y35587813D01*
X106496827Y35655156D01*
X106530498Y35756172D01*
X107001903Y36227576D02*
X107473307Y36698981D01*
X107877368Y35688828D01*
G04 #@! TO.C,U19*
X57373498Y49427030D02*
X58183022Y49427030D01*
X58278260Y49474649D01*
X58325879Y49522268D01*
X58373498Y49617506D01*
X58373498Y49807983D01*
X58325879Y49903221D01*
X58278260Y49950840D01*
X58183022Y49998459D01*
X57373498Y49998459D01*
X58373498Y50998459D02*
X58373498Y50427030D01*
X58373498Y50712745D02*
X57373498Y50712745D01*
X57516356Y50617506D01*
X57611594Y50522268D01*
X57659213Y50427030D01*
X58373498Y51474649D02*
X58373498Y51665126D01*
X58325879Y51760364D01*
X58278260Y51807983D01*
X58135403Y51903221D01*
X57944927Y51950840D01*
X57563975Y51950840D01*
X57468737Y51903221D01*
X57421118Y51855602D01*
X57373498Y51760364D01*
X57373498Y51569887D01*
X57421118Y51474649D01*
X57468737Y51427030D01*
X57563975Y51379411D01*
X57802070Y51379411D01*
X57897308Y51427030D01*
X57944927Y51474649D01*
X57992546Y51569887D01*
X57992546Y51760364D01*
X57944927Y51855602D01*
X57897308Y51903221D01*
X57802070Y51950840D01*
G04 #@! TO.C,U15*
X47958807Y58606431D02*
X48768331Y58606431D01*
X48863569Y58654050D01*
X48911188Y58701669D01*
X48958807Y58796907D01*
X48958807Y58987384D01*
X48911188Y59082622D01*
X48863569Y59130241D01*
X48768331Y59177860D01*
X47958807Y59177860D01*
X48958807Y60177860D02*
X48958807Y59606431D01*
X48958807Y59892146D02*
X47958807Y59892146D01*
X48101665Y59796907D01*
X48196903Y59701669D01*
X48244522Y59606431D01*
X47958807Y61082622D02*
X47958807Y60606431D01*
X48434998Y60558812D01*
X48387379Y60606431D01*
X48339760Y60701669D01*
X48339760Y60939765D01*
X48387379Y61035003D01*
X48434998Y61082622D01*
X48530236Y61130241D01*
X48768331Y61130241D01*
X48863569Y61082622D01*
X48911188Y61035003D01*
X48958807Y60939765D01*
X48958807Y60701669D01*
X48911188Y60606431D01*
X48863569Y60558812D01*
G04 #@! TO.C,U22*
X50290167Y-1843937D02*
X51099691Y-1843937D01*
X51194929Y-1796318D01*
X51242548Y-1748699D01*
X51290167Y-1653461D01*
X51290167Y-1462984D01*
X51242548Y-1367746D01*
X51194929Y-1320127D01*
X51099691Y-1272508D01*
X50290167Y-1272508D01*
X50385406Y-843937D02*
X50337787Y-796318D01*
X50290167Y-701080D01*
X50290167Y-462984D01*
X50337787Y-367746D01*
X50385406Y-320127D01*
X50480644Y-272508D01*
X50575882Y-272508D01*
X50718739Y-320127D01*
X51290167Y-891556D01*
X51290167Y-272508D01*
X50385406Y108443D02*
X50337787Y156062D01*
X50290167Y251300D01*
X50290167Y489396D01*
X50337787Y584634D01*
X50385406Y632253D01*
X50480644Y679872D01*
X50575882Y679872D01*
X50718739Y632253D01*
X51290167Y60824D01*
X51290167Y679872D01*
G04 #@! TO.C,D5*
X75947085Y66669502D02*
X75947085Y67669502D01*
X76185181Y67669502D01*
X76328038Y67621883D01*
X76423276Y67526644D01*
X76470895Y67431406D01*
X76518514Y67240930D01*
X76518514Y67098073D01*
X76470895Y66907597D01*
X76423276Y66812359D01*
X76328038Y66717121D01*
X76185181Y66669502D01*
X75947085Y66669502D01*
X77423276Y67669502D02*
X76947085Y67669502D01*
X76899466Y67193311D01*
X76947085Y67240930D01*
X77042323Y67288549D01*
X77280419Y67288549D01*
X77375657Y67240930D01*
X77423276Y67193311D01*
X77470895Y67098073D01*
X77470895Y66859978D01*
X77423276Y66764740D01*
X77375657Y66717121D01*
X77280419Y66669502D01*
X77042323Y66669502D01*
X76947085Y66717121D01*
X76899466Y66764740D01*
G04 #@! TO.C,U1202*
X97103767Y30779447D02*
X97676187Y30207027D01*
X97777202Y30173356D01*
X97844545Y30173356D01*
X97945561Y30207027D01*
X98080248Y30341714D01*
X98113919Y30442730D01*
X98113919Y30510073D01*
X98080248Y30611088D01*
X97507828Y31183508D01*
X98922041Y31183508D02*
X98517980Y30779447D01*
X98720011Y30981478D02*
X98012904Y31688584D01*
X98046576Y31520226D01*
X98046576Y31385539D01*
X98012904Y31284523D01*
X98551652Y32092645D02*
X98551652Y32159989D01*
X98585324Y32261004D01*
X98753683Y32429363D01*
X98854698Y32463035D01*
X98922041Y32463035D01*
X99023057Y32429363D01*
X99090400Y32362019D01*
X99157744Y32227332D01*
X99157744Y31419210D01*
X99595476Y31856943D01*
X99326102Y33001783D02*
X99393446Y33069126D01*
X99494461Y33102798D01*
X99561805Y33102798D01*
X99662820Y33069126D01*
X99831179Y32968111D01*
X99999537Y32799752D01*
X100100553Y32631393D01*
X100134224Y32530378D01*
X100134224Y32463035D01*
X100100553Y32362019D01*
X100033209Y32294676D01*
X99932194Y32261004D01*
X99864850Y32261004D01*
X99763835Y32294676D01*
X99595476Y32395691D01*
X99427118Y32564050D01*
X99326102Y32732409D01*
X99292431Y32833424D01*
X99292431Y32900767D01*
X99326102Y33001783D01*
X99898522Y33439515D02*
X99898522Y33506859D01*
X99932194Y33607874D01*
X100100553Y33776233D01*
X100201568Y33809905D01*
X100268911Y33809905D01*
X100369927Y33776233D01*
X100437270Y33708889D01*
X100504614Y33574202D01*
X100504614Y32766080D01*
X100942346Y33203813D01*
G04 #@! TO.C,U11*
X72777071Y24394454D02*
X72777071Y23584930D01*
X72824690Y23489692D01*
X72872309Y23442073D01*
X72967547Y23394454D01*
X73158024Y23394454D01*
X73253262Y23442073D01*
X73300881Y23489692D01*
X73348500Y23584930D01*
X73348500Y24394454D01*
X74348500Y23394454D02*
X73777071Y23394454D01*
X74062786Y23394454D02*
X74062786Y24394454D01*
X73967547Y24251596D01*
X73872309Y24156358D01*
X73777071Y24108739D01*
X75300881Y23394454D02*
X74729452Y23394454D01*
X75015167Y23394454D02*
X75015167Y24394454D01*
X74919928Y24251596D01*
X74824690Y24156358D01*
X74729452Y24108739D01*
G04 #@! TO.C,U21*
X41427548Y5844807D02*
X41427548Y5035283D01*
X41475167Y4940045D01*
X41522786Y4892426D01*
X41618024Y4844807D01*
X41808501Y4844807D01*
X41903739Y4892426D01*
X41951358Y4940045D01*
X41998977Y5035283D01*
X41998977Y5844807D01*
X42427548Y5749568D02*
X42475167Y5797188D01*
X42570405Y5844807D01*
X42808501Y5844807D01*
X42903739Y5797188D01*
X42951358Y5749568D01*
X42998977Y5654330D01*
X42998977Y5559092D01*
X42951358Y5416235D01*
X42379929Y4844807D01*
X42998977Y4844807D01*
X43951358Y4844807D02*
X43379929Y4844807D01*
X43665644Y4844807D02*
X43665644Y5844807D01*
X43570405Y5701949D01*
X43475167Y5606711D01*
X43379929Y5559092D01*
G04 #@! TO.C,U24*
X41976608Y-2347492D02*
X42786132Y-2347492D01*
X42881370Y-2299873D01*
X42928989Y-2252254D01*
X42976608Y-2157016D01*
X42976608Y-1966539D01*
X42928989Y-1871301D01*
X42881370Y-1823682D01*
X42786132Y-1776063D01*
X41976608Y-1776063D01*
X42071847Y-1347492D02*
X42024228Y-1299873D01*
X41976608Y-1204635D01*
X41976608Y-966539D01*
X42024228Y-871301D01*
X42071847Y-823682D01*
X42167085Y-776063D01*
X42262323Y-776063D01*
X42405180Y-823682D01*
X42976608Y-1395111D01*
X42976608Y-776063D01*
X42309942Y81079D02*
X42976608Y81079D01*
X41928989Y-157016D02*
X42643275Y-395111D01*
X42643275Y223936D01*
G04 #@! TO.C,C27*
X100830142Y60856857D02*
X100782523Y60809238D01*
X100639666Y60761619D01*
X100544428Y60761619D01*
X100401571Y60809238D01*
X100306333Y60904476D01*
X100258714Y60999714D01*
X100211095Y61190190D01*
X100211095Y61333047D01*
X100258714Y61523523D01*
X100306333Y61618761D01*
X100401571Y61714000D01*
X100544428Y61761619D01*
X100639666Y61761619D01*
X100782523Y61714000D01*
X100830142Y61666380D01*
X101211095Y61666380D02*
X101258714Y61714000D01*
X101353952Y61761619D01*
X101592047Y61761619D01*
X101687285Y61714000D01*
X101734904Y61666380D01*
X101782523Y61571142D01*
X101782523Y61475904D01*
X101734904Y61333047D01*
X101163476Y60761619D01*
X101782523Y60761619D01*
X102115857Y61761619D02*
X102782523Y61761619D01*
X102353952Y60761619D01*
G04 #@! TO.C,R54*
X81783287Y66293270D02*
X81449954Y66769460D01*
X81211859Y66293270D02*
X81211859Y67293270D01*
X81592811Y67293270D01*
X81688049Y67245651D01*
X81735668Y67198031D01*
X81783287Y67102793D01*
X81783287Y66959936D01*
X81735668Y66864698D01*
X81688049Y66817079D01*
X81592811Y66769460D01*
X81211859Y66769460D01*
X82688049Y67293270D02*
X82211859Y67293270D01*
X82164240Y66817079D01*
X82211859Y66864698D01*
X82307097Y66912317D01*
X82545192Y66912317D01*
X82640430Y66864698D01*
X82688049Y66817079D01*
X82735668Y66721841D01*
X82735668Y66483746D01*
X82688049Y66388508D01*
X82640430Y66340889D01*
X82545192Y66293270D01*
X82307097Y66293270D01*
X82211859Y66340889D01*
X82164240Y66388508D01*
X83592811Y66959936D02*
X83592811Y66293270D01*
X83354716Y67340889D02*
X83116621Y66626603D01*
X83735668Y66626603D01*
G04 #@! TO.C,C32*
X79539698Y62005299D02*
X79587317Y61957680D01*
X79634936Y61814823D01*
X79634936Y61719585D01*
X79587317Y61576728D01*
X79492079Y61481490D01*
X79396841Y61433871D01*
X79206365Y61386252D01*
X79063508Y61386252D01*
X78873032Y61433871D01*
X78777794Y61481490D01*
X78682556Y61576728D01*
X78634936Y61719585D01*
X78634936Y61814823D01*
X78682556Y61957680D01*
X78730175Y62005299D01*
X78634936Y62338633D02*
X78634936Y62957680D01*
X79015889Y62624347D01*
X79015889Y62767204D01*
X79063508Y62862442D01*
X79111127Y62910061D01*
X79206365Y62957680D01*
X79444460Y62957680D01*
X79539698Y62910061D01*
X79587317Y62862442D01*
X79634936Y62767204D01*
X79634936Y62481490D01*
X79587317Y62386252D01*
X79539698Y62338633D01*
X78730175Y63338633D02*
X78682556Y63386252D01*
X78634936Y63481490D01*
X78634936Y63719585D01*
X78682556Y63814823D01*
X78730175Y63862442D01*
X78825413Y63910061D01*
X78920651Y63910061D01*
X79063508Y63862442D01*
X79634936Y63291014D01*
X79634936Y63910061D01*
D10*
G04 #@! TO.C,C1015*
X112513326Y46413368D02*
X112513326Y46694528D01*
X111493326Y46413368D02*
X111493326Y46694528D01*
G04 #@! TO.C,R902*
X123487334Y20927317D02*
X123794616Y20927317D01*
X123487334Y21687317D02*
X123794616Y21687317D01*
G04 #@! TO.C,R903*
X123498553Y22876586D02*
X123805835Y22876586D01*
X123498553Y22116586D02*
X123805835Y22116586D01*
G04 #@! TO.C,R904*
X123476114Y23507806D02*
X123783396Y23507806D01*
X123476114Y24267806D02*
X123783396Y24267806D01*
G04 #@! TO.C,R1007*
X88041440Y-5901841D02*
X87824159Y-5684560D01*
X88578841Y-5364440D02*
X88361560Y-5147159D01*
G04 #@! TO.C,U801*
X107880000Y14224000D02*
X107880000Y16424000D01*
X107880000Y14224000D02*
X107880000Y10624000D01*
X113100000Y14224000D02*
X113100000Y16424000D01*
X113100000Y14224000D02*
X113100000Y12024000D01*
G04 #@! TO.C,U901*
X113538000Y23946000D02*
X115738000Y23946000D01*
X113538000Y18726000D02*
X111338000Y18726000D01*
X113538000Y18726000D02*
X117138000Y18726000D01*
X113538000Y23946000D02*
X111338000Y23946000D01*
D12*
G04 #@! TO.C,U1004*
X115334671Y50622123D02*
X115479671Y50622123D01*
X120434671Y50622123D02*
X120434671Y52022123D01*
X120484671Y50622123D02*
X120434671Y50622123D01*
X120484671Y50622123D02*
X120484671Y46472123D01*
X120484671Y46472123D02*
X120339671Y46472123D01*
X115334671Y50622123D02*
X115334671Y46472123D01*
X115334671Y46472123D02*
X115479671Y46472123D01*
G04 #@! TO.C,U1005*
X110753142Y50659989D02*
X110753142Y46509989D01*
X110703142Y50659989D02*
X110703142Y52059989D01*
X105603142Y50659989D02*
X105748142Y50659989D01*
X105603142Y50659989D02*
X105603142Y46509989D01*
X105603142Y46509989D02*
X105748142Y46509989D01*
X110753142Y50659989D02*
X110703142Y50659989D01*
X110753142Y46509989D02*
X110608142Y46509989D01*
D10*
G04 #@! TO.C,C1016*
X121029912Y50794349D02*
X121029912Y50513189D01*
X122049912Y50794349D02*
X122049912Y50513189D01*
G04 #@! TO.C,C1017*
X122204368Y46439918D02*
X122204368Y46721078D01*
X121184368Y46439918D02*
X121184368Y46721078D01*
G04 #@! TO.C,C1018*
X111386736Y50811178D02*
X111386736Y50530018D01*
X112406736Y50811178D02*
X112406736Y50530018D01*
G04 #@! TO.C,R1006*
X86998659Y-1684060D02*
X87215940Y-1901341D01*
X87536060Y-1146659D02*
X87753341Y-1363940D01*
G04 #@! TO.C,C701*
X108571420Y760000D02*
X108852580Y760000D01*
X108571420Y1780000D02*
X108852580Y1780000D01*
G04 #@! TO.C,C801*
X107190000Y15099420D02*
X107190000Y15380580D01*
X106170000Y15099420D02*
X106170000Y15380580D01*
G04 #@! TO.C,C901*
X118828686Y19825608D02*
X119109846Y19825608D01*
X118828686Y20845608D02*
X119109846Y20845608D01*
G04 #@! TO.C,C1518*
X82724970Y26804219D02*
X82923781Y27003030D01*
X83446219Y26082970D02*
X83645030Y26281781D01*
G04 #@! TO.C,C1521*
X91078164Y-5440000D02*
X91293836Y-5440000D01*
X91078164Y-4720000D02*
X91293836Y-4720000D01*
G04 #@! TO.C,C1503*
X79361420Y26160000D02*
X79642580Y26160000D01*
X79361420Y27180000D02*
X79642580Y27180000D01*
G04 #@! TO.C,C1505*
X94480781Y4365970D02*
X94281970Y4564781D01*
X95202030Y5087219D02*
X95003219Y5286030D01*
G04 #@! TO.C,C1506*
X95964030Y13977219D02*
X95765219Y14176030D01*
X95242781Y13255970D02*
X95043970Y13454781D01*
G04 #@! TO.C,C1507*
X72397219Y23320030D02*
X72596030Y23121219D01*
X71675970Y22598781D02*
X71874781Y22399970D01*
G04 #@! TO.C,C1501*
X97289219Y7413970D02*
X97488030Y7612781D01*
X96567970Y8135219D02*
X96766781Y8334030D01*
G04 #@! TO.C,C1502*
X97837970Y7119219D02*
X98036781Y7318030D01*
X98559219Y6397970D02*
X98758030Y6596781D01*
G04 #@! TO.C,C1101*
X101846781Y21637970D02*
X101647970Y21836781D01*
X102568030Y22359219D02*
X102369219Y22558030D01*
G04 #@! TO.C,FB1501*
X102786555Y6209404D02*
X102221404Y6774555D01*
X101994596Y5417445D02*
X101429445Y5982596D01*
G04 #@! TO.C,R901*
X119558674Y18478535D02*
X119865956Y18478535D01*
X119558674Y17718535D02*
X119865956Y17718535D01*
G04 #@! TO.C,R1502*
X96874359Y-380000D02*
X97181641Y-380000D01*
X96874359Y380000D02*
X97181641Y380000D01*
G04 #@! TO.C,R1101*
X123615795Y27024816D02*
X123141279Y27024816D01*
X123615795Y28069816D02*
X123141279Y28069816D01*
G04 #@! TO.C,R1102*
X123582136Y29651768D02*
X123107620Y29651768D01*
X123582136Y28606768D02*
X123107620Y28606768D01*
G04 #@! TO.C,R1103*
X123593356Y31312257D02*
X123118840Y31312257D01*
X123593356Y30267257D02*
X123118840Y30267257D01*
G04 #@! TO.C,R1104*
X119998258Y33923500D02*
X119523742Y33923500D01*
X119998258Y32878500D02*
X119523742Y32878500D01*
G04 #@! TO.C,RN701*
X119487074Y7367074D02*
X120487074Y7367074D01*
X119487074Y4007074D02*
X120487074Y4007074D01*
G04 #@! TO.C,RN801*
X121901709Y15192926D02*
X122901709Y15192926D01*
X121901709Y11832926D02*
X122901709Y11832926D01*
G04 #@! TO.C,RN901*
X119134000Y28096000D02*
X120134000Y28096000D01*
X119134000Y24736000D02*
X120134000Y24736000D01*
G04 #@! TO.C,RN1101*
X119134000Y29054000D02*
X120134000Y29054000D01*
X119134000Y32414000D02*
X120134000Y32414000D01*
G04 #@! TO.C,U1101*
X106493549Y26737549D02*
X104937914Y28293184D01*
X102802451Y23046451D02*
X101246816Y24602086D01*
X102802451Y23046451D02*
X105348036Y20500867D01*
X106493549Y26737549D02*
X108049184Y25181914D01*
G04 #@! TO.C,C1516*
X53296882Y38043142D02*
X53578042Y38043142D01*
X53296882Y37023142D02*
X53578042Y37023142D01*
G04 #@! TO.C,R1501*
X53757089Y35504875D02*
X54064371Y35504875D01*
X53757089Y36264875D02*
X54064371Y36264875D01*
G04 #@! TO.C,C1301*
X61728413Y47468283D02*
X61728413Y47187123D01*
X60708413Y47468283D02*
X60708413Y47187123D01*
G04 #@! TO.C,C1302*
X76605584Y59029287D02*
X76886744Y59029287D01*
X76605584Y58009287D02*
X76886744Y58009287D01*
G04 #@! TO.C,RN1301*
X64870175Y49264268D02*
X64870175Y50264268D01*
X68230175Y49264268D02*
X68230175Y50264268D01*
G04 #@! TO.C,C1523*
X97344133Y33696675D02*
X97344133Y33415515D01*
X98364133Y33696675D02*
X98364133Y33415515D01*
G04 #@! TO.C,R1504*
X98451641Y42290000D02*
X98144359Y42290000D01*
X98451641Y41530000D02*
X98144359Y41530000D01*
G04 #@! TO.C,U701*
X105340000Y6096000D02*
X105340000Y2496000D01*
X110560000Y6096000D02*
X110560000Y3896000D01*
X110560000Y6096000D02*
X110560000Y8296000D01*
X105340000Y6096000D02*
X105340000Y8296000D01*
G04 #@! TO.C,C1508*
X68587219Y20119630D02*
X68786030Y19920819D01*
X67865970Y19398381D02*
X68064781Y19199570D01*
G04 #@! TO.C,C1509*
X90416781Y18335970D02*
X90217970Y18534781D01*
X91138030Y19057219D02*
X90939219Y19256030D01*
G04 #@! TO.C,C1510*
X68328000Y4458580D02*
X68328000Y4177420D01*
X67308000Y4458580D02*
X67308000Y4177420D01*
G04 #@! TO.C,C1511*
X78118580Y-5336000D02*
X77837420Y-5336000D01*
X78118580Y-4316000D02*
X77837420Y-4316000D01*
G04 #@! TO.C,C1513*
X65153000Y10908420D02*
X65153000Y11189580D01*
X64133000Y10908420D02*
X64133000Y11189580D01*
G04 #@! TO.C,C1515*
X88185970Y1277219D02*
X88384781Y1476030D01*
X88907219Y555970D02*
X89106030Y754781D01*
G04 #@! TO.C,U1501*
X93625948Y11671751D02*
X94297699Y11000000D01*
X80000000Y25297699D02*
X79328249Y24625948D01*
X66374052Y10328249D02*
X65702301Y11000000D01*
X80671751Y-2625948D02*
X81583919Y-3538115D01*
X80671751Y24625948D02*
X80000000Y25297699D01*
X79328249Y-2625948D02*
X80000000Y-3297699D01*
X65702301Y11000000D02*
X66374052Y11671751D01*
X80000000Y-3297699D02*
X80671751Y-2625948D01*
X94297699Y11000000D02*
X93625948Y10328249D01*
G04 #@! TO.C,C1002*
X67704580Y35304000D02*
X67423420Y35304000D01*
X67704580Y36324000D02*
X67423420Y36324000D01*
G04 #@! TO.C,C1004*
X80568748Y35158000D02*
X81991252Y35158000D01*
X80568748Y36978000D02*
X81991252Y36978000D01*
G04 #@! TO.C,R1004*
X96409742Y47766500D02*
X96884258Y47766500D01*
X96409742Y46721500D02*
X96884258Y46721500D01*
G04 #@! TO.C,C1522*
X94341836Y-4720000D02*
X94126164Y-4720000D01*
X94341836Y-5440000D02*
X94126164Y-5440000D01*
G04 #@! TO.C,C1504*
X87836030Y22105219D02*
X87637219Y22304030D01*
X87114781Y21383970D02*
X86915970Y21582781D01*
G04 #@! TO.C,RN501*
X48038751Y-8805729D02*
X49038751Y-8805729D01*
X48038751Y-5445729D02*
X49038751Y-5445729D01*
G04 #@! TO.C,RN201*
X44047547Y39547586D02*
X44047547Y38547586D01*
X47407547Y39547586D02*
X47407547Y38547586D01*
G04 #@! TO.C,RN301*
X40227013Y39547586D02*
X40227013Y38547586D01*
X43587013Y39547586D02*
X43587013Y38547586D01*
G04 #@! TO.C,C1006*
X75821000Y47865420D02*
X75821000Y48146580D01*
X74801000Y47865420D02*
X74801000Y48146580D01*
G04 #@! TO.C,D903*
X77372000Y48386000D02*
X77372000Y45086000D01*
X77372000Y48386000D02*
X82772000Y48386000D01*
X77372000Y45086000D02*
X82772000Y45086000D01*
G04 #@! TO.C,RN202*
X59492921Y45276889D02*
X60492921Y45276889D01*
X59492921Y41916889D02*
X60492921Y41916889D01*
G04 #@! TO.C,RN302*
X55224059Y45276889D02*
X56224059Y45276889D01*
X55224059Y41916889D02*
X56224059Y41916889D01*
G04 #@! TO.C,RN502*
X70332197Y-6905853D02*
X69332197Y-6905853D01*
X70332197Y-3545853D02*
X69332197Y-3545853D01*
G04 #@! TO.C,C1604*
X39927944Y17530011D02*
X39927944Y17811171D01*
X38907944Y17530011D02*
X38907944Y17811171D01*
G04 #@! TO.C,C1605*
X36446025Y13908165D02*
X36727185Y13908165D01*
X36446025Y14928165D02*
X36727185Y14928165D01*
G04 #@! TO.C,C1606*
X36446025Y17481793D02*
X36727185Y17481793D01*
X36446025Y18501793D02*
X36727185Y18501793D01*
G04 #@! TO.C,C1607*
X41467852Y16938709D02*
X41467852Y16657549D01*
X40447852Y16938709D02*
X40447852Y16657549D01*
G04 #@! TO.C,C1608*
X36433030Y22049431D02*
X36714190Y22049431D01*
X36433030Y21029431D02*
X36714190Y21029431D01*
G04 #@! TO.C,C1609*
X36394045Y25597070D02*
X36675205Y25597070D01*
X36394045Y24577070D02*
X36675205Y24577070D01*
G04 #@! TO.C,C1701*
X38861411Y25698001D02*
X38861411Y25979161D01*
X39881411Y25698001D02*
X39881411Y25979161D01*
G04 #@! TO.C,C1702*
X36389345Y28150698D02*
X36670505Y28150698D01*
X36389345Y29170698D02*
X36670505Y29170698D01*
G04 #@! TO.C,C1703*
X36363355Y32705341D02*
X36644515Y32705341D01*
X36363355Y31685341D02*
X36644515Y31685341D01*
G04 #@! TO.C,C1704*
X36349088Y40505081D02*
X36630248Y40505081D01*
X36349088Y41525081D02*
X36630248Y41525081D01*
G04 #@! TO.C,C1705*
X36355060Y35335890D02*
X36636220Y35335890D01*
X36355060Y36355890D02*
X36636220Y36355890D01*
G04 #@! TO.C,C1706*
X36337365Y37915291D02*
X36618525Y37915291D01*
X36337365Y36895291D02*
X36618525Y36895291D01*
G04 #@! TO.C,R1601*
X36554467Y13372848D02*
X37008595Y13372848D01*
X36554467Y11902848D02*
X37008595Y11902848D01*
G04 #@! TO.C,R1602*
X36554467Y16933482D02*
X37008595Y16933482D01*
X36554467Y15463482D02*
X37008595Y15463482D01*
G04 #@! TO.C,R1603*
X36541472Y20494115D02*
X36995600Y20494115D01*
X36541472Y19024115D02*
X36995600Y19024115D01*
G04 #@! TO.C,R1604*
X36531326Y24054748D02*
X36985454Y24054748D01*
X36531326Y22584748D02*
X36985454Y22584748D01*
G04 #@! TO.C,R1701*
X36492341Y26132386D02*
X36946469Y26132386D01*
X36492341Y27602386D02*
X36946469Y27602386D01*
G04 #@! TO.C,R1702*
X36489492Y29706014D02*
X36943620Y29706014D01*
X36489492Y31176014D02*
X36943620Y31176014D01*
G04 #@! TO.C,R1703*
X36479346Y34709608D02*
X36933474Y34709608D01*
X36479346Y33239608D02*
X36933474Y33239608D01*
G04 #@! TO.C,R1704*
X36457529Y38486769D02*
X36911657Y38486769D01*
X36457529Y39956769D02*
X36911657Y39956769D01*
G04 #@! TO.C,U1602*
X41854508Y15070208D02*
X40354508Y15070208D01*
X41854508Y11850208D02*
X40354508Y11850208D01*
X41854508Y11850208D02*
X44779508Y11850208D01*
X41854508Y15070208D02*
X43354508Y15070208D01*
G04 #@! TO.C,U1603*
X41854508Y22652797D02*
X43354508Y22652797D01*
X41854508Y19432797D02*
X40354508Y19432797D01*
X41854508Y19432797D02*
X44779508Y19432797D01*
X41854508Y22652797D02*
X40354508Y22652797D01*
G04 #@! TO.C,U1701*
X41769230Y31357205D02*
X40269230Y31357205D01*
X41769230Y28137205D02*
X40269230Y28137205D01*
X41769230Y31357205D02*
X43269230Y31357205D01*
X41769230Y28137205D02*
X44694230Y28137205D01*
G04 #@! TO.C,U1702*
X41685573Y34962947D02*
X40185573Y34962947D01*
X41685573Y34962947D02*
X43185573Y34962947D01*
X41685573Y31742947D02*
X40185573Y31742947D01*
X41685573Y31742947D02*
X44610573Y31742947D01*
G04 #@! TO.C,D1502*
X71281000Y-7443000D02*
X68796000Y-7443000D01*
X68796000Y-8813000D02*
X71281000Y-8813000D01*
X71281000Y-8813000D02*
X71281000Y-7443000D01*
G04 #@! TO.C,R1508*
X71756000Y-7466359D02*
X71756000Y-7773641D01*
X72516000Y-7466359D02*
X72516000Y-7773641D01*
G04 #@! TO.C,RN1601*
X44664463Y18933702D02*
X45664463Y18933702D01*
X44664463Y15573702D02*
X45664463Y15573702D01*
G04 #@! TO.C,RN1701*
X43816447Y27703760D02*
X42816447Y27703760D01*
X43816447Y24343760D02*
X42816447Y24343760D01*
G04 #@! TO.C,C1204*
X110679903Y41330894D02*
X110679903Y41612054D01*
X109659903Y41330894D02*
X109659903Y41612054D01*
G04 #@! TO.C,C1208*
X102809940Y40243047D02*
X102809940Y40524207D01*
X103829940Y40243047D02*
X103829940Y40524207D01*
G04 #@! TO.C,C1402*
X114582196Y38238920D02*
X114582196Y38520080D01*
X115602196Y38238920D02*
X115602196Y38520080D01*
G04 #@! TO.C,C1403*
X121066828Y41325133D02*
X121066828Y41606293D01*
X120046828Y41325133D02*
X120046828Y41606293D01*
G04 #@! TO.C,C1404*
X121570828Y38277133D02*
X121570828Y38558293D01*
X122590828Y38277133D02*
X122590828Y38558293D01*
G04 #@! TO.C,C1405*
X117590632Y41309126D02*
X117590632Y41590286D01*
X116570632Y41309126D02*
X116570632Y41590286D01*
G04 #@! TO.C,C1406*
X119114632Y38261126D02*
X119114632Y38542286D01*
X118094632Y38261126D02*
X118094632Y38542286D01*
G04 #@! TO.C,C1407*
X105839131Y41277505D02*
X105839131Y41558665D01*
X106859131Y41277505D02*
X106859131Y41558665D01*
G04 #@! TO.C,C1408*
X108391702Y38239245D02*
X108391702Y38520405D01*
X107371702Y38239245D02*
X107371702Y38520405D01*
G04 #@! TO.C,R1201*
X111171403Y41708732D02*
X111171403Y41234216D01*
X112216403Y41708732D02*
X112216403Y41234216D01*
G04 #@! TO.C,R1202*
X110692403Y38186216D02*
X110692403Y38660732D01*
X109647403Y38186216D02*
X109647403Y38660732D01*
G04 #@! TO.C,R1203*
X102797440Y43668885D02*
X102797440Y43194369D01*
X103842440Y43668885D02*
X103842440Y43194369D01*
G04 #@! TO.C,R1204*
X101273440Y40146369D02*
X101273440Y40620885D01*
X102318440Y40146369D02*
X102318440Y40620885D01*
G04 #@! TO.C,R1401*
X114569696Y41664758D02*
X114569696Y41190242D01*
X115614696Y41664758D02*
X115614696Y41190242D01*
G04 #@! TO.C,R1402*
X114090696Y38142242D02*
X114090696Y38616758D01*
X113045696Y38142242D02*
X113045696Y38616758D01*
G04 #@! TO.C,R1403*
X122603328Y41702971D02*
X122603328Y41228455D01*
X121558328Y41702971D02*
X121558328Y41228455D01*
G04 #@! TO.C,R1404*
X121079328Y38180455D02*
X121079328Y38654971D01*
X120034328Y38180455D02*
X120034328Y38654971D01*
G04 #@! TO.C,R1405*
X119127132Y41686964D02*
X119127132Y41212448D01*
X118082132Y41686964D02*
X118082132Y41212448D01*
G04 #@! TO.C,R1406*
X117603132Y38164448D02*
X117603132Y38638964D01*
X116558132Y38164448D02*
X116558132Y38638964D01*
G04 #@! TO.C,R1407*
X108404202Y41665083D02*
X108404202Y41190567D01*
X107359202Y41665083D02*
X107359202Y41190567D01*
G04 #@! TO.C,C1409*
X123237957Y32960246D02*
X123519117Y32960246D01*
X123237957Y31940246D02*
X123519117Y31940246D01*
G04 #@! TO.C,R1408*
X106880202Y38142567D02*
X106880202Y38617083D01*
X105835202Y38142567D02*
X105835202Y38617083D01*
G04 #@! TO.C,C1401*
X113058196Y41286920D02*
X113058196Y41568080D01*
X114078196Y41286920D02*
X114078196Y41568080D01*
G04 #@! TO.C,C1207*
X102305940Y43291047D02*
X102305940Y43572207D01*
X101285940Y43291047D02*
X101285940Y43572207D01*
G04 #@! TO.C,C1205*
X111183903Y38282894D02*
X111183903Y38564054D01*
X112203903Y38282894D02*
X112203903Y38564054D01*
G04 #@! TO.C,C1519*
X64508781Y15795970D02*
X64309970Y15994781D01*
X65230030Y16517219D02*
X65031219Y16716030D01*
G04 #@! TO.C,C1512*
X71421970Y-246781D02*
X71620781Y-47970D01*
X72143219Y-968030D02*
X72342030Y-769219D01*
G04 #@! TO.C,D1503*
X64597462Y26742595D02*
X64597462Y30642595D01*
X62597462Y26742595D02*
X64597462Y26742595D01*
X62597462Y26742595D02*
X62597462Y30642595D01*
G04 #@! TO.C,F101*
X123099012Y66947561D02*
X121644884Y66947561D01*
X123099012Y68767561D02*
X121644884Y68767561D01*
G04 #@! TO.C,F102*
X121644884Y66344146D02*
X123099012Y66344146D01*
X121644884Y64524146D02*
X123099012Y64524146D01*
G04 #@! TO.C,D1504*
X76869000Y-8813000D02*
X76869000Y-7443000D01*
X74384000Y-8813000D02*
X76869000Y-8813000D01*
X76869000Y-7443000D02*
X74384000Y-7443000D01*
G04 #@! TO.C,D1505*
X80480000Y-8813000D02*
X82965000Y-8813000D01*
X82965000Y-8813000D02*
X82965000Y-7443000D01*
X82965000Y-7443000D02*
X80480000Y-7443000D01*
G04 #@! TO.C,D1506*
X86576000Y-8813000D02*
X89061000Y-8813000D01*
X89061000Y-8813000D02*
X89061000Y-7443000D01*
X89061000Y-7443000D02*
X86576000Y-7443000D01*
G04 #@! TO.C,D1507*
X95157000Y-8813000D02*
X95157000Y-7443000D01*
X95157000Y-7443000D02*
X92672000Y-7443000D01*
X92672000Y-8813000D02*
X95157000Y-8813000D01*
G04 #@! TO.C,R1509*
X78131641Y-8508000D02*
X77824359Y-8508000D01*
X78131641Y-7748000D02*
X77824359Y-7748000D01*
G04 #@! TO.C,R1510*
X84227641Y-7748000D02*
X83920359Y-7748000D01*
X84227641Y-8508000D02*
X83920359Y-8508000D01*
G04 #@! TO.C,R1511*
X90323641Y-8508000D02*
X90016359Y-8508000D01*
X90323641Y-7748000D02*
X90016359Y-7748000D01*
G04 #@! TO.C,R1512*
X96419641Y-7748000D02*
X96112359Y-7748000D01*
X96419641Y-8508000D02*
X96112359Y-8508000D01*
G04 #@! TO.C,J105*
X124341985Y55617435D02*
G75*
G03*
X124341985Y55617435I-1750000J0D01*
G01*
G04 #@! TO.C,J107*
X118911176Y55529842D02*
G75*
G03*
X118911176Y55529842I-1750000J0D01*
G01*
G04 #@! TO.C,J108*
X100048000Y16002000D02*
G75*
G03*
X100048000Y16002000I-1750000J0D01*
G01*
G04 #@! TO.C,U1502*
X62059201Y36579583D02*
X62059201Y35779583D01*
X62059201Y36579583D02*
X62059201Y37379583D01*
X58939201Y36579583D02*
X58939201Y34779583D01*
X58939201Y36579583D02*
X58939201Y37379583D01*
G04 #@! TO.C,D1*
X95487000Y45130000D02*
X95487000Y43720000D01*
X96147000Y43720000D02*
X95487000Y43720000D01*
X97807000Y43720000D02*
X97807000Y45750000D01*
X97807000Y43720000D02*
X97147000Y43720000D01*
G04 #@! TO.C,R1513*
X58673000Y7974359D02*
X58673000Y8281641D01*
X57913000Y7974359D02*
X57913000Y8281641D01*
G04 #@! TO.C,C1517*
X59942000Y14845420D02*
X59942000Y15126580D01*
X60962000Y14845420D02*
X60962000Y15126580D01*
G04 #@! TO.C,D1001*
X84989000Y46684000D02*
X93389000Y46684000D01*
X84989000Y40184000D02*
X93389000Y40184000D01*
X84989000Y40184000D02*
X84989000Y46684000D01*
G04 #@! TO.C,C1*
X116678567Y5845123D02*
X116462895Y5845123D01*
X116678567Y5125123D02*
X116462895Y5125123D01*
G04 #@! TO.C,C2*
X116641169Y6392357D02*
X116425497Y6392357D01*
X116641169Y7112357D02*
X116425497Y7112357D01*
G04 #@! TO.C,C3*
X116641169Y7641463D02*
X116425497Y7641463D01*
X116641169Y8361463D02*
X116425497Y8361463D01*
G04 #@! TO.C,C4*
X116576371Y9629269D02*
X116360699Y9629269D01*
X116576371Y8909269D02*
X116360699Y8909269D01*
G04 #@! TO.C,C5*
X119079250Y12470291D02*
X118863578Y12470291D01*
X119079250Y13190291D02*
X118863578Y13190291D01*
G04 #@! TO.C,C6*
X119079250Y13486291D02*
X118863578Y13486291D01*
X119079250Y14206291D02*
X118863578Y14206291D01*
G04 #@! TO.C,C7*
X119079250Y15222291D02*
X118863578Y15222291D01*
X119079250Y14502291D02*
X118863578Y14502291D01*
G04 #@! TO.C,C8*
X119079250Y15518291D02*
X118863578Y15518291D01*
X119079250Y16238291D02*
X118863578Y16238291D01*
G04 #@! TO.C,C9*
X116439836Y25252000D02*
X116224164Y25252000D01*
X116439836Y24532000D02*
X116224164Y24532000D01*
G04 #@! TO.C,C10*
X116439836Y26268000D02*
X116224164Y26268000D01*
X116439836Y25548000D02*
X116224164Y25548000D01*
G04 #@! TO.C,C11*
X116439836Y26564000D02*
X116224164Y26564000D01*
X116439836Y27284000D02*
X116224164Y27284000D01*
G04 #@! TO.C,C12*
X116439836Y28300000D02*
X116224164Y28300000D01*
X116439836Y27580000D02*
X116224164Y27580000D01*
G04 #@! TO.C,C13*
X116439836Y29570000D02*
X116224164Y29570000D01*
X116439836Y28850000D02*
X116224164Y28850000D01*
G04 #@! TO.C,C14*
X116439836Y30586000D02*
X116224164Y30586000D01*
X116439836Y29866000D02*
X116224164Y29866000D01*
G04 #@! TO.C,C15*
X116439836Y31602000D02*
X116224164Y31602000D01*
X116439836Y30882000D02*
X116224164Y30882000D01*
G04 #@! TO.C,C16*
X116439836Y32618000D02*
X116224164Y32618000D01*
X116439836Y31898000D02*
X116224164Y31898000D01*
G04 #@! TO.C,R2*
X111126000Y3455641D02*
X111126000Y3148359D01*
X111886000Y3455641D02*
X111886000Y3148359D01*
G04 #@! TO.C,R3*
X102970359Y10032000D02*
X103277641Y10032000D01*
X102970359Y9272000D02*
X103277641Y9272000D01*
G04 #@! TO.C,R5*
X105028000Y3455641D02*
X105028000Y3148359D01*
X104268000Y3455641D02*
X104268000Y3148359D01*
G04 #@! TO.C,R6*
X112167641Y5968000D02*
X111860359Y5968000D01*
X112167641Y5208000D02*
X111860359Y5208000D01*
G04 #@! TO.C,R7*
X103277641Y9016000D02*
X102970359Y9016000D01*
X103277641Y8256000D02*
X102970359Y8256000D01*
G04 #@! TO.C,R8*
X105028000Y6831359D02*
X105028000Y7138641D01*
X104268000Y6831359D02*
X104268000Y7138641D01*
G04 #@! TO.C,R10*
X114550249Y11456810D02*
X114550249Y11149528D01*
X113790249Y11456810D02*
X113790249Y11149528D01*
G04 #@! TO.C,R11*
X104830083Y16750382D02*
X104830083Y17057664D01*
X105590083Y16750382D02*
X105590083Y17057664D01*
G04 #@! TO.C,R12*
X107050598Y18631177D02*
X107050598Y18323895D01*
X106290598Y18631177D02*
X106290598Y18323895D01*
G04 #@! TO.C,R13*
X106227171Y13439024D02*
X106534453Y13439024D01*
X106227171Y12679024D02*
X106534453Y12679024D01*
G04 #@! TO.C,R14*
X115728298Y11132699D02*
X115728298Y11439981D01*
X114968298Y11132699D02*
X114968298Y11439981D01*
G04 #@! TO.C,R15*
X104811834Y14669938D02*
X104811834Y14977220D01*
X105571834Y14669938D02*
X105571834Y14977220D01*
G04 #@! TO.C,R16*
X108611641Y19176000D02*
X108304359Y19176000D01*
X108611641Y18416000D02*
X108304359Y18416000D01*
G04 #@! TO.C,R17*
X117608779Y17289773D02*
X117608779Y17597055D01*
X118368779Y17289773D02*
X118368779Y17597055D01*
G04 #@! TO.C,R18*
X118771641Y23496000D02*
X118464359Y23496000D01*
X118771641Y24256000D02*
X118464359Y24256000D01*
G04 #@! TO.C,R19*
X102268060Y20443341D02*
X102485341Y20226060D01*
X101730659Y19905940D02*
X101947940Y19688659D01*
G04 #@! TO.C,R20*
X108314002Y20303577D02*
X108621284Y20303577D01*
X108314002Y19543577D02*
X108621284Y19543577D01*
G04 #@! TO.C,R21*
X119859007Y17329755D02*
X119551725Y17329755D01*
X119859007Y16569755D02*
X119551725Y16569755D01*
G04 #@! TO.C,R22*
X119885834Y22412682D02*
X119578552Y22412682D01*
X119885834Y23172682D02*
X119578552Y23172682D01*
G04 #@! TO.C,R23*
X100744060Y21967341D02*
X100961341Y21750060D01*
X100206659Y21429940D02*
X100423940Y21212659D01*
G04 #@! TO.C,R24*
X108525853Y21635484D02*
X108525853Y21328202D01*
X109285853Y21635484D02*
X109285853Y21328202D01*
G04 #@! TO.C,R25*
X107565341Y28033940D02*
X107348060Y27816659D01*
X107027940Y28571341D02*
X106810659Y28354060D01*
G04 #@! TO.C,R26*
X109089341Y27017940D02*
X108872060Y26800659D01*
X108551940Y27555341D02*
X108334659Y27338060D01*
G04 #@! TO.C,R27*
X104713876Y29157498D02*
X104931157Y28940217D01*
X105251277Y29694899D02*
X105468558Y29477618D01*
G04 #@! TO.C,R28*
X99514201Y24230206D02*
X99731482Y24447487D01*
X98976800Y24767607D02*
X99194081Y24984888D01*
G04 #@! TO.C,R29*
X109597341Y30065940D02*
X109380060Y29848659D01*
X109059940Y30603341D02*
X108842659Y30386060D01*
G04 #@! TO.C,R30*
X109380060Y25784659D02*
X109597341Y26001940D01*
X108842659Y26322060D02*
X109059940Y26539341D01*
G04 #@! TO.C,R32*
X97808885Y23020059D02*
X98026166Y23237340D01*
X98346286Y22482658D02*
X98563567Y22699939D01*
G04 #@! TO.C,R801*
X123468557Y11346584D02*
X123775839Y11346584D01*
X123468557Y10586584D02*
X123775839Y10586584D01*
G04 #@! TO.C,R704*
X120749737Y8729268D02*
X120442455Y8729268D01*
X120749737Y7969268D02*
X120442455Y7969268D01*
G04 #@! TO.C,R804*
X123025365Y16286847D02*
X123025365Y16594129D01*
X123785365Y16286847D02*
X123785365Y16594129D01*
G04 #@! TO.C,R803*
X122730730Y16294976D02*
X122730730Y16602258D01*
X121970730Y16294976D02*
X121970730Y16602258D01*
G04 #@! TO.C,R802*
X121722667Y11363413D02*
X121415385Y11363413D01*
X121722667Y10603413D02*
X121415385Y10603413D01*
G04 #@! TO.C,R703*
X122827317Y6501480D02*
X122827317Y6808762D01*
X122067317Y6501480D02*
X122067317Y6808762D01*
G04 #@! TO.C,R702*
X122056097Y4419005D02*
X122056097Y4111723D01*
X122816097Y4419005D02*
X122816097Y4111723D01*
G04 #@! TO.C,R701*
X120626323Y3377558D02*
X120319041Y3377558D01*
X120626323Y2617558D02*
X120319041Y2617558D01*
G04 #@! TO.C,U1*
X112776000Y9688000D02*
X113576000Y9688000D01*
X112776000Y6568000D02*
X114576000Y6568000D01*
X112776000Y9688000D02*
X111976000Y9688000D01*
X112776000Y6568000D02*
X111976000Y6568000D01*
G04 #@! TO.C,U2*
X115600737Y15909269D02*
X114800737Y15909269D01*
X115600737Y12789269D02*
X117400737Y12789269D01*
X115600737Y15909269D02*
X116400737Y15909269D01*
X115600737Y12789269D02*
X114800737Y12789269D01*
G04 #@! TO.C,U3*
X112830017Y24838528D02*
X112030017Y24838528D01*
X112830017Y27958528D02*
X113630017Y27958528D01*
X112830017Y24838528D02*
X114630017Y24838528D01*
X112830017Y27958528D02*
X112030017Y27958528D01*
G04 #@! TO.C,U4*
X112776000Y32294000D02*
X113576000Y32294000D01*
X112776000Y29174000D02*
X111976000Y29174000D01*
X112776000Y32294000D02*
X111976000Y32294000D01*
X112776000Y29174000D02*
X114576000Y29174000D01*
G04 #@! TO.C,R4*
X105028000Y8863359D02*
X105028000Y9170641D01*
X104268000Y8863359D02*
X104268000Y9170641D01*
G04 #@! TO.C,R31*
X105931315Y30337812D02*
X106148596Y30120531D01*
X106468716Y30875213D02*
X106685997Y30657932D01*
G04 #@! TO.C,R9*
X107194634Y11574615D02*
X107194634Y11267333D01*
X106434634Y11574615D02*
X106434634Y11267333D01*
G04 #@! TO.C,R1*
X105764359Y1904000D02*
X106071641Y1904000D01*
X105764359Y1144000D02*
X106071641Y1144000D01*
G04 #@! TO.C,C23*
X113104875Y3361496D02*
X113104875Y3145824D01*
X112384875Y3361496D02*
X112384875Y3145824D01*
G04 #@! TO.C,C24*
X113208942Y-8592387D02*
X113208942Y-8376715D01*
X112488942Y-8592387D02*
X112488942Y-8376715D01*
G04 #@! TO.C,R44*
X114262943Y4598538D02*
X114570225Y4598538D01*
X114262943Y3838538D02*
X114570225Y3838538D01*
G04 #@! TO.C,R45*
X114363269Y-9305852D02*
X114670551Y-9305852D01*
X114363269Y-8545852D02*
X114670551Y-8545852D01*
G04 #@! TO.C,R46*
X114352699Y2413660D02*
X114659981Y2413660D01*
X114352699Y3173660D02*
X114659981Y3173660D01*
G04 #@! TO.C,R47*
X114385708Y-7944551D02*
X114692990Y-7944551D01*
X114385708Y-7184551D02*
X114692990Y-7184551D01*
G04 #@! TO.C,U5*
X112480976Y-2287560D02*
X112480976Y-87560D01*
X117700976Y-2287560D02*
X117700976Y-4487560D01*
X117700976Y-2287560D02*
X117700976Y1312440D01*
X112480976Y-2287560D02*
X112480976Y-4487560D01*
G04 #@! TO.C,C903*
X96522000Y33668580D02*
X96522000Y33387420D01*
X95502000Y33668580D02*
X95502000Y33387420D01*
G04 #@! TO.C,R906*
X76961000Y47217359D02*
X76961000Y47524641D01*
X76201000Y47217359D02*
X76201000Y47524641D01*
G04 #@! TO.C,U902*
X88514000Y39732000D02*
X88514000Y38472000D01*
X92274000Y39732000D02*
X88514000Y39732000D01*
X94524000Y32912000D02*
X88514000Y32912000D01*
X88514000Y32912000D02*
X88514000Y34172000D01*
G04 #@! TO.C,Y1501*
X89382007Y-4065893D02*
X95132007Y-4065893D01*
X95132007Y-465893D02*
X89382007Y-465893D01*
X89382007Y-465893D02*
X89382007Y-4065893D01*
G04 #@! TO.C,C902*
X68782913Y31787551D02*
X68501753Y31787551D01*
X68782913Y32807551D02*
X68501753Y32807551D01*
G04 #@! TO.C,C904*
X70737000Y39356420D02*
X70737000Y39637580D01*
X71757000Y39356420D02*
X71757000Y39637580D01*
G04 #@! TO.C,R905*
X69495641Y34162000D02*
X69188359Y34162000D01*
X69495641Y33402000D02*
X69188359Y33402000D01*
G04 #@! TO.C,R908*
X77062359Y31116000D02*
X77369641Y31116000D01*
X77062359Y31876000D02*
X77369641Y31876000D01*
G04 #@! TO.C,U903*
X74168000Y37612000D02*
X70718000Y37612000D01*
X74168000Y37612000D02*
X76118000Y37612000D01*
X74168000Y32492000D02*
X72218000Y32492000D01*
X74168000Y32492000D02*
X76118000Y32492000D01*
G04 #@! TO.C,D901*
X72264000Y38002000D02*
X75564000Y38002000D01*
X75564000Y38002000D02*
X75564000Y43402000D01*
X72264000Y38002000D02*
X72264000Y43402000D01*
G04 #@! TO.C,D101*
X31091548Y5380689D02*
X27791548Y5380689D01*
X27791548Y5380689D02*
X27791548Y-19311D01*
X31091548Y5380689D02*
X31091548Y-19311D01*
G04 #@! TO.C,D102*
X34897124Y-5666291D02*
X34897124Y-8966291D01*
X34897124Y-8966291D02*
X40297124Y-8966291D01*
X34897124Y-5666291D02*
X40297124Y-5666291D01*
G04 #@! TO.C,D103*
X38060648Y11195957D02*
X34760648Y11195957D01*
X38060648Y11195957D02*
X38060648Y5795957D01*
X34760648Y11195957D02*
X34760648Y5795957D01*
G04 #@! TO.C,D104*
X27784480Y-8526837D02*
X31084480Y-8526837D01*
X31084480Y-8526837D02*
X31084480Y-3126837D01*
X27784480Y-8526837D02*
X27784480Y-3126837D01*
G04 #@! TO.C,R907*
X75337641Y31876000D02*
X75030359Y31876000D01*
X75337641Y31116000D02*
X75030359Y31116000D01*
G04 #@! TO.C,D1501*
X95722000Y39116000D02*
X95722000Y39916000D01*
X95722000Y39116000D02*
X95722000Y38316000D01*
X98842000Y39116000D02*
X98842000Y40916000D01*
X98842000Y39116000D02*
X98842000Y38316000D01*
G04 #@! TO.C,C905*
X76561836Y30120000D02*
X76346164Y30120000D01*
X76561836Y30840000D02*
X76346164Y30840000D01*
G04 #@! TO.C,L1002*
X72738064Y48350000D02*
X71533936Y48350000D01*
X72738064Y45630000D02*
X71533936Y45630000D01*
G04 #@! TO.C,R1105*
X72239870Y59365807D02*
X72547152Y59365807D01*
X72239870Y58605807D02*
X72547152Y58605807D01*
G04 #@! TO.C,R1106*
X64450608Y51558521D02*
X64115075Y51222988D01*
X63711681Y52297448D02*
X63376148Y51961915D01*
G04 #@! TO.C,R1107*
X72245842Y58338152D02*
X72553124Y58338152D01*
X72245842Y57578152D02*
X72553124Y57578152D01*
G04 #@! TO.C,R1108*
X59630759Y51828904D02*
X59630759Y51354388D01*
X60675759Y51828904D02*
X60675759Y51354388D01*
G04 #@! TO.C,L1001*
X81948000Y38548000D02*
X81948000Y39748000D01*
X81948000Y38548000D02*
X76548000Y38548000D01*
X81948000Y43748000D02*
X81948000Y42548000D01*
X76548000Y43748000D02*
X81948000Y43748000D01*
X76548000Y38548000D02*
X76548000Y39748000D01*
X76548000Y43748000D02*
X76548000Y42548000D01*
G04 #@! TO.C,C906*
X82656000Y40843252D02*
X82656000Y39420748D01*
X84476000Y40843252D02*
X84476000Y39420748D01*
G04 #@! TO.C,C1901*
X122667283Y-1844511D02*
X123189787Y-1844511D01*
X122667283Y-374511D02*
X123189787Y-374511D01*
G04 #@! TO.C,C21*
X115903658Y3483996D02*
X115903658Y3202836D01*
X116923658Y3483996D02*
X116923658Y3202836D01*
G04 #@! TO.C,C22*
X115960610Y-7954628D02*
X115960610Y-8235788D01*
X116980610Y-7954628D02*
X116980610Y-8235788D01*
G04 #@! TO.C,C25*
X111762922Y-477526D02*
X111762922Y-693198D01*
X111042922Y-477526D02*
X111042922Y-693198D01*
G04 #@! TO.C,C26*
X110582996Y-1779831D02*
X110582996Y-1995503D01*
X109862996Y-1779831D02*
X109862996Y-1995503D01*
G04 #@! TO.C,C1902*
X122752651Y-9078658D02*
X123275155Y-9078658D01*
X122752651Y-7608658D02*
X123275155Y-7608658D01*
G04 #@! TO.C,R42*
X118236000Y3455641D02*
X118236000Y3148359D01*
X117476000Y3455641D02*
X117476000Y3148359D01*
G04 #@! TO.C,R43*
X117588782Y-8641932D02*
X117588782Y-8334650D01*
X118348782Y-8641932D02*
X118348782Y-8334650D01*
G04 #@! TO.C,R1901*
X119219528Y864386D02*
X119526810Y864386D01*
X119219528Y104386D02*
X119526810Y104386D01*
G04 #@! TO.C,R1902*
X120040345Y-7087315D02*
X120347627Y-7087315D01*
X120040345Y-7847315D02*
X120347627Y-7847315D01*
G04 #@! TO.C,R1903*
X119226359Y1398000D02*
X119533641Y1398000D01*
X119226359Y2158000D02*
X119533641Y2158000D01*
G04 #@! TO.C,R1904*
X119456930Y-8538373D02*
X119764212Y-8538373D01*
X119456930Y-9298373D02*
X119764212Y-9298373D01*
G04 #@! TO.C,C1903*
X119687651Y-4232193D02*
X119406491Y-4232193D01*
X119687651Y-5252193D02*
X119406491Y-5252193D01*
G04 #@! TO.C,R38*
X118973919Y-1822193D02*
X119281201Y-1822193D01*
X118973919Y-2582193D02*
X119281201Y-2582193D01*
G04 #@! TO.C,R40*
X118972359Y-382000D02*
X119279641Y-382000D01*
X118972359Y-1142000D02*
X119279641Y-1142000D01*
G04 #@! TO.C,J1505*
X98875501Y-6456837D02*
X98875501Y-3796837D01*
X98875501Y-3796837D02*
X111635501Y-3796837D01*
X111635501Y-6456837D02*
X111635501Y-3796837D01*
X96275501Y-6456837D02*
X96275501Y-5126837D01*
X97605501Y-6456837D02*
X96275501Y-6456837D01*
X98875501Y-6456837D02*
X111635501Y-6456837D01*
G04 #@! TO.C,JP1*
X124345365Y-4398293D02*
X121545365Y-4398293D01*
X121545365Y-4398293D02*
X121545365Y-2398293D01*
X121545365Y-2398293D02*
X124345365Y-2398293D01*
X124345365Y-2398293D02*
X124345365Y-4398293D01*
G04 #@! TO.C,JP2*
X121563415Y-7038047D02*
X121563415Y-5038047D01*
X124363415Y-5038047D02*
X124363415Y-7038047D01*
X124363415Y-7038047D02*
X121563415Y-7038047D01*
X121563415Y-5038047D02*
X124363415Y-5038047D01*
G04 #@! TO.C,J1*
X65838000Y-5176000D02*
X65838000Y604000D01*
X53928000Y-8896000D02*
X53428000Y-8996000D01*
X52018000Y5824000D02*
X65838000Y5824000D01*
X56728000Y-8396000D02*
X55228000Y-8596000D01*
X65838000Y3124000D02*
X65838000Y5824000D01*
X52018000Y-8096000D02*
X52018000Y-7696000D01*
X65838000Y-8096000D02*
X65838000Y-7696000D01*
X63928000Y-9596000D02*
X53928000Y-9596000D01*
X64428000Y-8096000D02*
X64428000Y-9096000D01*
X63628000Y-8796000D02*
X61928000Y-8496000D01*
X61928000Y-8496000D02*
X61128000Y-8396000D01*
X64428000Y-8996000D02*
X63628000Y-8796000D01*
X59828000Y-8296000D02*
X58028000Y-8296000D01*
X58028000Y-8296000D02*
X56728000Y-8396000D01*
X52018000Y-5176000D02*
X52018000Y604000D01*
X65838000Y-8096000D02*
X52018000Y-8096000D01*
X52018000Y3124000D02*
X52018000Y5824000D01*
X55228000Y-8596000D02*
X53928000Y-8896000D01*
X53428000Y-8096000D02*
X53428000Y-9096000D01*
X61128000Y-8396000D02*
X59828000Y-8296000D01*
X63928000Y-9596000D02*
G75*
G03*
X64428000Y-9096000I-1J500001D01*
G01*
X53428000Y-9096000D02*
G75*
G03*
X53928000Y-9596000I500001J1D01*
G01*
G04 #@! TO.C,D2*
X63483000Y36748000D02*
X63483000Y35338000D01*
X65803000Y35338000D02*
X65803000Y37368000D01*
X64143000Y35338000D02*
X63483000Y35338000D01*
X65803000Y35338000D02*
X65143000Y35338000D01*
G04 #@! TO.C,R33*
X66054500Y32046242D02*
X66054500Y32520758D01*
X65009500Y32046242D02*
X65009500Y32520758D01*
G04 #@! TO.C,J2*
X109082339Y-6966983D02*
X111682339Y-6966983D01*
X106482339Y-9626983D02*
X106482339Y-8296983D01*
X109082339Y-9626983D02*
X111682339Y-9626983D01*
X107812339Y-9626983D02*
X106482339Y-9626983D01*
X109082339Y-9626983D02*
X109082339Y-6966983D01*
X111682339Y-9626983D02*
X111682339Y-6966983D01*
G04 #@! TO.C,J1501*
X62920000Y24900000D02*
X62920000Y25900000D01*
X62220000Y19600000D02*
X57420000Y19600000D01*
X62920000Y25900000D02*
X62420000Y25400000D01*
X49120000Y19600000D02*
X49120000Y33700000D01*
X62420000Y25400000D02*
X62920000Y24900000D01*
X53920000Y19600000D02*
X49120000Y19600000D01*
X49120000Y33700000D02*
X53920000Y33700000D01*
X62220000Y33700000D02*
X62220000Y19600000D01*
X57420000Y33700000D02*
X62220000Y33700000D01*
G04 #@! TO.C,R34*
X58670609Y47652230D02*
X58670609Y47198102D01*
X60140609Y47652230D02*
X60140609Y47198102D01*
G04 #@! TO.C,R35*
X76460623Y61096330D02*
X76914751Y61096330D01*
X76460623Y59626330D02*
X76914751Y59626330D01*
G04 #@! TO.C,U8*
X99353913Y2579913D02*
X98894294Y3039533D01*
X101560087Y4786087D02*
X100375683Y5970490D01*
X101560087Y4786087D02*
X102019706Y4326467D01*
X99353913Y2579913D02*
X99813533Y2120294D01*
G04 #@! TO.C,U9*
X94705000Y26245000D02*
X94705000Y25945000D01*
X91985000Y26245000D02*
X91985000Y25945000D01*
X94705000Y28365000D02*
X94705000Y28665000D01*
X91985000Y28365000D02*
X91985000Y28665000D01*
X94705000Y25945000D02*
X94105000Y25945000D01*
X91985000Y28665000D02*
X92585000Y28665000D01*
X91985000Y25945000D02*
X92585000Y25945000D01*
G04 #@! TO.C,C1520*
X96082719Y6302030D02*
X96281530Y6103219D01*
X95361470Y5580781D02*
X95560281Y5381970D01*
G04 #@! TO.C,C20*
X94728420Y30228000D02*
X95009580Y30228000D01*
X94728420Y29208000D02*
X95009580Y29208000D01*
G04 #@! TO.C,R39*
X86107000Y27966641D02*
X86107000Y27659359D01*
X86867000Y27966641D02*
X86867000Y27659359D01*
G04 #@! TO.C,R41*
X91974641Y24639000D02*
X91667359Y24639000D01*
X91974641Y25399000D02*
X91667359Y25399000D01*
G04 #@! TO.C,SW1501*
X49068314Y12921456D02*
X55768314Y12921456D01*
X49068314Y12921456D02*
X49068314Y13121456D01*
X55768314Y12921456D02*
X55768314Y13121456D01*
X55768314Y17221456D02*
X55768314Y14821456D01*
X55768314Y19121456D02*
X49068314Y19121456D01*
X55768314Y19121456D02*
X55768314Y18921456D01*
X49068314Y17221456D02*
X49068314Y14821456D01*
X49068314Y19121456D02*
X49068314Y18921456D01*
G04 #@! TO.C,SW1502*
X49068314Y12566852D02*
X49068314Y12366852D01*
X55768314Y12566852D02*
X55768314Y12366852D01*
X49068314Y8266852D02*
X49068314Y10666852D01*
X55768314Y8266852D02*
X55768314Y10666852D01*
X49068314Y6366852D02*
X49068314Y6566852D01*
X49068314Y6366852D02*
X55768314Y6366852D01*
X55768314Y6366852D02*
X55768314Y6566852D01*
X55768314Y12566852D02*
X49068314Y12566852D01*
G04 #@! TO.C,J4*
X62230000Y7874000D02*
X61595000Y7874000D01*
X62230000Y8509000D02*
X62230000Y7874000D01*
G04 #@! TO.C,D3*
X96810000Y11668000D02*
X100710000Y11668000D01*
X96810000Y9668000D02*
X100710000Y9668000D01*
X96810000Y11668000D02*
X96810000Y9668000D01*
G04 #@! TO.C,D4*
X84460117Y-1384903D02*
X87217833Y-4142619D01*
X83045903Y-2799117D02*
X85803619Y-5556833D01*
X84460117Y-1384903D02*
X83045903Y-2799117D01*
G04 #@! TO.C,C30*
X82851970Y-4706219D02*
X83050781Y-4905030D01*
X83573219Y-3984970D02*
X83772030Y-4183781D01*
G04 #@! TO.C,R1503*
X98410500Y44306258D02*
X98410500Y43831742D01*
X99455500Y44306258D02*
X99455500Y43831742D01*
G04 #@! TO.C,R50*
X104434913Y57422661D02*
X104909429Y57422661D01*
X104434913Y58467661D02*
X104909429Y58467661D01*
G04 #@! TO.C,R53*
X111066450Y60715679D02*
X111066450Y60241163D01*
X110021450Y60715679D02*
X110021450Y60241163D01*
G04 #@! TO.C,D6*
X89959396Y62767788D02*
X89959396Y65317788D01*
X88259396Y62767788D02*
X89959396Y62767788D01*
X88259396Y62767788D02*
X88259396Y65317788D01*
G04 #@! TO.C,U27*
X85943755Y65885912D02*
X84143755Y65885912D01*
X85943755Y62765912D02*
X86743755Y62765912D01*
X85943755Y62765912D02*
X85143755Y62765912D01*
X85943755Y65885912D02*
X86743755Y65885912D01*
G04 #@! TO.C,U25*
X106385469Y63531075D02*
X106385469Y64331075D01*
X106385469Y63531075D02*
X106385469Y62731075D01*
X109505469Y63531075D02*
X109505469Y65331075D01*
X109505469Y63531075D02*
X109505469Y62731075D01*
G04 #@! TO.C,U6*
X82268271Y33595820D02*
X84218271Y33595820D01*
X82268271Y28475820D02*
X80318271Y28475820D01*
X82268271Y28475820D02*
X84218271Y28475820D01*
X82268271Y33595820D02*
X78818271Y33595820D01*
G04 #@! TO.C,C29*
X104782441Y62133166D02*
X104501281Y62133166D01*
X104782441Y63153166D02*
X104501281Y63153166D01*
G04 #@! TO.C,C28*
X111649558Y60329331D02*
X111649558Y60610491D01*
X112669558Y60329331D02*
X112669558Y60610491D01*
G04 #@! TO.C,U14*
X34945601Y59635816D02*
X36205601Y59635816D01*
X34945601Y53625816D02*
X34945601Y59635816D01*
X41765601Y59635816D02*
X40505601Y59635816D01*
X41765601Y55875816D02*
X41765601Y59635816D01*
G04 #@! TO.C,C18*
X72775880Y61841515D02*
X73057040Y61841515D01*
X72775880Y62861515D02*
X73057040Y62861515D01*
G04 #@! TO.C,U1208*
X96904866Y29228027D02*
X96339181Y28662341D01*
X96904866Y29228027D02*
X97470552Y29793712D01*
X99111040Y27021853D02*
X98545354Y26456168D01*
X99111040Y27021853D02*
X100383832Y28294646D01*
G04 #@! TO.C,R51*
X111545582Y58595057D02*
X111071066Y58595057D01*
X111545582Y57550057D02*
X111071066Y57550057D01*
G04 #@! TO.C,R49*
X72884321Y66536691D02*
X73338449Y66536691D01*
X72884321Y65066691D02*
X73338449Y65066691D01*
G04 #@! TO.C,C19*
X72780581Y64459902D02*
X73061741Y64459902D01*
X72780581Y63439902D02*
X73061741Y63439902D01*
G04 #@! TO.C,U13*
X49265348Y61741008D02*
X48005348Y61741008D01*
X49265348Y57981008D02*
X49265348Y61741008D01*
X42445348Y61741008D02*
X43705348Y61741008D01*
X42445348Y55731008D02*
X42445348Y61741008D01*
G04 #@! TO.C,R37*
X69847417Y30208061D02*
X70321933Y30208061D01*
X69847417Y31253061D02*
X70321933Y31253061D01*
G04 #@! TO.C,U26*
X106409206Y59238611D02*
X106409206Y60038611D01*
X106409206Y59238611D02*
X106409206Y58438611D01*
X109529206Y59238611D02*
X109529206Y61038611D01*
X109529206Y59238611D02*
X109529206Y58438611D01*
G04 #@! TO.C,R52*
X104890882Y60547748D02*
X104890882Y60073232D01*
X105935882Y60547748D02*
X105935882Y60073232D01*
G04 #@! TO.C,C31*
X111140912Y63322835D02*
X111422072Y63322835D01*
X111140912Y62302835D02*
X111422072Y62302835D01*
G04 #@! TO.C,U10*
X115845124Y36402186D02*
X116645124Y36402186D01*
X115845124Y36402186D02*
X114045124Y36402186D01*
X115845124Y33282186D02*
X115045124Y33282186D01*
X115845124Y33282186D02*
X116645124Y33282186D01*
G04 #@! TO.C,U12*
X58129941Y55445269D02*
X58129941Y63245269D01*
X58429941Y53645269D02*
X58429941Y55445269D01*
X70829941Y63245269D02*
X71129941Y63245269D01*
X71129941Y63245269D02*
X71129941Y55445269D01*
X58429941Y55445269D02*
X58129941Y55445269D01*
X70829941Y55445269D02*
X71129941Y55445269D01*
X58429941Y63245269D02*
X58129941Y63245269D01*
G04 #@! TO.C,R36*
X87792955Y31132800D02*
X88128488Y31468333D01*
X88531882Y30393873D02*
X88867415Y30729406D01*
G04 #@! TO.C,U18*
X34953148Y50670595D02*
X36213148Y50670595D01*
X41773148Y50670595D02*
X40513148Y50670595D01*
X34953148Y44660595D02*
X34953148Y50670595D01*
X41773148Y46910595D02*
X41773148Y50670595D01*
G04 #@! TO.C,R48*
X72903814Y61293204D02*
X73357942Y61293204D01*
X72903814Y59823204D02*
X73357942Y59823204D01*
G04 #@! TO.C,U7*
X103002500Y37938934D02*
X101202500Y37938934D01*
X103002500Y37938934D02*
X103802500Y37938934D01*
X103002500Y34818934D02*
X102202500Y34818934D01*
X103002500Y34818934D02*
X103802500Y34818934D01*
G04 #@! TO.C,U20*
X42327918Y45147436D02*
X43587918Y45147436D01*
X49147918Y51157436D02*
X49147918Y45147436D01*
X49147918Y45147436D02*
X47887918Y45147436D01*
X42327918Y48907436D02*
X42327918Y45147436D01*
G04 #@! TO.C,IC1*
X81873291Y65880137D02*
X80198291Y65880137D01*
X81873291Y65880137D02*
X82523291Y65880137D01*
X81873291Y62760137D02*
X81223291Y62760137D01*
X81873291Y62760137D02*
X82523291Y62760137D01*
G04 #@! TO.C,U1207*
X108883102Y31694573D02*
X110155894Y32967366D01*
X108883102Y31694573D02*
X108317416Y31128888D01*
X106676928Y33900747D02*
X107242614Y34466432D01*
X106676928Y33900747D02*
X106111243Y33335061D01*
G04 #@! TO.C,U19*
X50011118Y52515126D02*
X50011118Y48755126D01*
X50011118Y48755126D02*
X51271118Y48755126D01*
X56831118Y54765126D02*
X56831118Y48755126D01*
X56831118Y48755126D02*
X55571118Y48755126D01*
G04 #@! TO.C,U15*
X49937547Y61744781D02*
X51197547Y61744781D01*
X56757547Y61744781D02*
X55497547Y61744781D01*
X56757547Y57984781D02*
X56757547Y61744781D01*
X49937547Y55734781D02*
X49937547Y61744781D01*
G04 #@! TO.C,U22*
X42927787Y1244158D02*
X42927787Y-2515842D01*
X49747787Y-2515842D02*
X48487787Y-2515842D01*
X42927787Y-2515842D02*
X44187787Y-2515842D01*
X49747787Y3494158D02*
X49747787Y-2515842D01*
G04 #@! TO.C,D5*
X77912877Y66271883D02*
X80462877Y66271883D01*
X77912877Y67971883D02*
X80462877Y67971883D01*
X77912877Y67971883D02*
X77912877Y66271883D01*
G04 #@! TO.C,U1202*
X103802599Y30700816D02*
X105075391Y31973609D01*
X101596425Y32906990D02*
X102162111Y33472675D01*
X101596425Y32906990D02*
X101030740Y32341304D01*
X103802599Y30700816D02*
X103236913Y30135131D01*
G04 #@! TO.C,U11*
X73225722Y24656728D02*
X76675722Y24656728D01*
X73225722Y29776728D02*
X71275722Y29776728D01*
X73225722Y24656728D02*
X71275722Y24656728D01*
X73225722Y29776728D02*
X75175722Y29776728D01*
G04 #@! TO.C,U21*
X40736154Y4496415D02*
X40736154Y5756415D01*
X46746154Y4496415D02*
X40736154Y4496415D01*
X44496154Y11316415D02*
X40736154Y11316415D01*
X40736154Y11316415D02*
X40736154Y10056415D01*
G04 #@! TO.C,U24*
X41794840Y-2619802D02*
X40534840Y-2619802D01*
X34974840Y-2619802D02*
X36234840Y-2619802D01*
X41794840Y3390198D02*
X41794840Y-2619802D01*
X34974840Y1140198D02*
X34974840Y-2619802D01*
G04 #@! TO.C,C27*
X104270134Y60148864D02*
X104270134Y60430024D01*
X103250134Y60148864D02*
X103250134Y60430024D01*
G04 #@! TO.C,R54*
X78718294Y65049259D02*
X79025576Y65049259D01*
X78718294Y65809259D02*
X79025576Y65809259D01*
G04 #@! TD*
M02*
