M48
; DRILL file {KiCad (6.0.1)} date Tue Aug 30 16:06:49 2022
; FORMAT={-:-/ absolute / inch / decimal}
; #@! TF.CreationDate,2022-08-30T16:06:49+01:00
; #@! TF.GenerationSoftware,Kicad,Pcbnew,(6.0.1)
; #@! TF.FileFunction,MixedPlating,1,4
FMAT,2
INCH
; #@! TA.AperFunction,Plated,PTH,ViaDrill
T1C0.0118
; #@! TA.AperFunction,Plated,PTH,ViaDrill
T2C0.0118
; #@! TA.AperFunction,Plated,PTH,ViaDrill
T3C0.0157
; #@! TA.AperFunction,Plated,PTH,ComponentDrill
T4C0.0315
; #@! TA.AperFunction,Plated,PTH,ComponentDrill
T5C0.0362
; #@! TA.AperFunction,Plated,PTH,ComponentDrill
T6C0.0394
; #@! TA.AperFunction,Plated,PTH,ComponentDrill
T7C0.0433
; #@! TA.AperFunction,Plated,PTH,ViaDrill
T8C0.0551
; #@! TA.AperFunction,Plated,PTH,ComponentDrill
T9C0.0906
; #@! TA.AperFunction,NonPlated,NPTH,ComponentDrill
T10C0.0390
%
G90
G05
T1
X1.1443Y2.7913
X1.1506Y-0.3581
X1.2194Y-0.0613
X1.2695Y-0.1711
X1.3346Y1.0354
X1.3439Y0.0335
X1.363Y1.7863
X1.3631Y1.6768
X1.3633Y0.888
X1.3657Y1.1885
X1.3657Y0.728
X1.368Y0.5657
X1.3687Y0.2157
X1.3911Y-0.1887
X1.4011Y2.4262
X1.4038Y2.0352
X1.4194Y2.2767
X1.4196Y0.028
X1.4237Y1.854
X1.4367Y1.4421
X1.4475Y0.4589
X1.474Y-0.2238
X1.4923Y0.3746
X1.5056Y1.2643
X1.5073Y-0.3222
X1.5095Y0.9893
X1.5109Y2.2153
X1.511Y0.8491
X1.5117Y0.7071
X1.5117Y0.5613
X1.5208Y0.2168
X1.5333Y2.7391
X1.543Y1.4
X1.5501Y1.0875
X1.5549Y1.5104
X1.5603Y1.4694
X1.5661Y1.4224
X1.5676Y0.6113
X1.5695Y-0.054
X1.5794Y1.6873
X1.58Y1.9657
X1.5811Y1.864
X1.5831Y1.4466
X1.5882Y1.401
X1.6075Y0.4611
X1.6129Y-0.1555
X1.6184Y-0.1154
X1.6191Y-0.0617
X1.6224Y0.3339
X1.6287Y0.0307
X1.637Y1.1967
X1.6374Y1.1285
X1.6381Y1.2832
X1.6388Y1.3399
X1.6491Y0.558
X1.6586Y1.6238
X1.6599Y1.4515
X1.6696Y0.0273
X1.6839Y0.7196
X1.6865Y0.9194
X1.6869Y1.2436
X1.6891Y0.6658
X1.6908Y1.6345
X1.6921Y1.4537
X1.6957Y2.5162
X1.7041Y-0.1657
X1.7081Y1.6918
X1.7174Y-0.2612
X1.7187Y-0.309
X1.722Y-0.0594
X1.722Y-0.1162
X1.7229Y2.0533
X1.7243Y1.4537
X1.7294Y1.6259
X1.7311Y2.822
X1.7311Y2.6455
X1.7321Y2.3931
X1.7341Y1.6649
X1.7522Y1.7949
X1.7532Y1.8412
X1.757Y1.4542
X1.7878Y1.4528
X1.788Y1.1913
X1.788Y1.1223
X1.7897Y1.0785
X1.7903Y0.5176
X1.7916Y1.798
X1.7959Y0.777
X1.7962Y-0.0655
X1.7964Y0.8665
X1.7967Y0.5823
X1.7986Y0.0369
X1.8002Y1.2599
X1.8004Y1.2254
X1.8093Y0.8296
X1.8127Y0.5468
X1.8187Y1.4515
X1.8299Y1.2819
X1.8338Y2.1639
X1.8429Y-0.3653
X1.8511Y2.043
X1.8517Y1.4515
X1.8565Y1.9138
X1.8626Y1.3259
X1.8659Y0.3526
X1.8712Y1.1301
X1.8713Y-0.205
X1.8837Y1.2514
X1.9013Y2.3931
X1.9118Y1.8087
X1.9126Y-0.2797
X1.916Y0.0265
X1.9207Y1.913
X1.9362Y0.661
X1.9468Y1.0553
X1.9486Y1.3307
X1.9507Y2.6823
X1.9513Y1.2909
X1.9534Y2.1596
X1.9624Y1.5279
X1.98Y1.02
X1.984Y-0.1966
X1.9854Y2.0434
X1.9855Y1.8246
X1.9885Y1.3591
X1.99Y1.3261
X1.9944Y-0.2994
X1.9944Y-0.3331
X1.995Y-0.2669
X1.9961Y-0.2315
X2.01Y0.99
X2.0253Y0.5407
X2.0307Y1.6355
X2.0483Y1.0902
X2.05Y0.99
X2.0618Y1.9394
X2.0635Y2.6823
X2.0721Y2.0488
X2.0721Y1.7655
X2.08Y1.01
X2.1072Y0.1009
X2.1072Y1.7913
X2.1173Y0.233
X2.1366Y1.5331
X2.1404Y-0.0905
X2.1557Y1.804
X2.1564Y1.0487
X2.1682Y2.6811
X2.1696Y1.3817
X2.1877Y2.3101
X2.1955Y1.0487
X2.21Y-0.05
X2.212Y1.8371
X2.2183Y2.53
X2.2296Y2.3956
X2.2299Y1.6338
X2.2325Y-0.0893
X2.235Y0.405
X2.2442Y0.0
X2.2473Y1.2206
X2.2634Y2.6826
X2.268Y0.864
X2.2733Y1.7615
X2.2733Y1.732
X2.2737Y1.7018
X2.2743Y1.6706
X2.28Y1.824
X2.2901Y0.5183
X2.3Y0.866
X2.3Y-0.05
X2.3142Y1.96
X2.3151Y2.376
X2.3152Y2.3152
X2.3158Y2.3492
X2.3158Y2.2842
X2.32Y-0.09
X2.335Y0.365
X2.335Y0.335
X2.3502Y0.2984
X2.3576Y2.3527
X2.3616Y1.6866
X2.362Y1.7477
X2.3724Y2.6849
X2.3817Y1.4403
X2.4Y2.4
X2.4058Y1.9538
X2.4206Y2.2481
X2.4209Y2.3794
X2.4221Y1.1981
X2.4276Y0.5639
X2.4422Y2.3582
X2.445Y0.26
X2.4522Y2.2481
X2.4565Y2.3913
X2.4632Y0.4378
X2.4634Y1.1177
X2.4674Y2.3515
X2.4689Y0.3013
X2.4721Y0.9607
X2.4848Y2.0679
X2.4879Y-0.1607
X2.4967Y0.9835
X2.5031Y2.4455
X2.5036Y0.3837
X2.5185Y1.0067
X2.5292Y1.0343
X2.5322Y2.4012
X2.5404Y0.1291
X2.5443Y1.4232
X2.545Y0.505
X2.5522Y-0.157
X2.5522Y0.3073
X2.5636Y2.4012
X2.5662Y1.0726
X2.5672Y1.5067
X2.5733Y2.0356
X2.585Y0.335
X2.5882Y2.4012
X2.5889Y-0.1221
X2.6Y1.5
X2.604Y2.036
X2.6062Y2.0776
X2.6064Y0.8587
X2.6194Y2.4013
X2.6229Y1.4576
X2.63Y0.15
X2.635Y2.036
X2.6351Y-0.133
X2.6406Y0.6542
X2.65Y-0.32
X2.655Y0.41
X2.6563Y2.4462
X2.6661Y2.037
X2.6743Y1.2216
X2.68Y0.08
X2.6844Y2.4454
X2.69Y0.05
X2.6972Y2.2963
X2.7Y0.365
X2.7Y0.11
X2.7084Y1.3636
X2.71Y0.02
X2.7124Y2.4454
X2.7205Y1.1447
X2.721Y0.5043
X2.7281Y0.3964
X2.7291Y0.1291
X2.7382Y0.5439
X2.7398Y2.4454
X2.7402Y1.686
X2.7437Y0.0206
X2.746Y0.734
X2.75Y0.15
X2.751Y2.244
X2.755Y0.43
X2.755Y0.315
X2.7558Y1.4602
X2.7591Y0.5648
X2.7695Y2.2255
X2.785Y0.305
X2.7973Y2.6462
X2.8045Y0.2541
X2.806Y2.5522
X2.81Y2.2456
X2.8178Y0.5971
X2.818Y-0.1322
X2.8225Y1.9603
X2.8279Y1.2491
X2.8311Y1.6482
X2.8391Y0.3912
X2.8422Y1.9006
X2.845Y0.255
X2.8493Y-0.1596
X2.8497Y-0.2203
X2.8564Y0.2169
X2.86Y0.33
X2.87Y-0.05
X2.8723Y-0.2534
X2.8727Y-0.1903
X2.8727Y2.675
X2.8729Y-0.0993
X2.88Y1.07
X2.88Y0.28
X2.88Y-0.32
X2.882Y0.651
X2.8899Y-0.0209
X2.8901Y1.0062
X2.8935Y0.5597
X2.8955Y-0.0728
X2.9Y0.01
X2.9039Y1.3004
X2.91Y1.14
X2.9111Y1.1988
X2.9117Y1.4682
X2.9128Y0.5915
X2.9215Y1.9296
X2.9217Y0.8968
X2.9296Y2.3051
X2.9437Y2.269
X2.9465Y0.3889
X2.9478Y0.9177
X2.951Y0.5929
X2.9512Y0.7514
X2.9525Y2.434
X2.966Y-0.2248
X2.9685Y1.2751
X2.9688Y2.5933
X2.9699Y1.6765
X2.9704Y0.7738
X2.9705Y1.7397
X2.9705Y1.7095
X2.9709Y0.9406
X2.9762Y0.1177
X2.9821Y2.1284
X3.0108Y0.4342
X3.0234Y1.6912
X3.0366Y2.1368
X3.0391Y0.7936
X3.04Y-0.15
X3.0526Y2.4302
X3.0547Y1.6917
X3.0683Y2.522
X3.069Y-0.2245
X3.07Y1.13
X3.07Y0.72
X3.075Y1.195
X3.08Y1.35
X3.0821Y1.4507
X3.0827Y1.5469
X3.0827Y1.5172
X3.0827Y1.4842
X3.0827Y1.3919
X3.0832Y1.4221
X3.0849Y1.6929
X3.092Y1.9486
X3.0994Y0.0106
X3.1022Y2.2501
X3.107Y1.0057
X3.11Y0.72
X3.1279Y2.1207
X3.135Y1.085
X3.1362Y0.9298
X3.1377Y0.882
X3.1384Y-0.2649
X3.1388Y2.3746
X3.1487Y-0.1601
X3.1647Y0.9068
X3.1647Y0.8582
X3.1649Y1.6956
X3.1704Y-0.0736
X3.175Y-0.225
X3.18Y-0.04
X3.1817Y1.8631
X3.1841Y2.532
X3.1903Y0.7105
X3.1945Y1.6956
X3.1976Y1.0464
X3.1984Y1.246
X3.1984Y1.3875
X3.199Y1.4479
X3.199Y1.3589
X3.1996Y1.4177
X3.2Y1.28
X3.2003Y-0.2771
X3.2124Y-0.0209
X3.2207Y0.0075
X3.2271Y-0.1862
X3.2287Y0.858
X3.2376Y1.4842
X3.2431Y2.1225
X3.265Y0.34
X3.2773Y2.4921
X3.2857Y0.058
X3.2885Y1.4786
X3.2905Y1.5729
X3.3204Y0.4308
X3.3329Y-0.2296
X3.3497Y2.1191
X3.35Y0.125
X3.3548Y1.3541
X3.3603Y1.0955
X3.365Y-0.32
X3.3668Y2.6178
X3.3701Y-0.1317
X3.38Y1.47
X3.38Y1.43
X3.38Y1.4
X3.39Y0.26
X3.395Y0.005
X3.405Y0.17
X3.4108Y2.5335
X3.4181Y1.2819
X3.4275Y0.6553
X3.43Y-0.225
X3.438Y0.0509
X3.4419Y1.2581
X3.4537Y2.1107
X3.456Y0.2614
X3.4872Y0.3178
X3.4894Y1.7456
X3.4948Y0.8084
X3.4965Y0.5816
X3.5Y1.43
X3.5009Y1.6199
X3.504Y2.0596
X3.52Y0.3
X3.53Y1.43
X3.5301Y1.7955
X3.5304Y0.1454
X3.5338Y-0.0166
X3.5361Y-0.1724
X3.5443Y1.3401
X3.5457Y1.0033
X3.55Y0.12
X3.55Y0.09
X3.56Y1.43
X3.5719Y1.9525
X3.59Y1.52
X3.595Y1.05
X3.596Y1.1063
X3.5995Y-0.1607
X3.6Y-0.32
X3.6095Y0.0515
X3.6124Y1.1769
X3.6134Y1.28
X3.614Y1.3417
X3.62Y1.52
X3.6219Y-0.2808
X3.6267Y1.0217
X3.6299Y0.4645
X3.6336Y0.7625
X3.6408Y0.9473
X3.6515Y1.9682
X3.655Y1.16
X3.67Y1.075
X3.67Y0.99
X3.695Y0.865
X3.6951Y2.0342
X3.6966Y-0.1623
X3.7021Y0.433
X3.7067Y1.8209
X3.7124Y1.2738
X3.7133Y1.62
X3.7383Y0.4879
X3.7429Y1.6541
X3.7441Y1.7224
X3.7446Y1.6223
X3.7452Y1.686
X3.7509Y1.479
X3.751Y0.2088
X3.7776Y-0.0687
X3.78Y0.37
X3.79Y0.41
X3.79Y0.34
X3.795Y-0.105
X3.8014Y0.9986
X3.805Y0.845
X3.8057Y1.8243
X3.8136Y1.4299
X3.815Y-0.13
X3.8285Y0.8657
X3.83Y0.12
X3.842Y1.1918
X3.8421Y2.0067
X3.8439Y0.2908
X3.8453Y1.7038
X3.8471Y1.1186
X3.8491Y1.5396
X3.85Y-0.3
X3.8585Y1.4324
X3.8607Y0.4705
X3.8691Y-0.3665
X3.8778Y0.4107
X3.88Y0.79
X3.8823Y0.2135
X3.885Y-0.295
X3.8916Y1.8162
X3.895Y0.445
X3.915Y0.824
X3.9181Y-0.3262
X3.9185Y1.1868
X3.9204Y-0.0576
X3.93Y0.93
X3.9364Y0.0912
X3.9382Y1.378
X3.96Y0.78
X3.97Y0.935
X3.9758Y1.1729
X3.9805Y2.0885
X3.9809Y0.7572
X3.9895Y-0.2479
X3.9932Y1.3186
X4.0015Y1.1026
X4.0058Y0.3201
X4.0088Y1.5172
X4.0213Y1.3455
X4.03Y0.085
X4.03Y1.2647
X4.033Y0.6276
X4.0362Y2.0632
X4.0378Y1.5888
X4.038Y1.709
X4.0383Y2.4053
X4.0388Y2.4657
X4.041Y2.2831
X4.0412Y1.5111
X4.048Y0.7264
X4.0532Y0.9768
X4.0556Y1.24
X4.0557Y1.3947
X4.0569Y1.4319
X4.06Y0.16
X4.0797Y0.2977
X4.08Y0.8317
X4.0817Y1.0232
X4.0864Y2.5189
X4.0916Y-0.2448
X4.0941Y0.9446
X4.0981Y1.327
X4.1014Y0.4042
X4.1029Y0.5626
X4.1056Y-0.0219
X4.1105Y1.6623
X4.1135Y0.0567
X4.1205Y2.2342
X4.1205Y0.1845
X4.123Y0.8093
X4.1282Y2.0277
X4.1333Y1.2021
X4.1338Y2.1167
X4.1431Y1.633
X4.15Y0.29
X4.1509Y1.4373
X4.1561Y1.2434
X4.1624Y0.7218
X4.1648Y1.3275
X4.1691Y0.467
X4.1699Y1.9596
X4.17Y0.93
X4.1731Y1.8857
X4.1798Y-0.3392
X4.1843Y1.7474
X4.187Y2.4179
X4.1923Y2.3344
X4.1987Y0.6735
X4.2129Y-0.0813
X4.2155Y2.0983
X4.2174Y1.6316
X4.2177Y1.512
X4.22Y0.05
X4.22Y-0.155
X4.2302Y2.5011
X4.2305Y2.3333
X4.2342Y1.3854
X4.2391Y0.4093
X4.24Y0.57
X4.2428Y0.48
X4.246Y0.6257
X4.2483Y1.0001
X4.2491Y0.834
X4.26Y1.15
X4.2627Y0.2411
X4.2663Y2.5008
X4.2701Y2.3346
X4.2721Y-0.0971
X4.2737Y0.2993
X4.2738Y2.0804
X4.2742Y1.2596
X4.2875Y0.0065
X4.2943Y1.5915
X4.295Y-0.155
X4.2952Y1.5569
X4.3124Y1.1076
X4.3237Y1.3593
X4.3237Y0.7314
X4.3259Y0.9474
X4.3275Y1.4353
X4.3454Y1.8695
X4.3466Y0.1967
X4.3482Y1.912
X4.3487Y1.9511
X4.3488Y1.2187
X4.35Y0.49
X4.35Y0.25
X4.3529Y0.7324
X4.354Y0.0597
X4.355Y0.378
X4.3666Y1.5123
X4.3692Y1.6311
X4.3739Y-0.1228
X4.39Y0.18
X4.397Y1.3243
X4.3979Y1.4294
X4.4148Y-0.2314
X4.4203Y2.2342
X4.4219Y-0.0103
X4.4309Y1.4469
X4.4358Y1.5728
X4.44Y1.25
X4.44Y1.21
X4.44Y1.17
X4.44Y1.08
X4.44Y1.04
X4.44Y1.0
X4.44Y0.36
X4.44Y0.32
X4.4403Y0.2819
X4.4464Y0.4947
X4.4477Y0.569
X4.4483Y2.0848
X4.4539Y1.8499
X4.4553Y0.8535
X4.4555Y2.4104
X4.4561Y1.9523
X4.4569Y2.0259
X4.4572Y2.4713
X4.4576Y2.2892
X4.46Y0.69
X4.4637Y1.8017
X4.4645Y1.3612
X4.4803Y-0.1545
X4.4939Y0.6525
X4.4982Y1.1229
X4.4991Y-0.0811
X4.4994Y0.2073
X4.5003Y1.6305
X4.501Y1.5106
X4.5019Y1.8019
X4.52Y1.25
X4.52Y1.17
X4.52Y1.08
X4.52Y1.0
X4.5278Y0.9329
X4.5286Y1.2102
X4.5309Y-0.1483
X4.5318Y0.3711
X4.533Y0.7406
X4.5359Y0.3148
X4.5362Y0.2624
X4.5418Y-0.259
X4.5439Y0.6051
X4.5439Y0.5651
X4.5439Y0.5251
X4.5494Y2.254
X4.5574Y1.4102
X4.5574Y1.912
X4.5579Y1.9502
X4.5585Y1.8812
X4.5596Y1.851
X4.5664Y1.7474
X4.5673Y0.3978
X4.5696Y1.5715
X4.5718Y2.2892
X4.5728Y0.6548
X4.581Y0.461
X4.6016Y0.7136
X4.63Y1.27
X4.63Y1.23
X4.63Y1.19
X4.63Y1.15
X4.63Y1.1
X4.63Y1.06
X4.63Y1.02
X4.63Y0.98
X4.6301Y0.5278
X4.632Y0.6034
X4.634Y-0.0788
X4.6354Y0.5648
X4.6396Y1.6316
X4.6396Y1.5113
X4.64Y0.85
X4.6516Y0.9004
X4.6604Y1.3898
X4.6676Y0.738
X4.6781Y0.1143
X4.6876Y0.3248
X4.6924Y0.8523
X4.7014Y1.3986
X4.7051Y-0.14
X4.7077Y1.5132
X4.7082Y-0.2303
X4.7099Y1.1252
X4.71Y1.26
X4.71Y1.23
X4.71Y1.195
X4.7115Y1.3501
X4.7267Y1.8719
X4.7298Y0.4652
X4.7316Y0.9433
X4.7339Y0.6251
X4.7339Y0.5851
X4.7339Y0.5451
X4.7339Y0.5051
X4.7526Y2.0692
X4.7541Y0.0798
X4.7615Y-0.0799
X4.7626Y-0.3347
X4.7704Y0.7471
X4.7757Y1.6326
X4.7757Y1.5113
X4.7816Y1.0932
X4.782Y0.6152
X4.7876Y1.2995
X4.8016Y0.8415
X4.8074Y1.7543
X4.8159Y2.3237
X4.8215Y1.433
X4.8297Y1.9899
X4.8372Y1.0359
X4.8383Y1.8021
X4.839Y0.6991
X4.8392Y2.101
X4.8481Y0.1132
X4.8655Y0.2488
X4.8676Y0.0128
X4.8688Y1.6883
X4.8878Y2.2509
X4.8942Y1.6008
X4.9045Y1.0415
X4.9091Y2.4192
X4.9091Y2.3433
X4.9114Y0.5153
X4.9215Y0.4137
X4.9227Y0.865
X4.923Y1.1138
X4.9322Y1.2428
X4.9345Y1.1921
X4.9388Y1.8626
X4.9394Y-0.3348
X4.9436Y-0.2398
X4.9448Y1.9507
X4.9537Y0.6325
X5.0219Y-0.0718
X5.0222Y1.7291
X5.0222Y1.4293
X5.0222Y0.6293
X5.0222Y0.4288
X5.0227Y1.5291
X5.0227Y0.7301
X5.0227Y0.5285
X5.0227Y0.2282
X5.0227Y0.1285
X5.0233Y1.0288
X5.0233Y0.329
X5.0238Y1.3285
X5.0238Y0.9296
X5.0243Y0.8288
X5.0243Y0.0282
X5.0266Y1.831
X5.0415Y1.9381
T2
X2.345Y1.4412
X2.4187Y1.4401
X2.4732Y0.77
X2.5068Y0.77
X2.6135Y0.5835
X2.6373Y0.6073
X3.32Y0.74
X3.35Y0.71
X3.4Y1.165
X3.44Y0.914
X3.46Y1.13
X3.4611Y1.0989
X3.54Y0.03
X3.57Y0.79
X3.6749Y0.2349
X3.78Y0.58
X3.9Y0.0
X4.0761Y0.0339
X4.5305Y-0.0463
X4.7497Y-0.0434
T3
X2.5Y1.13
X2.88Y0.84
X3.13Y1.65
X3.13Y1.61
X3.13Y1.57
X3.13Y1.53
X3.15Y1.91
X3.17Y1.54
T4
X1.6Y2.7163
X1.6Y2.5785
X2.5422Y1.685
X2.68Y1.685
T5
X2.174Y1.0984
X2.174Y1.0
X2.3Y1.0984
X2.3Y1.0
T6
X1.3027Y2.7788
X1.3027Y2.6788
X1.3027Y2.5788
X1.3027Y2.4788
X1.3027Y2.3788
X1.3027Y2.2788
X1.3027Y2.1788
X1.3027Y2.0788
X1.3027Y1.9788
X1.3027Y1.8788
X1.3027Y1.7788
X1.3027Y1.6788
X1.3027Y1.5788
X1.3027Y1.4788
X1.3027Y1.3788
X1.3027Y1.2788
X1.3027Y1.1788
X1.3027Y1.0788
X1.3027Y0.9788
X1.3027Y0.8788
X1.3027Y0.7788
X1.3027Y0.6788
X1.3027Y0.5788
X1.3027Y0.4788
X1.3027Y0.3788
X1.3027Y0.2788
X1.3027Y0.1788
X1.3027Y0.0788
X1.3027Y-0.0212
X1.3027Y-0.1212
X1.3027Y-0.2212
X1.3027Y-0.3212
X1.95Y2.74
X2.05Y2.74
X2.15Y2.74
X2.25Y2.74
X2.35Y2.74
X2.45Y2.74
X2.55Y2.74
X2.65Y2.74
X2.75Y2.74
X2.85Y2.74
X2.8664Y2.1931
X2.95Y2.74
X2.9664Y2.1931
X3.05Y2.74
X3.0664Y2.1931
X3.15Y2.74
X3.1664Y2.1931
X3.25Y2.74
X3.2664Y2.1931
X3.35Y2.74
X3.3664Y2.1931
X3.45Y2.74
X3.4664Y2.1931
X3.5664Y2.1931
X3.6664Y2.1931
X3.7664Y2.1931
X3.8427Y-0.2018
X3.8664Y2.1931
X3.9427Y-0.2018
X3.9664Y2.1931
X4.0427Y-0.2018
X4.0664Y2.1931
X4.1427Y-0.2018
X4.1664Y2.1931
X4.2427Y-0.2018
X4.2446Y-0.3267
X4.2664Y2.1931
X4.3427Y-0.2018
X4.3446Y-0.3267
X4.3664Y2.1931
X5.0Y2.779
X5.0Y2.679
X5.0Y2.579
X5.0Y2.479
X5.0Y2.379
X5.0Y2.279
X5.0Y2.179
X5.0Y2.079
X5.0Y1.979
X5.0Y1.879
X5.0Y1.779
X5.0Y1.679
X5.0Y1.579
X5.0Y1.479
X5.0Y1.379
X5.0Y1.279
X5.0Y1.179
X5.0Y1.079
X5.0Y0.979
X5.0Y0.879
X5.0Y0.779
X5.0Y0.679
X5.0Y0.579
X5.0Y0.479
X5.0Y0.379
X5.0Y0.279
X5.0Y0.179
X5.0Y0.079
X5.0Y-0.021
X5.0Y-0.121
X5.0Y-0.221
X5.0Y-0.321
T7
X1.9817Y1.5875
X2.0801Y1.5875
X2.1785Y1.5875
X2.2769Y1.5875
X2.3754Y1.5875
T8
X1.1601Y0.2767
X1.4413Y2.5782
T9
X2.1933Y1.2862
X2.1933Y0.8122
T10
X2.36Y0.485
X2.4Y0.285
X2.44Y0.485
T0
M30
